999
dxfrw 0.6.3
  0
SECTION
  2
HEADER
  9
$ACADVER
  1
AC1021
  9
$DWGCODEPAGE
  3
ANSI_1252
  9
$INSBASE
 10
0
 20
0
 30
0
  9
$EXTMIN
 10
9.999999999999972
 20
-36.0804
 30
0
  9
$EXTMAX
 10
219.66
 20
219.82
 30
0
  9
$LIMMIN
 10
0
 20
0
  9
$LIMMAX
 10
420
 20
297
  9
$ORTHOMODE
 70
    0
  9
$REGENMODE
 70
    1
  9
$FILLMODE
 70
    0
  9
$QTEXTMODE
 70
    0
  9
$MIRRTEXT
 70
    0
  9
$LTSCALE
 40
1
  9
$ATTMODE
 70
    0
  9
$TEXTSIZE
 40
2.5
  9
$TRACEWID
 40
15.68
  9
$TEXTSTYLE
  7
STANDARD
  9
$CLAYER
  8
0
  9
$CELTYPE
  6
BYLAYER
  9
$CECOLOR
 62
  256
  9
$CELTSCALE
 40
1
  9
$DISPSILH
 70
    0
  9
$DIMSCALE
 40
2.5
  9
$DIMASZ
 40
2.5
  9
$DIMEXO
 40
0.625
  9
$DIMDLI
 40
3.75
  9
$DIMRND
 40
0
  9
$DIMDLE
 40
0
  9
$DIMEXE
 40
1.25
  9
$DIMTP
 40
0
  9
$DIMTM
 40
0
  9
$DIMTXT
 40
2.5
  9
$DIMCEN
 40
2.5
  9
$DIMTSZ
 40
0
  9
$DIMTOL
 70
    0
  9
$DIMLIM
 70
    0
  9
$DIMTIH
 70
    0
  9
$DIMTOH
 70
    0
  9
$DIMSE1
 70
    0
  9
$DIMSE2
 70
    0
  9
$DIMTAD
 70
    1
  9
$DIMZIN
 70
    8
  9
$DIMBLK
  1

  9
$DIMASO
 70
    1
  9
$DIMSHO
 70
    1
  9
$DIMPOST
  1

  9
$DIMAPOST
  1

  9
$DIMALT
 70
    0
  9
$DIMALTD
 70
    3
  9
$DIMALTF
 40
0.03937
  9
$DIMLFAC
 40
1
  9
$DIMTOFL
 70
    1
  9
$DIMTVP
 40
0
  9
$DIMTIX
 70
    0
  9
$DIMSOXD
 70
    0
  9
$DIMSAH
 70
    0
  9
$DIMBLK1
  1

  9
$DIMBLK2
  1

  9
$DIMSTYLE
  2
Standard
  9
$DIMCLRD
 70
    0
  9
$DIMCLRE
 70
    0
  9
$DIMCLRT
 70
    0
  9
$DIMTFAC
 40
1
  9
$DIMGAP
 40
0.625
  9
$DIMJUST
 70
    0
  9
$DIMSD1
 70
    0
  9
$DIMSD2
 70
    0
  9
$DIMTOLJ
 70
    0
  9
$DIMTZIN
 70
    8
  9
$DIMALTZ
 70
    0
  9
$DIMALTTZ
 70
    0
  9
$DIMUPT
 70
    0
  9
$DIMDEC
 70
    2
  9
$DIMTDEC
 70
    2
  9
$DIMALTU
 70
    2
  9
$DIMALTTD
 70
    3
  9
$DIMTXSTY
  7
STANDARD
  9
$DIMAUNIT
 70
    0
  9
$DIMADEC
 70
    0
  9
$DIMALTRND
 40
0
  9
$DIMAZIN
 70
    0
  9
$DIMDSEP
 70
   44
  9
$DIMATFIT
 70
    3
  9
$DIMFRAC
 70
    0
  9
$DIMLDRBLK
  1
STANDARD
  9
$DIMLUNIT
 70
    2
  9
$DIMLWD
 70
   -2
  9
$DIMLWE
 70
   -2
  9
$DIMTMOVE
 70
    0
  9
$DIMFXL
 40
1
  9
$DIMFXLON
 70
    0
  9
$DIMJOGANG
 40
0.7854
  9
$DIMTFILL
 70
    0
  9
$DIMTFILLCLR
 70
    0
  9
$DIMARCSYM
 70
    0
  9
$DIMLTYPE
  6

  9
$DIMLTEX1
  6

  9
$DIMLTEX2
  6

  9
$LUNITS
 70
    2
  9
$LUPREC
 70
    4
  9
$SKETCHINC
 40
1
  9
$FILLETRAD
 40
0
  9
$AUNITS
 70
    0
  9
$AUPREC
 70
    2
  9
$MENU
  1
.
  9
$ELEVATION
 40
0
  9
$PELEVATION
 40
0
  9
$THICKNESS
 40
0
  9
$LIMCHECK
 70
    0
  9
$CHAMFERA
 40
0
  9
$CHAMFERB
 40
0
  9
$CHAMFERC
 40
0
  9
$CHAMFERD
 40
0
  9
$SKPOLY
 70
    0
  9
$USRTIMER
 70
    1
  9
$ANGBASE
 50
0
  9
$ANGDIR
 70
    0
  9
$PDMODE
 70
   34
  9
$PDSIZE
 40
0
  9
$PLINEWID
 40
0
  9
$SPLFRAME
 70
    1
  9
$SPLINETYPE
 70
    2
  9
$SPLINESEGS
 70
    8
  9
$HANDSEED
  5
20000
  9
$SURFTAB1
 70
    6
  9
$SURFTAB2
 70
    6
  9
$SURFTYPE
 70
    6
  9
$SURFU
 70
    6
  9
$SURFV
 70
    6
  9
$UCSBASE
  2

  9
$UCSNAME
  2

  9
$UCSORG
 10
0
 20
0
 30
0
  9
$UCSXDIR
 10
1
 20
0
 30
0
  9
$UCSYDIR
 10
0
 20
1
 30
0
  9
$UCSORTHOREF
  2

  9
$UCSORTHOVIEW
 70
    0
  9
$UCSORGTOP
 10
0
 20
0
 30
0
  9
$UCSORGBOTTOM
 10
0
 20
0
 30
0
  9
$UCSORGLEFT
 10
0
 20
0
 30
0
  9
$UCSORGRIGHT
 10
0
 20
0
 30
0
  9
$UCSORGFRONT
 10
0
 20
0
 30
0
  9
$UCSORGBACK
 10
0
 20
0
 30
0
  9
$PUCSBASE
  2

  9
$PUCSNAME
  2

  9
$PUCSORG
 10
0
 20
0
 30
0
  9
$PUCSXDIR
 10
1
 20
0
 30
0
  9
$PUCSYDIR
 10
0
 20
1
 30
0
  9
$PUCSORTHOREF
  2

  9
$PUCSORTHOVIEW
 70
    0
  9
$PUCSORGTOP
 10
0
 20
0
 30
0
  9
$PUCSORGBOTTOM
 10
0
 20
0
 30
0
  9
$PUCSORGLEFT
 10
0
 20
0
 30
0
  9
$PUCSORGRIGHT
 10
0
 20
0
 30
0
  9
$PUCSORGFRONT
 10
0
 20
0
 30
0
  9
$PUCSORGBACK
 10
0
 20
0
 30
0
  9
$USERI1
 70
    0
  9
$USERI2
 70
    0
  9
$USERI3
 70
    0
  9
$USERI4
 70
    0
  9
$USERI5
 70
    0
  9
$USERR1
 40
0
  9
$USERR2
 40
0
  9
$USERR3
 40
0
  9
$USERR4
 40
0
  9
$USERR5
 40
0
  9
$WORLDVIEW
 70
    1
  9
$SHADEDGE
 70
    3
  9
$SHADEDIF
 70
   70
  9
$TILEMODE
 70
    1
  9
$MAXACTVP
 70
   64
  9
$PINSBASE
 10
0
 20
0
 30
0
  9
$PLIMCHECK
 70
    0
  9
$PEXTMIN
 10
0
 20
0
 30
0
  9
$PEXTMAX
 10
0
 20
0
 30
0
  9
$GRIDMODE
 70
    1
  9
$SNAPSTYLE
 70
    0
  9
$PLIMMIN
 10
0
 20
0
  9
$PLIMMAX
 10
210
 20
297
  9
$UNITMODE
 70
    0
  9
$VISRETAIN
 70
    1
  9
$PLINEGEN
 70
    0
  9
$PSLTSCALE
 70
    1
  9
$TREEDEPTH
 70
 3020
  9
$CMLSTYLE
  2
Standard
  9
$CMLJUST
 70
    0
  9
$CMLSCALE
 40
20
  9
$PROXYGRAPHICS
 70
    1
  9
$MEASUREMENT
 70
    1
  9
$CELWEIGHT
370
   -1
  9
$ENDCAPS
280
    0
  9
$JOINSTYLE
280
    0
  9
$LWDISPLAY
290
    0
  9
$INSUNITS
 70
    4
  9
$HYPERLINKBASE
  1

  9
$STYLESHEET
  1

  9
$XEDIT
290
    1
  9
$CEPSNTYPE
380
    0
  9
$PSTYLEMODE
290
    1
  9
$EXTNAMES
290
    1
  9
$PSVPSCALE
 40
1
  9
$OLESTARTUP
290
    0
  9
$SORTENTS
280
  127
  9
$INDEXCTL
280
    0
  9
$HIDETEXT
280
    1
  9
$XCLIPFRAME
290
    0
  9
$HALOGAP
280
    0
  9
$OBSCOLOR
 70
  257
  9
$OBSLTYPE
280
    0
  9
$INTERSECTIONDISPLAY
280
    0
  9
$INTERSECTIONCOLOR
 70
  257
  9
$DIMASSOC
280
    1
  9
$PROJECTNAME
  1

  9
$CAMERADISPLAY
290
    0
  9
$LENSLENGTH
 40
50
  9
$CAMERAHEIGHT
 40
0
  9
$STEPSPERSEC
 40
2
  9
$STEPSIZE
 40
50
  9
$3DDWFPREC
 40
2
  9
$PSOLWIDTH
 40
5
  9
$PSOLHEIGHT
 40
80
  9
$LOFTANG1
 40
1.570796326794897
  9
$LOFTANG2
 40
1.570796326794897
  9
$LOFTMAG1
 40
0
  9
$LOFTMAG2
 40
0
  9
$LOFTPARAM
 70
    7
  9
$LOFTNORMALS
280
    1
  9
$LATITUDE
 40
1
  9
$LONGITUDE
 40
1
  9
$NORTHDIRECTION
 40
0
  9
$TIMEZONE
 70
-8000
  9
$LIGHTGLYPHDISPLAY
280
    1
  9
$TILEMODELIGHTSYNCH
280
    1
  9
$SOLIDHIST
280
    1
  9
$SHOWHIST
280
    1
  9
$DWFFRAME
280
    2
  9
$DGNFRAME
280
    0
  9
$REALWORLDSCALE
290
    1
  9
$INTERFERECOLOR
 62
    1
  9
$CSHADOW
280
    0
  9
$SHADOWPLANELOCATION
 40
0
  0
ENDSEC
  0
SECTION
  2
CLASSES
  0
ENDSEC
  0
SECTION
  2
TABLES
  0
TABLE
  2
VPORT
  5
8
330
0
100
AcDbSymbolTable
 70
    1
  0
VPORT
  5
31
330
2
100
AcDbSymbolTableRecord
100
AcDbViewportTableRecord
  2
*ACTIVE
 70
    0
 10
0
 20
0
 11
1
 21
1
 12
293.1078812457233
 22
162.2306992632326
 13
0
 23
0
 14
10
 24
10
 15
10
 25
10
 16
0
 26
0
 36
1
 17
0
 27
0
 37
0
 40
563.8882577612213
 41
1.850042122999157
 42
50
 43
0
 44
0
 50
0
 51
0
 71
    0
 72
  100
 73
    1
 74
    3
 75
    0
 76
    1
 77
    0
 78
    0
281
    0
 65
    1
110
0
120
0
130
0
111
1
121
0
131
0
112
0
122
1
132
0
 79
    0
146
0
348
10020
 60
    7
 61
    5
292
1
282
    1
141
0
142
0
 63
  250
421
3358443
  0
ENDTAB
  0
TABLE
  2
LTYPE
  5
5
330
0
100
AcDbSymbolTable
 70
    4
  0
LTYPE
  5
14
330
5
100
AcDbSymbolTableRecord
100
AcDbLinetypeTableRecord
  2
ByBlock
 70
    0
  3

 72
   65
 73
    0
 40
0
  0
LTYPE
  5
15
330
5
100
AcDbSymbolTableRecord
100
AcDbLinetypeTableRecord
  2
ByLayer
 70
    0
  3

 72
   65
 73
    0
 40
0
  0
LTYPE
  5
16
330
5
100
AcDbSymbolTableRecord
100
AcDbLinetypeTableRecord
  2
Continuous
 70
    0
  3
Solid line
 72
   65
 73
    0
 40
0
  0
LTYPE
  5
32
330
5
100
AcDbSymbolTableRecord
100
AcDbLinetypeTableRecord
  2
DOT
 70
    0
  3
Dot . . . . . . . . . . . . . . . . . . . . . .
 72
   65
 73
    2
 40
6.35
 49
0
 74
    0
 49
-6.35
 74
    0
  0
LTYPE
  5
33
330
5
100
AcDbSymbolTableRecord
100
AcDbLinetypeTableRecord
  2
DOTTINY
 70
    0
  3
Dot (.15x) .....................................
 72
   65
 73
    2
 40
0.9525
 49
0
 74
    0
 49
-0.9525
 74
    0
  0
LTYPE
  5
34
330
5
100
AcDbSymbolTableRecord
100
AcDbLinetypeTableRecord
  2
DOT2
 70
    0
  3
Dot (.5x) .....................................
 72
   65
 73
    2
 40
3.175
 49
0
 74
    0
 49
-3.175
 74
    0
  0
LTYPE
  5
35
330
5
100
AcDbSymbolTableRecord
100
AcDbLinetypeTableRecord
  2
DOTX2
 70
    0
  3
Dot (2x) .  .  .  .  .  .  .  .  .  .  .  .  .
 72
   65
 73
    2
 40
12.7
 49
0
 74
    0
 49
-12.7
 74
    0
  0
LTYPE
  5
36
330
5
100
AcDbSymbolTableRecord
100
AcDbLinetypeTableRecord
  2
DASHED
 70
    0
  3
Dashed _ _ _ _ _ _ _ _ _ _ _ _ _ _ _ _ _
 72
   65
 73
    2
 40
19.05
 49
12.7
 74
    0
 49
-6.35
 74
    0
  0
LTYPE
  5
37
330
5
100
AcDbSymbolTableRecord
100
AcDbLinetypeTableRecord
  2
DASHEDTINY
 70
    0
  3
Dashed (.15x) _ _ _ _ _ _ _ _ _ _ _ _ _ _ _ _ _
 72
   65
 73
    2
 40
2.8575
 49
1.905
 74
    0
 49
-0.9525
 74
    0
  0
LTYPE
  5
38
330
5
100
AcDbSymbolTableRecord
100
AcDbLinetypeTableRecord
  2
DASHED2
 70
    0
  3
Dashed (.5x) _ _ _ _ _ _ _ _ _ _ _ _ _ _ _ _ _
 72
   65
 73
    2
 40
9.524999999999999
 49
6.35
 74
    0
 49
-3.175
 74
    0
  0
LTYPE
  5
39
330
5
100
AcDbSymbolTableRecord
100
AcDbLinetypeTableRecord
  2
DASHEDX2
 70
    0
  3
Dashed (2x) ____  ____  ____  ____  ____  ___
 72
   65
 73
    2
 40
38.09999999999999
 49
25.4
 74
    0
 49
-12.7
 74
    0
  0
LTYPE
  5
3A
330
5
100
AcDbSymbolTableRecord
100
AcDbLinetypeTableRecord
  2
DASHDOT
 70
    0
  3
Dash dot __ . __ . __ . __ . __ . __ . __ . __
 72
   65
 73
    4
 40
25.4
 49
12.7
 74
    0
 49
-6.35
 74
    0
 49
0
 74
    0
 49
-6.35
 74
    0
  0
LTYPE
  5
3B
330
5
100
AcDbSymbolTableRecord
100
AcDbLinetypeTableRecord
  2
DASHDOTTINY
 70
    0
  3
Dash dot (.15x) _._._._._._._._._._._._._._._.
 72
   65
 73
    4
 40
3.81
 49
1.905
 74
    0
 49
-0.9525
 74
    0
 49
0
 74
    0
 49
-0.9525
 74
    0
  0
LTYPE
  5
3C
330
5
100
AcDbSymbolTableRecord
100
AcDbLinetypeTableRecord
  2
DASHDOT2
 70
    0
  3
Dash dot (.5x) _._._._._._._._._._._._._._._.
 72
   65
 73
    4
 40
12.7
 49
6.35
 74
    0
 49
-3.175
 74
    0
 49
0
 74
    0
 49
-3.175
 74
    0
  0
LTYPE
  5
3D
330
5
100
AcDbSymbolTableRecord
100
AcDbLinetypeTableRecord
  2
DASHDOTX2
 70
    0
  3
Dash dot (2x) ____  .  ____  .  ____  .  ___
 72
   65
 73
    4
 40
50.8
 49
25.4
 74
    0
 49
-12.7
 74
    0
 49
0
 74
    0
 49
-12.7
 74
    0
  0
LTYPE
  5
3E
330
5
100
AcDbSymbolTableRecord
100
AcDbLinetypeTableRecord
  2
DIVIDE
 70
    0
  3
Divide ____ . . ____ . . ____ . . ____ . . ____
 72
   65
 73
    6
 40
31.75
 49
12.7
 74
    0
 49
-6.35
 74
    0
 49
0
 74
    0
 49
-6.35
 74
    0
 49
0
 74
    0
 49
-6.35
 74
    0
  0
LTYPE
  5
3F
330
5
100
AcDbSymbolTableRecord
100
AcDbLinetypeTableRecord
  2
DIVIDETINY
 70
    0
  3
Divide (.15x) __..__..__..__..__..__..__..__.._
 72
   65
 73
    6
 40
4.7625
 49
1.905
 74
    0
 49
-0.9525
 74
    0
 49
0
 74
    0
 49
-0.9525
 74
    0
 49
0
 74
    0
 49
-0.9525
 74
    0
  0
LTYPE
  5
40
330
5
100
AcDbSymbolTableRecord
100
AcDbLinetypeTableRecord
  2
DIVIDE2
 70
    0
  3
Divide (.5x) __..__..__..__..__..__..__..__.._
 72
   65
 73
    6
 40
15.875
 49
6.35
 74
    0
 49
-3.175
 74
    0
 49
0
 74
    0
 49
-3.175
 74
    0
 49
0
 74
    0
 49
-3.175
 74
    0
  0
LTYPE
  5
41
330
5
100
AcDbSymbolTableRecord
100
AcDbLinetypeTableRecord
  2
DIVIDEX2
 70
    0
  3
Divide (2x) ________  .  .  ________  .  .  _
 72
   65
 73
    6
 40
63.5
 49
25.4
 74
    0
 49
-12.7
 74
    0
 49
0
 74
    0
 49
-12.7
 74
    0
 49
0
 74
    0
 49
-12.7
 74
    0
  0
LTYPE
  5
42
330
5
100
AcDbSymbolTableRecord
100
AcDbLinetypeTableRecord
  2
BORDER
 70
    0
  3
Border __ __ . __ __ . __ __ . __ __ . __ __ .
 72
   65
 73
    6
 40
44.45
 49
12.7
 74
    0
 49
-6.35
 74
    0
 49
12.7
 74
    0
 49
-6.35
 74
    0
 49
0
 74
    0
 49
-6.35
 74
    0
  0
LTYPE
  5
43
330
5
100
AcDbSymbolTableRecord
100
AcDbLinetypeTableRecord
  2
BORDERTINY
 70
    0
  3
Border (.15x) __.__.__.__.__.__.__.__.__.__.__.
 72
   65
 73
    6
 40
6.6675
 49
1.905
 74
    0
 49
-0.9525
 74
    0
 49
1.905
 74
    0
 49
-0.9525
 74
    0
 49
0
 74
    0
 49
-0.9525
 74
    0
  0
LTYPE
  5
44
330
5
100
AcDbSymbolTableRecord
100
AcDbLinetypeTableRecord
  2
BORDER2
 70
    0
  3
Border (.5x) __.__.__.__.__.__.__.__.__.__.__.
 72
   65
 73
    6
 40
22.225
 49
6.35
 74
    0
 49
-3.175
 74
    0
 49
6.35
 74
    0
 49
-3.175
 74
    0
 49
0
 74
    0
 49
-3.175
 74
    0
  0
LTYPE
  5
45
330
5
100
AcDbSymbolTableRecord
100
AcDbLinetypeTableRecord
  2
BORDERX2
 70
    0
  3
Border (2x) ____  ____  .  ____  ____  .  ___
 72
   65
 73
    6
 40
88.89999999999999
 49
25.4
 74
    0
 49
-12.7
 74
    0
 49
25.4
 74
    0
 49
-12.7
 74
    0
 49
0
 74
    0
 49
-12.7
 74
    0
  0
LTYPE
  5
46
330
5
100
AcDbSymbolTableRecord
100
AcDbLinetypeTableRecord
  2
CENTER
 70
    0
  3
Center ____ _ ____ _ ____ _ ____ _ ____ _ ____
 72
   65
 73
    4
 40
50.8
 49
31.75
 74
    0
 49
-6.35
 74
    0
 49
6.35
 74
    0
 49
-6.35
 74
    0
  0
LTYPE
  5
47
330
5
100
AcDbSymbolTableRecord
100
AcDbLinetypeTableRecord
  2
CENTERTINY
 70
    0
  3
Center (.15x) ___ _ ___ _ ___ _ ___ _ ___ _ ___
 72
   65
 73
    4
 40
7.619999999999999
 49
4.7625
 74
    0
 49
-0.9525
 74
    0
 49
0.9525
 74
    0
 49
-0.9525
 74
    0
  0
LTYPE
  5
48
330
5
100
AcDbSymbolTableRecord
100
AcDbLinetypeTableRecord
  2
CENTER2
 70
    0
  3
Center (.5x) ___ _ ___ _ ___ _ ___ _ ___ _ ___
 72
   65
 73
    4
 40
28.575
 49
19.05
 74
    0
 49
-3.175
 74
    0
 49
3.175
 74
    0
 49
-3.175
 74
    0
  0
LTYPE
  5
49
330
5
100
AcDbSymbolTableRecord
100
AcDbLinetypeTableRecord
  2
CENTERX2
 70
    0
  3
Center (2x) ________  __  ________  __  _____
 72
   65
 73
    4
 40
101.6
 49
63.5
 74
    0
 49
-12.7
 74
    0
 49
12.7
 74
    0
 49
-12.7
 74
    0
  0
ENDTAB
  0
TABLE
  2
LAYER
  5
2
330
0
100
AcDbSymbolTable
 70
    1
  0
LAYER
  5
10
330
2
100
AcDbSymbolTableRecord
100
AcDbLayerTableRecord
  2
0
 70
    0
 62
    7
  6
CONTINUOUS
370
   -3
390
F
  0
ENDTAB
  0
TABLE
  2
STYLE
  5
3
330
0
100
AcDbSymbolTable
 70
    3
  0
STYLE
  5
4A
330
2
100
AcDbSymbolTableRecord
100
AcDbTextStyleTableRecord
  2
Standard
 70
    0
 40
0
 41
1
 50
0
 71
    0
 42
1
  3
txt
  4

  0
ENDTAB
  0
TABLE
  2
VIEW
  5
6
330
0
100
AcDbSymbolTable
 70
    0
  0
ENDTAB
  0
TABLE
  2
UCS
  5
7
330
0
100
AcDbSymbolTable
 70
    0
  0
ENDTAB
  0
TABLE
  2
APPID
  5
9
330
0
100
AcDbSymbolTable
 70
    1
  0
APPID
  5
12
330
9
100
AcDbSymbolTableRecord
100
AcDbRegAppTableRecord
  2
ACAD
 70
    0
  0
APPID
  5
4B
330
9
100
AcDbSymbolTableRecord
100
AcDbRegAppTableRecord
  2
LibreCad
 70
    0
  0
ENDTAB
  0
TABLE
  2
DIMSTYLE
  5
A
330
0
100
AcDbSymbolTable
 70
    1
100
AcDbDimStyleTable
 71
    1
  0
DIMSTYLE
105
4C
330
A
100
AcDbSymbolTableRecord
100
AcDbDimStyleTableRecord
  2
Standard
 70
    0
 40
2.5
 41
2.5
 42
0.625
 43
0.38
 44
1.25
 45
0
 46
0
 47
0
 48
0
 49
1
140
2.5
141
0.09
142
0
143
25.4
144
1
145
0
146
1
147
0.625
148
0
 71
    0
 72
    0
 73
    0
 74
    1
 75
    0
 76
    0
 77
    0
 78
    8
 79
    0
170
    0
171
    2
172
    0
173
    0
174
    0
175
    0
176
    0
177
    0
178
    0
179
    0
271
    2
272
    4
273
    2
274
    2
275
    0
276
    0
277
    2
278
   44
279
    0
280
    0
281
    0
282
    0
283
    1
284
    0
285
    0
286
    0
288
    0
289
    3
340
STANDARD
341

371
   -2
372
   -2
  0
ENDTAB
  0
TABLE
  2
BLOCK_RECORD
  5
1
330
0
100
AcDbSymbolTable
 70
    2
  0
BLOCK_RECORD
  5
1F
330
1
100
AcDbSymbolTableRecord
100
AcDbBlockTableRecord
  2
*Model_Space
 70
    0
280
    1
281
    0
  0
BLOCK_RECORD
  5
1E
330
1
100
AcDbSymbolTableRecord
100
AcDbBlockTableRecord
  2
*Paper_Space
 70
    0
280
    1
281
    0
  0
ENDTAB
  0
ENDSEC
  0
SECTION
  2
BLOCKS
  0
BLOCK
  5
20
330
1F
100
AcDbEntity
  8
0
100
AcDbBlockBegin
  2
*Model_Space
 70
    0
 10
0
 20
0
 30
0
  3
*Model_Space
  1

  0
ENDBLK
  5
21
330
1F
100
AcDbEntity
  8
0
100
AcDbBlockEnd
  0
BLOCK
  5
1C
330
1B
100
AcDbEntity
  8
0
100
AcDbBlockBegin
  2
*Paper_Space
 70
    0
 10
0
 20
0
 30
0
  3
*Paper_Space
  1

  0
ENDBLK
  5
1D
330
1F
100
AcDbEntity
  8
0
100
AcDbBlockEnd
  0
ENDSEC
  0
SECTION
  2
ENTITIES
  0
LWPOLYLINE
  5
4D
100
AcDbEntity
  8
0
  6
ByLayer
 62
    0
370
   -1
100
AcDbPolyline
 90
  808
 70
    1
 43
0
 10
13.0404
 20
119.741
 10
22.9995
 20
119.741
 10
23.0022
 20
119.741
 10
23.0132
 20
119.756
 10
22.9995
 20
119.745
 10
22.9995
 20
119.741
 10
22.9995
 20
116.78
 10
22.9995
 20
116.771
 10
23.0284
 20
116.741
 10
23.0394
 20
116.741
 10
29.0394
 20
116.741
 10
29.0491
 20
116.741
 10
29.0794
 20
116.771
 10
29.0794
 20
116.78
 10
29.0794
 20
119.741
 10
29.0794
 20
119.745
 10
29.0642
 20
119.756
 10
29.0752
 20
119.741
 10
29.0794
 20
119.741
 10
35.0008
 20
119.741
 10
35.0036
 20
119.741
 10
35.0146
 20
119.756
 10
35.0008
 20
119.745
 10
35.0008
 20
119.741
 10
35.0008
 20
116.78
 10
35.0008
 20
116.771
 10
35.0297
 20
116.741
 10
35.0394
 20
116.741
 10
41.0408
 20
116.741
 10
41.0503
 20
116.741
 10
41.0792
 20
116.771
 10
41.0792
 20
116.78
 10
41.0792
 20
119.741
 10
41.0792
 20
119.745
 10
41.064
 20
119.756
 10
41.0753
 20
119.741
 10
41.0792
 20
119.741
 10
46.9995
 20
119.741
 10
47.002
 20
119.741
 10
47.0147
 20
119.756
 10
46.9995
 20
119.745
 10
46.9995
 20
119.741
 10
46.9995
 20
116.78
 10
46.9995
 20
116.771
 10
47.0299
 20
116.741
 10
47.0408
 20
116.741
 10
53.0408
 20
116.741
 10
53.0504
 20
116.741
 10
53.0807
 20
116.771
 10
53.0807
 20
116.78
 10
53.0807
 20
119.741
 10
53.0807
 20
119.745
 10
53.0655
 20
119.756
 10
53.0765
 20
119.741
 10
53.0807
 20
119.741
 10
58.9993
 20
119.741
 10
59.0021
 20
119.741
 10
59.013
 20
119.756
 10
58.9993
 20
119.745
 10
58.9993
 20
119.741
 10
58.9993
 20
116.78
 10
58.9993
 20
116.771
 10
59.0282
 20
116.741
 10
59.0391
 20
116.741
 10
65.03919999999999
 20
116.741
 10
65.04900000000001
 20
116.741
 10
65.0804
 20
116.771
 10
65.0804
 20
116.78
 10
65.0804
 20
119.741
 10
65.0804
 20
119.745
 10
65.0642
 20
119.756
 10
65.0766
 20
119.741
 10
65.0804
 20
119.741
 10
71.0008
 20
119.741
 10
71.00360000000001
 20
119.741
 10
71.0145
 20
119.756
 10
71.0008
 20
119.745
 10
71.0008
 20
119.741
 10
71.0008
 20
116.78
 10
71.0008
 20
116.771
 10
71.02970000000001
 20
116.741
 10
71.03919999999999
 20
116.741
 10
77.0407
 20
116.741
 10
77.0502
 20
116.741
 10
77.0791
 20
116.771
 10
77.0791
 20
116.78
 10
77.0791
 20
119.741
 10
77.0791
 20
119.745
 10
77.06399999999999
 20
119.756
 10
77.0749
 20
119.741
 10
77.0791
 20
119.741
 10
83.0005
 20
119.741
 10
83.0033
 20
119.741
 10
83.01430000000001
 20
119.756
 10
83.0005
 20
119.745
 10
83.0005
 20
119.741
 10
83.0005
 20
116.78
 10
83.0005
 20
116.771
 10
83.0294
 20
116.741
 10
83.0407
 20
116.741
 10
89.04040000000001
 20
116.741
 10
89.05029999999999
 20
116.741
 10
89.0806
 20
116.771
 10
89.0806
 20
116.78
 10
89.0806
 20
119.741
 10
89.0806
 20
119.745
 10
89.0655
 20
119.756
 10
89.07640000000001
 20
119.741
 10
89.0806
 20
119.741
 10
94.9992
 20
119.741
 10
95.002
 20
119.741
 10
95.01430000000001
 20
119.756
 10
94.9992
 20
119.745
 10
94.9992
 20
119.741
 10
94.9992
 20
116.78
 10
94.9992
 20
116.771
 10
95.0295
 20
116.741
 10
95.04049999999999
 20
116.741
 10
101.04
 20
116.741
 10
101.05
 20
116.741
 10
101.08
 20
116.771
 10
101.08
 20
116.78
 10
101.08
 20
119.741
 10
101.08
 20
119.745
 10
101.065
 20
119.756
 10
101.076
 20
119.741
 10
101.08
 20
119.741
 10
107.001
 20
119.741
 10
107.003
 20
119.741
 10
107.014
 20
119.756
 10
107.001
 20
119.745
 10
107.001
 20
119.741
 10
107.001
 20
116.78
 10
107.001
 20
116.771
 10
107.03
 20
116.741
 10
107.041
 20
116.741
 10
113.041
 20
116.741
 10
113.05
 20
116.741
 10
113.08
 20
116.771
 10
113.08
 20
116.78
 10
113.08
 20
119.741
 10
113.08
 20
119.745
 10
113.065
 20
119.756
 10
113.076
 20
119.741
 10
113.08
 20
119.741
 10
119
 20
119.741
 10
119.003
 20
119.741
 10
119.014
 20
119.756
 10
119
 20
119.745
 10
119
 20
119.741
 10
119
 20
116.78
 10
119
 20
116.771
 10
119.029
 20
116.741
 10
119.041
 20
116.741
 10
125.04
 20
116.741
 10
125.05
 20
116.741
 10
125.081
 20
116.771
 10
125.081
 20
116.78
 10
125.081
 20
119.741
 10
125.081
 20
119.745
 10
125.065
 20
119.756
 10
125.076
 20
119.741
 10
125.081
 20
119.741
 10
131
 20
119.741
 10
131.003
 20
119.741
 10
131.014
 20
119.756
 10
131
 20
119.745
 10
131
 20
119.741
 10
131
 20
116.78
 10
131
 20
116.771
 10
131.029
 20
116.741
 10
131.04
 20
116.741
 10
137.04
 20
116.741
 10
137.05
 20
116.741
 10
137.08
 20
116.771
 10
137.08
 20
116.78
 10
137.08
 20
119.741
 10
137.08
 20
119.745
 10
137.065
 20
119.756
 10
137.076
 20
119.741
 10
137.08
 20
119.741
 10
143
 20
119.741
 10
143.003
 20
119.741
 10
143.014
 20
119.756
 10
143
 20
119.745
 10
143
 20
119.741
 10
143
 20
116.78
 10
143
 20
116.771
 10
143.03
 20
116.741
 10
143.04
 20
116.741
 10
149.04
 20
116.741
 10
149.05
 20
116.741
 10
149.08
 20
116.771
 10
149.08
 20
116.78
 10
149.08
 20
119.741
 10
149.08
 20
119.745
 10
149.065
 20
119.756
 10
149.076
 20
119.741
 10
149.08
 20
119.741
 10
155
 20
119.741
 10
155.003
 20
119.741
 10
155.014
 20
119.756
 10
155
 20
119.745
 10
155
 20
119.741
 10
155
 20
116.78
 10
155
 20
116.771
 10
155.029
 20
116.741
 10
155.04
 20
116.741
 10
161.04
 20
116.741
 10
161.05
 20
116.741
 10
161.08
 20
116.771
 10
161.08
 20
116.78
 10
161.08
 20
119.741
 10
161.08
 20
119.745
 10
161.065
 20
119.756
 10
161.076
 20
119.741
 10
161.08
 20
119.741
 10
167
 20
119.741
 10
167.003
 20
119.741
 10
167.014
 20
119.756
 10
167
 20
119.745
 10
167
 20
119.741
 10
167
 20
116.78
 10
167
 20
116.771
 10
167.029
 20
116.741
 10
167.04
 20
116.741
 10
173.04
 20
116.741
 10
173.05
 20
116.741
 10
173.08
 20
116.771
 10
173.08
 20
116.78
 10
173.08
 20
119.741
 10
173.08
 20
119.745
 10
173.065
 20
119.756
 10
173.076
 20
119.741
 10
173.08
 20
119.741
 10
179
 20
119.741
 10
179.003
 20
119.741
 10
179.014
 20
119.756
 10
179
 20
119.745
 10
179
 20
119.741
 10
179
 20
116.78
 10
179
 20
116.771
 10
179.029
 20
116.741
 10
179.04
 20
116.741
 10
185.04
 20
116.741
 10
185.05
 20
116.741
 10
185.08
 20
116.771
 10
185.08
 20
116.78
 10
185.08
 20
119.741
 10
185.08
 20
119.745
 10
185.065
 20
119.756
 10
185.076
 20
119.741
 10
185.08
 20
119.741
 10
191
 20
119.741
 10
191.003
 20
119.741
 10
191.014
 20
119.756
 10
191
 20
119.745
 10
191
 20
119.741
 10
191
 20
116.78
 10
191
 20
116.771
 10
191.029
 20
116.741
 10
191.04
 20
116.741
 10
197.04
 20
116.741
 10
197.05
 20
116.741
 10
197.08
 20
116.771
 10
197.08
 20
116.78
 10
197.08
 20
119.741
 10
197.08
 20
119.745
 10
197.065
 20
119.756
 10
197.076
 20
119.741
 10
197.08
 20
119.741
 10
207.041
 20
119.741
 10
207.05
 20
119.741
 10
207.079
 20
119.771
 10
207.079
 20
119.78
 10
207.079
 20
129.241
 10
207.079
 20
129.245
 10
207.064
 20
129.256
 10
207.075
 20
129.241
 10
207.079
 20
129.241
 10
210.041
 20
129.241
 10
210.05
 20
129.241
 10
210.081
 20
129.271
 10
210.081
 20
129.281
 10
210.081
 20
135.281
 10
210.081
 20
135.292
 10
210.05
 20
135.321
 10
210.041
 20
135.321
 10
207.079
 20
135.321
 10
207.075
 20
135.321
 10
207.064
 20
135.307
 10
207.079
 20
135.318
 10
207.079
 20
135.321
 10
207.079
 20
141.239
 10
207.079
 20
141.243
 10
207.064
 20
141.256
 10
207.075
 20
141.239
 10
207.079
 20
141.239
 10
210.041
 20
141.239
 10
210.05
 20
141.239
 10
210.081
 20
141.271
 10
210.081
 20
141.28
 10
210.081
 20
147.28
 10
210.081
 20
147.292
 10
210.05
 20
147.321
 10
210.041
 20
147.321
 10
207.079
 20
147.321
 10
207.075
 20
147.321
 10
207.064
 20
147.307
 10
207.079
 20
147.318
 10
207.079
 20
147.321
 10
207.079
 20
153.241
 10
207.079
 20
153.245
 10
207.064
 20
153.256
 10
207.075
 20
153.241
 10
207.079
 20
153.241
 10
210.041
 20
153.241
 10
210.05
 20
153.241
 10
210.081
 20
153.27
 10
210.081
 20
153.279
 10
210.081
 20
159.281
 10
210.081
 20
159.292
 10
210.05
 20
159.32
 10
210.041
 20
159.32
 10
207.079
 20
159.32
 10
207.075
 20
159.32
 10
207.064
 20
159.307
 10
207.079
 20
159.318
 10
207.079
 20
159.32
 10
207.079
 20
165.24
 10
207.079
 20
165.245
 10
207.064
 20
165.256
 10
207.075
 20
165.24
 10
207.079
 20
165.24
 10
210.041
 20
165.24
 10
210.05
 20
165.24
 10
210.081
 20
165.271
 10
210.081
 20
165.281
 10
210.081
 20
171.281
 10
210.081
 20
171.292
 10
210.05
 20
171.321
 10
210.041
 20
171.321
 10
207.079
 20
171.321
 10
207.075
 20
171.321
 10
207.064
 20
171.307
 10
207.079
 20
171.318
 10
207.079
 20
171.321
 10
207.079
 20
177.24
 10
207.079
 20
177.245
 10
207.064
 20
177.256
 10
207.075
 20
177.24
 10
207.079
 20
177.24
 10
210.041
 20
177.24
 10
210.05
 20
177.24
 10
210.081
 20
177.271
 10
210.081
 20
177.28
 10
210.081
 20
183.28
 10
210.081
 20
183.291
 10
210.05
 20
183.32
 10
210.041
 20
183.32
 10
207.079
 20
183.32
 10
207.075
 20
183.32
 10
207.064
 20
183.307
 10
207.079
 20
183.318
 10
207.079
 20
183.32
 10
207.079
 20
189.241
 10
207.079
 20
189.244
 10
207.064
 20
189.256
 10
207.075
 20
189.241
 10
207.079
 20
189.241
 10
210.041
 20
189.241
 10
210.05
 20
189.241
 10
210.081
 20
189.271
 10
210.081
 20
189.28
 10
210.081
 20
195.281
 10
210.081
 20
195.291
 10
210.05
 20
195.32
 10
210.041
 20
195.32
 10
207.079
 20
195.32
 10
207.075
 20
195.32
 10
207.064
 20
195.307
 10
207.079
 20
195.318
 10
207.079
 20
195.32
 10
207.079
 20
201.24
 10
207.079
 20
201.245
 10
207.064
 20
201.255
 10
207.075
 20
201.24
 10
207.079
 20
201.24
 10
210.041
 20
201.24
 10
210.05
 20
201.24
 10
210.081
 20
201.271
 10
210.081
 20
201.281
 10
210.081
 20
207.28
 10
210.081
 20
207.292
 10
210.05
 20
207.32
 10
210.041
 20
207.32
 10
207.079
 20
207.32
 10
207.075
 20
207.32
 10
207.064
 20
207.307
 10
207.079
 20
207.318
 10
207.079
 20
207.32
 10
207.079
 20
216.779
 10
207.079
 20
216.79
 10
207.05
 20
216.82
 10
207.041
 20
216.82
 10
197.08
 20
216.82
 10
197.076
 20
216.82
 10
197.065
 20
216.805
 10
197.08
 20
216.818
 10
197.08
 20
216.82
 10
197.08
 20
219.779
 10
197.08
 20
219.79
 10
197.05
 20
219.82
 10
197.04
 20
219.82
 10
191.04
 20
219.82
 10
191.029
 20
219.82
 10
191
 20
219.79
 10
191
 20
219.779
 10
191
 20
216.82
 10
191
 20
216.818
 10
191.014
 20
216.805
 10
191.003
 20
216.82
 10
191
 20
216.82
 10
185.08
 20
216.82
 10
185.076
 20
216.82
 10
185.065
 20
216.805
 10
185.08
 20
216.818
 10
185.08
 20
216.82
 10
185.08
 20
219.779
 10
185.08
 20
219.79
 10
185.05
 20
219.82
 10
185.04
 20
219.82
 10
179.04
 20
219.82
 10
179.029
 20
219.82
 10
179
 20
219.79
 10
179
 20
219.779
 10
179
 20
216.82
 10
179
 20
216.818
 10
179.014
 20
216.805
 10
179.003
 20
216.82
 10
179
 20
216.82
 10
173.08
 20
216.82
 10
173.076
 20
216.82
 10
173.065
 20
216.805
 10
173.08
 20
216.818
 10
173.08
 20
216.82
 10
173.08
 20
219.779
 10
173.08
 20
219.79
 10
173.05
 20
219.82
 10
173.04
 20
219.82
 10
167.04
 20
219.82
 10
167.029
 20
219.82
 10
167
 20
219.79
 10
167
 20
219.779
 10
167
 20
216.82
 10
167
 20
216.818
 10
167.014
 20
216.805
 10
167.003
 20
216.82
 10
167
 20
216.82
 10
161.08
 20
216.82
 10
161.076
 20
216.82
 10
161.065
 20
216.805
 10
161.08
 20
216.818
 10
161.08
 20
216.82
 10
161.08
 20
219.779
 10
161.08
 20
219.79
 10
161.05
 20
219.82
 10
161.04
 20
219.82
 10
155.04
 20
219.82
 10
155.029
 20
219.82
 10
155
 20
219.79
 10
155
 20
219.779
 10
155
 20
216.82
 10
155
 20
216.818
 10
155.014
 20
216.805
 10
155.003
 20
216.82
 10
155
 20
216.82
 10
149.08
 20
216.82
 10
149.076
 20
216.82
 10
149.065
 20
216.805
 10
149.08
 20
216.818
 10
149.08
 20
216.82
 10
149.08
 20
219.779
 10
149.08
 20
219.79
 10
149.05
 20
219.82
 10
149.04
 20
219.82
 10
143.04
 20
219.82
 10
143.03
 20
219.82
 10
143
 20
219.79
 10
143
 20
219.779
 10
143
 20
216.82
 10
143
 20
216.818
 10
143.014
 20
216.805
 10
143.003
 20
216.82
 10
143
 20
216.82
 10
137.08
 20
216.82
 10
137.076
 20
216.82
 10
137.065
 20
216.805
 10
137.08
 20
216.818
 10
137.08
 20
216.82
 10
137.08
 20
219.779
 10
137.08
 20
219.79
 10
137.05
 20
219.82
 10
137.04
 20
219.82
 10
131.04
 20
219.82
 10
131.029
 20
219.82
 10
131
 20
219.79
 10
131
 20
219.779
 10
131
 20
216.82
 10
131
 20
216.818
 10
131.014
 20
216.805
 10
131.003
 20
216.82
 10
131
 20
216.82
 10
125.081
 20
216.82
 10
125.076
 20
216.82
 10
125.065
 20
216.805
 10
125.081
 20
216.818
 10
125.081
 20
216.82
 10
125.081
 20
219.779
 10
125.081
 20
219.79
 10
125.05
 20
219.82
 10
125.04
 20
219.82
 10
119.041
 20
219.82
 10
119.029
 20
219.82
 10
119
 20
219.79
 10
119
 20
219.779
 10
119
 20
216.82
 10
119
 20
216.818
 10
119.014
 20
216.805
 10
119.003
 20
216.82
 10
119
 20
216.82
 10
113.08
 20
216.82
 10
113.076
 20
216.82
 10
113.065
 20
216.805
 10
113.08
 20
216.818
 10
113.08
 20
216.82
 10
113.08
 20
219.779
 10
113.08
 20
219.79
 10
113.05
 20
219.82
 10
113.041
 20
219.82
 10
107.041
 20
219.82
 10
107.03
 20
219.82
 10
107.001
 20
219.79
 10
107.001
 20
219.779
 10
107.001
 20
216.82
 10
107.001
 20
216.818
 10
107.014
 20
216.805
 10
107.003
 20
216.82
 10
107.001
 20
216.82
 10
101.08
 20
216.82
 10
101.076
 20
216.82
 10
101.065
 20
216.805
 10
101.08
 20
216.818
 10
101.08
 20
216.82
 10
101.08
 20
219.779
 10
101.08
 20
219.79
 10
101.05
 20
219.82
 10
101.04
 20
219.82
 10
95.04049999999999
 20
219.82
 10
95.0295
 20
219.82
 10
94.9992
 20
219.79
 10
94.9992
 20
219.779
 10
94.9992
 20
216.82
 10
94.9992
 20
216.818
 10
95.01430000000001
 20
216.805
 10
95.002
 20
216.82
 10
94.9992
 20
216.82
 10
89.0806
 20
216.82
 10
89.07640000000001
 20
216.82
 10
89.0655
 20
216.805
 10
89.0806
 20
216.818
 10
89.0806
 20
216.82
 10
89.0806
 20
219.779
 10
89.0806
 20
219.79
 10
89.05029999999999
 20
219.82
 10
89.04040000000001
 20
219.82
 10
83.0407
 20
219.82
 10
83.0294
 20
219.82
 10
83.0005
 20
219.79
 10
83.0005
 20
219.779
 10
83.0005
 20
216.82
 10
83.0005
 20
216.818
 10
83.01430000000001
 20
216.805
 10
83.0033
 20
216.82
 10
83.0005
 20
216.82
 10
77.0791
 20
216.82
 10
77.0749
 20
216.82
 10
77.06399999999999
 20
216.805
 10
77.0791
 20
216.818
 10
77.0791
 20
216.82
 10
77.0791
 20
219.779
 10
77.0791
 20
219.79
 10
77.0502
 20
219.82
 10
77.0407
 20
219.82
 10
71.03919999999999
 20
219.82
 10
71.02970000000001
 20
219.82
 10
71.0008
 20
219.79
 10
71.0008
 20
219.779
 10
71.0008
 20
216.82
 10
71.0008
 20
216.818
 10
71.0145
 20
216.805
 10
71.00360000000001
 20
216.82
 10
71.0008
 20
216.82
 10
65.0804
 20
216.82
 10
65.0766
 20
216.82
 10
65.0642
 20
216.805
 10
65.0804
 20
216.818
 10
65.0804
 20
216.82
 10
65.0804
 20
219.779
 10
65.0804
 20
219.79
 10
65.04900000000001
 20
219.82
 10
65.03919999999999
 20
219.82
 10
59.0391
 20
219.82
 10
59.0282
 20
219.82
 10
58.9993
 20
219.79
 10
58.9993
 20
219.779
 10
58.9993
 20
216.82
 10
58.9993
 20
216.818
 10
59.013
 20
216.805
 10
59.0021
 20
216.82
 10
58.9993
 20
216.82
 10
53.0807
 20
216.82
 10
53.0765
 20
216.82
 10
53.0655
 20
216.805
 10
53.0807
 20
216.818
 10
53.0807
 20
216.82
 10
53.0807
 20
219.779
 10
53.0807
 20
219.79
 10
53.0504
 20
219.82
 10
53.0408
 20
219.82
 10
47.0408
 20
219.82
 10
47.0299
 20
219.82
 10
46.9995
 20
219.79
 10
46.9995
 20
219.779
 10
46.9995
 20
216.82
 10
46.9995
 20
216.818
 10
47.0147
 20
216.805
 10
47.002
 20
216.82
 10
46.9995
 20
216.82
 10
41.0792
 20
216.82
 10
41.0753
 20
216.82
 10
41.064
 20
216.805
 10
41.0792
 20
216.818
 10
41.0792
 20
216.82
 10
41.0792
 20
219.779
 10
41.0792
 20
219.79
 10
41.0503
 20
219.82
 10
41.0408
 20
219.82
 10
35.0394
 20
219.82
 10
35.0297
 20
219.82
 10
35.0008
 20
219.79
 10
35.0008
 20
219.779
 10
35.0008
 20
216.82
 10
35.0008
 20
216.818
 10
35.0146
 20
216.805
 10
35.0036
 20
216.82
 10
35.0008
 20
216.82
 10
29.0794
 20
216.82
 10
29.0752
 20
216.82
 10
29.0642
 20
216.805
 10
29.0794
 20
216.818
 10
29.0794
 20
216.82
 10
29.0794
 20
219.779
 10
29.0794
 20
219.79
 10
29.0491
 20
219.82
 10
29.0394
 20
219.82
 10
23.0394
 20
219.82
 10
23.0284
 20
219.82
 10
22.9995
 20
219.79
 10
22.9995
 20
219.779
 10
22.9995
 20
216.82
 10
22.9995
 20
216.818
 10
23.0132
 20
216.805
 10
23.0022
 20
216.82
 10
22.9995
 20
216.82
 10
13.0404
 20
216.82
 10
13.0294
 20
216.82
 10
13.0004
 20
216.79
 10
13.0004
 20
216.779
 10
13.0004
 20
207.32
 10
13.0004
 20
207.318
 10
13.0142
 20
207.307
 10
13.0032
 20
207.32
 10
13.0004
 20
207.32
 10
10.0404
 20
207.32
 10
10.0294
 20
207.32
 10
10.0004
 20
207.292
 10
10.0004
 20
207.28
 10
10.0004
 20
201.281
 10
10.0004
 20
201.271
 10
10.0294
 20
201.24
 10
10.0404
 20
201.24
 10
13.0004
 20
201.24
 10
13.0032
 20
201.24
 10
13.0142
 20
201.255
 10
13.0004
 20
201.245
 10
13.0004
 20
201.24
 10
13.0004
 20
195.32
 10
13.0004
 20
195.318
 10
13.0142
 20
195.307
 10
13.0032
 20
195.32
 10
13.0004
 20
195.32
 10
10.0404
 20
195.32
 10
10.0294
 20
195.32
 10
10.0004
 20
195.291
 10
10.0004
 20
195.281
 10
10.0004
 20
189.28
 10
10.0004
 20
189.271
 10
10.0294
 20
189.241
 10
10.0404
 20
189.241
 10
13.0004
 20
189.241
 10
13.0032
 20
189.241
 10
13.0142
 20
189.256
 10
13.0004
 20
189.244
 10
13.0004
 20
189.241
 10
13.0004
 20
183.32
 10
13.0004
 20
183.318
 10
13.0142
 20
183.307
 10
13.0032
 20
183.32
 10
13.0004
 20
183.32
 10
10.0404
 20
183.32
 10
10.0294
 20
183.32
 10
10.0004
 20
183.291
 10
10.0004
 20
183.28
 10
10.0004
 20
177.28
 10
10.0004
 20
177.271
 10
10.0294
 20
177.24
 10
10.0404
 20
177.24
 10
13.0004
 20
177.24
 10
13.0032
 20
177.24
 10
13.0142
 20
177.256
 10
13.0004
 20
177.245
 10
13.0004
 20
177.24
 10
13.0004
 20
171.321
 10
13.0004
 20
171.318
 10
13.0142
 20
171.307
 10
13.0032
 20
171.321
 10
13.0004
 20
171.321
 10
10.0404
 20
171.321
 10
10.0294
 20
171.321
 10
10.0004
 20
171.292
 10
10.0004
 20
171.281
 10
10.0004
 20
165.281
 10
10.0004
 20
165.271
 10
10.0294
 20
165.24
 10
10.0404
 20
165.24
 10
13.0004
 20
165.24
 10
13.0032
 20
165.24
 10
13.0142
 20
165.256
 10
13.0004
 20
165.245
 10
13.0004
 20
165.24
 10
13.0004
 20
159.32
 10
13.0004
 20
159.318
 10
13.0142
 20
159.307
 10
13.0032
 20
159.32
 10
13.0004
 20
159.32
 10
10.0404
 20
159.32
 10
10.0294
 20
159.32
 10
10.0004
 20
159.292
 10
10.0004
 20
159.281
 10
10.0004
 20
153.279
 10
10.0004
 20
153.27
 10
10.0294
 20
153.241
 10
10.0404
 20
153.241
 10
13.0004
 20
153.241
 10
13.0032
 20
153.241
 10
13.0142
 20
153.256
 10
13.0004
 20
153.245
 10
13.0004
 20
153.241
 10
13.0004
 20
147.321
 10
13.0004
 20
147.318
 10
13.0142
 20
147.307
 10
13.0032
 20
147.321
 10
13.0004
 20
147.321
 10
10.0404
 20
147.321
 10
10.0294
 20
147.321
 10
10.0004
 20
147.292
 10
10.0004
 20
147.28
 10
10.0004
 20
141.28
 10
10.0004
 20
141.271
 10
10.0294
 20
141.239
 10
10.0404
 20
141.239
 10
13.0004
 20
141.239
 10
13.0032
 20
141.239
 10
13.0142
 20
141.256
 10
13.0004
 20
141.243
 10
13.0004
 20
141.239
 10
13.0004
 20
135.321
 10
13.0004
 20
135.318
 10
13.0142
 20
135.307
 10
13.0032
 20
135.321
 10
13.0004
 20
135.321
 10
10.0404
 20
135.321
 10
10.0294
 20
135.321
 10
10.0004
 20
135.292
 10
10.0004
 20
135.281
 10
10.0004
 20
129.281
 10
10.0004
 20
129.271
 10
10.0294
 20
129.241
 10
10.0404
 20
129.241
 10
13.0004
 20
129.241
 10
13.0032
 20
129.241
 10
13.0142
 20
129.256
 10
13.0004
 20
129.245
 10
13.0004
 20
129.241
 10
13.0004
 20
119.78
 10
13.0004
 20
119.771
 10
13.0294
 20
119.741
  0
LWPOLYLINE
  5
4E
100
AcDbEntity
  8
0
  6
ByLayer
 62
    5
370
   -1
100
AcDbPolyline
 90
   21
 70
    1
 43
0
 10
25.53999999999996
 20
69.04940000000003
 10
22.57999999999996
 20
69.04940000000003
 10
22.57599999999996
 20
69.04940000000003
 10
22.56499999999997
 20
69.03560000000003
 10
22.57999999999996
 20
69.04690000000004
 10
22.57999999999996
 20
69.04940000000003
 10
22.57999999999996
 20
71.96970000000003
 10
22.57999999999996
 20
71.97390000000003
 10
22.56499999999997
 20
71.98480000000004
 10
22.57599999999996
 20
71.96970000000003
 10
22.57999999999996
 20
71.96970000000003
 10
28.49999999999997
 20
71.96970000000003
 10
28.50299999999996
 20
71.96970000000003
 10
28.51399999999995
 20
71.98480000000004
 10
28.49999999999997
 20
71.97390000000003
 10
28.49999999999997
 20
71.96970000000003
 10
28.49999999999997
 20
69.04940000000003
 10
28.49999999999997
 20
69.04690000000004
 10
28.51399999999995
 20
69.03560000000003
 10
28.50299999999996
 20
69.04940000000003
 10
28.49999999999997
 20
69.04940000000003
  0
LWPOLYLINE
  5
4F
100
AcDbEntity
  8
0
  6
ByLayer
 62
    5
370
   -1
100
AcDbPolyline
 90
   21
 70
    1
 43
0
 10
37.53999999999996
 20
69.04940000000003
 10
34.57999999999996
 20
69.04940000000003
 10
34.57599999999996
 20
69.04940000000003
 10
34.56499999999997
 20
69.03560000000003
 10
34.57999999999996
 20
69.04690000000004
 10
34.57999999999996
 20
69.04940000000003
 10
34.57999999999996
 20
71.96970000000003
 10
34.57999999999996
 20
71.97390000000003
 10
34.56499999999997
 20
71.98480000000004
 10
34.57599999999996
 20
71.96970000000003
 10
34.57999999999996
 20
71.96970000000003
 10
40.49999999999997
 20
71.96970000000003
 10
40.50299999999996
 20
71.96970000000003
 10
40.51399999999995
 20
71.98480000000004
 10
40.49999999999997
 20
71.97390000000003
 10
40.49999999999997
 20
71.96970000000003
 10
40.49999999999997
 20
69.04940000000003
 10
40.49999999999997
 20
69.04690000000004
 10
40.51399999999995
 20
69.03560000000003
 10
40.50299999999996
 20
69.04940000000003
 10
40.49999999999997
 20
69.04940000000003
  0
LWPOLYLINE
  5
50
100
AcDbEntity
  8
0
  6
ByLayer
 62
    5
370
   -1
100
AcDbPolyline
 90
   21
 70
    1
 43
0
 10
49.53999999999996
 20
69.04940000000003
 10
46.57999999999996
 20
69.04940000000003
 10
46.57599999999996
 20
69.04940000000003
 10
46.56499999999997
 20
69.03560000000003
 10
46.57999999999996
 20
69.04690000000004
 10
46.57999999999996
 20
69.04940000000003
 10
46.57999999999996
 20
71.96970000000003
 10
46.57999999999996
 20
71.97390000000003
 10
46.56499999999997
 20
71.98480000000004
 10
46.57599999999996
 20
71.96970000000003
 10
46.57999999999996
 20
71.96970000000003
 10
52.49999999999997
 20
71.96970000000003
 10
52.50299999999996
 20
71.96970000000003
 10
52.51399999999995
 20
71.98480000000004
 10
52.49999999999997
 20
71.97390000000003
 10
52.49999999999997
 20
71.96970000000003
 10
52.49999999999997
 20
69.04940000000003
 10
52.49999999999997
 20
69.04690000000004
 10
52.51399999999995
 20
69.03560000000003
 10
52.50299999999996
 20
69.04940000000003
 10
52.49999999999997
 20
69.04940000000003
  0
LWPOLYLINE
  5
51
100
AcDbEntity
  8
0
  6
ByLayer
 62
    5
370
   -1
100
AcDbPolyline
 90
   21
 70
    1
 43
0
 10
61.53999999999996
 20
69.04940000000003
 10
58.57999999999998
 20
69.04940000000003
 10
58.57599999999996
 20
69.04940000000003
 10
58.56499999999994
 20
69.03560000000003
 10
58.57999999999998
 20
69.04690000000004
 10
58.57999999999998
 20
69.04940000000003
 10
58.57999999999998
 20
71.96970000000003
 10
58.57999999999998
 20
71.97390000000003
 10
58.56499999999994
 20
71.98480000000004
 10
58.57599999999996
 20
71.96970000000003
 10
58.57999999999998
 20
71.96970000000003
 10
64.49999999999994
 20
71.96970000000003
 10
64.50299999999999
 20
71.96970000000003
 10
64.51399999999995
 20
71.98480000000004
 10
64.49999999999994
 20
71.97390000000003
 10
64.49999999999994
 20
71.96970000000003
 10
64.49999999999994
 20
69.04940000000003
 10
64.49999999999994
 20
69.04690000000004
 10
64.51399999999995
 20
69.03560000000003
 10
64.50299999999999
 20
69.04940000000003
 10
64.49999999999994
 20
69.04940000000003
  0
LWPOLYLINE
  5
52
100
AcDbEntity
  8
0
  6
ByLayer
 62
    5
370
   -1
100
AcDbPolyline
 90
   21
 70
    1
 43
0
 10
73.53999999999996
 20
69.04940000000003
 10
70.57999999999998
 20
69.04940000000003
 10
70.57599999999996
 20
69.04940000000003
 10
70.56499999999994
 20
69.03560000000003
 10
70.57999999999998
 20
69.04690000000004
 10
70.57999999999998
 20
69.04940000000003
 10
70.57999999999998
 20
71.96970000000003
 10
70.57999999999998
 20
71.97390000000003
 10
70.56499999999994
 20
71.98480000000004
 10
70.57599999999996
 20
71.96970000000003
 10
70.57999999999998
 20
71.96970000000003
 10
76.49999999999994
 20
71.96970000000003
 10
76.50299999999999
 20
71.96970000000003
 10
76.51399999999995
 20
71.98480000000004
 10
76.49999999999994
 20
71.97390000000003
 10
76.49999999999994
 20
71.96970000000003
 10
76.49999999999994
 20
69.04940000000003
 10
76.49999999999994
 20
69.04690000000004
 10
76.51399999999995
 20
69.03560000000003
 10
76.50299999999999
 20
69.04940000000003
 10
76.49999999999994
 20
69.04940000000003
  0
LWPOLYLINE
  5
53
100
AcDbEntity
  8
0
  6
ByLayer
 62
    5
370
   -1
100
AcDbPolyline
 90
   21
 70
    1
 43
0
 10
85.53999999999996
 20
69.04940000000003
 10
82.57999999999998
 20
69.04940000000003
 10
82.57499999999993
 20
69.04940000000003
 10
82.56499999999994
 20
69.03560000000003
 10
82.57999999999998
 20
69.04690000000004
 10
82.57999999999998
 20
69.04940000000003
 10
82.57999999999998
 20
71.96970000000003
 10
82.57999999999998
 20
71.97390000000003
 10
82.56499999999994
 20
71.98480000000004
 10
82.57499999999993
 20
71.96970000000003
 10
82.57999999999998
 20
71.96970000000003
 10
88.49999999999994
 20
71.96970000000003
 10
88.50199999999995
 20
71.96970000000003
 10
88.51399999999995
 20
71.98480000000004
 10
88.49999999999994
 20
71.97390000000003
 10
88.49999999999994
 20
71.96970000000003
 10
88.49999999999994
 20
69.04940000000003
 10
88.49999999999994
 20
69.04690000000004
 10
88.51399999999995
 20
69.03560000000003
 10
88.50199999999995
 20
69.04940000000003
 10
88.49999999999994
 20
69.04940000000003
  0
LWPOLYLINE
  5
54
100
AcDbEntity
  8
0
  6
ByLayer
 62
    5
370
   -1
100
AcDbPolyline
 90
   21
 70
    1
 43
0
 10
97.53999999999996
 20
69.04940000000003
 10
94.57999999999998
 20
69.04940000000003
 10
94.57599999999996
 20
69.04940000000003
 10
94.56499999999994
 20
69.03560000000003
 10
94.57999999999998
 20
69.04690000000004
 10
94.57999999999998
 20
69.04940000000003
 10
94.57999999999998
 20
71.96970000000003
 10
94.57999999999998
 20
71.97390000000003
 10
94.56499999999994
 20
71.98480000000004
 10
94.57599999999996
 20
71.96970000000003
 10
94.57999999999998
 20
71.96970000000003
 10
100.4999999999999
 20
71.96970000000003
 10
100.503
 20
71.96970000000003
 10
100.513
 20
71.98480000000004
 10
100.4999999999999
 20
71.97390000000003
 10
100.4999999999999
 20
71.96970000000003
 10
100.4999999999999
 20
69.04940000000003
 10
100.4999999999999
 20
69.04690000000004
 10
100.513
 20
69.03560000000003
 10
100.503
 20
69.04940000000003
 10
100.4999999999999
 20
69.04940000000003
  0
LWPOLYLINE
  5
55
100
AcDbEntity
  8
0
  6
ByLayer
 62
    7
370
   -1
100
AcDbPolyline
 90
  124
 70
    1
 43
0
 10
13.03999999999996
 20
65.96960000000003
 10
110.04
 20
65.96960000000003
 10
110.049
 20
65.96960000000003
 10
110.08
 20
66.00000000000003
 10
110.08
 20
66.00950000000003
 10
110.08
 20
73.97060000000003
 10
110.08
 20
73.97450000000003
 10
110.0649999999999
 20
73.98580000000003
 10
110.076
 20
73.97060000000003
 10
110.08
 20
73.97060000000003
 10
113.04
 20
73.97060000000003
 10
113.049
 20
73.97060000000003
 10
113.08
 20
74.00100000000003
 10
113.08
 20
74.01050000000004
 10
113.08
 20
80.01050000000004
 10
113.08
 20
80.02150000000003
 10
113.049
 20
80.05040000000002
 10
113.04
 20
80.05040000000002
 10
110.08
 20
80.05040000000002
 10
110.076
 20
80.05040000000002
 10
110.0649999999999
 20
80.03660000000004
 10
110.08
 20
80.04760000000003
 10
110.08
 20
80.05040000000002
 10
110.08
 20
85.97040000000003
 10
110.08
 20
85.97460000000002
 10
110.0649999999999
 20
85.98550000000003
 10
110.076
 20
85.97040000000003
 10
110.08
 20
85.97040000000003
 10
113.04
 20
85.97040000000003
 10
113.049
 20
85.97040000000003
 10
113.08
 20
86.00070000000004
 10
113.08
 20
86.01060000000003
 10
113.08
 20
92.01030000000003
 10
113.08
 20
92.02150000000003
 10
113.049
 20
92.05050000000003
 10
113.04
 20
92.05050000000003
 10
110.08
 20
92.05050000000003
 10
110.076
 20
92.05050000000003
 10
110.0649999999999
 20
92.03670000000002
 10
110.08
 20
92.04770000000003
 10
110.08
 20
92.05050000000003
 10
110.08
 20
97.97000000000003
 10
110.08
 20
97.97500000000004
 10
110.0649999999999
 20
97.98600000000003
 10
110.076
 20
97.97000000000003
 10
110.08
 20
97.97000000000003
 10
113.04
 20
97.97000000000003
 10
113.049
 20
97.97000000000003
 10
113.08
 20
98.00100000000003
 10
113.08
 20
98.01000000000003
 10
113.08
 20
104.01
 10
113.08
 20
104.021
 10
113.049
 20
104.05
 10
113.04
 20
104.05
 10
110.08
 20
104.05
 10
110.076
 20
104.05
 10
110.0649999999999
 20
104.036
 10
110.08
 20
104.047
 10
110.08
 20
104.05
 10
110.08
 20
112.01
 10
110.08
 20
112.021
 10
110.049
 20
112.05
 10
110.04
 20
112.05
 10
13.03999999999996
 20
112.05
 10
13.02899999999997
 20
112.05
 10
12.99999999999997
 20
112.021
 10
12.99999999999997
 20
112.01
 10
12.99999999999997
 20
104.05
 10
12.99999999999997
 20
104.047
 10
13.01399999999995
 20
104.036
 10
13.00299999999996
 20
104.05
 10
12.99999999999997
 20
104.05
 10
10.03999999999996
 20
104.05
 10
10.02899999999997
 20
104.05
 10
9.999999999999972
 20
104.021
 10
9.999999999999972
 20
104.01
 10
9.999999999999972
 20
98.01000000000003
 10
9.999999999999972
 20
98.00100000000003
 10
10.02899999999997
 20
97.97000000000003
 10
10.03999999999996
 20
97.97000000000003
 10
12.99999999999997
 20
97.97000000000003
 10
13.00299999999996
 20
97.97000000000003
 10
13.01399999999995
 20
97.98600000000003
 10
12.99999999999997
 20
97.97500000000004
 10
12.99999999999997
 20
97.97000000000003
 10
12.99999999999997
 20
92.05050000000003
 10
12.99999999999997
 20
92.04770000000003
 10
13.01399999999995
 20
92.03670000000002
 10
13.00299999999996
 20
92.05050000000003
 10
12.99999999999997
 20
92.05050000000003
 10
10.03999999999996
 20
92.05050000000003
 10
10.02899999999997
 20
92.05050000000003
 10
9.999999999999972
 20
92.02150000000003
 10
9.999999999999972
 20
92.01030000000003
 10
9.999999999999972
 20
86.01060000000003
 10
9.999999999999972
 20
86.00070000000004
 10
10.02899999999997
 20
85.97040000000003
 10
10.03999999999996
 20
85.97040000000003
 10
12.99999999999997
 20
85.97040000000003
 10
13.00299999999996
 20
85.97040000000003
 10
13.01399999999995
 20
85.98550000000003
 10
12.99999999999997
 20
85.97460000000002
 10
12.99999999999997
 20
85.97040000000003
 10
12.99999999999997
 20
80.05040000000002
 10
12.99999999999997
 20
80.04760000000003
 10
13.01399999999995
 20
80.03660000000004
 10
13.00299999999996
 20
80.05040000000002
 10
12.99999999999997
 20
80.05040000000002
 10
10.03999999999996
 20
80.05040000000002
 10
10.02899999999997
 20
80.05040000000002
 10
9.999999999999972
 20
80.02150000000003
 10
9.999999999999972
 20
80.01050000000004
 10
9.999999999999972
 20
74.01050000000004
 10
9.999999999999972
 20
74.00100000000003
 10
10.02899999999997
 20
73.97060000000003
 10
10.03999999999996
 20
73.97060000000003
 10
12.99999999999997
 20
73.97060000000003
 10
13.00299999999996
 20
73.97060000000003
 10
13.01399999999995
 20
73.98580000000003
 10
12.99999999999997
 20
73.97450000000003
 10
12.99999999999997
 20
73.97060000000003
 10
12.99999999999997
 20
66.00950000000003
 10
12.99999999999997
 20
66.00000000000003
 10
13.02899999999997
 20
65.96960000000003
  0
LWPOLYLINE
  5
56
100
AcDbEntity
  8
0
  6
ByLayer
 62
    5
370
   -1
100
AcDbPolyline
 90
   21
 70
    1
 43
0
 10
132.12
 20
69.66
 10
129.16
 20
69.66
 10
129.156
 20
69.66
 10
129.145
 20
69.64619999999999
 10
129.16
 20
69.6572
 10
129.16
 20
69.66
 10
129.16
 20
72.5801
 10
129.16
 20
72.5842
 10
129.145
 20
72.59520000000001
 10
129.156
 20
72.5801
 10
129.16
 20
72.5801
 10
135.08
 20
72.5801
 10
135.083
 20
72.5801
 10
135.094
 20
72.59520000000001
 10
135.08
 20
72.5842
 10
135.08
 20
72.5801
 10
135.08
 20
69.66
 10
135.08
 20
69.6572
 10
135.094
 20
69.64619999999999
 10
135.083
 20
69.66
 10
135.08
 20
69.66
  0
LWPOLYLINE
  5
57
100
AcDbEntity
  8
0
  6
ByLayer
 62
    5
370
   -1
100
AcDbPolyline
 90
   21
 70
    1
 43
0
 10
144.12
 20
69.66
 10
141.16
 20
69.66
 10
141.156
 20
69.66
 10
141.145
 20
69.64619999999999
 10
141.16
 20
69.6572
 10
141.16
 20
69.66
 10
141.16
 20
72.5801
 10
141.16
 20
72.5842
 10
141.145
 20
72.59520000000001
 10
141.156
 20
72.5801
 10
141.16
 20
72.5801
 10
147.08
 20
72.5801
 10
147.083
 20
72.5801
 10
147.094
 20
72.59520000000001
 10
147.08
 20
72.5842
 10
147.08
 20
72.5801
 10
147.08
 20
69.66
 10
147.08
 20
69.6572
 10
147.094
 20
69.64619999999999
 10
147.083
 20
69.66
 10
147.08
 20
69.66
  0
LWPOLYLINE
  5
58
100
AcDbEntity
  8
0
  6
ByLayer
 62
    5
370
   -1
100
AcDbPolyline
 90
   21
 70
    1
 43
0
 10
156.12
 20
69.66
 10
153.16
 20
69.66
 10
153.156
 20
69.66
 10
153.145
 20
69.64619999999999
 10
153.16
 20
69.6572
 10
153.16
 20
69.66
 10
153.16
 20
72.5801
 10
153.16
 20
72.5842
 10
153.145
 20
72.59520000000001
 10
153.156
 20
72.5801
 10
153.16
 20
72.5801
 10
159.08
 20
72.5801
 10
159.083
 20
72.5801
 10
159.094
 20
72.59520000000001
 10
159.08
 20
72.5842
 10
159.08
 20
72.5801
 10
159.08
 20
69.66
 10
159.08
 20
69.6572
 10
159.094
 20
69.64619999999999
 10
159.083
 20
69.66
 10
159.08
 20
69.66
  0
LWPOLYLINE
  5
59
100
AcDbEntity
  8
0
  6
ByLayer
 62
    5
370
   -1
100
AcDbPolyline
 90
   21
 70
    1
 43
0
 10
168.12
 20
69.66
 10
165.16
 20
69.66
 10
165.156
 20
69.66
 10
165.145
 20
69.64619999999999
 10
165.16
 20
69.6572
 10
165.16
 20
69.66
 10
165.16
 20
72.5801
 10
165.16
 20
72.5842
 10
165.145
 20
72.59520000000001
 10
165.156
 20
72.5801
 10
165.16
 20
72.5801
 10
171.08
 20
72.5801
 10
171.083
 20
72.5801
 10
171.094
 20
72.59520000000001
 10
171.08
 20
72.5842
 10
171.08
 20
72.5801
 10
171.08
 20
69.66
 10
171.08
 20
69.6572
 10
171.094
 20
69.64619999999999
 10
171.083
 20
69.66
 10
171.08
 20
69.66
  0
LWPOLYLINE
  5
5A
100
AcDbEntity
  8
0
  6
ByLayer
 62
    5
370
   -1
100
AcDbPolyline
 90
   21
 70
    1
 43
0
 10
180.12
 20
69.66
 10
177.16
 20
69.66
 10
177.156
 20
69.66
 10
177.145
 20
69.64619999999999
 10
177.16
 20
69.6572
 10
177.16
 20
69.66
 10
177.16
 20
72.5801
 10
177.16
 20
72.5842
 10
177.145
 20
72.59520000000001
 10
177.156
 20
72.5801
 10
177.16
 20
72.5801
 10
183.08
 20
72.5801
 10
183.083
 20
72.5801
 10
183.094
 20
72.59520000000001
 10
183.08
 20
72.5842
 10
183.08
 20
72.5801
 10
183.08
 20
69.66
 10
183.08
 20
69.6572
 10
183.094
 20
69.64619999999999
 10
183.083
 20
69.66
 10
183.08
 20
69.66
  0
LWPOLYLINE
  5
5B
100
AcDbEntity
  8
0
  6
ByLayer
 62
    5
370
   -1
100
AcDbPolyline
 90
   21
 70
    1
 43
0
 10
192.12
 20
69.66
 10
189.16
 20
69.66
 10
189.155
 20
69.66
 10
189.145
 20
69.64619999999999
 10
189.16
 20
69.6572
 10
189.16
 20
69.66
 10
189.16
 20
72.5801
 10
189.16
 20
72.5842
 10
189.145
 20
72.59520000000001
 10
189.155
 20
72.5801
 10
189.16
 20
72.5801
 10
195.08
 20
72.5801
 10
195.082
 20
72.5801
 10
195.094
 20
72.59520000000001
 10
195.08
 20
72.5842
 10
195.08
 20
72.5801
 10
195.08
 20
69.66
 10
195.08
 20
69.6572
 10
195.094
 20
69.64619999999999
 10
195.082
 20
69.66
 10
195.08
 20
69.66
  0
LWPOLYLINE
  5
5C
100
AcDbEntity
  8
0
  6
ByLayer
 62
    5
370
   -1
100
AcDbPolyline
 90
   21
 70
    1
 43
0
 10
204.12
 20
69.66
 10
201.16
 20
69.66
 10
201.156
 20
69.66
 10
201.145
 20
69.64619999999999
 10
201.16
 20
69.6572
 10
201.16
 20
69.66
 10
201.16
 20
72.5801
 10
201.16
 20
72.5842
 10
201.145
 20
72.59520000000001
 10
201.156
 20
72.5801
 10
201.16
 20
72.5801
 10
207.08
 20
72.5801
 10
207.083
 20
72.5801
 10
207.093
 20
72.59520000000001
 10
207.08
 20
72.5842
 10
207.08
 20
72.5801
 10
207.08
 20
69.66
 10
207.08
 20
69.6572
 10
207.093
 20
69.64619999999999
 10
207.083
 20
69.66
 10
207.08
 20
69.66
  0
LWPOLYLINE
  5
5D
100
AcDbEntity
  8
0
  6
ByLayer
 62
    7
370
   -1
100
AcDbPolyline
 90
  124
 70
    1
 43
0
 10
119.62
 20
66.5801
 10
216.62
 20
66.5801
 10
216.629
 20
66.5801
 10
216.66
 20
66.6104
 10
216.66
 20
66.62010000000001
 10
216.66
 20
74.5796
 10
216.66
 20
74.58369999999999
 10
216.645
 20
74.5947
 10
216.656
 20
74.5796
 10
216.66
 20
74.5796
 10
219.62
 20
74.5796
 10
219.629
 20
74.5796
 10
219.66
 20
74.6099
 10
219.66
 20
74.6195
 10
219.66
 20
80.61959999999999
 10
219.66
 20
80.6306
 10
219.629
 20
80.65950000000001
 10
219.62
 20
80.65950000000001
 10
216.66
 20
80.65950000000001
 10
216.656
 20
80.65950000000001
 10
216.645
 20
80.64570000000001
 10
216.66
 20
80.6567
 10
216.66
 20
80.65950000000001
 10
216.66
 20
86.57939999999999
 10
216.66
 20
86.58369999999999
 10
216.645
 20
86.5946
 10
216.656
 20
86.57939999999999
 10
216.66
 20
86.57939999999999
 10
219.62
 20
86.57939999999999
 10
219.629
 20
86.57939999999999
 10
219.66
 20
86.60980000000001
 10
219.66
 20
86.61969999999999
 10
219.66
 20
92.6194
 10
219.66
 20
92.6306
 10
219.629
 20
92.6596
 10
219.62
 20
92.6596
 10
216.66
 20
92.6596
 10
216.656
 20
92.6596
 10
216.645
 20
92.64580000000001
 10
216.66
 20
92.6567
 10
216.66
 20
92.6596
 10
216.66
 20
98.5795
 10
216.66
 20
98.5838
 10
216.645
 20
98.5947
 10
216.656
 20
98.5795
 10
216.66
 20
98.5795
 10
219.62
 20
98.5795
 10
219.629
 20
98.5795
 10
219.66
 20
98.60990000000001
 10
219.66
 20
98.6194
 10
219.66
 20
104.6209
 10
219.66
 20
104.6304
 10
219.629
 20
104.6593
 10
219.62
 20
104.6593
 10
216.66
 20
104.6593
 10
216.656
 20
104.6593
 10
216.645
 20
104.6456
 10
216.66
 20
104.6565
 10
216.66
 20
104.6593
 10
216.66
 20
112.6204
 10
216.66
 20
112.6314
 10
216.629
 20
112.6603
 10
216.62
 20
112.6603
 10
119.62
 20
112.6603
 10
119.609
 20
112.6603
 10
119.58
 20
112.6314
 10
119.58
 20
112.6204
 10
119.58
 20
104.6593
 10
119.58
 20
104.6565
 10
119.594
 20
104.6456
 10
119.583
 20
104.6593
 10
119.58
 20
104.6593
 10
116.62
 20
104.6593
 10
116.609
 20
104.6593
 10
116.58
 20
104.6304
 10
116.58
 20
104.6209
 10
116.58
 20
98.6194
 10
116.58
 20
98.60990000000001
 10
116.609
 20
98.5795
 10
116.62
 20
98.5795
 10
119.58
 20
98.5795
 10
119.583
 20
98.5795
 10
119.594
 20
98.5947
 10
119.58
 20
98.5838
 10
119.58
 20
98.5795
 10
119.58
 20
92.6596
 10
119.58
 20
92.6567
 10
119.594
 20
92.64580000000001
 10
119.583
 20
92.6596
 10
119.58
 20
92.6596
 10
116.62
 20
92.6596
 10
116.609
 20
92.6596
 10
116.58
 20
92.6306
 10
116.58
 20
92.6194
 10
116.58
 20
86.61969999999999
 10
116.58
 20
86.60980000000001
 10
116.609
 20
86.57939999999999
 10
116.62
 20
86.57939999999999
 10
119.58
 20
86.57939999999999
 10
119.583
 20
86.57939999999999
 10
119.594
 20
86.5946
 10
119.58
 20
86.58369999999999
 10
119.58
 20
86.57939999999999
 10
119.58
 20
80.65950000000001
 10
119.58
 20
80.6567
 10
119.594
 20
80.64570000000001
 10
119.583
 20
80.65950000000001
 10
119.58
 20
80.65950000000001
 10
116.62
 20
80.65950000000001
 10
116.609
 20
80.65950000000001
 10
116.58
 20
80.6306
 10
116.58
 20
80.61959999999999
 10
116.58
 20
74.6195
 10
116.58
 20
74.6099
 10
116.609
 20
74.5796
 10
116.62
 20
74.5796
 10
119.58
 20
74.5796
 10
119.583
 20
74.5796
 10
119.594
 20
74.5947
 10
119.58
 20
74.58369999999999
 10
119.58
 20
74.5796
 10
119.58
 20
66.62010000000001
 10
119.58
 20
66.6104
 10
119.609
 20
66.5801
  0
LWPOLYLINE
  5
5E
100
AcDbEntity
  8
0
  6
ByLayer
 62
    5
370
   -1
100
AcDbPolyline
 90
   21
 70
    1
 43
0
 10
26.0394
 20
16.9994
 10
23.0808
 20
16.9994
 10
23.0766
 20
16.9994
 10
23.0642
 20
16.9856
 10
23.0808
 20
16.9969
 10
23.0808
 20
16.9994
 10
23.0808
 20
19.9197
 10
23.0808
 20
19.9239
 10
23.0642
 20
19.9348
 10
23.0766
 20
19.9197
 10
23.0808
 20
19.9197
 10
28.9994
 20
19.9197
 10
29.00219999999999
 20
19.9197
 10
29.0132
 20
19.9348
 10
28.9994
 20
19.9239
 10
28.9994
 20
19.9197
 10
28.9994
 20
16.9994
 10
28.9994
 20
16.9969
 10
29.0132
 20
16.9856
 10
29.00219999999999
 20
16.9994
 10
28.9994
 20
16.9994
  0
LWPOLYLINE
  5
5F
100
AcDbEntity
  8
0
  6
ByLayer
 62
    5
370
   -1
100
AcDbPolyline
 90
   21
 70
    1
 43
0
 10
38.0393
 20
16.9994
 10
35.0793
 20
16.9994
 10
35.0752
 20
16.9994
 10
35.0642
 20
16.9856
 10
35.0793
 20
16.9969
 10
35.0793
 20
16.9994
 10
35.0793
 20
19.9197
 10
35.0793
 20
19.9239
 10
35.0642
 20
19.9348
 10
35.0752
 20
19.9197
 10
35.0793
 20
19.9197
 10
40.9995
 20
19.9197
 10
41.0023
 20
19.9197
 10
41.0147
 20
19.9348
 10
40.9995
 20
19.9239
 10
40.9995
 20
19.9197
 10
40.9995
 20
16.9994
 10
40.9995
 20
16.9969
 10
41.0147
 20
16.9856
 10
41.0023
 20
16.9994
 10
40.9995
 20
16.9994
  0
LWPOLYLINE
  5
60
100
AcDbEntity
  8
0
  6
ByLayer
 62
    5
370
   -1
100
AcDbPolyline
 90
   21
 70
    1
 43
0
 10
50.0408
 20
16.9994
 10
47.0793
 20
16.9994
 10
47.075
 20
16.9994
 10
47.0641
 20
16.9856
 10
47.0793
 20
16.9969
 10
47.0793
 20
16.9994
 10
47.0793
 20
19.9197
 10
47.0793
 20
19.9239
 10
47.0641
 20
19.9348
 10
47.075
 20
19.9197
 10
47.0793
 20
19.9197
 10
52.9992
 20
19.9197
 10
53.002
 20
19.9197
 10
53.0144
 20
19.9348
 10
52.9992
 20
19.9239
 10
52.9992
 20
19.9197
 10
52.9992
 20
16.9994
 10
52.9992
 20
16.9969
 10
53.0144
 20
16.9856
 10
53.002
 20
16.9994
 10
52.9992
 20
16.9994
  0
LWPOLYLINE
  5
61
100
AcDbEntity
  8
0
  6
ByLayer
 62
    5
370
   -1
100
AcDbPolyline
 90
   21
 70
    1
 43
0
 10
62.0391
 20
16.9994
 10
59.0808
 20
16.9994
 10
59.0765
 20
16.9994
 10
59.0642
 20
16.9856
 10
59.0808
 20
16.9969
 10
59.0808
 20
16.9994
 10
59.0808
 20
19.9197
 10
59.0808
 20
19.9239
 10
59.0642
 20
19.9348
 10
59.0765
 20
19.9197
 10
59.0808
 20
19.9197
 10
65.00069999999999
 20
19.9197
 10
65.0035
 20
19.9197
 10
65.0145
 20
19.9348
 10
65.00069999999999
 20
19.9239
 10
65.00069999999999
 20
19.9197
 10
65.00069999999999
 20
16.9994
 10
65.00069999999999
 20
16.9969
 10
65.0145
 20
16.9856
 10
65.0035
 20
16.9994
 10
65.00069999999999
 20
16.9994
  0
LWPOLYLINE
  5
62
100
AcDbEntity
  8
0
  6
ByLayer
 62
    5
370
   -1
100
AcDbPolyline
 90
   21
 70
    1
 43
0
 10
74.0406
 20
16.9994
 10
71.0805
 20
16.9994
 10
71.0766
 20
16.9994
 10
71.0639
 20
16.9856
 10
71.0805
 20
16.9969
 10
71.0805
 20
16.9994
 10
71.0805
 20
19.9197
 10
71.0805
 20
19.9239
 10
71.0639
 20
19.9348
 10
71.0766
 20
19.9197
 10
71.0805
 20
19.9197
 10
77.0008
 20
19.9197
 10
77.0033
 20
19.9197
 10
77.0146
 20
19.9348
 10
77.0008
 20
19.9239
 10
77.0008
 20
19.9197
 10
77.0008
 20
16.9994
 10
77.0008
 20
16.9969
 10
77.0146
 20
16.9856
 10
77.0033
 20
16.9994
 10
77.0008
 20
16.9994
  0
LWPOLYLINE
  5
63
100
AcDbEntity
  8
0
  6
ByLayer
 62
    5
370
   -1
100
AcDbPolyline
 90
   21
 70
    1
 43
0
 10
86.0407
 20
16.9994
 10
83.0806
 20
16.9994
 10
83.0763
 20
16.9994
 10
83.0654
 20
16.9856
 10
83.0806
 20
16.9969
 10
83.0806
 20
16.9994
 10
83.0806
 20
19.9197
 10
83.0806
 20
19.9239
 10
83.0654
 20
19.9348
 10
83.0763
 20
19.9197
 10
83.0806
 20
19.9197
 10
88.9991
 20
19.9197
 10
89.002
 20
19.9197
 10
89.01430000000001
 20
19.9348
 10
88.9991
 20
19.9239
 10
88.9991
 20
19.9197
 10
88.9991
 20
16.9994
 10
88.9991
 20
16.9969
 10
89.01430000000001
 20
16.9856
 10
89.002
 20
16.9994
 10
88.9991
 20
16.9994
  0
LWPOLYLINE
  5
64
100
AcDbEntity
  8
0
  6
ByLayer
 62
    5
370
   -1
100
AcDbPolyline
 90
   21
 70
    1
 43
0
 10
98.04049999999999
 20
16.9994
 10
95.08069999999999
 20
16.9994
 10
95.07640000000001
 20
16.9994
 10
95.0655
 20
16.9856
 10
95.08069999999999
 20
16.9969
 10
95.08069999999999
 20
16.9994
 10
95.08069999999999
 20
19.9197
 10
95.08069999999999
 20
19.9239
 10
95.0655
 20
19.9348
 10
95.07640000000001
 20
19.9197
 10
95.08069999999999
 20
19.9197
 10
101.001
 20
19.9197
 10
101.003
 20
19.9197
 10
101.014
 20
19.9348
 10
101.001
 20
19.9239
 10
101.001
 20
19.9197
 10
101.001
 20
16.9994
 10
101.001
 20
16.9969
 10
101.014
 20
16.9856
 10
101.003
 20
16.9994
 10
101.001
 20
16.9994
  0
LWPOLYLINE
  5
65
100
AcDbEntity
  8
0
  6
ByLayer
 62
    5
370
   -1
100
AcDbPolyline
 90
   21
 70
    1
 43
0
 10
110.041
 20
16.9994
 10
107.08
 20
16.9994
 10
107.076
 20
16.9994
 10
107.065
 20
16.9856
 10
107.08
 20
16.9969
 10
107.08
 20
16.9994
 10
107.08
 20
19.9197
 10
107.08
 20
19.9239
 10
107.065
 20
19.9348
 10
107.076
 20
19.9197
 10
107.08
 20
19.9197
 10
113
 20
19.9197
 10
113.003
 20
19.9197
 10
113.014
 20
19.9348
 10
113
 20
19.9239
 10
113
 20
19.9197
 10
113
 20
16.9994
 10
113
 20
16.9969
 10
113.014
 20
16.9856
 10
113.003
 20
16.9994
 10
113
 20
16.9994
  0
LWPOLYLINE
  5
66
100
AcDbEntity
  8
0
  6
ByLayer
 62
    5
370
   -1
100
AcDbPolyline
 90
   21
 70
    1
 43
0
 10
122.04
 20
16.9994
 10
119.08
 20
16.9994
 10
119.076
 20
16.9994
 10
119.065
 20
16.9856
 10
119.08
 20
16.9969
 10
119.08
 20
16.9994
 10
119.08
 20
19.9197
 10
119.08
 20
19.9239
 10
119.065
 20
19.9348
 10
119.076
 20
19.9197
 10
119.08
 20
19.9197
 10
125
 20
19.9197
 10
125.003
 20
19.9197
 10
125.014
 20
19.9348
 10
125
 20
19.9239
 10
125
 20
19.9197
 10
125
 20
16.9994
 10
125
 20
16.9969
 10
125.014
 20
16.9856
 10
125.003
 20
16.9994
 10
125
 20
16.9994
  0
LWPOLYLINE
  5
67
100
AcDbEntity
  8
0
  6
ByLayer
 62
    5
370
   -1
100
AcDbPolyline
 90
   21
 70
    1
 43
0
 10
134.04
 20
16.9994
 10
131.08
 20
16.9994
 10
131.076
 20
16.9994
 10
131.065
 20
16.9856
 10
131.08
 20
16.9969
 10
131.08
 20
16.9994
 10
131.08
 20
19.9197
 10
131.08
 20
19.9239
 10
131.065
 20
19.9348
 10
131.076
 20
19.9197
 10
131.08
 20
19.9197
 10
137.001
 20
19.9197
 10
137.003
 20
19.9197
 10
137.014
 20
19.9348
 10
137.001
 20
19.9239
 10
137.001
 20
19.9197
 10
137.001
 20
16.9994
 10
137.001
 20
16.9969
 10
137.014
 20
16.9856
 10
137.003
 20
16.9994
 10
137.001
 20
16.9994
  0
LWPOLYLINE
  5
68
100
AcDbEntity
  8
0
  6
ByLayer
 62
    5
370
   -1
100
AcDbPolyline
 90
   21
 70
    1
 43
0
 10
146.04
 20
16.9994
 10
143.08
 20
16.9994
 10
143.076
 20
16.9994
 10
143.065
 20
16.9856
 10
143.08
 20
16.9969
 10
143.08
 20
16.9994
 10
143.08
 20
19.9197
 10
143.08
 20
19.9239
 10
143.065
 20
19.9348
 10
143.076
 20
19.9197
 10
143.08
 20
19.9197
 10
149
 20
19.9197
 10
149.003
 20
19.9197
 10
149.014
 20
19.9348
 10
149
 20
19.9239
 10
149
 20
19.9197
 10
149
 20
16.9994
 10
149
 20
16.9969
 10
149.014
 20
16.9856
 10
149.003
 20
16.9994
 10
149
 20
16.9994
  0
LWPOLYLINE
  5
69
100
AcDbEntity
  8
0
  6
ByLayer
 62
    5
370
   -1
100
AcDbPolyline
 90
   21
 70
    1
 43
0
 10
158.04
 20
16.9994
 10
155.08
 20
16.9994
 10
155.076
 20
16.9994
 10
155.065
 20
16.9856
 10
155.08
 20
16.9969
 10
155.08
 20
16.9994
 10
155.08
 20
19.9197
 10
155.08
 20
19.9239
 10
155.065
 20
19.9348
 10
155.076
 20
19.9197
 10
155.08
 20
19.9197
 10
161
 20
19.9197
 10
161.003
 20
19.9197
 10
161.014
 20
19.9348
 10
161
 20
19.9239
 10
161
 20
19.9197
 10
161
 20
16.9994
 10
161
 20
16.9969
 10
161.014
 20
16.9856
 10
161.003
 20
16.9994
 10
161
 20
16.9994
  0
LWPOLYLINE
  5
6A
100
AcDbEntity
  8
0
  6
ByLayer
 62
    5
370
   -1
100
AcDbPolyline
 90
   21
 70
    1
 43
0
 10
170.04
 20
16.9994
 10
167.08
 20
16.9994
 10
167.076
 20
16.9994
 10
167.065
 20
16.9856
 10
167.08
 20
16.9969
 10
167.08
 20
16.9994
 10
167.08
 20
19.9197
 10
167.08
 20
19.9239
 10
167.065
 20
19.9348
 10
167.076
 20
19.9197
 10
167.08
 20
19.9197
 10
173
 20
19.9197
 10
173.003
 20
19.9197
 10
173.014
 20
19.9348
 10
173
 20
19.9239
 10
173
 20
19.9197
 10
173
 20
16.9994
 10
173
 20
16.9969
 10
173.014
 20
16.9856
 10
173.003
 20
16.9994
 10
173
 20
16.9994
  0
LWPOLYLINE
  5
6B
100
AcDbEntity
  8
0
  6
ByLayer
 62
    5
370
   -1
100
AcDbPolyline
 90
   21
 70
    1
 43
0
 10
182.04
 20
16.9994
 10
179.08
 20
16.9994
 10
179.076
 20
16.9994
 10
179.065
 20
16.9856
 10
179.08
 20
16.9969
 10
179.08
 20
16.9994
 10
179.08
 20
19.9197
 10
179.08
 20
19.9239
 10
179.065
 20
19.9348
 10
179.076
 20
19.9197
 10
179.08
 20
19.9197
 10
185
 20
19.9197
 10
185.003
 20
19.9197
 10
185.014
 20
19.9348
 10
185
 20
19.9239
 10
185
 20
19.9197
 10
185
 20
16.9994
 10
185
 20
16.9969
 10
185.014
 20
16.9856
 10
185.003
 20
16.9994
 10
185
 20
16.9994
  0
LWPOLYLINE
  5
6C
100
AcDbEntity
  8
0
  6
ByLayer
 62
    5
370
   -1
100
AcDbPolyline
 90
   21
 70
    1
 43
0
 10
194.04
 20
16.9994
 10
191.08
 20
16.9994
 10
191.076
 20
16.9994
 10
191.065
 20
16.9856
 10
191.08
 20
16.9969
 10
191.08
 20
16.9994
 10
191.08
 20
19.9197
 10
191.08
 20
19.9239
 10
191.065
 20
19.9348
 10
191.076
 20
19.9197
 10
191.08
 20
19.9197
 10
197
 20
19.9197
 10
197.003
 20
19.9197
 10
197.014
 20
19.9348
 10
197
 20
19.9239
 10
197
 20
19.9197
 10
197
 20
16.9994
 10
197
 20
16.9969
 10
197.014
 20
16.9856
 10
197.003
 20
16.9994
 10
197
 20
16.9994
  0
LWPOLYLINE
  5
6D
100
AcDbEntity
  8
0
  6
ByLayer
 62
    7
370
   -1
100
AcDbPolyline
 90
  128
 70
    1
 43
0
 10
13.0404
 20
13.9196
 10
207.041
 20
13.9196
 10
210.041
 20
13.9196
 10
210.05
 20
13.9196
 10
210.081
 20
13.95
 10
210.081
 20
13.9595
 10
210.081
 20
21.9605
 10
210.081
 20
21.9714
 10
210.05
 20
22.0003
 10
210.041
 20
22.0003
 10
207.079
 20
22.0003
 10
207.075
 20
22.0003
 10
207.064
 20
21.9866
 10
207.079
 20
21.9975
 10
207.079
 20
22.0003
 10
207.079
 20
27.9203
 10
207.079
 20
27.9245
 10
207.064
 20
27.9355
 10
207.075
 20
27.9203
 10
207.079
 20
27.9203
 10
210.041
 20
27.9203
 10
210.05
 20
27.9203
 10
210.081
 20
27.9506
 10
210.081
 20
27.9605
 10
210.081
 20
33.96059999999999
 10
210.081
 20
33.9715
 10
210.05
 20
34.00039999999999
 10
210.041
 20
34.00039999999999
 10
207.079
 20
34.00039999999999
 10
207.075
 20
34.00039999999999
 10
207.064
 20
33.98669999999999
 10
207.079
 20
33.9976
 10
207.079
 20
34.00039999999999
 10
207.079
 20
39.92039999999999
 10
207.079
 20
39.92459999999999
 10
207.064
 20
39.9356
 10
207.075
 20
39.92039999999999
 10
207.079
 20
39.92039999999999
 10
210.041
 20
39.92039999999999
 10
210.05
 20
39.92039999999999
 10
210.081
 20
39.9507
 10
210.081
 20
39.9603
 10
210.081
 20
45.96
 10
210.081
 20
45.971
 10
210.05
 20
45.99999999999999
 10
210.041
 20
45.99999999999999
 10
207.079
 20
45.99999999999999
 10
207.075
 20
45.99999999999999
 10
207.064
 20
45.986
 10
207.079
 20
45.998
 10
207.079
 20
45.99999999999999
 10
207.079
 20
51.91999999999999
 10
207.079
 20
51.924
 10
207.064
 20
51.936
 10
207.075
 20
51.91999999999999
 10
207.079
 20
51.91999999999999
 10
210.041
 20
51.91999999999999
 10
210.05
 20
51.91999999999999
 10
210.081
 20
51.951
 10
210.081
 20
51.96
 10
210.081
 20
59.96
 10
210.081
 20
59.971
 10
210.05
 20
59.99999999999999
 10
210.041
 20
59.99999999999999
 10
207.041
 20
59.99999999999999
 10
13.0404
 20
59.99999999999999
 10
10.0404
 20
59.99999999999999
 10
10.0294
 20
59.99999999999999
 10
10.0004
 20
59.971
 10
10.0004
 20
59.96
 10
10.0004
 20
51.96
 10
10.0004
 20
51.951
 10
10.0294
 20
51.91999999999999
 10
10.0404
 20
51.91999999999999
 10
13.0004
 20
51.91999999999999
 10
13.0032
 20
51.91999999999999
 10
13.0142
 20
51.936
 10
13.0004
 20
51.924
 10
13.0004
 20
51.91999999999999
 10
13.0004
 20
45.99999999999999
 10
13.0004
 20
45.998
 10
13.0142
 20
45.986
 10
13.0032
 20
45.99999999999999
 10
13.0004
 20
45.99999999999999
 10
10.0404
 20
45.99999999999999
 10
10.0294
 20
45.99999999999999
 10
10.0004
 20
45.971
 10
10.0004
 20
45.96
 10
10.0004
 20
39.9603
 10
10.0004
 20
39.9507
 10
10.0294
 20
39.92039999999999
 10
10.0404
 20
39.92039999999999
 10
13.0004
 20
39.92039999999999
 10
13.0032
 20
39.92039999999999
 10
13.0142
 20
39.9356
 10
13.0004
 20
39.92459999999999
 10
13.0004
 20
39.92039999999999
 10
13.0004
 20
34.00039999999999
 10
13.0004
 20
33.9976
 10
13.0142
 20
33.98669999999999
 10
13.0032
 20
34.00039999999999
 10
13.0004
 20
34.00039999999999
 10
10.0404
 20
34.00039999999999
 10
10.0294
 20
34.00039999999999
 10
10.0004
 20
33.9715
 10
10.0004
 20
33.96059999999999
 10
10.0004
 20
27.9605
 10
10.0004
 20
27.9506
 10
10.0294
 20
27.9203
 10
10.0404
 20
27.9203
 10
13.0004
 20
27.9203
 10
13.0032
 20
27.9203
 10
13.0142
 20
27.9355
 10
13.0004
 20
27.9245
 10
13.0004
 20
27.9203
 10
13.0004
 20
22.0003
 10
13.0004
 20
21.9975
 10
13.0142
 20
21.9866
 10
13.0032
 20
22.0003
 10
13.0004
 20
22.0003
 10
10.0404
 20
22.0003
 10
10.0294
 20
22.0003
 10
10.0004
 20
21.9714
 10
10.0004
 20
21.9605
 10
10.0004
 20
13.9595
 10
10.0004
 20
13.95
 10
10.0294
 20
13.9196
 10
10.0404
 20
13.9196
  0
ARC
  5
6E
100
AcDbEntity
  8
0
  6
ByLayer
 62
  256
370
   -1
100
AcDbCircle
 10
31
 20
56
 40
12
100
AcDbArc
 50
155.3756816478357
 51
209.9999999999998
  0
ARC
  5
6F
100
AcDbEntity
  8
0
  6
ByLayer
 62
  256
370
   -1
100
AcDbCircle
 10
41
 20
56
 40
12
100
AcDbArc
 50
155.3756816478357
 51
209.9999999999998
  0
ARC
  5
70
100
AcDbEntity
  8
0
  6
ByLayer
 62
  256
370
   -1
100
AcDbCircle
 10
51
 20
56
 40
12
100
AcDbArc
 50
155.3756816478357
 51
209.9999999999998
  0
ARC
  5
71
100
AcDbEntity
  8
0
  6
ByLayer
 62
  256
370
   -1
100
AcDbCircle
 10
61
 20
56
 40
12
100
AcDbArc
 50
155.3756816478357
 51
209.9999999999998
  0
ARC
  5
72
100
AcDbEntity
  8
0
  6
ByLayer
 62
  256
370
   -1
100
AcDbCircle
 10
71
 20
56
 40
12
100
AcDbArc
 50
155.3756816478357
 51
209.9999999999998
  0
ARC
  5
73
100
AcDbEntity
  8
0
  6
ByLayer
 62
  256
370
   -1
100
AcDbCircle
 10
81
 20
56
 40
12
100
AcDbArc
 50
155.3756816478357
 51
209.9999999999998
  0
ARC
  5
74
100
AcDbEntity
  8
0
  6
ByLayer
 62
  256
370
   -1
100
AcDbCircle
 10
91
 20
56
 40
12
100
AcDbArc
 50
155.3756816478357
 51
209.9999999999998
  0
ARC
  5
75
100
AcDbEntity
  8
0
  6
ByLayer
 62
  256
370
   -1
100
AcDbCircle
 10
101
 20
56
 40
12
100
AcDbArc
 50
155.3756816478357
 51
209.9999999999998
  0
ARC
  5
76
100
AcDbEntity
  8
0
  6
ByLayer
 62
  256
370
   -1
100
AcDbCircle
 10
111
 20
56
 40
12
100
AcDbArc
 50
155.3756816478357
 51
209.9999999999998
  0
ARC
  5
77
100
AcDbEntity
  8
0
  6
ByLayer
 62
  256
370
   -1
100
AcDbCircle
 10
121
 20
56
 40
12
100
AcDbArc
 50
155.3756816478357
 51
209.9999999999998
  0
ARC
  5
78
100
AcDbEntity
  8
0
  6
ByLayer
 62
  256
370
   -1
100
AcDbCircle
 10
131
 20
56
 40
12
100
AcDbArc
 50
155.3756816478357
 51
209.9999999999998
  0
ARC
  5
79
100
AcDbEntity
  8
0
  6
ByLayer
 62
  256
370
   -1
100
AcDbCircle
 10
141
 20
56
 40
12
100
AcDbArc
 50
155.3756816478357
 51
209.9999999999998
  0
ARC
  5
7A
100
AcDbEntity
  8
0
  6
ByLayer
 62
  256
370
   -1
100
AcDbCircle
 10
151
 20
56
 40
12
100
AcDbArc
 50
155.3756816478357
 51
209.9999999999998
  0
ARC
  5
7B
100
AcDbEntity
  8
0
  6
ByLayer
 62
  256
370
   -1
100
AcDbCircle
 10
161
 20
56
 40
12
100
AcDbArc
 50
155.3756816478357
 51
209.9999999999998
  0
ARC
  5
7C
100
AcDbEntity
  8
0
  6
ByLayer
 62
  256
370
   -1
100
AcDbCircle
 10
171
 20
56
 40
12
100
AcDbArc
 50
155.3756816478357
 51
209.9999999999998
  0
ARC
  5
7D
100
AcDbEntity
  8
0
  6
ByLayer
 62
  256
370
   -1
100
AcDbCircle
 10
181
 20
56
 40
12
100
AcDbArc
 50
155.3756816478357
 51
209.9999999999998
  0
ARC
  5
7E
100
AcDbEntity
  8
0
  6
ByLayer
 62
  256
370
   -1
100
AcDbCircle
 10
190
 20
56
 40
12
100
AcDbArc
 50
155.3756816478357
 51
209.9999999999998
  0
ARC
  5
7F
100
AcDbEntity
  8
0
  6
ByLayer
 62
  256
370
   -1
100
AcDbCircle
 10
201
 20
56
 40
12
100
AcDbArc
 50
155.3756816478357
 51
209.9999999999998
  0
ARC
  5
80
100
AcDbEntity
  8
0
  6
ByLayer
 62
  256
370
   -1
100
AcDbCircle
 10
211
 20
56
 40
12
100
AcDbArc
 50
155.3756816478357
 51
209.9999999999998
  0
LWPOLYLINE
  5
81
100
AcDbEntity
  8
0
  6
ByLayer
 62
    5
370
   -1
100
AcDbPolyline
 90
   21
 70
    1
 43
0
 10
26.0394
 20
-33.0006
 10
23.0808
 20
-33.0006
 10
23.0766
 20
-33.0006
 10
23.0642
 20
-33.01439999999999
 10
23.0808
 20
-33.0031
 10
23.0808
 20
-33.0006
 10
23.0808
 20
-30.0803
 10
23.0808
 20
-30.0761
 10
23.0642
 20
-30.0652
 10
23.0766
 20
-30.0803
 10
23.0808
 20
-30.0803
 10
28.9994
 20
-30.0803
 10
29.00219999999999
 20
-30.0803
 10
29.0132
 20
-30.0652
 10
28.9994
 20
-30.0761
 10
28.9994
 20
-30.0803
 10
28.9994
 20
-33.0006
 10
28.9994
 20
-33.0031
 10
29.0132
 20
-33.01439999999999
 10
29.00219999999999
 20
-33.0006
 10
28.9994
 20
-33.0006
  0
LWPOLYLINE
  5
82
100
AcDbEntity
  8
0
  6
ByLayer
 62
    5
370
   -1
100
AcDbPolyline
 90
   21
 70
    1
 43
0
 10
38.0393
 20
-33.0006
 10
35.0793
 20
-33.0006
 10
35.0752
 20
-33.0006
 10
35.0642
 20
-33.01439999999999
 10
35.0793
 20
-33.0031
 10
35.0793
 20
-33.0006
 10
35.0793
 20
-30.0803
 10
35.0793
 20
-30.0761
 10
35.0642
 20
-30.0652
 10
35.0752
 20
-30.0803
 10
35.0793
 20
-30.0803
 10
40.9995
 20
-30.0803
 10
41.0023
 20
-30.0803
 10
41.0147
 20
-30.0652
 10
40.9995
 20
-30.0761
 10
40.9995
 20
-30.0803
 10
40.9995
 20
-33.0006
 10
40.9995
 20
-33.0031
 10
41.0147
 20
-33.01439999999999
 10
41.0023
 20
-33.0006
 10
40.9995
 20
-33.0006
  0
LWPOLYLINE
  5
83
100
AcDbEntity
  8
0
  6
ByLayer
 62
    5
370
   -1
100
AcDbPolyline
 90
   21
 70
    1
 43
0
 10
50.0408
 20
-33.0006
 10
47.0793
 20
-33.0006
 10
47.075
 20
-33.0006
 10
47.0641
 20
-33.01439999999999
 10
47.0793
 20
-33.0031
 10
47.0793
 20
-33.0006
 10
47.0793
 20
-30.0803
 10
47.0793
 20
-30.0761
 10
47.0641
 20
-30.0652
 10
47.075
 20
-30.0803
 10
47.0793
 20
-30.0803
 10
52.9992
 20
-30.0803
 10
53.002
 20
-30.0803
 10
53.0144
 20
-30.0652
 10
52.9992
 20
-30.0761
 10
52.9992
 20
-30.0803
 10
52.9992
 20
-33.0006
 10
52.9992
 20
-33.0031
 10
53.0144
 20
-33.01439999999999
 10
53.002
 20
-33.0006
 10
52.9992
 20
-33.0006
  0
LWPOLYLINE
  5
84
100
AcDbEntity
  8
0
  6
ByLayer
 62
    5
370
   -1
100
AcDbPolyline
 90
   21
 70
    1
 43
0
 10
62.0391
 20
-33.0006
 10
59.0808
 20
-33.0006
 10
59.0765
 20
-33.0006
 10
59.0642
 20
-33.01439999999999
 10
59.0808
 20
-33.0031
 10
59.0808
 20
-33.0006
 10
59.0808
 20
-30.0803
 10
59.0808
 20
-30.0761
 10
59.0642
 20
-30.0652
 10
59.0765
 20
-30.0803
 10
59.0808
 20
-30.0803
 10
65.00069999999999
 20
-30.0803
 10
65.0035
 20
-30.0803
 10
65.0145
 20
-30.0652
 10
65.00069999999999
 20
-30.0761
 10
65.00069999999999
 20
-30.0803
 10
65.00069999999999
 20
-33.0006
 10
65.00069999999999
 20
-33.0031
 10
65.0145
 20
-33.01439999999999
 10
65.0035
 20
-33.0006
 10
65.00069999999999
 20
-33.0006
  0
LWPOLYLINE
  5
85
100
AcDbEntity
  8
0
  6
ByLayer
 62
    5
370
   -1
100
AcDbPolyline
 90
   21
 70
    1
 43
0
 10
74.0406
 20
-33.0006
 10
71.0805
 20
-33.0006
 10
71.0766
 20
-33.0006
 10
71.0639
 20
-33.01439999999999
 10
71.0805
 20
-33.0031
 10
71.0805
 20
-33.0006
 10
71.0805
 20
-30.0803
 10
71.0805
 20
-30.0761
 10
71.0639
 20
-30.0652
 10
71.0766
 20
-30.0803
 10
71.0805
 20
-30.0803
 10
77.0008
 20
-30.0803
 10
77.0033
 20
-30.0803
 10
77.0146
 20
-30.0652
 10
77.0008
 20
-30.0761
 10
77.0008
 20
-30.0803
 10
77.0008
 20
-33.0006
 10
77.0008
 20
-33.0031
 10
77.0146
 20
-33.01439999999999
 10
77.0033
 20
-33.0006
 10
77.0008
 20
-33.0006
  0
LWPOLYLINE
  5
86
100
AcDbEntity
  8
0
  6
ByLayer
 62
    5
370
   -1
100
AcDbPolyline
 90
   21
 70
    1
 43
0
 10
86.0407
 20
-33.0006
 10
83.0806
 20
-33.0006
 10
83.0763
 20
-33.0006
 10
83.0654
 20
-33.01439999999999
 10
83.0806
 20
-33.0031
 10
83.0806
 20
-33.0006
 10
83.0806
 20
-30.0803
 10
83.0806
 20
-30.0761
 10
83.0654
 20
-30.0652
 10
83.0763
 20
-30.0803
 10
83.0806
 20
-30.0803
 10
88.9991
 20
-30.0803
 10
89.002
 20
-30.0803
 10
89.01430000000001
 20
-30.0652
 10
88.9991
 20
-30.0761
 10
88.9991
 20
-30.0803
 10
88.9991
 20
-33.0006
 10
88.9991
 20
-33.0031
 10
89.01430000000001
 20
-33.01439999999999
 10
89.002
 20
-33.0006
 10
88.9991
 20
-33.0006
  0
LWPOLYLINE
  5
87
100
AcDbEntity
  8
0
  6
ByLayer
 62
    5
370
   -1
100
AcDbPolyline
 90
   21
 70
    1
 43
0
 10
98.04049999999999
 20
-33.0006
 10
95.08069999999999
 20
-33.0006
 10
95.07640000000001
 20
-33.0006
 10
95.0655
 20
-33.01439999999999
 10
95.08069999999999
 20
-33.0031
 10
95.08069999999999
 20
-33.0006
 10
95.08069999999999
 20
-30.0803
 10
95.08069999999999
 20
-30.0761
 10
95.0655
 20
-30.0652
 10
95.07640000000001
 20
-30.0803
 10
95.08069999999999
 20
-30.0803
 10
101.001
 20
-30.0803
 10
101.003
 20
-30.0803
 10
101.014
 20
-30.0652
 10
101.001
 20
-30.0761
 10
101.001
 20
-30.0803
 10
101.001
 20
-33.0006
 10
101.001
 20
-33.0031
 10
101.014
 20
-33.01439999999999
 10
101.003
 20
-33.0006
 10
101.001
 20
-33.0006
  0
LWPOLYLINE
  5
88
100
AcDbEntity
  8
0
  6
ByLayer
 62
    5
370
   -1
100
AcDbPolyline
 90
   21
 70
    1
 43
0
 10
110.041
 20
-33.0006
 10
107.08
 20
-33.0006
 10
107.076
 20
-33.0006
 10
107.065
 20
-33.01439999999999
 10
107.08
 20
-33.0031
 10
107.08
 20
-33.0006
 10
107.08
 20
-30.0803
 10
107.08
 20
-30.0761
 10
107.065
 20
-30.0652
 10
107.076
 20
-30.0803
 10
107.08
 20
-30.0803
 10
113
 20
-30.0803
 10
113.003
 20
-30.0803
 10
113.014
 20
-30.0652
 10
113
 20
-30.0761
 10
113
 20
-30.0803
 10
113
 20
-33.0006
 10
113
 20
-33.0031
 10
113.014
 20
-33.01439999999999
 10
113.003
 20
-33.0006
 10
113
 20
-33.0006
  0
LWPOLYLINE
  5
89
100
AcDbEntity
  8
0
  6
ByLayer
 62
    5
370
   -1
100
AcDbPolyline
 90
   21
 70
    1
 43
0
 10
122.04
 20
-33.0006
 10
119.08
 20
-33.0006
 10
119.076
 20
-33.0006
 10
119.065
 20
-33.01439999999999
 10
119.08
 20
-33.0031
 10
119.08
 20
-33.0006
 10
119.08
 20
-30.0803
 10
119.08
 20
-30.0761
 10
119.065
 20
-30.0652
 10
119.076
 20
-30.0803
 10
119.08
 20
-30.0803
 10
125
 20
-30.0803
 10
125.003
 20
-30.0803
 10
125.014
 20
-30.0652
 10
125
 20
-30.0761
 10
125
 20
-30.0803
 10
125
 20
-33.0006
 10
125
 20
-33.0031
 10
125.014
 20
-33.01439999999999
 10
125.003
 20
-33.0006
 10
125
 20
-33.0006
  0
LWPOLYLINE
  5
8A
100
AcDbEntity
  8
0
  6
ByLayer
 62
    5
370
   -1
100
AcDbPolyline
 90
   21
 70
    1
 43
0
 10
134.04
 20
-33.0006
 10
131.08
 20
-33.0006
 10
131.076
 20
-33.0006
 10
131.065
 20
-33.01439999999999
 10
131.08
 20
-33.0031
 10
131.08
 20
-33.0006
 10
131.08
 20
-30.0803
 10
131.08
 20
-30.0761
 10
131.065
 20
-30.0652
 10
131.076
 20
-30.0803
 10
131.08
 20
-30.0803
 10
137.001
 20
-30.0803
 10
137.003
 20
-30.0803
 10
137.014
 20
-30.0652
 10
137.001
 20
-30.0761
 10
137.001
 20
-30.0803
 10
137.001
 20
-33.0006
 10
137.001
 20
-33.0031
 10
137.014
 20
-33.01439999999999
 10
137.003
 20
-33.0006
 10
137.001
 20
-33.0006
  0
LWPOLYLINE
  5
8B
100
AcDbEntity
  8
0
  6
ByLayer
 62
    5
370
   -1
100
AcDbPolyline
 90
   21
 70
    1
 43
0
 10
146.04
 20
-33.0006
 10
143.08
 20
-33.0006
 10
143.076
 20
-33.0006
 10
143.065
 20
-33.01439999999999
 10
143.08
 20
-33.0031
 10
143.08
 20
-33.0006
 10
143.08
 20
-30.0803
 10
143.08
 20
-30.0761
 10
143.065
 20
-30.0652
 10
143.076
 20
-30.0803
 10
143.08
 20
-30.0803
 10
149
 20
-30.0803
 10
149.003
 20
-30.0803
 10
149.014
 20
-30.0652
 10
149
 20
-30.0761
 10
149
 20
-30.0803
 10
149
 20
-33.0006
 10
149
 20
-33.0031
 10
149.014
 20
-33.01439999999999
 10
149.003
 20
-33.0006
 10
149
 20
-33.0006
  0
LWPOLYLINE
  5
8C
100
AcDbEntity
  8
0
  6
ByLayer
 62
    5
370
   -1
100
AcDbPolyline
 90
   21
 70
    1
 43
0
 10
158.04
 20
-33.0006
 10
155.08
 20
-33.0006
 10
155.076
 20
-33.0006
 10
155.065
 20
-33.01439999999999
 10
155.08
 20
-33.0031
 10
155.08
 20
-33.0006
 10
155.08
 20
-30.0803
 10
155.08
 20
-30.0761
 10
155.065
 20
-30.0652
 10
155.076
 20
-30.0803
 10
155.08
 20
-30.0803
 10
161
 20
-30.0803
 10
161.003
 20
-30.0803
 10
161.014
 20
-30.0652
 10
161
 20
-30.0761
 10
161
 20
-30.0803
 10
161
 20
-33.0006
 10
161
 20
-33.0031
 10
161.014
 20
-33.01439999999999
 10
161.003
 20
-33.0006
 10
161
 20
-33.0006
  0
LWPOLYLINE
  5
8D
100
AcDbEntity
  8
0
  6
ByLayer
 62
    5
370
   -1
100
AcDbPolyline
 90
   21
 70
    1
 43
0
 10
170.04
 20
-33.0006
 10
167.08
 20
-33.0006
 10
167.076
 20
-33.0006
 10
167.065
 20
-33.01439999999999
 10
167.08
 20
-33.0031
 10
167.08
 20
-33.0006
 10
167.08
 20
-30.0803
 10
167.08
 20
-30.0761
 10
167.065
 20
-30.0652
 10
167.076
 20
-30.0803
 10
167.08
 20
-30.0803
 10
173
 20
-30.0803
 10
173.003
 20
-30.0803
 10
173.014
 20
-30.0652
 10
173
 20
-30.0761
 10
173
 20
-30.0803
 10
173
 20
-33.0006
 10
173
 20
-33.0031
 10
173.014
 20
-33.01439999999999
 10
173.003
 20
-33.0006
 10
173
 20
-33.0006
  0
LWPOLYLINE
  5
8E
100
AcDbEntity
  8
0
  6
ByLayer
 62
    5
370
   -1
100
AcDbPolyline
 90
   21
 70
    1
 43
0
 10
182.04
 20
-33.0006
 10
179.08
 20
-33.0006
 10
179.076
 20
-33.0006
 10
179.065
 20
-33.01439999999999
 10
179.08
 20
-33.0031
 10
179.08
 20
-33.0006
 10
179.08
 20
-30.0803
 10
179.08
 20
-30.0761
 10
179.065
 20
-30.0652
 10
179.076
 20
-30.0803
 10
179.08
 20
-30.0803
 10
185
 20
-30.0803
 10
185.003
 20
-30.0803
 10
185.014
 20
-30.0652
 10
185
 20
-30.0761
 10
185
 20
-30.0803
 10
185
 20
-33.0006
 10
185
 20
-33.0031
 10
185.014
 20
-33.01439999999999
 10
185.003
 20
-33.0006
 10
185
 20
-33.0006
  0
LWPOLYLINE
  5
8F
100
AcDbEntity
  8
0
  6
ByLayer
 62
    5
370
   -1
100
AcDbPolyline
 90
   21
 70
    1
 43
0
 10
194.04
 20
-33.0006
 10
191.08
 20
-33.0006
 10
191.076
 20
-33.0006
 10
191.065
 20
-33.01439999999999
 10
191.08
 20
-33.0031
 10
191.08
 20
-33.0006
 10
191.08
 20
-30.0803
 10
191.08
 20
-30.0761
 10
191.065
 20
-30.0652
 10
191.076
 20
-30.0803
 10
191.08
 20
-30.0803
 10
197
 20
-30.0803
 10
197.003
 20
-30.0803
 10
197.014
 20
-30.0652
 10
197
 20
-30.0761
 10
197
 20
-30.0803
 10
197
 20
-33.0006
 10
197
 20
-33.0031
 10
197.014
 20
-33.01439999999999
 10
197.003
 20
-33.0006
 10
197
 20
-33.0006
  0
LWPOLYLINE
  5
90
100
AcDbEntity
  8
0
  6
ByLayer
 62
    7
370
   -1
100
AcDbPolyline
 90
  128
 70
    1
 43
0
 10
13.0404
 20
-36.0804
 10
207.041
 20
-36.0804
 10
210.041
 20
-36.0804
 10
210.05
 20
-36.0804
 10
210.081
 20
-36.05
 10
210.081
 20
-36.0405
 10
210.081
 20
-28.0395
 10
210.081
 20
-28.0286
 10
210.05
 20
-27.9997
 10
210.041
 20
-27.9997
 10
207.079
 20
-27.9997
 10
207.075
 20
-27.9997
 10
207.064
 20
-28.0134
 10
207.079
 20
-28.0025
 10
207.079
 20
-27.9997
 10
207.079
 20
-22.0797
 10
207.079
 20
-22.0755
 10
207.064
 20
-22.0645
 10
207.075
 20
-22.0797
 10
207.079
 20
-22.0797
 10
210.041
 20
-22.0797
 10
210.05
 20
-22.0797
 10
210.081
 20
-22.0494
 10
210.081
 20
-22.0395
 10
210.081
 20
-16.03940000000001
 10
210.081
 20
-16.0285
 10
210.05
 20
-15.99960000000001
 10
210.041
 20
-15.99960000000001
 10
207.079
 20
-15.99960000000001
 10
207.075
 20
-15.99960000000001
 10
207.064
 20
-16.01330000000001
 10
207.079
 20
-16.0024
 10
207.079
 20
-15.99960000000001
 10
207.079
 20
-10.07960000000001
 10
207.079
 20
-10.07540000000001
 10
207.064
 20
-10.0644
 10
207.075
 20
-10.07960000000001
 10
207.079
 20
-10.07960000000001
 10
210.041
 20
-10.07960000000001
 10
210.05
 20
-10.07960000000001
 10
210.081
 20
-10.0493
 10
210.081
 20
-10.0397
 10
210.081
 20
-4.039999999999999
 10
210.081
 20
-4.029000000000003
 10
210.05
 20
-4.000000000000007
 10
210.041
 20
-4.000000000000007
 10
207.079
 20
-4.000000000000007
 10
207.075
 20
-4.000000000000007
 10
207.064
 20
-4.014000000000003
 10
207.079
 20
-4.002000000000002
 10
207.079
 20
-4.000000000000007
 10
207.079
 20
1.919999999999987
 10
207.079
 20
1.923999999999999
 10
207.064
 20
1.936
 10
207.075
 20
1.919999999999987
 10
207.079
 20
1.919999999999987
 10
210.041
 20
1.919999999999987
 10
210.05
 20
1.919999999999987
 10
210.081
 20
1.951000000000001
 10
210.081
 20
1.960000000000001
 10
210.081
 20
9.960000000000001
 10
210.081
 20
9.970999999999997
 10
210.05
 20
9.999999999999993
 10
210.041
 20
9.999999999999993
 10
207.041
 20
9.999999999999993
 10
13.0404
 20
9.999999999999993
 10
10.0404
 20
9.999999999999993
 10
10.0294
 20
9.999999999999993
 10
10.0004
 20
9.970999999999997
 10
10.0004
 20
9.960000000000001
 10
10.0004
 20
1.960000000000001
 10
10.0004
 20
1.951000000000001
 10
10.0294
 20
1.919999999999987
 10
10.0404
 20
1.919999999999987
 10
13.0004
 20
1.919999999999987
 10
13.0032
 20
1.919999999999987
 10
13.0142
 20
1.936
 10
13.0004
 20
1.923999999999999
 10
13.0004
 20
1.919999999999987
 10
13.0004
 20
-4.000000000000007
 10
13.0004
 20
-4.002000000000002
 10
13.0142
 20
-4.014000000000003
 10
13.0032
 20
-4.000000000000007
 10
13.0004
 20
-4.000000000000007
 10
10.0404
 20
-4.000000000000007
 10
10.0294
 20
-4.000000000000007
 10
10.0004
 20
-4.029000000000003
 10
10.0004
 20
-4.039999999999999
 10
10.0004
 20
-10.0397
 10
10.0004
 20
-10.0493
 10
10.0294
 20
-10.07960000000001
 10
10.0404
 20
-10.07960000000001
 10
13.0004
 20
-10.07960000000001
 10
13.0032
 20
-10.07960000000001
 10
13.0142
 20
-10.0644
 10
13.0004
 20
-10.07540000000001
 10
13.0004
 20
-10.07960000000001
 10
13.0004
 20
-15.99960000000001
 10
13.0004
 20
-16.0024
 10
13.0142
 20
-16.01330000000001
 10
13.0032
 20
-15.99960000000001
 10
13.0004
 20
-15.99960000000001
 10
10.0404
 20
-15.99960000000001
 10
10.0294
 20
-15.99960000000001
 10
10.0004
 20
-16.0285
 10
10.0004
 20
-16.03940000000001
 10
10.0004
 20
-22.0395
 10
10.0004
 20
-22.0494
 10
10.0294
 20
-22.0797
 10
10.0404
 20
-22.0797
 10
13.0004
 20
-22.0797
 10
13.0032
 20
-22.0797
 10
13.0142
 20
-22.0645
 10
13.0004
 20
-22.0755
 10
13.0004
 20
-22.0797
 10
13.0004
 20
-27.9997
 10
13.0004
 20
-28.0025
 10
13.0142
 20
-28.0134
 10
13.0032
 20
-27.9997
 10
13.0004
 20
-27.9997
 10
10.0404
 20
-27.9997
 10
10.0294
 20
-27.9997
 10
10.0004
 20
-28.0286
 10
10.0004
 20
-28.0395
 10
10.0004
 20
-36.0405
 10
10.0004
 20
-36.05
 10
10.0294
 20
-36.0804
 10
10.0404
 20
-36.0804
  0
ARC
  5
91
100
AcDbEntity
  8
0
  6
ByLayer
 62
  256
370
   -1
100
AcDbCircle
 10
31
 20
6
 40
12
100
AcDbArc
 50
155.3756816478357
 51
209.9999999999998
  0
ARC
  5
92
100
AcDbEntity
  8
0
  6
ByLayer
 62
  256
370
   -1
100
AcDbCircle
 10
41
 20
6
 40
12
100
AcDbArc
 50
155.3756816478357
 51
209.9999999999998
  0
ARC
  5
93
100
AcDbEntity
  8
0
  6
ByLayer
 62
  256
370
   -1
100
AcDbCircle
 10
51
 20
6
 40
12
100
AcDbArc
 50
155.3756816478357
 51
209.9999999999998
  0
ARC
  5
94
100
AcDbEntity
  8
0
  6
ByLayer
 62
  256
370
   -1
100
AcDbCircle
 10
61
 20
6
 40
12
100
AcDbArc
 50
155.3756816478357
 51
209.9999999999998
  0
ARC
  5
95
100
AcDbEntity
  8
0
  6
ByLayer
 62
  256
370
   -1
100
AcDbCircle
 10
71
 20
6
 40
12
100
AcDbArc
 50
155.3756816478357
 51
209.9999999999998
  0
ARC
  5
96
100
AcDbEntity
  8
0
  6
ByLayer
 62
  256
370
   -1
100
AcDbCircle
 10
81
 20
6
 40
12
100
AcDbArc
 50
155.3756816478357
 51
209.9999999999998
  0
ARC
  5
97
100
AcDbEntity
  8
0
  6
ByLayer
 62
  256
370
   -1
100
AcDbCircle
 10
91
 20
6
 40
12
100
AcDbArc
 50
155.3756816478357
 51
209.9999999999998
  0
ARC
  5
98
100
AcDbEntity
  8
0
  6
ByLayer
 62
  256
370
   -1
100
AcDbCircle
 10
101
 20
6
 40
12
100
AcDbArc
 50
155.3756816478357
 51
209.9999999999998
  0
ARC
  5
99
100
AcDbEntity
  8
0
  6
ByLayer
 62
  256
370
   -1
100
AcDbCircle
 10
111
 20
6
 40
12
100
AcDbArc
 50
155.3756816478357
 51
209.9999999999998
  0
ARC
  5
9A
100
AcDbEntity
  8
0
  6
ByLayer
 62
  256
370
   -1
100
AcDbCircle
 10
121
 20
6
 40
12
100
AcDbArc
 50
155.3756816478357
 51
209.9999999999998
  0
ARC
  5
9B
100
AcDbEntity
  8
0
  6
ByLayer
 62
  256
370
   -1
100
AcDbCircle
 10
131
 20
6
 40
12
100
AcDbArc
 50
155.3756816478357
 51
209.9999999999998
  0
ARC
  5
9C
100
AcDbEntity
  8
0
  6
ByLayer
 62
  256
370
   -1
100
AcDbCircle
 10
141
 20
6
 40
12
100
AcDbArc
 50
155.3756816478357
 51
209.9999999999998
  0
ARC
  5
9D
100
AcDbEntity
  8
0
  6
ByLayer
 62
  256
370
   -1
100
AcDbCircle
 10
151
 20
6
 40
12
100
AcDbArc
 50
155.3756816478357
 51
209.9999999999998
  0
ARC
  5
9E
100
AcDbEntity
  8
0
  6
ByLayer
 62
  256
370
   -1
100
AcDbCircle
 10
161
 20
6
 40
12
100
AcDbArc
 50
155.3756816478357
 51
209.9999999999998
  0
ARC
  5
9F
100
AcDbEntity
  8
0
  6
ByLayer
 62
  256
370
   -1
100
AcDbCircle
 10
171
 20
6
 40
12
100
AcDbArc
 50
155.3756816478357
 51
209.9999999999998
  0
ARC
  5
A0
100
AcDbEntity
  8
0
  6
ByLayer
 62
  256
370
   -1
100
AcDbCircle
 10
181
 20
6
 40
12
100
AcDbArc
 50
155.3756816478357
 51
209.9999999999998
  0
ARC
  5
A1
100
AcDbEntity
  8
0
  6
ByLayer
 62
  256
370
   -1
100
AcDbCircle
 10
190
 20
6
 40
12
100
AcDbArc
 50
155.3756816478357
 51
209.9999999999998
  0
ARC
  5
A2
100
AcDbEntity
  8
0
  6
ByLayer
 62
  256
370
   -1
100
AcDbCircle
 10
201
 20
6
 40
12
100
AcDbArc
 50
155.3756816478357
 51
209.9999999999998
  0
ARC
  5
A3
100
AcDbEntity
  8
0
  6
ByLayer
 62
  256
370
   -1
100
AcDbCircle
 10
211
 20
6
 40
12
100
AcDbArc
 50
155.3756816478357
 51
209.9999999999998
  0
ENDSEC
  0
SECTION
  2
OBJECTS
  0
DICTIONARY
  5
C
330
0
100
AcDbDictionary
281
    1
  3
ACAD_GROUP
350
D
  0
DICTIONARY
  5
D
330
C
100
AcDbDictionary
281
    1
  0
PLOTSETTINGS
  5
A4
100
AcDbPlotSettings
  6
1x1
 40
0
 41
0
 42
0
 43
0
  0
ENDSEC
  0
EOF
