  0
SECTION
  2
HEADER
  9
$ACADVER
  1
AC1009
  9
$INSBASE
 10
0.0
 20
0.0
 30
0.0
  9
$EXTMIN
 10
0.0
 20
0.0
 30
0.0
  9
$EXTMAX
 10
100.0
 20
100.0
 30
0.0
  9
$UNITMODE
 70
0
  9
$AUNITS
 70
0
  9
$ANGBASE
 50
0.0
  9
$ANGDIR
 70
0
  0
ENDSEC
  0
SECTION
  2
TABLES
  0
TABLE
  2
LTYPE
 70
19
  0
LTYPE
  2
CONTINUOUS
 70
0
  3
Solid
 72
65
 73
0
 40
0.0
  0
LTYPE
  2
CENTER
 70
0
  3
Center ____ _ ____ _ ____ _ ____ _ ____ _ ____
 72
65
 73
4
 40
2.0
 49
1.25
 49
-0.25
 49
0.25
 49
-0.25
  0
LTYPE
  2
CENTERX2
 70
0
  3
Center (2x) ________  __  ________  __  ________
 72
65
 73
4
 40
3.5
 49
2.5
 49
-0.25
 49
0.5
 49
-0.25
  0
LTYPE
  2
CENTER2
 70
0
  3
Center (.5x) ____ _ ____ _ ____ _ ____ _ ____
 72
65
 73
4
 40
1.0
 49
0.625
 49
-0.125
 49
0.125
 49
-0.125
  0
LTYPE
  2
DASHED
 70
0
  3
Dashed __ __ __ __ __ __ __ __ __ __ __ __ __ _
 72
65
 73
2
 40
0.6
 49
0.5
 49
-0.1
  0
LTYPE
  2
DASHEDX2
 70
0
  3
Dashed (2x) ____  ____  ____  ____  ____  ____
 72
65
 73
2
 40
1.2
 49
1.0
 49
-0.2
  0
LTYPE
  2
DASHED2
 70
0
  3
Dashed (.5x) _ _ _ _ _ _ _ _ _ _ _ _ _ _
 72
65
 73
2
 40
0.3
 49
0.25
 49
-0.05
  0
LTYPE
  2
PHANTOM
 70
0
  3
Phantom ______  __  __  ______  __  __  ______
 72
65
 73
6
 40
2.5
 49
1.25
 49
-0.25
 49
0.25
 49
-0.25
 49
0.25
 49
-0.25
  0
LTYPE
  2
PHANTOMX2
 70
0
  3
Phantom (2x)____________    ____    ____    ____________
 72
65
 73
6
 40
4.25
 49
2.5
 49
-0.25
 49
0.5
 49
-0.25
 49
0.5
 49
-0.25
  0
LTYPE
  2
PHANTOM2
 70
0
  3
Phantom (.5x) ___ _ _ ___ _ _ ___ _ _ ___ _ _ ___
 72
65
 73
6
 40
1.25
 49
0.625
 49
-0.125
 49
0.125
 49
-0.125
 49
0.125
 49
-0.125
  0
LTYPE
  2
DASHDOT
 70
0
  3
Dash dot __ . __ . __ . __ . __ . __ . __ . __
 72
65
 73
4
 40
1.4
 49
1.0
 49
-0.2
 49
0.0
 49
-0.2
  0
LTYPE
  2
DASHDOTX2
 70
0
  3
Dash dot (2x) ____  .  ____  .  ____  .  ____
 72
65
 73
4
 40
2.4
 49
2.0
 49
-0.2
 49
0.0
 49
-0.2
  0
LTYPE
  2
DASHDOT2
 70
0
  3
Dash dot (.5x) _ . _ . _ . _ . _ . _ . _ . _
 72
65
 73
4
 40
0.7
 49
0.5
 49
-0.1
 49
0.0
 49
-0.1
  0
LTYPE
  2
DOT
 70
0
  3
Dot .  .  .  .  .  .  .  .  .  .  .  .  .  .  .  .
 72
65
 73
2
 40
0.2
 49
0.0
 49
-0.2
  0
LTYPE
  2
DOTX2
 70
0
  3
Dot (2x) .    .    .    .    .    .    .    . 
 72
65
 73
2
 40
0.4
 49
0.0
 49
-0.4
  0
LTYPE
  2
DOT2
 70
0
  3
Dot (.5) . . . . . . . . . . . . . . . . . . . 
 72
65
 73
2
 40
0.1
 49
0.0
 49
-0.1
  0
LTYPE
  2
DIVIDE
 70
0
  3
Divide __ . . __ . . __ . . __ . . __ . . __
 72
65
 73
6
 40
1.6
 49
1.0
 49
-0.2
 49
0.0
 49
-0.2
 49
0.0
 49
-0.2
  0
LTYPE
  2
DIVIDEX2
 70
0
  3
Divide (2x) ____  . .  ____  . .  ____  . .  ____
 72
65
 73
6
 40
2.6
 49
2.0
 49
-0.2
 49
0.0
 49
-0.2
 49
0.0
 49
-0.2
  0
LTYPE
  2
DIVIDE2
 70
0
  3
Divide(.5x) _ . _ . _ . _ . _ . _ . _ . _
 72
65
 73
6
 40
0.8
 49
0.5
 49
-0.1
 49
0.0
 49
-0.1
 49
0.0
 49
-0.1
  0
ENDTAB
  0
TABLE
  2
LAYER
 70
3
  0
LAYER
  2
CUT
 70
0
 62
3
  6
CONTINUOUS
  0
LAYER
  2
DRW0
 70
0
 62
9
  6
CONTINUOUS
  0
LAYER
  2
DRW0_CUT
 70
0
 62
4
  6
CONTINUOUS
  0
ENDTAB
  0
TABLE
  2
STYLE
 70
12
  0
STYLE
  2
STANDARD
 70
0
 40
0.0
 41
1.0
 42
1.0
 50
0.0
 71
0
  3
arial.ttf
  4

  0
STYLE
  2
ARIAL
 70
0
 40
0.0
 41
1.0
 42
1.0
 50
0.0
 71
0
  3
arial.ttf
  4

  0
STYLE
  2
ARIAL_BOLD
 70
0
 40
0.0
 41
1.0
 42
1.0
 50
0.0
 71
0
  3
arialbd.ttf
  4

  0
STYLE
  2
ARIAL_ITALIC
 70
0
 40
0.0
 41
1.0
 42
1.0
 50
0.0
 71
0
  3
ariali.ttf
  4

  0
STYLE
  2
ARIAL_BOLD_ITALIC
 70
0
 40
0.0
 41
1.0
 42
1.0
 50
0.0
 71
0
  3
arialbi.ttf
  4

  0
STYLE
  2
ARIAL_BLACK
 70
0
 40
0.0
 41
1.0
 42
1.0
 50
0.0
 71
0
  3
ariblk.ttf
  4

  0
STYLE
  2
ISOCPEUR
 70
0
 40
0.0
 41
1.0
 42
1.0
 50
0.0
 71
0
  3
isocpeur.ttf
  4

  0
STYLE
  2
ISOCPEUR_ITALIC
 70
0
 40
0.0
 41
1.0
 42
1.0
 50
0.0
 71
0
  3
isocpeui.ttf
  4

  0
STYLE
  2
TIMES
 70
0
 40
0.0
 41
1.0
 42
1.0
 50
0.0
 71
0
  3
times.ttf
  4

  0
STYLE
  2
TIMES_BOLD
 70
0
 40
0.0
 41
1.0
 42
1.0
 50
0.0
 71
0
  3
timesbd.ttf
  4

  0
STYLE
  2
TIMES_ITALIC
 70
0
 40
0.0
 41
1.0
 42
1.0
 50
0.0
 71
0
  3
timesi.ttf
  4

  0
STYLE
  2
TIMES_BOLD_ITALIC
 70
0
 40
0.0
 41
1.0
 42
1.0
 50
0.0
 71
0
  3
timesbi.ttf
  4

  0
ENDTAB
  0
TABLE
  2
VIEW
 70
0
  0
ENDTAB
  0
TABLE
  2
APPID
 70
1
  0
APPID
  2
DXFWRITE
 70
0
  0
ENDTAB
  0
TABLE
  2
VPORT
 70
0
  0
ENDTAB
  0
TABLE
  2
UCS
 70
0
  0
ENDTAB
  0
ENDSEC
  0
SECTION
  2
BLOCKS
  0
ENDSEC
  0
SECTION
  2
ENTITIES
  0
VIEWPORT
  8
VIEWPORTS
 67
1
 10
0.0
 20
0.0
 30
0.0
 40
1.0
 41
1.0
 68
1
 69
1
1001
ACAD
1000
MVIEW
1002
{
1070
16
1010
0.0
1020
0.0
1030
0.0
1010
0.0
1020
0.0
1030
0.0
1040
0.0
1040
1.0
1040
0.0
1040
0.0
1040
50.0
1040
0.0
1040
0.0
1070
0
1070
100
1070
1
1070
3
1070
0
1070
0
1070
0
1070
0
1040
0.0
1040
0.0
1040
0.0
1040
0.1
1040
0.1
1040
0.1
1040
0.1
1070
0
1002
{
1002
}
1002
}
  0
LINE
  8
0
 10
0.0
 20
0.0
 30
0.0
 11
-34.99694587848627
 21
0.0
 31
0.0
  0
LINE
  8
0
 10
-34.99694587848627
 20
0.0
 30
0.0
 11
-69.99389175697254
 21
0.0
 31
0.0
  0
LINE
  8
0
 10
-69.99389175697254
 20
0.0
 30
0.0
 11
-69.99389175697254
 21
-29.02785916934096
 31
0.0
  0
LINE
  8
0
 10
-69.99389175697254
 20
-29.02785916934096
 30
0.0
 11
-69.99389175697254
 21
-58.07159356929135
 31
0.0
  0
LINE
  8
0
 10
-69.99389175697254
 20
-58.07159356929135
 30
0.0
 11
-35.004883493790985
 21
-58.07159356929135
 31
0.0
  0
LINE
  8
0
 10
-35.004883493790985
 20
-58.07159356929135
 30
0.0
 11
0.0
 21
-58.07159356929135
 31
0.0
  0
LINE
  8
0
 10
0.0
 20
-58.07159356929135
 30
0.0
 11
0.0
 21
-29.04373439995039
 31
0.0
  0
LINE
  8
0
 10
0.0
 20
-29.04373439995039
 30
0.0
 11
0.0
 21
0.0
 31
0.0
  0
LINE
  8
0
 10
0.0
 20
0.0
 30
0.0
 11
0.9922019130893137
 21
0.9922019130893137
 31
0.0
  0
LINE
  8
0
 10
0.9922019130893137
 20
0.9922019130893137
 30
0.0
 11
2.0002790567880564
 21
2.0002790567880564
 31
0.0
  0
LINE
  8
0_CUT
 10
2.0002790567880564
 20
2.0002790567880564
 30
0.0
 11
1.4049579089344681
 21
2.0002790567880564
 31
0.0
  0
LINE
  8
0_CUT
 10
1.4049579089344681
 20
2.0002790567880564
 30
0.0
 11
-71.42266251182116
 21
2.0002790567880564
 31
0.0
  0
LINE
  8
0_CUT
 10
-71.42266251182116
 20
2.0002790567880564
 30
0.0
 11
-71.9941708137606
 21
2.0002790567880564
 31
0.0
  0
LINE
  8
0_CUT
 10
-71.9941708137606
 20
2.0002790567880564
 30
0.0
 11
-71.9941708137606
 21
1.4287707548486117
 31
0.0
  0
LINE
  8
0_CUT
 10
-71.9941708137606
 20
1.4287707548486117
 30
0.0
 11
-71.9941708137606
 21
-59.50036432413996
 31
0.0
  0
LINE
  8
0_CUT
 10
-71.9941708137606
 20
-59.50036432413996
 30
0.0
 11
-71.9941708137606
 21
-60.071872626079404
 31
0.0
  0
LINE
  8
0_CUT
 10
-71.9941708137606
 20
-60.071872626079404
 30
0.0
 11
-71.42266251182116
 21
-60.071872626079404
 31
0.0
  0
LINE
  8
0_CUT
 10
-71.42266251182116
 20
-60.071872626079404
 30
0.0
 11
1.428770754848614
 21
-60.071872626079404
 31
0.0
  0
LINE
  8
0_CUT
 10
1.428770754848614
 20
-60.071872626079404
 30
0.0
 11
2.0002790567880586
 21
-60.071872626079404
 31
0.0
  0
LINE
  8
0_CUT
 10
2.0002790567880586
 20
-60.071872626079404
 30
0.0
 11
2.0002790567880586
 21
-59.50036432413996
 31
0.0
  0
LINE
  8
0_CUT
 10
2.0002790567880586
 20
-59.50036432413996
 30
0.0
 11
2.0002790567880586
 21
1.4049579089344704
 31
0.0
  0
LINE
  8
0_CUT
 10
2.0002790567880586
 20
1.4049579089344704
 30
0.0
 11
2.0002790567880586
 21
2.0002790567880586
 31
0.0
  0
LINE
  8
DRW0
 10
-83.99584515448893
 20
-57.825527494845204
 30
0.0
 11
-70.00182937227726
 21
-57.825527494845204
 31
0.0
  0
LINE
  8
DRW0_CUT
 10
-70.00182937227726
 20
-57.825527494845204
 30
0.0
 11
-60.000434088336974
 21
-57.825527494845204
 31
0.0
  0
LINE
  8
DRW0
 10
-60.000434088336974
 20
-57.825527494845204
 30
0.0
 11
-49.99903880439669
 21
-57.825527494845204
 31
0.0
  0
LINE
  8
DRW0_CUT
 10
-49.99903880439669
 20
-57.825527494845204
 30
0.0
 11
-39.99764352045641
 21
-57.825527494845204
 31
0.0
  0
LINE
  8
DRW0
 10
-39.99764352045641
 20
-57.825527494845204
 30
0.0
 11
-29.996248236516124
 21
-57.825527494845204
 31
0.0
  0
LINE
  8
DRW0_CUT
 10
-29.996248236516124
 20
-57.825527494845204
 30
0.0
 11
-20.002790567880556
 21
-57.825527494845204
 31
0.0
  0
LINE
  8
DRW0
 10
-20.002790567880556
 20
-57.825527494845204
 30
0.0
 11
-10.001395283940274
 21
-57.825527494845204
 31
0.0
  0
LINE
  8
DRW0_CUT
 10
-10.001395283940274
 20
-57.825527494845204
 30
0.0
 11
7.105427357601002e-15
 21
-57.825527494845204
 31
0.0
  0
LINE
  8
DRW0
 10
7.105427357601002e-15
 20
-57.825527494845204
 30
0.0
 11
0.10318899896129573
 21
-57.825527494845204
 31
0.0
  0
LINE
  8
DRW0
 10
0.10318899896129573
 20
-57.825527494845204
 30
0.0
 11
14.097204781172975
 21
-57.825527494845204
 31
0.0
  0
LINE
  8
DRW0
 10
14.097204781172975
 20
-57.825527494845204
 30
0.0
 11
14.097204781172975
 21
-57.32545773064819
 31
0.0
  0
LINE
  8
DRW0
 10
14.097204781172975
 20
-57.32545773064819
 30
0.0
 11
0.1031889989612953
 21
-57.32545773064819
 31
0.0
  0
LINE
  8
DRW0_CUT
 10
0.1031889989612953
 20
-57.32545773064819
 30
0.0
 11
0.1031889989612953
 21
-57.32545773064819
 31
0.0
  0
LINE
  8
DRW0
 10
0.1031889989612953
 20
-57.32545773064819
 30
0.0
 11
0.0238128459141502
 21
-57.32545773064819
 31
0.0
  0
LINE
  8
DRW0_CUT
 10
0.0238128459141502
 20
-57.32545773064819
 30
0.0
 11
-9.97758243802613
 21
-57.32545773064819
 31
0.0
  0
LINE
  8
DRW0
 10
-9.97758243802613
 20
-57.32545773064819
 30
0.0
 11
-19.978977721966412
 21
-57.32545773064819
 31
0.0
  0
LINE
  8
DRW0_CUT
 10
-19.978977721966412
 20
-57.32545773064819
 30
0.0
 11
-29.980373005906692
 21
-57.32545773064819
 31
0.0
  0
LINE
  8
DRW0
 10
-29.980373005906692
 20
-57.32545773064819
 30
0.0
 11
-39.981768289846976
 21
-57.32545773064819
 31
0.0
  0
LINE
  8
DRW0_CUT
 10
-39.981768289846976
 20
-57.32545773064819
 30
0.0
 11
-49.98316357378726
 21
-57.32545773064819
 31
0.0
  0
LINE
  8
DRW0
 10
-49.98316357378726
 20
-57.32545773064819
 30
0.0
 11
-59.97662124242282
 21
-57.32545773064819
 31
0.0
  0
LINE
  8
DRW0_CUT
 10
-59.97662124242282
 20
-57.32545773064819
 30
0.0
 11
-69.9780165263631
 21
-57.32545773064819
 31
0.0
  0
LINE
  8
DRW0
 10
-69.9780165263631
 20
-57.32545773064819
 30
0.0
 11
-70.00182937227724
 21
-57.32545773064819
 31
0.0
  0
LINE
  8
DRW0
 10
-70.00182937227724
 20
-57.32545773064819
 30
0.0
 11
-83.99584515448892
 21
-57.32545773064819
 31
0.0
  0
LINE
  8
DRW0
 10
-83.99584515448892
 20
-57.32545773064819
 30
0.0
 11
-83.99584515448892
 21
-56.825387966451174
 31
0.0
  0
LINE
  8
DRW0
 10
-83.99584515448892
 20
-56.825387966451174
 30
0.0
 11
-70.00182937227724
 21
-56.825387966451174
 31
0.0
  0
LINE
  8
DRW0_CUT
 10
-70.00182937227724
 20
-56.825387966451174
 30
0.0
 11
-70.00182937227724
 21
-56.825387966451174
 31
0.0
  0
LINE
  8
DRW0
 10
-70.00182937227724
 20
-56.825387966451174
 30
0.0
 11
-69.92245321923009
 21
-56.825387966451174
 31
0.0
  0
LINE
  8
DRW0_CUT
 10
-69.92245321923009
 20
-56.825387966451174
 30
0.0
 11
-59.92105793528981
 21
-56.825387966451174
 31
0.0
  0
LINE
  8
DRW0
 10
-59.92105793528981
 20
-56.825387966451174
 30
0.0
 11
-49.919662651349526
 21
-56.825387966451174
 31
0.0
  0
LINE
  8
DRW0_CUT
 10
-49.919662651349526
 20
-56.825387966451174
 30
0.0
 11
-39.91826736740924
 21
-56.825387966451174
 31
0.0
  0
LINE
  8
DRW0
 10
-39.91826736740924
 20
-56.825387966451174
 30
0.0
 11
-29.91687208346896
 21
-56.825387966451174
 31
0.0
  0
LINE
  8
DRW0_CUT
 10
-29.91687208346896
 20
-56.825387966451174
 30
0.0
 11
-19.915476799528676
 21
-56.825387966451174
 31
0.0
  0
LINE
  8
DRW0
 10
-19.915476799528676
 20
-56.825387966451174
 30
0.0
 11
-9.922019130893108
 21
-56.825387966451174
 31
0.0
  0
LINE
  8
DRW0_CUT
 10
-9.922019130893108
 20
-56.825387966451174
 30
0.0
 11
0.07937615304717305
 21
-56.825387966451174
 31
0.0
  0
LINE
  8
DRW0
 10
0.07937615304717305
 20
-56.825387966451174
 30
0.0
 11
0.10318899896131657
 21
-56.825387966451174
 31
0.0
  0
LINE
  8
DRW0
 10
0.10318899896131657
 20
-56.825387966451174
 30
0.0
 11
14.097204781172996
 21
-56.825387966451174
 31
0.0
  0
LINE
  8
DRW0
 10
14.097204781172996
 20
-56.825387966451174
 30
0.0
 11
14.097204781172996
 21
-56.32531820225416
 31
0.0
  0
LINE
  8
DRW0
 10
14.097204781172996
 20
-56.32531820225416
 30
0.0
 11
0.10318899896131661
 21
-56.32531820225416
 31
0.0
  0
LINE
  8
DRW0_CUT
 10
0.10318899896131661
 20
-56.32531820225416
 30
0.0
 11
0.10318899896131661
 21
-56.32531820225416
 31
0.0
  0
LINE
  8
DRW0
 10
0.10318899896131661
 20
-56.32531820225416
 30
0.0
 11
0.023812845914171515
 21
-56.32531820225416
 31
0.0
  0
LINE
  8
DRW0_CUT
 10
0.023812845914171515
 20
-56.32531820225416
 30
0.0
 11
-9.97758243802611
 21
-56.32531820225416
 31
0.0
  0
LINE
  8
DRW0
 10
-9.97758243802611
 20
-56.32531820225416
 30
0.0
 11
-19.97897772196639
 21
-56.32531820225416
 31
0.0
  0
LINE
  8
DRW0_CUT
 10
-19.97897772196639
 20
-56.32531820225416
 30
0.0
 11
-29.98037300590667
 21
-56.32531820225416
 31
0.0
  0
LINE
  8
DRW0
 10
-29.98037300590667
 20
-56.32531820225416
 30
0.0
 11
-39.981768289846954
 21
-56.32531820225416
 31
0.0
  0
LINE
  8
DRW0_CUT
 10
-39.981768289846954
 20
-56.32531820225416
 30
0.0
 11
-49.98316357378724
 21
-56.32531820225416
 31
0.0
  0
LINE
  8
DRW0
 10
-49.98316357378724
 20
-56.32531820225416
 30
0.0
 11
-59.97662124242281
 21
-56.32531820225416
 31
0.0
  0
LINE
  8
DRW0_CUT
 10
-59.97662124242281
 20
-56.32531820225416
 30
0.0
 11
-69.97801652636309
 21
-56.32531820225416
 31
0.0
  0
LINE
  8
DRW0
 10
-69.97801652636309
 20
-56.32531820225416
 30
0.0
 11
-70.00182937227723
 21
-56.32531820225416
 31
0.0
  0
LINE
  8
DRW0
 10
-70.00182937227723
 20
-56.32531820225416
 30
0.0
 11
-83.9958451544889
 21
-56.32531820225416
 31
0.0
  0
LINE
  8
DRW0
 10
-83.9958451544889
 20
-56.32531820225416
 30
0.0
 11
-83.9958451544889
 21
-55.825248438057145
 31
0.0
  0
LINE
  8
DRW0
 10
-83.9958451544889
 20
-55.825248438057145
 30
0.0
 11
-70.00182937227723
 21
-55.825248438057145
 31
0.0
  0
LINE
  8
DRW0_CUT
 10
-70.00182937227723
 20
-55.825248438057145
 30
0.0
 11
-70.00182937227723
 21
-55.825248438057145
 31
0.0
  0
LINE
  8
DRW0
 10
-70.00182937227723
 20
-55.825248438057145
 30
0.0
 11
-69.92245321923008
 21
-55.825248438057145
 31
0.0
  0
LINE
  8
DRW0_CUT
 10
-69.92245321923008
 20
-55.825248438057145
 30
0.0
 11
-59.921057935289795
 21
-55.825248438057145
 31
0.0
  0
LINE
  8
DRW0
 10
-59.921057935289795
 20
-55.825248438057145
 30
0.0
 11
-49.91966265134951
 21
-55.825248438057145
 31
0.0
  0
LINE
  8
DRW0_CUT
 10
-49.91966265134951
 20
-55.825248438057145
 30
0.0
 11
-39.91826736740923
 21
-55.825248438057145
 31
0.0
  0
LINE
  8
DRW0
 10
-39.91826736740923
 20
-55.825248438057145
 30
0.0
 11
-29.916872083468945
 21
-55.825248438057145
 31
0.0
  0
LINE
  8
DRW0_CUT
 10
-29.916872083468945
 20
-55.825248438057145
 30
0.0
 11
-19.915476799528662
 21
-55.825248438057145
 31
0.0
  0
LINE
  8
DRW0
 10
-19.915476799528662
 20
-55.825248438057145
 30
0.0
 11
-9.922019130893094
 21
-55.825248438057145
 31
0.0
  0
LINE
  8
DRW0_CUT
 10
-9.922019130893094
 20
-55.825248438057145
 30
0.0
 11
0.07937615304718726
 21
-55.825248438057145
 31
0.0
  0
LINE
  8
DRW0
 10
0.07937615304718726
 20
-55.825248438057145
 30
0.0
 11
0.10318899896133078
 21
-55.825248438057145
 31
0.0
  0
LINE
  8
DRW0
 10
0.10318899896133078
 20
-55.825248438057145
 30
0.0
 11
14.09720478117301
 21
-55.825248438057145
 31
0.0
  0
LINE
  8
DRW0
 10
14.09720478117301
 20
-55.825248438057145
 30
0.0
 11
14.09720478117301
 21
-55.32517867386013
 31
0.0
  0
LINE
  8
DRW0
 10
14.09720478117301
 20
-55.32517867386013
 30
0.0
 11
0.10318899896133082
 21
-55.32517867386013
 31
0.0
  0
LINE
  8
DRW0_CUT
 10
0.10318899896133082
 20
-55.32517867386013
 30
0.0
 11
0.10318899896133082
 21
-55.32517867386013
 31
0.0
  0
LINE
  8
DRW0
 10
0.10318899896133082
 20
-55.32517867386013
 30
0.0
 11
0.023812845914185726
 21
-55.32517867386013
 31
0.0
  0
LINE
  8
DRW0_CUT
 10
0.023812845914185726
 20
-55.32517867386013
 30
0.0
 11
-9.977582438026095
 21
-55.32517867386013
 31
0.0
  0
LINE
  8
DRW0
 10
-9.977582438026095
 20
-55.32517867386013
 30
0.0
 11
-19.978977721966377
 21
-55.32517867386013
 31
0.0
  0
LINE
  8
DRW0_CUT
 10
-19.978977721966377
 20
-55.32517867386013
 30
0.0
 11
-29.980373005906657
 21
-55.32517867386013
 31
0.0
  0
LINE
  8
DRW0
 10
-29.980373005906657
 20
-55.32517867386013
 30
0.0
 11
-39.98176828984694
 21
-55.32517867386013
 31
0.0
  0
LINE
  8
DRW0_CUT
 10
-39.98176828984694
 20
-55.32517867386013
 30
0.0
 11
-49.98316357378722
 21
-55.32517867386013
 31
0.0
  0
LINE
  8
DRW0
 10
-49.98316357378722
 20
-55.32517867386013
 30
0.0
 11
-59.976621242422794
 21
-55.32517867386013
 31
0.0
  0
LINE
  8
DRW0_CUT
 10
-59.976621242422794
 20
-55.32517867386013
 30
0.0
 11
-69.97801652636308
 21
-55.32517867386013
 31
0.0
  0
LINE
  8
DRW0
 10
-69.97801652636308
 20
-55.32517867386013
 30
0.0
 11
-70.00182937227721
 21
-55.32517867386013
 31
0.0
  0
LINE
  8
DRW0
 10
-70.00182937227721
 20
-55.32517867386013
 30
0.0
 11
-83.99584515448889
 21
-55.32517867386013
 31
0.0
  0
LINE
  8
DRW0
 10
-83.99584515448889
 20
-55.32517867386013
 30
0.0
 11
-83.99584515448889
 21
-54.825108909663115
 31
0.0
  0
LINE
  8
DRW0
 10
-83.99584515448889
 20
-54.825108909663115
 30
0.0
 11
-70.00182937227721
 21
-54.825108909663115
 31
0.0
  0
LINE
  8
DRW0_CUT
 10
-70.00182937227721
 20
-54.825108909663115
 30
0.0
 11
-70.00182937227721
 21
-54.825108909663115
 31
0.0
  0
LINE
  8
DRW0
 10
-70.00182937227721
 20
-54.825108909663115
 30
0.0
 11
-69.92245321923006
 21
-54.825108909663115
 31
0.0
  0
LINE
  8
DRW0_CUT
 10
-69.92245321923006
 20
-54.825108909663115
 30
0.0
 11
-59.92105793528978
 21
-54.825108909663115
 31
0.0
  0
LINE
  8
DRW0
 10
-59.92105793528978
 20
-54.825108909663115
 30
0.0
 11
-49.9196626513495
 21
-54.825108909663115
 31
0.0
  0
LINE
  8
DRW0_CUT
 10
-49.9196626513495
 20
-54.825108909663115
 30
0.0
 11
-39.918267367409214
 21
-54.825108909663115
 31
0.0
  0
LINE
  8
DRW0
 10
-39.918267367409214
 20
-54.825108909663115
 30
0.0
 11
-29.91687208346893
 21
-54.825108909663115
 31
0.0
  0
LINE
  8
DRW0_CUT
 10
-29.91687208346893
 20
-54.825108909663115
 30
0.0
 11
-19.915476799528648
 21
-54.825108909663115
 31
0.0
  0
LINE
  8
DRW0
 10
-19.915476799528648
 20
-54.825108909663115
 30
0.0
 11
-9.92201913089308
 21
-54.825108909663115
 31
0.0
  0
LINE
  8
DRW0_CUT
 10
-9.92201913089308
 20
-54.825108909663115
 30
0.0
 11
0.07937615304720147
 21
-54.825108909663115
 31
0.0
  0
LINE
  8
DRW0
 10
0.07937615304720147
 20
-54.825108909663115
 30
0.0
 11
0.103188998961345
 21
-54.825108909663115
 31
0.0
  0
LINE
  8
DRW0
 10
0.103188998961345
 20
-54.825108909663115
 30
0.0
 11
14.097204781173025
 21
-54.825108909663115
 31
0.0
  0
LINE
  8
DRW0
 10
14.097204781173025
 20
-54.825108909663115
 30
0.0
 11
14.097204781173025
 21
-54.3250391454661
 31
0.0
  0
LINE
  8
DRW0
 10
14.097204781173025
 20
-54.3250391454661
 30
0.0
 11
0.10318899896134504
 21
-54.3250391454661
 31
0.0
  0
LINE
  8
DRW0_CUT
 10
0.10318899896134504
 20
-54.3250391454661
 30
0.0
 11
0.10318899896134504
 21
-54.3250391454661
 31
0.0
  0
LINE
  8
DRW0
 10
0.10318899896134504
 20
-54.3250391454661
 30
0.0
 11
0.023812845914199937
 21
-54.3250391454661
 31
0.0
  0
LINE
  8
DRW0_CUT
 10
0.023812845914199937
 20
-54.3250391454661
 30
0.0
 11
-9.977582438026081
 21
-54.3250391454661
 31
0.0
  0
LINE
  8
DRW0
 10
-9.977582438026081
 20
-54.3250391454661
 30
0.0
 11
-19.978977721966363
 21
-54.3250391454661
 31
0.0
  0
LINE
  8
DRW0_CUT
 10
-19.978977721966363
 20
-54.3250391454661
 30
0.0
 11
-29.980373005906642
 21
-54.3250391454661
 31
0.0
  0
LINE
  8
DRW0
 10
-29.980373005906642
 20
-54.3250391454661
 30
0.0
 11
-39.981768289846926
 21
-54.3250391454661
 31
0.0
  0
LINE
  8
DRW0_CUT
 10
-39.981768289846926
 20
-54.3250391454661
 30
0.0
 11
-49.98316357378721
 21
-54.3250391454661
 31
0.0
  0
LINE
  8
DRW0
 10
-49.98316357378721
 20
-54.3250391454661
 30
0.0
 11
-59.97662124242278
 21
-54.3250391454661
 31
0.0
  0
LINE
  8
DRW0_CUT
 10
-59.97662124242278
 20
-54.3250391454661
 30
0.0
 11
-69.97801652636306
 21
-54.3250391454661
 31
0.0
  0
LINE
  8
DRW0
 10
-69.97801652636306
 20
-54.3250391454661
 30
0.0
 11
-70.0018293722772
 21
-54.3250391454661
 31
0.0
  0
LINE
  8
DRW0
 10
-70.0018293722772
 20
-54.3250391454661
 30
0.0
 11
-83.99584515448888
 21
-54.3250391454661
 31
0.0
  0
LINE
  8
DRW0
 10
-83.99584515448888
 20
-54.3250391454661
 30
0.0
 11
-83.99584515448888
 21
-53.824969381269085
 31
0.0
  0
LINE
  8
DRW0
 10
-83.99584515448888
 20
-53.824969381269085
 30
0.0
 11
-70.0018293722772
 21
-53.824969381269085
 31
0.0
  0
LINE
  8
DRW0_CUT
 10
-70.0018293722772
 20
-53.824969381269085
 30
0.0
 11
-70.0018293722772
 21
-53.824969381269085
 31
0.0
  0
LINE
  8
DRW0
 10
-70.0018293722772
 20
-53.824969381269085
 30
0.0
 11
-69.92245321923005
 21
-53.824969381269085
 31
0.0
  0
LINE
  8
DRW0_CUT
 10
-69.92245321923005
 20
-53.824969381269085
 30
0.0
 11
-59.92105793528977
 21
-53.824969381269085
 31
0.0
  0
LINE
  8
DRW0
 10
-59.92105793528977
 20
-53.824969381269085
 30
0.0
 11
-49.91966265134948
 21
-53.824969381269085
 31
0.0
  0
LINE
  8
DRW0_CUT
 10
-49.91966265134948
 20
-53.824969381269085
 30
0.0
 11
-39.9182673674092
 21
-53.824969381269085
 31
0.0
  0
LINE
  8
DRW0
 10
-39.9182673674092
 20
-53.824969381269085
 30
0.0
 11
-29.916872083468917
 21
-53.824969381269085
 31
0.0
  0
LINE
  8
DRW0_CUT
 10
-29.916872083468917
 20
-53.824969381269085
 30
0.0
 11
-19.915476799528633
 21
-53.824969381269085
 31
0.0
  0
LINE
  8
DRW0
 10
-19.915476799528633
 20
-53.824969381269085
 30
0.0
 11
-9.922019130893066
 21
-53.824969381269085
 31
0.0
  0
LINE
  8
DRW0_CUT
 10
-9.922019130893066
 20
-53.824969381269085
 30
0.0
 11
0.07937615304721568
 21
-53.824969381269085
 31
0.0
  0
LINE
  8
DRW0
 10
0.07937615304721568
 20
-53.824969381269085
 30
0.0
 11
0.1031889989613592
 21
-53.824969381269085
 31
0.0
  0
LINE
  8
DRW0
 10
0.1031889989613592
 20
-53.824969381269085
 30
0.0
 11
14.097204781173039
 21
-53.824969381269085
 31
0.0
  0
LINE
  8
DRW0
 10
14.097204781173039
 20
-53.824969381269085
 30
0.0
 11
14.097204781173039
 21
-53.32489961707207
 31
0.0
  0
LINE
  8
DRW0
 10
14.097204781173039
 20
-53.32489961707207
 30
0.0
 11
0.10318899896135925
 21
-53.32489961707207
 31
0.0
  0
LINE
  8
DRW0_CUT
 10
0.10318899896135925
 20
-53.32489961707207
 30
0.0
 11
0.10318899896135925
 21
-53.32489961707207
 31
0.0
  0
LINE
  8
DRW0
 10
0.10318899896135925
 20
-53.32489961707207
 30
0.0
 11
0.023812845914214148
 21
-53.32489961707207
 31
0.0
  0
LINE
  8
DRW0_CUT
 10
0.023812845914214148
 20
-53.32489961707207
 30
0.0
 11
-9.977582438026067
 21
-53.32489961707207
 31
0.0
  0
LINE
  8
DRW0
 10
-9.977582438026067
 20
-53.32489961707207
 30
0.0
 11
-19.97897772196635
 21
-53.32489961707207
 31
0.0
  0
LINE
  8
DRW0_CUT
 10
-19.97897772196635
 20
-53.32489961707207
 30
0.0
 11
-29.98037300590663
 21
-53.32489961707207
 31
0.0
  0
LINE
  8
DRW0
 10
-29.98037300590663
 20
-53.32489961707207
 30
0.0
 11
-39.98176828984691
 21
-53.32489961707207
 31
0.0
  0
LINE
  8
DRW0_CUT
 10
-39.98176828984691
 20
-53.32489961707207
 30
0.0
 11
-49.983163573787195
 21
-53.32489961707207
 31
0.0
  0
LINE
  8
DRW0
 10
-49.983163573787195
 20
-53.32489961707207
 30
0.0
 11
-59.976621242422766
 21
-53.32489961707207
 31
0.0
  0
LINE
  8
DRW0_CUT
 10
-59.976621242422766
 20
-53.32489961707207
 30
0.0
 11
-69.97801652636305
 21
-53.32489961707207
 31
0.0
  0
LINE
  8
DRW0
 10
-69.97801652636305
 20
-53.32489961707207
 30
0.0
 11
-70.00182937227719
 21
-53.32489961707207
 31
0.0
  0
LINE
  8
DRW0
 10
-70.00182937227719
 20
-53.32489961707207
 30
0.0
 11
-83.99584515448886
 21
-53.32489961707207
 31
0.0
  0
LINE
  8
DRW0
 10
-83.99584515448886
 20
-53.32489961707207
 30
0.0
 11
-83.99584515448886
 21
-52.824829852875055
 31
0.0
  0
LINE
  8
DRW0
 10
-83.99584515448886
 20
-52.824829852875055
 30
0.0
 11
-70.00182937227719
 21
-52.824829852875055
 31
0.0
  0
LINE
  8
DRW0_CUT
 10
-70.00182937227719
 20
-52.824829852875055
 30
0.0
 11
-70.00182937227719
 21
-52.824829852875055
 31
0.0
  0
LINE
  8
DRW0
 10
-70.00182937227719
 20
-52.824829852875055
 30
0.0
 11
-69.92245321923004
 21
-52.824829852875055
 31
0.0
  0
LINE
  8
DRW0_CUT
 10
-69.92245321923004
 20
-52.824829852875055
 30
0.0
 11
-59.92105793528975
 21
-52.824829852875055
 31
0.0
  0
LINE
  8
DRW0
 10
-59.92105793528975
 20
-52.824829852875055
 30
0.0
 11
-49.91966265134947
 21
-52.824829852875055
 31
0.0
  0
LINE
  8
DRW0_CUT
 10
-49.91966265134947
 20
-52.824829852875055
 30
0.0
 11
-39.918267367409186
 21
-52.824829852875055
 31
0.0
  0
LINE
  8
DRW0
 10
-39.918267367409186
 20
-52.824829852875055
 30
0.0
 11
-29.916872083468903
 21
-52.824829852875055
 31
0.0
  0
LINE
  8
DRW0_CUT
 10
-29.916872083468903
 20
-52.824829852875055
 30
0.0
 11
-19.91547679952862
 21
-52.824829852875055
 31
0.0
  0
LINE
  8
DRW0
 10
-19.91547679952862
 20
-52.824829852875055
 30
0.0
 11
-9.922019130893052
 21
-52.824829852875055
 31
0.0
  0
LINE
  8
DRW0_CUT
 10
-9.922019130893052
 20
-52.824829852875055
 30
0.0
 11
0.07937615304722989
 21
-52.824829852875055
 31
0.0
  0
LINE
  8
DRW0
 10
0.07937615304722989
 20
-52.824829852875055
 30
0.0
 11
0.10318899896137342
 21
-52.824829852875055
 31
0.0
  0
LINE
  8
DRW0
 10
0.10318899896137342
 20
-52.824829852875055
 30
0.0
 11
14.097204781173053
 21
-52.824829852875055
 31
0.0
  0
LINE
  8
DRW0
 10
14.097204781173053
 20
-52.824829852875055
 30
0.0
 11
14.097204781173053
 21
-52.32476008867804
 31
0.0
  0
LINE
  8
DRW0
 10
14.097204781173053
 20
-52.32476008867804
 30
0.0
 11
0.10318899896137346
 21
-52.32476008867804
 31
0.0
  0
LINE
  8
DRW0_CUT
 10
0.10318899896137346
 20
-52.32476008867804
 30
0.0
 11
0.10318899896137346
 21
-52.32476008867804
 31
0.0
  0
LINE
  8
DRW0
 10
0.10318899896137346
 20
-52.32476008867804
 30
0.0
 11
0.02381284591422836
 21
-52.32476008867804
 31
0.0
  0
LINE
  8
DRW0_CUT
 10
0.02381284591422836
 20
-52.32476008867804
 30
0.0
 11
-9.977582438026053
 21
-52.32476008867804
 31
0.0
  0
LINE
  8
DRW0
 10
-9.977582438026053
 20
-52.32476008867804
 30
0.0
 11
-19.978977721966334
 21
-52.32476008867804
 31
0.0
  0
LINE
  8
DRW0_CUT
 10
-19.978977721966334
 20
-52.32476008867804
 30
0.0
 11
-29.980373005906614
 21
-52.32476008867804
 31
0.0
  0
LINE
  8
DRW0
 10
-29.980373005906614
 20
-52.32476008867804
 30
0.0
 11
-39.9817682898469
 21
-52.32476008867804
 31
0.0
  0
LINE
  8
DRW0_CUT
 10
-39.9817682898469
 20
-52.32476008867804
 30
0.0
 11
-49.98316357378718
 21
-52.32476008867804
 31
0.0
  0
LINE
  8
DRW0
 10
-49.98316357378718
 20
-52.32476008867804
 30
0.0
 11
-59.97662124242275
 21
-52.32476008867804
 31
0.0
  0
LINE
  8
DRW0_CUT
 10
-59.97662124242275
 20
-52.32476008867804
 30
0.0
 11
-69.97801652636304
 21
-52.32476008867804
 31
0.0
  0
LINE
  8
DRW0
 10
-69.97801652636304
 20
-52.32476008867804
 30
0.0
 11
-70.00182937227717
 21
-52.32476008867804
 31
0.0
  0
LINE
  8
DRW0
 10
-70.00182937227717
 20
-52.32476008867804
 30
0.0
 11
-83.99584515448885
 21
-52.32476008867804
 31
0.0
  0
LINE
  8
DRW0
 10
-83.99584515448885
 20
-52.32476008867804
 30
0.0
 11
-83.99584515448885
 21
-51.824690324481026
 31
0.0
  0
LINE
  8
DRW0
 10
-83.99584515448885
 20
-51.824690324481026
 30
0.0
 11
-70.00182937227717
 21
-51.824690324481026
 31
0.0
  0
LINE
  8
DRW0_CUT
 10
-70.00182937227717
 20
-51.824690324481026
 30
0.0
 11
-70.00182937227717
 21
-51.824690324481026
 31
0.0
  0
LINE
  8
DRW0
 10
-70.00182937227717
 20
-51.824690324481026
 30
0.0
 11
-69.92245321923002
 21
-51.824690324481026
 31
0.0
  0
LINE
  8
DRW0_CUT
 10
-69.92245321923002
 20
-51.824690324481026
 30
0.0
 11
-59.92105793528974
 21
-51.824690324481026
 31
0.0
  0
LINE
  8
DRW0
 10
-59.92105793528974
 20
-51.824690324481026
 30
0.0
 11
-49.919662651349455
 21
-51.824690324481026
 31
0.0
  0
LINE
  8
DRW0_CUT
 10
-49.919662651349455
 20
-51.824690324481026
 30
0.0
 11
-39.91826736740917
 21
-51.824690324481026
 31
0.0
  0
LINE
  8
DRW0
 10
-39.91826736740917
 20
-51.824690324481026
 30
0.0
 11
-29.91687208346889
 21
-51.824690324481026
 31
0.0
  0
LINE
  8
DRW0_CUT
 10
-29.91687208346889
 20
-51.824690324481026
 30
0.0
 11
-19.915476799528605
 21
-51.824690324481026
 31
0.0
  0
LINE
  8
DRW0
 10
-19.915476799528605
 20
-51.824690324481026
 30
0.0
 11
-9.922019130893037
 21
-51.824690324481026
 31
0.0
  0
LINE
  8
DRW0_CUT
 10
-9.922019130893037
 20
-51.824690324481026
 30
0.0
 11
0.0793761530472441
 21
-51.824690324481026
 31
0.0
  0
LINE
  8
DRW0
 10
0.0793761530472441
 20
-51.824690324481026
 30
0.0
 11
0.10318899896138763
 21
-51.824690324481026
 31
0.0
  0
LINE
  8
DRW0
 10
0.10318899896138763
 20
-51.824690324481026
 30
0.0
 11
14.097204781173067
 21
-51.824690324481026
 31
0.0
  0
LINE
  8
DRW0
 10
14.097204781173067
 20
-51.824690324481026
 30
0.0
 11
14.097204781173067
 21
-51.32462056028401
 31
0.0
  0
LINE
  8
DRW0
 10
14.097204781173067
 20
-51.32462056028401
 30
0.0
 11
0.10318899896138767
 21
-51.32462056028401
 31
0.0
  0
LINE
  8
DRW0_CUT
 10
0.10318899896138767
 20
-51.32462056028401
 30
0.0
 11
0.10318899896138767
 21
-51.32462056028401
 31
0.0
  0
LINE
  8
DRW0
 10
0.10318899896138767
 20
-51.32462056028401
 30
0.0
 11
0.02381284591424257
 21
-51.32462056028401
 31
0.0
  0
LINE
  8
DRW0_CUT
 10
0.02381284591424257
 20
-51.32462056028401
 30
0.0
 11
-9.977582438026039
 21
-51.32462056028401
 31
0.0
  0
LINE
  8
DRW0
 10
-9.977582438026039
 20
-51.32462056028401
 30
0.0
 11
-19.97897772196632
 21
-51.32462056028401
 31
0.0
  0
LINE
  8
DRW0_CUT
 10
-19.97897772196632
 20
-51.32462056028401
 30
0.0
 11
-29.9803730059066
 21
-51.32462056028401
 31
0.0
  0
LINE
  8
DRW0
 10
-29.9803730059066
 20
-51.32462056028401
 30
0.0
 11
-39.98176828984688
 21
-51.32462056028401
 31
0.0
  0
LINE
  8
DRW0_CUT
 10
-39.98176828984688
 20
-51.32462056028401
 30
0.0
 11
-49.98316357378717
 21
-51.32462056028401
 31
0.0
  0
LINE
  8
DRW0
 10
-49.98316357378717
 20
-51.32462056028401
 30
0.0
 11
-59.97662124242274
 21
-51.32462056028401
 31
0.0
  0
LINE
  8
DRW0_CUT
 10
-59.97662124242274
 20
-51.32462056028401
 30
0.0
 11
-69.97801652636302
 21
-51.32462056028401
 31
0.0
  0
LINE
  8
DRW0
 10
-69.97801652636302
 20
-51.32462056028401
 30
0.0
 11
-70.00182937227716
 21
-51.32462056028401
 31
0.0
  0
LINE
  8
DRW0
 10
-70.00182937227716
 20
-51.32462056028401
 30
0.0
 11
-83.99584515448883
 21
-51.32462056028401
 31
0.0
  0
LINE
  8
DRW0
 10
-83.99584515448883
 20
-51.32462056028401
 30
0.0
 11
-83.99584515448883
 21
-50.824550796086996
 31
0.0
  0
LINE
  8
DRW0
 10
-83.99584515448883
 20
-50.824550796086996
 30
0.0
 11
-70.00182937227716
 21
-50.824550796086996
 31
0.0
  0
LINE
  8
DRW0_CUT
 10
-70.00182937227716
 20
-50.824550796086996
 30
0.0
 11
-70.00182937227716
 21
-50.824550796086996
 31
0.0
  0
LINE
  8
DRW0
 10
-70.00182937227716
 20
-50.824550796086996
 30
0.0
 11
-69.92245321923001
 21
-50.824550796086996
 31
0.0
  0
LINE
  8
DRW0_CUT
 10
-69.92245321923001
 20
-50.824550796086996
 30
0.0
 11
-59.921057935289724
 21
-50.824550796086996
 31
0.0
  0
LINE
  8
DRW0
 10
-59.921057935289724
 20
-50.824550796086996
 30
0.0
 11
-49.91966265134944
 21
-50.824550796086996
 31
0.0
  0
LINE
  8
DRW0_CUT
 10
-49.91966265134944
 20
-50.824550796086996
 30
0.0
 11
-39.91826736740916
 21
-50.824550796086996
 31
0.0
  0
LINE
  8
DRW0
 10
-39.91826736740916
 20
-50.824550796086996
 30
0.0
 11
-29.916872083468874
 21
-50.824550796086996
 31
0.0
  0
LINE
  8
DRW0_CUT
 10
-29.916872083468874
 20
-50.824550796086996
 30
0.0
 11
-19.91547679952859
 21
-50.824550796086996
 31
0.0
  0
LINE
  8
DRW0
 10
-19.91547679952859
 20
-50.824550796086996
 30
0.0
 11
-9.922019130893023
 21
-50.824550796086996
 31
0.0
  0
LINE
  8
DRW0_CUT
 10
-9.922019130893023
 20
-50.824550796086996
 30
0.0
 11
0.07937615304725831
 21
-50.824550796086996
 31
0.0
  0
LINE
  8
DRW0
 10
0.07937615304725831
 20
-50.824550796086996
 30
0.0
 11
0.10318899896140184
 21
-50.824550796086996
 31
0.0
  0
LINE
  8
DRW0
 10
0.10318899896140184
 20
-50.824550796086996
 30
0.0
 11
14.097204781173081
 21
-50.824550796086996
 31
0.0
  0
LINE
  8
DRW0
 10
14.097204781173081
 20
-50.824550796086996
 30
0.0
 11
14.097204781173081
 21
-50.32448103188998
 31
0.0
  0
LINE
  8
DRW0
 10
14.097204781173081
 20
-50.32448103188998
 30
0.0
 11
0.10318899896140188
 21
-50.32448103188998
 31
0.0
  0
LINE
  8
DRW0_CUT
 10
0.10318899896140188
 20
-50.32448103188998
 30
0.0
 11
0.10318899896140188
 21
-50.32448103188998
 31
0.0
  0
LINE
  8
DRW0
 10
0.10318899896140188
 20
-50.32448103188998
 30
0.0
 11
0.02381284591425678
 21
-50.32448103188998
 31
0.0
  0
LINE
  8
DRW0_CUT
 10
0.02381284591425678
 20
-50.32448103188998
 30
0.0
 11
-9.977582438026024
 21
-50.32448103188998
 31
0.0
  0
LINE
  8
DRW0
 10
-9.977582438026024
 20
-50.32448103188998
 30
0.0
 11
-19.978977721966306
 21
-50.32448103188998
 31
0.0
  0
LINE
  8
DRW0_CUT
 10
-19.978977721966306
 20
-50.32448103188998
 30
0.0
 11
-29.980373005906586
 21
-50.32448103188998
 31
0.0
  0
LINE
  8
DRW0
 10
-29.980373005906586
 20
-50.32448103188998
 30
0.0
 11
-39.98176828984687
 21
-50.32448103188998
 31
0.0
  0
LINE
  8
DRW0_CUT
 10
-39.98176828984687
 20
-50.32448103188998
 30
0.0
 11
-49.98316357378715
 21
-50.32448103188998
 31
0.0
  0
LINE
  8
DRW0
 10
-49.98316357378715
 20
-50.32448103188998
 30
0.0
 11
-59.97662124242272
 21
-50.32448103188998
 31
0.0
  0
LINE
  8
DRW0_CUT
 10
-59.97662124242272
 20
-50.32448103188998
 30
0.0
 11
-69.978016526363
 21
-50.32448103188998
 31
0.0
  0
LINE
  8
DRW0
 10
-69.978016526363
 20
-50.32448103188998
 30
0.0
 11
-70.00182937227714
 21
-50.32448103188998
 31
0.0
  0
LINE
  8
DRW0
 10
-70.00182937227714
 20
-50.32448103188998
 30
0.0
 11
-83.99584515448882
 21
-50.32448103188998
 31
0.0
  0
LINE
  8
DRW0
 10
-83.99584515448882
 20
-50.32448103188998
 30
0.0
 11
-83.99584515448882
 21
-49.824411267692966
 31
0.0
  0
LINE
  8
DRW0
 10
-83.99584515448882
 20
-49.824411267692966
 30
0.0
 11
-70.00182937227714
 21
-49.824411267692966
 31
0.0
  0
LINE
  8
DRW0_CUT
 10
-70.00182937227714
 20
-49.824411267692966
 30
0.0
 11
-70.00182937227714
 21
-49.824411267692966
 31
0.0
  0
LINE
  8
DRW0
 10
-70.00182937227714
 20
-49.824411267692966
 30
0.0
 11
-69.92245321923
 21
-49.824411267692966
 31
0.0
  0
LINE
  8
DRW0_CUT
 10
-69.92245321923
 20
-49.824411267692966
 30
0.0
 11
-59.92105793528971
 21
-49.824411267692966
 31
0.0
  0
LINE
  8
DRW0
 10
-59.92105793528971
 20
-49.824411267692966
 30
0.0
 11
-49.91966265134943
 21
-49.824411267692966
 31
0.0
  0
LINE
  8
DRW0_CUT
 10
-49.91966265134943
 20
-49.824411267692966
 30
0.0
 11
-39.91826736740914
 21
-49.824411267692966
 31
0.0
  0
LINE
  8
DRW0
 10
-39.91826736740914
 20
-49.824411267692966
 30
0.0
 11
-29.91687208346886
 21
-49.824411267692966
 31
0.0
  0
LINE
  8
DRW0_CUT
 10
-29.91687208346886
 20
-49.824411267692966
 30
0.0
 11
-19.915476799528577
 21
-49.824411267692966
 31
0.0
  0
LINE
  8
DRW0
 10
-19.915476799528577
 20
-49.824411267692966
 30
0.0
 11
-9.922019130893009
 21
-49.824411267692966
 31
0.0
  0
LINE
  8
DRW0_CUT
 10
-9.922019130893009
 20
-49.824411267692966
 30
0.0
 11
0.07937615304727252
 21
-49.824411267692966
 31
0.0
  0
LINE
  8
DRW0
 10
0.07937615304727252
 20
-49.824411267692966
 30
0.0
 11
0.10318899896141605
 21
-49.824411267692966
 31
0.0
  0
LINE
  8
DRW0
 10
0.10318899896141605
 20
-49.824411267692966
 30
0.0
 11
14.097204781173096
 21
-49.824411267692966
 31
0.0
  0
LINE
  8
DRW0
 10
14.097204781173096
 20
-49.824411267692966
 30
0.0
 11
14.097204781173096
 21
-49.32434150349595
 31
0.0
  0
LINE
  8
DRW0
 10
14.097204781173096
 20
-49.32434150349595
 30
0.0
 11
0.10318899896141609
 21
-49.32434150349595
 31
0.0
  0
LINE
  8
DRW0_CUT
 10
0.10318899896141609
 20
-49.32434150349595
 30
0.0
 11
0.10318899896141609
 21
-49.32434150349595
 31
0.0
  0
LINE
  8
DRW0
 10
0.10318899896141609
 20
-49.32434150349595
 30
0.0
 11
0.02381284591427099
 21
-49.32434150349595
 31
0.0
  0
LINE
  8
DRW0_CUT
 10
0.02381284591427099
 20
-49.32434150349595
 30
0.0
 11
-9.97758243802601
 21
-49.32434150349595
 31
0.0
  0
LINE
  8
DRW0
 10
-9.97758243802601
 20
-49.32434150349595
 30
0.0
 11
-19.97897772196629
 21
-49.32434150349595
 31
0.0
  0
LINE
  8
DRW0_CUT
 10
-19.97897772196629
 20
-49.32434150349595
 30
0.0
 11
-29.98037300590657
 21
-49.32434150349595
 31
0.0
  0
LINE
  8
DRW0
 10
-29.98037300590657
 20
-49.32434150349595
 30
0.0
 11
-39.981768289846855
 21
-49.32434150349595
 31
0.0
  0
LINE
  8
DRW0_CUT
 10
-39.981768289846855
 20
-49.32434150349595
 30
0.0
 11
-49.98316357378714
 21
-49.32434150349595
 31
0.0
  0
LINE
  8
DRW0
 10
-49.98316357378714
 20
-49.32434150349595
 30
0.0
 11
-59.97662124242271
 21
-49.32434150349595
 31
0.0
  0
LINE
  8
DRW0_CUT
 10
-59.97662124242271
 20
-49.32434150349595
 30
0.0
 11
-69.97801652636299
 21
-49.32434150349595
 31
0.0
  0
LINE
  8
DRW0
 10
-69.97801652636299
 20
-49.32434150349595
 30
0.0
 11
-70.00182937227713
 21
-49.32434150349595
 31
0.0
  0
LINE
  8
DRW0
 10
-70.00182937227713
 20
-49.32434150349595
 30
0.0
 11
-83.9958451544888
 21
-49.32434150349595
 31
0.0
  0
LINE
  8
DRW0
 10
-83.9958451544888
 20
-49.32434150349595
 30
0.0
 11
-83.9958451544888
 21
-48.824271739298936
 31
0.0
  0
LINE
  8
DRW0
 10
-83.9958451544888
 20
-48.824271739298936
 30
0.0
 11
-70.00182937227713
 21
-48.824271739298936
 31
0.0
  0
LINE
  8
DRW0_CUT
 10
-70.00182937227713
 20
-48.824271739298936
 30
0.0
 11
-70.00182937227713
 21
-48.824271739298936
 31
0.0
  0
LINE
  8
DRW0
 10
-70.00182937227713
 20
-48.824271739298936
 30
0.0
 11
-69.92245321922998
 21
-48.824271739298936
 31
0.0
  0
LINE
  8
DRW0_CUT
 10
-69.92245321922998
 20
-48.824271739298936
 30
0.0
 11
-59.921057935289696
 21
-48.824271739298936
 31
0.0
  0
LINE
  8
DRW0
 10
-59.921057935289696
 20
-48.824271739298936
 30
0.0
 11
-49.91966265134941
 21
-48.824271739298936
 31
0.0
  0
LINE
  8
DRW0_CUT
 10
-49.91966265134941
 20
-48.824271739298936
 30
0.0
 11
-39.91826736740913
 21
-48.824271739298936
 31
0.0
  0
LINE
  8
DRW0
 10
-39.91826736740913
 20
-48.824271739298936
 30
0.0
 11
-29.916872083468846
 21
-48.824271739298936
 31
0.0
  0
LINE
  8
DRW0_CUT
 10
-29.916872083468846
 20
-48.824271739298936
 30
0.0
 11
-19.915476799528562
 21
-48.824271739298936
 31
0.0
  0
LINE
  8
DRW0
 10
-19.915476799528562
 20
-48.824271739298936
 30
0.0
 11
-9.922019130892995
 21
-48.824271739298936
 31
0.0
  0
LINE
  8
DRW0_CUT
 10
-9.922019130892995
 20
-48.824271739298936
 30
0.0
 11
0.07937615304728673
 21
-48.824271739298936
 31
0.0
  0
LINE
  8
DRW0
 10
0.07937615304728673
 20
-48.824271739298936
 30
0.0
 11
0.10318899896143026
 21
-48.824271739298936
 31
0.0
  0
LINE
  8
DRW0
 10
0.10318899896143026
 20
-48.824271739298936
 30
0.0
 11
14.09720478117311
 21
-48.824271739298936
 31
0.0
  0
LINE
  8
DRW0
 10
14.09720478117311
 20
-48.824271739298936
 30
0.0
 11
14.09720478117311
 21
-48.32420197510192
 31
0.0
  0
LINE
  8
DRW0
 10
14.09720478117311
 20
-48.32420197510192
 30
0.0
 11
0.1031889989614303
 21
-48.32420197510192
 31
0.0
  0
LINE
  8
DRW0_CUT
 10
0.1031889989614303
 20
-48.32420197510192
 30
0.0
 11
0.1031889989614303
 21
-48.32420197510192
 31
0.0
  0
LINE
  8
DRW0
 10
0.1031889989614303
 20
-48.32420197510192
 30
0.0
 11
0.023812845914285202
 21
-48.32420197510192
 31
0.0
  0
LINE
  8
DRW0_CUT
 10
0.023812845914285202
 20
-48.32420197510192
 30
0.0
 11
-9.977582438025996
 21
-48.32420197510192
 31
0.0
  0
LINE
  8
DRW0
 10
-9.977582438025996
 20
-48.32420197510192
 30
0.0
 11
-19.978977721966277
 21
-48.32420197510192
 31
0.0
  0
LINE
  8
DRW0_CUT
 10
-19.978977721966277
 20
-48.32420197510192
 30
0.0
 11
-29.980373005906557
 21
-48.32420197510192
 31
0.0
  0
LINE
  8
DRW0
 10
-29.980373005906557
 20
-48.32420197510192
 30
0.0
 11
-39.98176828984684
 21
-48.32420197510192
 31
0.0
  0
LINE
  8
DRW0_CUT
 10
-39.98176828984684
 20
-48.32420197510192
 30
0.0
 11
-49.983163573787124
 21
-48.32420197510192
 31
0.0
  0
LINE
  8
DRW0
 10
-49.983163573787124
 20
-48.32420197510192
 30
0.0
 11
-59.976621242422695
 21
-48.32420197510192
 31
0.0
  0
LINE
  8
DRW0_CUT
 10
-59.976621242422695
 20
-48.32420197510192
 30
0.0
 11
-69.97801652636298
 21
-48.32420197510192
 31
0.0
  0
LINE
  8
DRW0
 10
-69.97801652636298
 20
-48.32420197510192
 30
0.0
 11
-70.00182937227711
 21
-48.32420197510192
 31
0.0
  0
LINE
  8
DRW0
 10
-70.00182937227711
 20
-48.32420197510192
 30
0.0
 11
-83.99584515448879
 21
-48.32420197510192
 31
0.0
  0
LINE
  8
DRW0
 10
-83.99584515448879
 20
-48.32420197510192
 30
0.0
 11
-83.99584515448879
 21
-47.82413221090491
 31
0.0
  0
LINE
  8
DRW0
 10
-83.99584515448879
 20
-47.82413221090491
 30
0.0
 11
-70.00182937227711
 21
-47.82413221090491
 31
0.0
  0
LINE
  8
DRW0_CUT
 10
-70.00182937227711
 20
-47.82413221090491
 30
0.0
 11
-70.00182937227711
 21
-47.82413221090491
 31
0.0
  0
LINE
  8
DRW0
 10
-70.00182937227711
 20
-47.82413221090491
 30
0.0
 11
-69.92245321922996
 21
-47.82413221090491
 31
0.0
  0
LINE
  8
DRW0_CUT
 10
-69.92245321922996
 20
-47.82413221090491
 30
0.0
 11
-39.918267367409115
 21
-47.82413221090491
 31
0.0
  0
LINE
  8
DRW0
 10
-39.918267367409115
 20
-47.82413221090491
 30
0.0
 11
-29.91687208346883
 21
-47.82413221090491
 31
0.0
  0
LINE
  8
DRW0_CUT
 10
-29.91687208346883
 20
-47.82413221090491
 30
0.0
 11
0.07937615304729917
 21
-47.82413221090491
 31
0.0
  0
LINE
  8
DRW0
 10
0.07937615304729917
 20
-47.82413221090491
 30
0.0
 11
0.1031889989614427
 21
-47.82413221090491
 31
0.0
  0
LINE
  8
DRW0
 10
0.1031889989614427
 20
-47.82413221090491
 30
0.0
 11
14.097204781173122
 21
-47.82413221090491
 31
0.0
  0
LINE
  8
DRW0
 10
14.097204781173122
 20
-47.82413221090491
 30
0.0
 11
14.097204781173122
 21
-47.32406244670789
 31
0.0
  0
LINE
  8
DRW0
 10
14.097204781173122
 20
-47.32406244670789
 30
0.0
 11
0.10318899896144273
 21
-47.32406244670789
 31
0.0
  0
LINE
  8
DRW0_CUT
 10
0.10318899896144273
 20
-47.32406244670789
 30
0.0
 11
0.10318899896144273
 21
-47.32406244670789
 31
0.0
  0
LINE
  8
DRW0
 10
0.10318899896144273
 20
-47.32406244670789
 30
0.0
 11
0.023812845914297637
 21
-47.32406244670789
 31
0.0
  0
LINE
  8
DRW0_CUT
 10
0.023812845914297637
 20
-47.32406244670789
 30
0.0
 11
-29.98037300590655
 21
-47.32406244670789
 31
0.0
  0
LINE
  8
DRW0
 10
-29.98037300590655
 20
-47.32406244670789
 30
0.0
 11
-39.98176828984683
 21
-47.32406244670789
 31
0.0
  0
LINE
  8
DRW0_CUT
 10
-39.98176828984683
 20
-47.32406244670789
 30
0.0
 11
-69.97801652636296
 21
-47.32406244670789
 31
0.0
  0
LINE
  8
DRW0
 10
-69.97801652636296
 20
-47.32406244670789
 30
0.0
 11
-70.0018293722771
 21
-47.32406244670789
 31
0.0
  0
LINE
  8
DRW0
 10
-70.0018293722771
 20
-47.32406244670789
 30
0.0
 11
-83.99584515448878
 21
-47.32406244670789
 31
0.0
  0
LINE
  8
DRW0
 10
-83.99584515448878
 20
-47.32406244670789
 30
0.0
 11
-83.99584515448878
 21
-46.82399268251088
 31
0.0
  0
LINE
  8
DRW0
 10
-83.99584515448878
 20
-46.82399268251088
 30
0.0
 11
-70.0018293722771
 21
-46.82399268251088
 31
0.0
  0
LINE
  8
DRW0_CUT
 10
-70.0018293722771
 20
-46.82399268251088
 30
0.0
 11
-70.0018293722771
 21
-46.82399268251088
 31
0.0
  0
LINE
  8
DRW0
 10
-70.0018293722771
 20
-46.82399268251088
 30
0.0
 11
-69.92245321922995
 21
-46.82399268251088
 31
0.0
  0
LINE
  8
DRW0_CUT
 10
-69.92245321922995
 20
-46.82399268251088
 30
0.0
 11
-39.9182673674091
 21
-46.82399268251088
 31
0.0
  0
LINE
  8
DRW0
 10
-39.9182673674091
 20
-46.82399268251088
 30
0.0
 11
-29.916872083468817
 21
-46.82399268251088
 31
0.0
  0
LINE
  8
DRW0_CUT
 10
-29.916872083468817
 20
-46.82399268251088
 30
0.0
 11
0.07937615304731338
 21
-46.82399268251088
 31
0.0
  0
LINE
  8
DRW0
 10
0.07937615304731338
 20
-46.82399268251088
 30
0.0
 11
0.1031889989614569
 21
-46.82399268251088
 31
0.0
  0
LINE
  8
DRW0
 10
0.1031889989614569
 20
-46.82399268251088
 30
0.0
 11
14.097204781173136
 21
-46.82399268251088
 31
0.0
  0
LINE
  8
DRW0
 10
14.097204781173136
 20
-46.82399268251088
 30
0.0
 11
14.097204781173136
 21
-46.32392291831386
 31
0.0
  0
LINE
  8
DRW0
 10
14.097204781173136
 20
-46.32392291831386
 30
0.0
 11
0.10318899896145695
 21
-46.32392291831386
 31
0.0
  0
LINE
  8
DRW0_CUT
 10
0.10318899896145695
 20
-46.32392291831386
 30
0.0
 11
0.10318899896145695
 21
-46.32392291831386
 31
0.0
  0
LINE
  8
DRW0
 10
0.10318899896145695
 20
-46.32392291831386
 30
0.0
 11
0.023812845914311848
 21
-46.32392291831386
 31
0.0
  0
LINE
  8
DRW0_CUT
 10
0.023812845914311848
 20
-46.32392291831386
 30
0.0
 11
-29.980373005906536
 21
-46.32392291831386
 31
0.0
  0
LINE
  8
DRW0
 10
-29.980373005906536
 20
-46.32392291831386
 30
0.0
 11
-39.98176828984682
 21
-46.32392291831386
 31
0.0
  0
LINE
  8
DRW0_CUT
 10
-39.98176828984682
 20
-46.32392291831386
 30
0.0
 11
-69.97801652636295
 21
-46.32392291831386
 31
0.0
  0
LINE
  8
DRW0
 10
-69.97801652636295
 20
-46.32392291831386
 30
0.0
 11
-70.00182937227709
 21
-46.32392291831386
 31
0.0
  0
LINE
  8
DRW0
 10
-70.00182937227709
 20
-46.32392291831386
 30
0.0
 11
-83.99584515448876
 21
-46.32392291831386
 31
0.0
  0
LINE
  8
DRW0
 10
-83.99584515448876
 20
-46.32392291831386
 30
0.0
 11
-83.99584515448876
 21
-45.82385315411685
 31
0.0
  0
LINE
  8
DRW0
 10
-83.99584515448876
 20
-45.82385315411685
 30
0.0
 11
-70.00182937227709
 21
-45.82385315411685
 31
0.0
  0
LINE
  8
DRW0_CUT
 10
-70.00182937227709
 20
-45.82385315411685
 30
0.0
 11
-70.00182937227709
 21
-45.82385315411685
 31
0.0
  0
LINE
  8
DRW0
 10
-70.00182937227709
 20
-45.82385315411685
 30
0.0
 11
-69.92245321922994
 21
-45.82385315411685
 31
0.0
  0
LINE
  8
DRW0_CUT
 10
-69.92245321922994
 20
-45.82385315411685
 30
0.0
 11
-39.918267367409086
 21
-45.82385315411685
 31
0.0
  0
LINE
  8
DRW0
 10
-39.918267367409086
 20
-45.82385315411685
 30
0.0
 11
-29.916872083468803
 21
-45.82385315411685
 31
0.0
  0
LINE
  8
DRW0_CUT
 10
-29.916872083468803
 20
-45.82385315411685
 30
0.0
 11
0.07937615304732759
 21
-45.82385315411685
 31
0.0
  0
LINE
  8
DRW0
 10
0.07937615304732759
 20
-45.82385315411685
 30
0.0
 11
0.10318899896147112
 21
-45.82385315411685
 31
0.0
  0
LINE
  8
DRW0
 10
0.10318899896147112
 20
-45.82385315411685
 30
0.0
 11
14.09720478117315
 21
-45.82385315411685
 31
0.0
  0
LINE
  8
DRW0
 10
14.09720478117315
 20
-45.82385315411685
 30
0.0
 11
14.09720478117315
 21
-45.32378338991983
 31
0.0
  0
LINE
  8
DRW0
 10
14.09720478117315
 20
-45.32378338991983
 30
0.0
 11
0.10318899896147116
 21
-45.32378338991983
 31
0.0
  0
LINE
  8
DRW0_CUT
 10
0.10318899896147116
 20
-45.32378338991983
 30
0.0
 11
0.10318899896147116
 21
-45.32378338991983
 31
0.0
  0
LINE
  8
DRW0
 10
0.10318899896147116
 20
-45.32378338991983
 30
0.0
 11
0.02381284591432606
 21
-45.32378338991983
 31
0.0
  0
LINE
  8
DRW0_CUT
 10
0.02381284591432606
 20
-45.32378338991983
 30
0.0
 11
-29.98037300590652
 21
-45.32378338991983
 31
0.0
  0
LINE
  8
DRW0
 10
-29.98037300590652
 20
-45.32378338991983
 30
0.0
 11
-39.981768289846805
 21
-45.32378338991983
 31
0.0
  0
LINE
  8
DRW0_CUT
 10
-39.981768289846805
 20
-45.32378338991983
 30
0.0
 11
-69.97801652636294
 21
-45.32378338991983
 31
0.0
  0
LINE
  8
DRW0
 10
-69.97801652636294
 20
-45.32378338991983
 30
0.0
 11
-70.00182937227707
 21
-45.32378338991983
 31
0.0
  0
LINE
  8
DRW0
 10
-70.00182937227707
 20
-45.32378338991983
 30
0.0
 11
-83.99584515448875
 21
-45.32378338991983
 31
0.0
  0
LINE
  8
DRW0
 10
-83.99584515448875
 20
-45.32378338991983
 30
0.0
 11
-83.99584515448875
 21
-44.82371362572282
 31
0.0
  0
LINE
  8
DRW0
 10
-83.99584515448875
 20
-44.82371362572282
 30
0.0
 11
-70.00182937227707
 21
-44.82371362572282
 31
0.0
  0
LINE
  8
DRW0_CUT
 10
-70.00182937227707
 20
-44.82371362572282
 30
0.0
 11
-70.00182937227707
 21
-44.82371362572282
 31
0.0
  0
LINE
  8
DRW0
 10
-70.00182937227707
 20
-44.82371362572282
 30
0.0
 11
-69.92245321922992
 21
-44.82371362572282
 31
0.0
  0
LINE
  8
DRW0_CUT
 10
-69.92245321922992
 20
-44.82371362572282
 30
0.0
 11
-39.91826736740907
 21
-44.82371362572282
 31
0.0
  0
LINE
  8
DRW0
 10
-39.91826736740907
 20
-44.82371362572282
 30
0.0
 11
-29.91687208346879
 21
-44.82371362572282
 31
0.0
  0
LINE
  8
DRW0_CUT
 10
-29.91687208346879
 20
-44.82371362572282
 30
0.0
 11
0.0793761530473418
 21
-44.82371362572282
 31
0.0
  0
LINE
  8
DRW0
 10
0.0793761530473418
 20
-44.82371362572282
 30
0.0
 11
0.10318899896148533
 21
-44.82371362572282
 31
0.0
  0
LINE
  8
DRW0
 10
0.10318899896148533
 20
-44.82371362572282
 30
0.0
 11
14.097204781173165
 21
-44.82371362572282
 31
0.0
  0
LINE
  8
DRW0
 10
14.097204781173165
 20
-44.82371362572282
 30
0.0
 11
14.097204781173165
 21
-44.3236438615258
 31
0.0
  0
LINE
  8
DRW0
 10
14.097204781173165
 20
-44.3236438615258
 30
0.0
 11
0.10318899896148537
 21
-44.3236438615258
 31
0.0
  0
LINE
  8
DRW0_CUT
 10
0.10318899896148537
 20
-44.3236438615258
 30
0.0
 11
0.10318899896148537
 21
-44.3236438615258
 31
0.0
  0
LINE
  8
DRW0
 10
0.10318899896148537
 20
-44.3236438615258
 30
0.0
 11
0.02381284591434027
 21
-44.3236438615258
 31
0.0
  0
LINE
  8
DRW0_CUT
 10
0.02381284591434027
 20
-44.3236438615258
 30
0.0
 11
-29.980373005906507
 21
-44.3236438615258
 31
0.0
  0
LINE
  8
DRW0
 10
-29.980373005906507
 20
-44.3236438615258
 30
0.0
 11
-39.98176828984679
 21
-44.3236438615258
 31
0.0
  0
LINE
  8
DRW0_CUT
 10
-39.98176828984679
 20
-44.3236438615258
 30
0.0
 11
-69.97801652636292
 21
-44.3236438615258
 31
0.0
  0
LINE
  8
DRW0
 10
-69.97801652636292
 20
-44.3236438615258
 30
0.0
 11
-70.00182937227706
 21
-44.3236438615258
 31
0.0
  0
LINE
  8
DRW0
 10
-70.00182937227706
 20
-44.3236438615258
 30
0.0
 11
-83.99584515448873
 21
-44.3236438615258
 31
0.0
  0
LINE
  8
DRW0
 10
-83.99584515448873
 20
-44.3236438615258
 30
0.0
 11
-83.99584515448873
 21
-43.82357409732879
 31
0.0
  0
LINE
  8
DRW0
 10
-83.99584515448873
 20
-43.82357409732879
 30
0.0
 11
-70.00182937227706
 21
-43.82357409732879
 31
0.0
  0
LINE
  8
DRW0_CUT
 10
-70.00182937227706
 20
-43.82357409732879
 30
0.0
 11
-70.00182937227706
 21
-43.82357409732879
 31
0.0
  0
LINE
  8
DRW0
 10
-70.00182937227706
 20
-43.82357409732879
 30
0.0
 11
-69.92245321922991
 21
-43.82357409732879
 31
0.0
  0
LINE
  8
DRW0_CUT
 10
-69.92245321922991
 20
-43.82357409732879
 30
0.0
 11
-39.91826736740906
 21
-43.82357409732879
 31
0.0
  0
LINE
  8
DRW0
 10
-39.91826736740906
 20
-43.82357409732879
 30
0.0
 11
-29.916872083468775
 21
-43.82357409732879
 31
0.0
  0
LINE
  8
DRW0_CUT
 10
-29.916872083468775
 20
-43.82357409732879
 30
0.0
 11
0.07937615304735601
 21
-43.82357409732879
 31
0.0
  0
LINE
  8
DRW0
 10
0.07937615304735601
 20
-43.82357409732879
 30
0.0
 11
0.10318899896149954
 21
-43.82357409732879
 31
0.0
  0
LINE
  8
DRW0
 10
0.10318899896149954
 20
-43.82357409732879
 30
0.0
 11
14.097204781173179
 21
-43.82357409732879
 31
0.0
  0
LINE
  8
DRW0
 10
14.097204781173179
 20
-43.82357409732879
 30
0.0
 11
14.097204781173179
 21
-43.32350433313177
 31
0.0
  0
LINE
  8
DRW0
 10
14.097204781173179
 20
-43.32350433313177
 30
0.0
 11
0.10318899896149958
 21
-43.32350433313177
 31
0.0
  0
LINE
  8
DRW0_CUT
 10
0.10318899896149958
 20
-43.32350433313177
 30
0.0
 11
0.10318899896149958
 21
-43.32350433313177
 31
0.0
  0
LINE
  8
DRW0
 10
0.10318899896149958
 20
-43.32350433313177
 30
0.0
 11
0.02381284591435448
 21
-43.32350433313177
 31
0.0
  0
LINE
  8
DRW0_CUT
 10
0.02381284591435448
 20
-43.32350433313177
 30
0.0
 11
-29.980373005906493
 21
-43.32350433313177
 31
0.0
  0
LINE
  8
DRW0
 10
-29.980373005906493
 20
-43.32350433313177
 30
0.0
 11
-39.98176828984678
 21
-43.32350433313177
 31
0.0
  0
LINE
  8
DRW0_CUT
 10
-39.98176828984678
 20
-43.32350433313177
 30
0.0
 11
-69.97801652636291
 21
-43.32350433313177
 31
0.0
  0
LINE
  8
DRW0
 10
-69.97801652636291
 20
-43.32350433313177
 30
0.0
 11
-70.00182937227704
 21
-43.32350433313177
 31
0.0
  0
LINE
  8
DRW0
 10
-70.00182937227704
 20
-43.32350433313177
 30
0.0
 11
-83.99584515448872
 21
-43.32350433313177
 31
0.0
  0
LINE
  8
DRW0
 10
-83.99584515448872
 20
-43.32350433313177
 30
0.0
 11
-83.99584515448872
 21
-42.82343456893476
 31
0.0
  0
LINE
  8
DRW0
 10
-83.99584515448872
 20
-42.82343456893476
 30
0.0
 11
-70.00182937227704
 21
-42.82343456893476
 31
0.0
  0
LINE
  8
DRW0_CUT
 10
-70.00182937227704
 20
-42.82343456893476
 30
0.0
 11
-70.00182937227704
 21
-42.82343456893476
 31
0.0
  0
LINE
  8
DRW0
 10
-70.00182937227704
 20
-42.82343456893476
 30
0.0
 11
-69.9224532192299
 21
-42.82343456893476
 31
0.0
  0
LINE
  8
DRW0_CUT
 10
-69.9224532192299
 20
-42.82343456893476
 30
0.0
 11
-39.918267367409044
 21
-42.82343456893476
 31
0.0
  0
LINE
  8
DRW0
 10
-39.918267367409044
 20
-42.82343456893476
 30
0.0
 11
-29.91687208346876
 21
-42.82343456893476
 31
0.0
  0
LINE
  8
DRW0_CUT
 10
-29.91687208346876
 20
-42.82343456893476
 30
0.0
 11
0.07937615304737022
 21
-42.82343456893476
 31
0.0
  0
LINE
  8
DRW0
 10
0.07937615304737022
 20
-42.82343456893476
 30
0.0
 11
0.10318899896151375
 21
-42.82343456893476
 31
0.0
  0
LINE
  8
DRW0
 10
0.10318899896151375
 20
-42.82343456893476
 30
0.0
 11
14.097204781173193
 21
-42.82343456893476
 31
0.0
  0
LINE
  8
DRW0
 10
14.097204781173193
 20
-42.82343456893476
 30
0.0
 11
14.097204781173193
 21
-42.32336480473774
 31
0.0
  0
LINE
  8
DRW0
 10
14.097204781173193
 20
-42.32336480473774
 30
0.0
 11
0.10318899896151379
 21
-42.32336480473774
 31
0.0
  0
LINE
  8
DRW0_CUT
 10
0.10318899896151379
 20
-42.32336480473774
 30
0.0
 11
0.10318899896151379
 21
-42.32336480473774
 31
0.0
  0
LINE
  8
DRW0
 10
0.10318899896151379
 20
-42.32336480473774
 30
0.0
 11
0.02381284591436869
 21
-42.32336480473774
 31
0.0
  0
LINE
  8
DRW0_CUT
 10
0.02381284591436869
 20
-42.32336480473774
 30
0.0
 11
-29.98037300590648
 21
-42.32336480473774
 31
0.0
  0
LINE
  8
DRW0
 10
-29.98037300590648
 20
-42.32336480473774
 30
0.0
 11
-39.98176828984676
 21
-42.32336480473774
 31
0.0
  0
LINE
  8
DRW0_CUT
 10
-39.98176828984676
 20
-42.32336480473774
 30
0.0
 11
-69.9780165263629
 21
-42.32336480473774
 31
0.0
  0
LINE
  8
DRW0
 10
-69.9780165263629
 20
-42.32336480473774
 30
0.0
 11
-70.00182937227703
 21
-42.32336480473774
 31
0.0
  0
LINE
  8
DRW0
 10
-70.00182937227703
 20
-42.32336480473774
 30
0.0
 11
-83.9958451544887
 21
-42.32336480473774
 31
0.0
  0
LINE
  8
DRW0
 10
-83.9958451544887
 20
-42.32336480473774
 30
0.0
 11
-83.9958451544887
 21
-41.82329504054073
 31
0.0
  0
LINE
  8
DRW0
 10
-83.9958451544887
 20
-41.82329504054073
 30
0.0
 11
-70.00182937227703
 21
-41.82329504054073
 31
0.0
  0
LINE
  8
DRW0_CUT
 10
-70.00182937227703
 20
-41.82329504054073
 30
0.0
 11
-70.00182937227703
 21
-41.82329504054073
 31
0.0
  0
LINE
  8
DRW0
 10
-70.00182937227703
 20
-41.82329504054073
 30
0.0
 11
-69.92245321922988
 21
-41.82329504054073
 31
0.0
  0
LINE
  8
DRW0_CUT
 10
-69.92245321922988
 20
-41.82329504054073
 30
0.0
 11
-39.91826736740903
 21
-41.82329504054073
 31
0.0
  0
LINE
  8
DRW0
 10
-39.91826736740903
 20
-41.82329504054073
 30
0.0
 11
-29.916872083468746
 21
-41.82329504054073
 31
0.0
  0
LINE
  8
DRW0_CUT
 10
-29.916872083468746
 20
-41.82329504054073
 30
0.0
 11
0.07937615304738443
 21
-41.82329504054073
 31
0.0
  0
LINE
  8
DRW0
 10
0.07937615304738443
 20
-41.82329504054073
 30
0.0
 11
0.10318899896152796
 21
-41.82329504054073
 31
0.0
  0
LINE
  8
DRW0
 10
0.10318899896152796
 20
-41.82329504054073
 30
0.0
 11
14.097204781173208
 21
-41.82329504054073
 31
0.0
  0
LINE
  8
DRW0
 10
14.097204781173208
 20
-41.82329504054073
 30
0.0
 11
14.097204781173208
 21
-41.32322527634371
 31
0.0
  0
LINE
  8
DRW0
 10
14.097204781173208
 20
-41.32322527634371
 30
0.0
 11
0.103188998961528
 21
-41.32322527634371
 31
0.0
  0
LINE
  8
DRW0_CUT
 10
0.103188998961528
 20
-41.32322527634371
 30
0.0
 11
0.103188998961528
 21
-41.32322527634371
 31
0.0
  0
LINE
  8
DRW0
 10
0.103188998961528
 20
-41.32322527634371
 30
0.0
 11
0.023812845914382902
 21
-41.32322527634371
 31
0.0
  0
LINE
  8
DRW0_CUT
 10
0.023812845914382902
 20
-41.32322527634371
 30
0.0
 11
-29.980373005906465
 21
-41.32322527634371
 31
0.0
  0
LINE
  8
DRW0
 10
-29.980373005906465
 20
-41.32322527634371
 30
0.0
 11
-39.98176828984675
 21
-41.32322527634371
 31
0.0
  0
LINE
  8
DRW0_CUT
 10
-39.98176828984675
 20
-41.32322527634371
 30
0.0
 11
-69.97801652636288
 21
-41.32322527634371
 31
0.0
  0
LINE
  8
DRW0
 10
-69.97801652636288
 20
-41.32322527634371
 30
0.0
 11
-70.00182937227702
 21
-41.32322527634371
 31
0.0
  0
LINE
  8
DRW0
 10
-70.00182937227702
 20
-41.32322527634371
 30
0.0
 11
-83.99584515448869
 21
-41.32322527634371
 31
0.0
  0
LINE
  8
DRW0
 10
-83.99584515448869
 20
-41.32322527634371
 30
0.0
 11
-83.99584515448869
 21
-40.8231555121467
 31
0.0
  0
LINE
  8
DRW0
 10
-83.99584515448869
 20
-40.8231555121467
 30
0.0
 11
-70.00182937227702
 21
-40.8231555121467
 31
0.0
  0
LINE
  8
DRW0_CUT
 10
-70.00182937227702
 20
-40.8231555121467
 30
0.0
 11
-70.00182937227702
 21
-40.8231555121467
 31
0.0
  0
LINE
  8
DRW0
 10
-70.00182937227702
 20
-40.8231555121467
 30
0.0
 11
-69.92245321922987
 21
-40.8231555121467
 31
0.0
  0
LINE
  8
DRW0_CUT
 10
-69.92245321922987
 20
-40.8231555121467
 30
0.0
 11
-39.918267367409015
 21
-40.8231555121467
 31
0.0
  0
LINE
  8
DRW0
 10
-39.918267367409015
 20
-40.8231555121467
 30
0.0
 11
-29.916872083468732
 21
-40.8231555121467
 31
0.0
  0
LINE
  8
DRW0_CUT
 10
-29.916872083468732
 20
-40.8231555121467
 30
0.0
 11
0.07937615304739865
 21
-40.8231555121467
 31
0.0
  0
LINE
  8
DRW0
 10
0.07937615304739865
 20
-40.8231555121467
 30
0.0
 11
0.10318899896154217
 21
-40.8231555121467
 31
0.0
  0
LINE
  8
DRW0
 10
0.10318899896154217
 20
-40.8231555121467
 30
0.0
 11
14.097204781173222
 21
-40.8231555121467
 31
0.0
  0
LINE
  8
DRW0
 10
14.097204781173222
 20
-40.8231555121467
 30
0.0
 11
14.097204781173222
 21
-40.32308574794968
 31
0.0
  0
LINE
  8
DRW0
 10
14.097204781173222
 20
-40.32308574794968
 30
0.0
 11
0.10318899896154221
 21
-40.32308574794968
 31
0.0
  0
LINE
  8
DRW0_CUT
 10
0.10318899896154221
 20
-40.32308574794968
 30
0.0
 11
0.10318899896154221
 21
-40.32308574794968
 31
0.0
  0
LINE
  8
DRW0
 10
0.10318899896154221
 20
-40.32308574794968
 30
0.0
 11
0.023812845914397113
 21
-40.32308574794968
 31
0.0
  0
LINE
  8
DRW0_CUT
 10
0.023812845914397113
 20
-40.32308574794968
 30
0.0
 11
-29.98037300590645
 21
-40.32308574794968
 31
0.0
  0
LINE
  8
DRW0
 10
-29.98037300590645
 20
-40.32308574794968
 30
0.0
 11
-39.981768289846734
 21
-40.32308574794968
 31
0.0
  0
LINE
  8
DRW0_CUT
 10
-39.981768289846734
 20
-40.32308574794968
 30
0.0
 11
-69.97801652636286
 21
-40.32308574794968
 31
0.0
  0
LINE
  8
DRW0
 10
-69.97801652636286
 20
-40.32308574794968
 30
0.0
 11
-70.001829372277
 21
-40.32308574794968
 31
0.0
  0
LINE
  8
DRW0
 10
-70.001829372277
 20
-40.32308574794968
 30
0.0
 11
-83.99584515448868
 21
-40.32308574794968
 31
0.0
  0
LINE
  8
DRW0
 10
-83.99584515448868
 20
-40.32308574794968
 30
0.0
 11
-83.99584515448868
 21
-39.82301598375267
 31
0.0
  0
LINE
  8
DRW0
 10
-83.99584515448868
 20
-39.82301598375267
 30
0.0
 11
-70.001829372277
 21
-39.82301598375267
 31
0.0
  0
LINE
  8
DRW0_CUT
 10
-70.001829372277
 20
-39.82301598375267
 30
0.0
 11
-70.001829372277
 21
-39.82301598375267
 31
0.0
  0
LINE
  8
DRW0
 10
-70.001829372277
 20
-39.82301598375267
 30
0.0
 11
-69.92245321922985
 21
-39.82301598375267
 31
0.0
  0
LINE
  8
DRW0_CUT
 10
-69.92245321922985
 20
-39.82301598375267
 30
0.0
 11
-39.918267367409
 21
-39.82301598375267
 31
0.0
  0
LINE
  8
DRW0
 10
-39.918267367409
 20
-39.82301598375267
 30
0.0
 11
-29.916872083468718
 21
-39.82301598375267
 31
0.0
  0
LINE
  8
DRW0_CUT
 10
-29.916872083468718
 20
-39.82301598375267
 30
0.0
 11
0.07937615304741286
 21
-39.82301598375267
 31
0.0
  0
LINE
  8
DRW0
 10
0.07937615304741286
 20
-39.82301598375267
 30
0.0
 11
0.10318899896155638
 21
-39.82301598375267
 31
0.0
  0
LINE
  8
DRW0
 10
0.10318899896155638
 20
-39.82301598375267
 30
0.0
 11
14.097204781173236
 21
-39.82301598375267
 31
0.0
  0
LINE
  8
DRW0
 10
14.097204781173236
 20
-39.82301598375267
 30
0.0
 11
14.097204781173236
 21
-39.322946219555654
 31
0.0
  0
LINE
  8
DRW0
 10
14.097204781173236
 20
-39.322946219555654
 30
0.0
 11
0.10318899896155642
 21
-39.322946219555654
 31
0.0
  0
LINE
  8
DRW0_CUT
 10
0.10318899896155642
 20
-39.322946219555654
 30
0.0
 11
0.10318899896155642
 21
-39.322946219555654
 31
0.0
  0
LINE
  8
DRW0
 10
0.10318899896155642
 20
-39.322946219555654
 30
0.0
 11
0.023812845914411324
 21
-39.322946219555654
 31
0.0
  0
LINE
  8
DRW0_CUT
 10
0.023812845914411324
 20
-39.322946219555654
 30
0.0
 11
-29.980373005906436
 21
-39.322946219555654
 31
0.0
  0
LINE
  8
DRW0
 10
-29.980373005906436
 20
-39.322946219555654
 30
0.0
 11
-39.98176828984672
 21
-39.322946219555654
 31
0.0
  0
LINE
  8
DRW0_CUT
 10
-39.98176828984672
 20
-39.322946219555654
 30
0.0
 11
-69.97801652636285
 21
-39.322946219555654
 31
0.0
  0
LINE
  8
DRW0
 10
-69.97801652636285
 20
-39.322946219555654
 30
0.0
 11
-70.00182937227699
 21
-39.322946219555654
 31
0.0
  0
LINE
  8
DRW0
 10
-70.00182937227699
 20
-39.322946219555654
 30
0.0
 11
-83.99584515448866
 21
-39.322946219555654
 31
0.0
  0
LINE
  8
DRW0
 10
-83.99584515448866
 20
-39.322946219555654
 30
0.0
 11
-83.99584515448866
 21
-38.82287645535864
 31
0.0
  0
LINE
  8
DRW0
 10
-83.99584515448866
 20
-38.82287645535864
 30
0.0
 11
-70.00182937227699
 21
-38.82287645535864
 31
0.0
  0
LINE
  8
DRW0_CUT
 10
-70.00182937227699
 20
-38.82287645535864
 30
0.0
 11
-70.00182937227699
 21
-38.82287645535864
 31
0.0
  0
LINE
  8
DRW0
 10
-70.00182937227699
 20
-38.82287645535864
 30
0.0
 11
-69.92245321922984
 21
-38.82287645535864
 31
0.0
  0
LINE
  8
DRW0_CUT
 10
-69.92245321922984
 20
-38.82287645535864
 30
0.0
 11
-39.91826736740899
 21
-38.82287645535864
 31
0.0
  0
LINE
  8
DRW0
 10
-39.91826736740899
 20
-38.82287645535864
 30
0.0
 11
-29.916872083468704
 21
-38.82287645535864
 31
0.0
  0
LINE
  8
DRW0_CUT
 10
-29.916872083468704
 20
-38.82287645535864
 30
0.0
 11
0.07937615304742707
 21
-38.82287645535864
 31
0.0
  0
LINE
  8
DRW0
 10
0.07937615304742707
 20
-38.82287645535864
 30
0.0
 11
0.10318899896157059
 21
-38.82287645535864
 31
0.0
  0
LINE
  8
DRW0
 10
0.10318899896157059
 20
-38.82287645535864
 30
0.0
 11
14.09720478117325
 21
-38.82287645535864
 31
0.0
  0
LINE
  8
DRW0
 10
14.09720478117325
 20
-38.82287645535864
 30
0.0
 11
14.09720478117325
 21
-38.322806691161624
 31
0.0
  0
LINE
  8
DRW0
 10
14.09720478117325
 20
-38.322806691161624
 30
0.0
 11
0.10318899896157063
 21
-38.322806691161624
 31
0.0
  0
LINE
  8
DRW0_CUT
 10
0.10318899896157063
 20
-38.322806691161624
 30
0.0
 11
0.10318899896157063
 21
-38.322806691161624
 31
0.0
  0
LINE
  8
DRW0
 10
0.10318899896157063
 20
-38.322806691161624
 30
0.0
 11
0.023812845914425534
 21
-38.322806691161624
 31
0.0
  0
LINE
  8
DRW0_CUT
 10
0.023812845914425534
 20
-38.322806691161624
 30
0.0
 11
-29.980373005906422
 21
-38.322806691161624
 31
0.0
  0
LINE
  8
DRW0
 10
-29.980373005906422
 20
-38.322806691161624
 30
0.0
 11
-39.981768289846705
 21
-38.322806691161624
 31
0.0
  0
LINE
  8
DRW0_CUT
 10
-39.981768289846705
 20
-38.322806691161624
 30
0.0
 11
-69.97801652636284
 21
-38.322806691161624
 31
0.0
  0
LINE
  8
DRW0
 10
-69.97801652636284
 20
-38.322806691161624
 30
0.0
 11
-70.00182937227697
 21
-38.322806691161624
 31
0.0
  0
LINE
  8
DRW0
 10
-70.00182937227697
 20
-38.322806691161624
 30
0.0
 11
-83.99584515448865
 21
-38.322806691161624
 31
0.0
  0
LINE
  8
DRW0
 10
-83.99584515448865
 20
-38.322806691161624
 30
0.0
 11
-83.99584515448865
 21
-37.82273692696461
 31
0.0
  0
LINE
  8
DRW0
 10
-83.99584515448865
 20
-37.82273692696461
 30
0.0
 11
-70.00182937227697
 21
-37.82273692696461
 31
0.0
  0
LINE
  8
DRW0_CUT
 10
-70.00182937227697
 20
-37.82273692696461
 30
0.0
 11
-70.00182937227697
 21
-37.82273692696461
 31
0.0
  0
LINE
  8
DRW0
 10
-70.00182937227697
 20
-37.82273692696461
 30
0.0
 11
-59.92105793528955
 21
-37.82273692696461
 31
0.0
  0
LINE
  8
DRW0_CUT
 10
-59.92105793528955
 20
-37.82273692696461
 30
0.0
 11
-49.91966265134926
 21
-37.82273692696461
 31
0.0
  0
LINE
  8
DRW0
 10
-49.91966265134926
 20
-37.82273692696461
 30
0.0
 11
-19.915476799528417
 21
-37.82273692696461
 31
0.0
  0
LINE
  8
DRW0_CUT
 10
-19.915476799528417
 20
-37.82273692696461
 30
0.0
 11
-9.92201913089285
 21
-37.82273692696461
 31
0.0
  0
LINE
  8
DRW0
 10
-9.92201913089285
 20
-37.82273692696461
 30
0.0
 11
-9.802954901322131
 21
-37.82273692696461
 31
0.0
  0
LINE
  8
DRW0
 10
-9.802954901322131
 20
-37.82273692696461
 30
0.0
 11
4.191060880889548
 21
-37.82273692696461
 31
0.0
  0
LINE
  8
DRW0
 10
4.191060880889548
 20
-37.82273692696461
 30
0.0
 11
4.191060880889548
 21
-37.322667162767594
 31
0.0
  0
LINE
  8
DRW0
 10
4.191060880889548
 20
-37.322667162767594
 30
0.0
 11
-9.802954901322131
 21
-37.322667162767594
 31
0.0
  0
LINE
  8
DRW0_CUT
 10
-9.802954901322131
 20
-37.322667162767594
 30
0.0
 11
-9.802954901322131
 21
-37.322667162767594
 31
0.0
  0
LINE
  8
DRW0
 10
-9.802954901322131
 20
-37.322667162767594
 30
0.0
 11
-9.882331054369276
 21
-37.322667162767594
 31
0.0
  0
LINE
  8
DRW0_CUT
 10
-9.882331054369276
 20
-37.322667162767594
 30
0.0
 11
-19.883726338309557
 21
-37.322667162767594
 31
0.0
  0
LINE
  8
DRW0
 10
-19.883726338309557
 20
-37.322667162767594
 30
0.0
 11
-49.88791219013041
 21
-37.322667162767594
 31
0.0
  0
LINE
  8
DRW0_CUT
 10
-49.88791219013041
 20
-37.322667162767594
 30
0.0
 11
-59.88930747407069
 21
-37.322667162767594
 31
0.0
  0
LINE
  8
DRW0
 10
-59.88930747407069
 20
-37.322667162767594
 30
0.0
 11
-60.09568547199327
 21
-37.322667162767594
 31
0.0
  0
LINE
  8
DRW0
 10
-60.09568547199327
 20
-37.322667162767594
 30
0.0
 11
-74.08970125420495
 21
-37.322667162767594
 31
0.0
  0
LINE
  8
DRW0
 10
-74.08970125420495
 20
-37.322667162767594
 30
0.0
 11
-74.08970125420495
 21
-36.82259739857058
 31
0.0
  0
LINE
  8
DRW0
 10
-74.08970125420495
 20
-36.82259739857058
 30
0.0
 11
-60.09568547199328
 21
-36.82259739857058
 31
0.0
  0
LINE
  8
DRW0_CUT
 10
-60.09568547199328
 20
-36.82259739857058
 30
0.0
 11
-60.09568547199328
 21
-36.82259739857058
 31
0.0
  0
LINE
  8
DRW0
 10
-60.09568547199328
 20
-36.82259739857058
 30
0.0
 11
-60.016309318946135
 21
-36.82259739857058
 31
0.0
  0
LINE
  8
DRW0_CUT
 10
-60.016309318946135
 20
-36.82259739857058
 30
0.0
 11
-50.01491403500585
 21
-36.82259739857058
 31
0.0
  0
LINE
  8
DRW0
 10
-50.01491403500585
 20
-36.82259739857058
 30
0.0
 11
-20.010728183185005
 21
-36.82259739857058
 31
0.0
  0
LINE
  8
DRW0_CUT
 10
-20.010728183185005
 20
-36.82259739857058
 30
0.0
 11
-10.009332899244724
 21
-36.82259739857058
 31
0.0
  0
LINE
  8
DRW0
 10
-10.009332899244724
 20
-36.82259739857058
 30
0.0
 11
-9.802954901322147
 21
-36.82259739857058
 31
0.0
  0
LINE
  8
DRW0
 10
-9.802954901322147
 20
-36.82259739857058
 30
0.0
 11
4.191060880889532
 21
-36.82259739857058
 31
0.0
  0
LINE
  8
DRW0
 10
4.191060880889532
 20
-36.82259739857058
 30
0.0
 11
4.191060880889532
 21
-36.322527634373564
 31
0.0
  0
LINE
  8
DRW0
 10
4.191060880889532
 20
-36.322527634373564
 30
0.0
 11
-9.802954901322147
 21
-36.322527634373564
 31
0.0
  0
LINE
  8
DRW0_CUT
 10
-9.802954901322147
 20
-36.322527634373564
 30
0.0
 11
-9.802954901322147
 21
-36.322527634373564
 31
0.0
  0
LINE
  8
DRW0
 10
-9.802954901322147
 20
-36.322527634373564
 30
0.0
 11
-9.882331054369292
 21
-36.322527634373564
 31
0.0
  0
LINE
  8
DRW0_CUT
 10
-9.882331054369292
 20
-36.322527634373564
 30
0.0
 11
-19.88372633830957
 21
-36.322527634373564
 31
0.0
  0
LINE
  8
DRW0
 10
-19.88372633830957
 20
-36.322527634373564
 30
0.0
 11
-49.88791219013042
 21
-36.322527634373564
 31
0.0
  0
LINE
  8
DRW0_CUT
 10
-49.88791219013042
 20
-36.322527634373564
 30
0.0
 11
-59.889307474070705
 21
-36.322527634373564
 31
0.0
  0
LINE
  8
DRW0
 10
-59.889307474070705
 20
-36.322527634373564
 30
0.0
 11
-60.095685471993285
 21
-36.322527634373564
 31
0.0
  0
LINE
  8
DRW0
 10
-60.095685471993285
 20
-36.322527634373564
 30
0.0
 11
-74.08970125420497
 21
-36.322527634373564
 31
0.0
  0
LINE
  8
DRW0
 10
-74.08970125420497
 20
-36.322527634373564
 30
0.0
 11
-74.08970125420497
 21
-35.82245787017655
 31
0.0
  0
LINE
  8
DRW0
 10
-74.08970125420497
 20
-35.82245787017655
 30
0.0
 11
-60.09568547199329
 21
-35.82245787017655
 31
0.0
  0
LINE
  8
DRW0_CUT
 10
-60.09568547199329
 20
-35.82245787017655
 30
0.0
 11
-60.09568547199329
 21
-35.82245787017655
 31
0.0
  0
LINE
  8
DRW0
 10
-60.09568547199329
 20
-35.82245787017655
 30
0.0
 11
-60.01630931894615
 21
-35.82245787017655
 31
0.0
  0
LINE
  8
DRW0_CUT
 10
-60.01630931894615
 20
-35.82245787017655
 30
0.0
 11
-50.014914035005866
 21
-35.82245787017655
 31
0.0
  0
LINE
  8
DRW0
 10
-50.014914035005866
 20
-35.82245787017655
 30
0.0
 11
-20.01072818318502
 21
-35.82245787017655
 31
0.0
  0
LINE
  8
DRW0_CUT
 10
-20.01072818318502
 20
-35.82245787017655
 30
0.0
 11
-10.009332899244738
 21
-35.82245787017655
 31
0.0
  0
LINE
  8
DRW0
 10
-10.009332899244738
 20
-35.82245787017655
 30
0.0
 11
-9.802954901322162
 21
-35.82245787017655
 31
0.0
  0
LINE
  8
DRW0
 10
-9.802954901322162
 20
-35.82245787017655
 30
0.0
 11
4.191060880889518
 21
-35.82245787017655
 31
0.0
  0
LINE
  8
DRW0
 10
4.191060880889518
 20
-35.82245787017655
 30
0.0
 11
4.191060880889518
 21
-35.322388105979535
 31
0.0
  0
LINE
  8
DRW0
 10
4.191060880889518
 20
-35.322388105979535
 30
0.0
 11
-9.802954901322162
 21
-35.322388105979535
 31
0.0
  0
LINE
  8
DRW0_CUT
 10
-9.802954901322162
 20
-35.322388105979535
 30
0.0
 11
-9.802954901322162
 21
-35.322388105979535
 31
0.0
  0
LINE
  8
DRW0
 10
-9.802954901322162
 20
-35.322388105979535
 30
0.0
 11
-9.882331054369306
 21
-35.322388105979535
 31
0.0
  0
LINE
  8
DRW0_CUT
 10
-9.882331054369306
 20
-35.322388105979535
 30
0.0
 11
-19.883726338309586
 21
-35.322388105979535
 31
0.0
  0
LINE
  8
DRW0
 10
-19.883726338309586
 20
-35.322388105979535
 30
0.0
 11
-49.887912190130436
 21
-35.322388105979535
 31
0.0
  0
LINE
  8
DRW0_CUT
 10
-49.887912190130436
 20
-35.322388105979535
 30
0.0
 11
-59.88930747407072
 21
-35.322388105979535
 31
0.0
  0
LINE
  8
DRW0
 10
-59.88930747407072
 20
-35.322388105979535
 30
0.0
 11
-60.0956854719933
 21
-35.322388105979535
 31
0.0
  0
LINE
  8
DRW0
 10
-60.0956854719933
 20
-35.322388105979535
 30
0.0
 11
-74.08970125420498
 21
-35.322388105979535
 31
0.0
  0
LINE
  8
DRW0
 10
-74.08970125420498
 20
-35.322388105979535
 30
0.0
 11
-74.08970125420498
 21
-34.82231834178252
 31
0.0
  0
LINE
  8
DRW0
 10
-74.08970125420498
 20
-34.82231834178252
 30
0.0
 11
-60.095685471993306
 21
-34.82231834178252
 31
0.0
  0
LINE
  8
DRW0_CUT
 10
-60.095685471993306
 20
-34.82231834178252
 30
0.0
 11
-60.095685471993306
 21
-34.82231834178252
 31
0.0
  0
LINE
  8
DRW0
 10
-60.095685471993306
 20
-34.82231834178252
 30
0.0
 11
-60.01630931894616
 21
-34.82231834178252
 31
0.0
  0
LINE
  8
DRW0_CUT
 10
-60.01630931894616
 20
-34.82231834178252
 30
0.0
 11
-50.01491403500588
 21
-34.82231834178252
 31
0.0
  0
LINE
  8
DRW0
 10
-50.01491403500588
 20
-34.82231834178252
 30
0.0
 11
-20.010728183185034
 21
-34.82231834178252
 31
0.0
  0
LINE
  8
DRW0_CUT
 10
-20.010728183185034
 20
-34.82231834178252
 30
0.0
 11
-10.009332899244752
 21
-34.82231834178252
 31
0.0
  0
LINE
  8
DRW0
 10
-10.009332899244752
 20
-34.82231834178252
 30
0.0
 11
-9.802954901322176
 21
-34.82231834178252
 31
0.0
  0
LINE
  8
DRW0
 10
-9.802954901322176
 20
-34.82231834178252
 30
0.0
 11
4.191060880889504
 21
-34.82231834178252
 31
0.0
  0
LINE
  8
DRW0
 10
4.191060880889504
 20
-34.82231834178252
 30
0.0
 11
4.191060880889504
 21
-34.322248577585505
 31
0.0
  0
LINE
  8
DRW0
 10
4.191060880889504
 20
-34.322248577585505
 30
0.0
 11
-9.802954901322176
 21
-34.322248577585505
 31
0.0
  0
LINE
  8
DRW0_CUT
 10
-9.802954901322176
 20
-34.322248577585505
 30
0.0
 11
-9.802954901322176
 21
-34.322248577585505
 31
0.0
  0
LINE
  8
DRW0
 10
-9.802954901322176
 20
-34.322248577585505
 30
0.0
 11
-9.88233105436932
 21
-34.322248577585505
 31
0.0
  0
LINE
  8
DRW0_CUT
 10
-9.88233105436932
 20
-34.322248577585505
 30
0.0
 11
-19.8837263383096
 21
-34.322248577585505
 31
0.0
  0
LINE
  8
DRW0
 10
-19.8837263383096
 20
-34.322248577585505
 30
0.0
 11
-49.88791219013045
 21
-34.322248577585505
 31
0.0
  0
LINE
  8
DRW0_CUT
 10
-49.88791219013045
 20
-34.322248577585505
 30
0.0
 11
-59.88930747407073
 21
-34.322248577585505
 31
0.0
  0
LINE
  8
DRW0
 10
-59.88930747407073
 20
-34.322248577585505
 30
0.0
 11
-60.09568547199331
 21
-34.322248577585505
 31
0.0
  0
LINE
  8
DRW0
 10
-60.09568547199331
 20
-34.322248577585505
 30
0.0
 11
-74.089701254205
 21
-34.322248577585505
 31
0.0
  0
LINE
  8
DRW0
 10
-74.089701254205
 20
-34.322248577585505
 30
0.0
 11
-74.089701254205
 21
-33.82217881338849
 31
0.0
  0
LINE
  8
DRW0
 10
-74.089701254205
 20
-33.82217881338849
 30
0.0
 11
-60.09568547199332
 21
-33.82217881338849
 31
0.0
  0
LINE
  8
DRW0_CUT
 10
-60.09568547199332
 20
-33.82217881338849
 30
0.0
 11
-60.09568547199332
 21
-33.82217881338849
 31
0.0
  0
LINE
  8
DRW0
 10
-60.09568547199332
 20
-33.82217881338849
 30
0.0
 11
-60.01630931894618
 21
-33.82217881338849
 31
0.0
  0
LINE
  8
DRW0_CUT
 10
-60.01630931894618
 20
-33.82217881338849
 30
0.0
 11
-50.014914035005894
 21
-33.82217881338849
 31
0.0
  0
LINE
  8
DRW0
 10
-50.014914035005894
 20
-33.82217881338849
 30
0.0
 11
-20.010728183185048
 21
-33.82217881338849
 31
0.0
  0
LINE
  8
DRW0_CUT
 10
-20.010728183185048
 20
-33.82217881338849
 30
0.0
 11
-10.009332899244766
 21
-33.82217881338849
 31
0.0
  0
LINE
  8
DRW0
 10
-10.009332899244766
 20
-33.82217881338849
 30
0.0
 11
-9.80295490132219
 21
-33.82217881338849
 31
0.0
  0
LINE
  8
DRW0
 10
-9.80295490132219
 20
-33.82217881338849
 30
0.0
 11
4.19106088088949
 21
-33.82217881338849
 31
0.0
  0
LINE
  8
DRW0
 10
4.19106088088949
 20
-33.82217881338849
 30
0.0
 11
4.19106088088949
 21
-33.322109049191475
 31
0.0
  0
LINE
  8
DRW0
 10
4.19106088088949
 20
-33.322109049191475
 30
0.0
 11
-9.80295490132219
 21
-33.322109049191475
 31
0.0
  0
LINE
  8
DRW0_CUT
 10
-9.80295490132219
 20
-33.322109049191475
 30
0.0
 11
-9.80295490132219
 21
-33.322109049191475
 31
0.0
  0
LINE
  8
DRW0
 10
-9.80295490132219
 20
-33.322109049191475
 30
0.0
 11
-9.882331054369335
 21
-33.322109049191475
 31
0.0
  0
LINE
  8
DRW0_CUT
 10
-9.882331054369335
 20
-33.322109049191475
 30
0.0
 11
-19.883726338309614
 21
-33.322109049191475
 31
0.0
  0
LINE
  8
DRW0
 10
-19.883726338309614
 20
-33.322109049191475
 30
0.0
 11
-49.887912190130464
 21
-33.322109049191475
 31
0.0
  0
LINE
  8
DRW0_CUT
 10
-49.887912190130464
 20
-33.322109049191475
 30
0.0
 11
-59.88930747407075
 21
-33.322109049191475
 31
0.0
  0
LINE
  8
DRW0
 10
-59.88930747407075
 20
-33.322109049191475
 30
0.0
 11
-60.09568547199333
 21
-33.322109049191475
 31
0.0
  0
LINE
  8
DRW0
 10
-60.09568547199333
 20
-33.322109049191475
 30
0.0
 11
-74.08970125420501
 21
-33.322109049191475
 31
0.0
  0
LINE
  8
DRW0
 10
-74.08970125420501
 20
-33.322109049191475
 30
0.0
 11
-74.08970125420501
 21
-32.82203928499446
 31
0.0
  0
LINE
  8
DRW0
 10
-74.08970125420501
 20
-32.82203928499446
 30
0.0
 11
-60.095685471993335
 21
-32.82203928499446
 31
0.0
  0
LINE
  8
DRW0_CUT
 10
-60.095685471993335
 20
-32.82203928499446
 30
0.0
 11
-60.095685471993335
 21
-32.82203928499446
 31
0.0
  0
LINE
  8
DRW0
 10
-60.095685471993335
 20
-32.82203928499446
 30
0.0
 11
-60.01630931894619
 21
-32.82203928499446
 31
0.0
  0
LINE
  8
DRW0_CUT
 10
-60.01630931894619
 20
-32.82203928499446
 30
0.0
 11
-50.01491403500591
 21
-32.82203928499446
 31
0.0
  0
LINE
  8
DRW0
 10
-50.01491403500591
 20
-32.82203928499446
 30
0.0
 11
-36.56859370881953
 21
-32.82203928499446
 31
0.0
  0
LINE
  8
DRW0_CUT
 10
-36.56859370881953
 20
-32.82203928499446
 30
0.0
 11
-33.45704850937144
 21
-32.82203928499446
 31
0.0
  0
LINE
  8
DRW0
 10
-33.45704850937144
 20
-32.82203928499446
 30
0.0
 11
-20.01072818318506
 21
-32.82203928499446
 31
0.0
  0
LINE
  8
DRW0_CUT
 10
-20.01072818318506
 20
-32.82203928499446
 30
0.0
 11
-10.009332899244777
 21
-32.82203928499446
 31
0.0
  0
LINE
  8
DRW0
 10
-10.009332899244777
 20
-32.82203928499446
 30
0.0
 11
-9.8029549013222
 21
-32.82203928499446
 31
0.0
  0
LINE
  8
DRW0
 10
-9.8029549013222
 20
-32.82203928499446
 30
0.0
 11
4.191060880889479
 21
-32.82203928499446
 31
0.0
  0
LINE
  8
DRW0
 10
4.191060880889479
 20
-32.82203928499446
 30
0.0
 11
4.191060880889479
 21
-32.321969520797445
 31
0.0
  0
LINE
  8
DRW0
 10
4.191060880889479
 20
-32.321969520797445
 30
0.0
 11
-9.8029549013222
 21
-32.321969520797445
 31
0.0
  0
LINE
  8
DRW0_CUT
 10
-9.8029549013222
 20
-32.321969520797445
 30
0.0
 11
-9.8029549013222
 21
-32.321969520797445
 31
0.0
  0
LINE
  8
DRW0
 10
-9.8029549013222
 20
-32.321969520797445
 30
0.0
 11
-9.882331054369345
 21
-32.321969520797445
 31
0.0
  0
LINE
  8
DRW0_CUT
 10
-9.882331054369345
 20
-32.321969520797445
 30
0.0
 11
-19.88372633830963
 21
-32.321969520797445
 31
0.0
  0
LINE
  8
DRW0
 10
-19.88372633830963
 20
-32.321969520797445
 30
0.0
 11
-32.25846859835955
 21
-32.321969520797445
 31
0.0
  0
LINE
  8
DRW0_CUT
 10
-32.25846859835955
 20
-32.321969520797445
 30
0.0
 11
-37.51316993008055
 21
-32.321969520797445
 31
0.0
  0
LINE
  8
DRW0
 10
-37.51316993008055
 20
-32.321969520797445
 30
0.0
 11
-49.88791219013047
 21
-32.321969520797445
 31
0.0
  0
LINE
  8
DRW0_CUT
 10
-49.88791219013047
 20
-32.321969520797445
 30
0.0
 11
-59.889307474070755
 21
-32.321969520797445
 31
0.0
  0
LINE
  8
DRW0
 10
-59.889307474070755
 20
-32.321969520797445
 30
0.0
 11
-60.095685471993335
 21
-32.321969520797445
 31
0.0
  0
LINE
  8
DRW0
 10
-60.095685471993335
 20
-32.321969520797445
 30
0.0
 11
-74.08970125420501
 21
-32.321969520797445
 31
0.0
  0
LINE
  8
DRW0
 10
-74.08970125420501
 20
-32.321969520797445
 30
0.0
 11
-74.08970125420501
 21
-31.82189975660043
 31
0.0
  0
LINE
  8
DRW0
 10
-74.08970125420501
 20
-31.82189975660043
 30
0.0
 11
-60.095685471993335
 21
-31.82189975660043
 31
0.0
  0
LINE
  8
DRW0_CUT
 10
-60.095685471993335
 20
-31.82189975660043
 30
0.0
 11
-60.095685471993335
 21
-31.82189975660043
 31
0.0
  0
LINE
  8
DRW0
 10
-60.095685471993335
 20
-31.82189975660043
 30
0.0
 11
-60.01630931894619
 21
-31.82189975660043
 31
0.0
  0
LINE
  8
DRW0_CUT
 10
-60.01630931894619
 20
-31.82189975660043
 30
0.0
 11
-50.01491403500591
 21
-31.82189975660043
 31
0.0
  0
LINE
  8
DRW0
 10
-50.01491403500591
 20
-31.82189975660043
 30
0.0
 11
-38.32280669116143
 21
-31.82189975660043
 31
0.0
  0
LINE
  8
DRW0_CUT
 10
-38.32280669116143
 20
-31.82189975660043
 30
0.0
 11
-31.70283552702953
 21
-31.82189975660043
 31
0.0
  0
LINE
  8
DRW0
 10
-31.70283552702953
 20
-31.82189975660043
 30
0.0
 11
-20.01072818318506
 21
-31.82189975660043
 31
0.0
  0
LINE
  8
DRW0_CUT
 10
-20.01072818318506
 20
-31.82189975660043
 30
0.0
 11
-10.009332899244777
 21
-31.82189975660043
 31
0.0
  0
LINE
  8
DRW0
 10
-10.009332899244777
 20
-31.82189975660043
 30
0.0
 11
-9.8029549013222
 21
-31.82189975660043
 31
0.0
  0
LINE
  8
DRW0
 10
-9.8029549013222
 20
-31.82189975660043
 30
0.0
 11
4.191060880889479
 21
-31.82189975660043
 31
0.0
  0
LINE
  8
DRW0
 10
4.191060880889479
 20
-31.82189975660043
 30
0.0
 11
4.191060880889479
 21
-31.321829992403416
 31
0.0
  0
LINE
  8
DRW0
 10
4.191060880889479
 20
-31.321829992403416
 30
0.0
 11
-9.8029549013222
 21
-31.321829992403416
 31
0.0
  0
LINE
  8
DRW0_CUT
 10
-9.8029549013222
 20
-31.321829992403416
 30
0.0
 11
-9.8029549013222
 21
-31.321829992403416
 31
0.0
  0
LINE
  8
DRW0
 10
-9.8029549013222
 20
-31.321829992403416
 30
0.0
 11
-9.882331054369345
 21
-31.321829992403416
 31
0.0
  0
LINE
  8
DRW0_CUT
 10
-9.882331054369345
 20
-31.321829992403416
 30
0.0
 11
-19.88372633830963
 21
-31.321829992403416
 31
0.0
  0
LINE
  8
DRW0
 10
-19.88372633830963
 20
-31.321829992403416
 30
0.0
 11
-31.091639148566514
 21
-31.321829992403416
 31
0.0
  0
LINE
  8
DRW0_CUT
 10
-31.091639148566514
 20
-31.321829992403416
 30
0.0
 11
-38.679999379873585
 21
-31.321829992403416
 31
0.0
  0
LINE
  8
DRW0
 10
-38.679999379873585
 20
-31.321829992403416
 30
0.0
 11
-49.88791219013047
 21
-31.321829992403416
 31
0.0
  0
LINE
  8
DRW0_CUT
 10
-49.88791219013047
 20
-31.321829992403416
 30
0.0
 11
-59.889307474070755
 21
-31.321829992403416
 31
0.0
  0
LINE
  8
DRW0
 10
-59.889307474070755
 20
-31.321829992403416
 30
0.0
 11
-60.095685471993335
 21
-31.321829992403416
 31
0.0
  0
LINE
  8
DRW0
 10
-60.095685471993335
 20
-31.321829992403416
 30
0.0
 11
-74.08970125420501
 21
-31.321829992403416
 31
0.0
  0
LINE
  8
DRW0
 10
-74.08970125420501
 20
-31.321829992403416
 30
0.0
 11
-74.08970125420501
 21
-30.8217602282064
 31
0.0
  0
LINE
  8
DRW0
 10
-74.08970125420501
 20
-30.8217602282064
 30
0.0
 11
-60.095685471993335
 21
-30.8217602282064
 31
0.0
  0
LINE
  8
DRW0_CUT
 10
-60.095685471993335
 20
-30.8217602282064
 30
0.0
 11
-60.095685471993335
 21
-30.8217602282064
 31
0.0
  0
LINE
  8
DRW0
 10
-60.095685471993335
 20
-30.8217602282064
 30
0.0
 11
-60.01630931894619
 21
-30.8217602282064
 31
0.0
  0
LINE
  8
DRW0_CUT
 10
-60.01630931894619
 20
-30.8217602282064
 30
0.0
 11
-50.01491403500591
 21
-30.8217602282064
 31
0.0
  0
LINE
  8
DRW0
 10
-50.01491403500591
 20
-30.8217602282064
 30
0.0
 11
-39.18800675937532
 21
-30.8217602282064
 31
0.0
  0
LINE
  8
DRW0_CUT
 10
-39.18800675937532
 20
-30.8217602282064
 30
0.0
 11
-30.837635458815654
 21
-30.8217602282064
 31
0.0
  0
LINE
  8
DRW0
 10
-30.837635458815654
 20
-30.8217602282064
 30
0.0
 11
-20.010728183185066
 21
-30.8217602282064
 31
0.0
  0
LINE
  8
DRW0_CUT
 10
-20.010728183185066
 20
-30.8217602282064
 30
0.0
 11
-10.009332899244784
 21
-30.8217602282064
 31
0.0
  0
LINE
  8
DRW0
 10
-10.009332899244784
 20
-30.8217602282064
 30
0.0
 11
-9.802954901322208
 21
-30.8217602282064
 31
0.0
  0
LINE
  8
DRW0
 10
-9.802954901322208
 20
-30.8217602282064
 30
0.0
 11
4.191060880889472
 21
-30.8217602282064
 31
0.0
  0
LINE
  8
DRW0
 10
4.191060880889472
 20
-30.8217602282064
 30
0.0
 11
4.191060880889472
 21
-30.321690464009386
 31
0.0
  0
LINE
  8
DRW0
 10
4.191060880889472
 20
-30.321690464009386
 30
0.0
 11
-9.802954901322208
 21
-30.321690464009386
 31
0.0
  0
LINE
  8
DRW0_CUT
 10
-9.802954901322208
 20
-30.321690464009386
 30
0.0
 11
-9.802954901322208
 21
-30.321690464009386
 31
0.0
  0
LINE
  8
DRW0
 10
-9.802954901322208
 20
-30.321690464009386
 30
0.0
 11
-9.882331054369352
 21
-30.321690464009386
 31
0.0
  0
LINE
  8
DRW0_CUT
 10
-9.882331054369352
 20
-30.321690464009386
 30
0.0
 11
-19.883726338309636
 21
-30.321690464009386
 31
0.0
  0
LINE
  8
DRW0
 10
-19.883726338309636
 20
-30.321690464009386
 30
0.0
 11
-30.4248794629705
 21
-30.321690464009386
 31
0.0
  0
LINE
  8
DRW0_CUT
 10
-30.4248794629705
 20
-30.321690464009386
 30
0.0
 11
-39.34675906546961
 21
-30.321690464009386
 31
0.0
  0
LINE
  8
DRW0
 10
-39.34675906546961
 20
-30.321690464009386
 30
0.0
 11
-49.88791219013048
 21
-30.321690464009386
 31
0.0
  0
LINE
  8
DRW0_CUT
 10
-49.88791219013048
 20
-30.321690464009386
 30
0.0
 11
-59.88930747407076
 21
-30.321690464009386
 31
0.0
  0
LINE
  8
DRW0
 10
-59.88930747407076
 20
-30.321690464009386
 30
0.0
 11
-60.09568547199334
 21
-30.321690464009386
 31
0.0
  0
LINE
  8
DRW0
 10
-60.09568547199334
 20
-30.321690464009386
 30
0.0
 11
-74.08970125420502
 21
-30.321690464009386
 31
0.0
  0
LINE
  8
DRW0
 10
-74.08970125420502
 20
-30.321690464009386
 30
0.0
 11
-74.08970125420502
 21
-29.82162069981237
 31
0.0
  0
LINE
  8
DRW0
 10
-74.08970125420502
 20
-29.82162069981237
 30
0.0
 11
-60.09568547199335
 21
-29.82162069981237
 31
0.0
  0
LINE
  8
DRW0_CUT
 10
-60.09568547199335
 20
-29.82162069981237
 30
0.0
 11
-60.09568547199335
 21
-29.82162069981237
 31
0.0
  0
LINE
  8
DRW0
 10
-60.09568547199335
 20
-29.82162069981237
 30
0.0
 11
-60.016309318946206
 21
-29.82162069981237
 31
0.0
  0
LINE
  8
DRW0_CUT
 10
-60.016309318946206
 20
-29.82162069981237
 30
0.0
 11
-50.01491403500592
 21
-29.82162069981237
 31
0.0
  0
LINE
  8
DRW0
 10
-50.01491403500592
 20
-29.82162069981237
 30
0.0
 11
-39.69601413887706
 21
-29.82162069981237
 31
0.0
  0
LINE
  8
DRW0_CUT
 10
-39.69601413887706
 20
-29.82162069981237
 30
0.0
 11
-30.32962807931394
 21
-29.82162069981237
 31
0.0
  0
LINE
  8
DRW0
 10
-30.32962807931394
 20
-29.82162069981237
 30
0.0
 11
-20.01072818318508
 21
-29.82162069981237
 31
0.0
  0
LINE
  8
DRW0_CUT
 10
-20.01072818318508
 20
-29.82162069981237
 30
0.0
 11
-10.009332899244798
 21
-29.82162069981237
 31
0.0
  0
LINE
  8
DRW0
 10
-10.009332899244798
 20
-29.82162069981237
 30
0.0
 11
-9.802954901322222
 21
-29.82162069981237
 31
0.0
  0
LINE
  8
DRW0
 10
-9.802954901322222
 20
-29.82162069981237
 30
0.0
 11
4.191060880889458
 21
-29.82162069981237
 31
0.0
  0
LINE
  8
DRW0
 10
4.191060880889458
 20
-29.82162069981237
 30
0.0
 11
4.191060880889458
 21
-29.321550935615356
 31
0.0
  0
LINE
  8
DRW0
 10
4.191060880889458
 20
-29.321550935615356
 30
0.0
 11
-9.802954901322222
 21
-29.321550935615356
 31
0.0
  0
LINE
  8
DRW0_CUT
 10
-9.802954901322222
 20
-29.321550935615356
 30
0.0
 11
-9.802954901322222
 21
-29.321550935615356
 31
0.0
  0
LINE
  8
DRW0
 10
-9.802954901322222
 20
-29.321550935615356
 30
0.0
 11
-9.882331054369367
 21
-29.321550935615356
 31
0.0
  0
LINE
  8
DRW0_CUT
 10
-9.882331054369367
 20
-29.321550935615356
 30
0.0
 11
-19.88372633830965
 21
-29.321550935615356
 31
0.0
  0
LINE
  8
DRW0
 10
-19.88372633830965
 20
-29.321550935615356
 30
0.0
 11
-30.043873928344222
 21
-29.321550935615356
 31
0.0
  0
LINE
  8
DRW0_CUT
 10
-30.043873928344222
 20
-29.321550935615356
 30
0.0
 11
-39.727764600095924
 21
-29.321550935615356
 31
0.0
  0
LINE
  8
DRW0
 10
-39.727764600095924
 20
-29.321550935615356
 30
0.0
 11
-49.88791219013049
 21
-29.321550935615356
 31
0.0
  0
LINE
  8
DRW0_CUT
 10
-49.88791219013049
 20
-29.321550935615356
 30
0.0
 11
-59.889307474070776
 21
-29.321550935615356
 31
0.0
  0
LINE
  8
DRW0
 10
-59.889307474070776
 20
-29.321550935615356
 30
0.0
 11
-60.095685471993356
 21
-29.321550935615356
 31
0.0
  0
LINE
  8
DRW0
 10
-60.095685471993356
 20
-29.321550935615356
 30
0.0
 11
-74.08970125420504
 21
-29.321550935615356
 31
0.0
  0
LINE
  8
DRW0
 10
-74.08970125420504
 20
-29.321550935615356
 30
0.0
 11
-74.08970125420504
 21
-28.82148117141834
 31
0.0
  0
LINE
  8
DRW0
 10
-74.08970125420504
 20
-28.82148117141834
 30
0.0
 11
-60.09568547199336
 21
-28.82148117141834
 31
0.0
  0
LINE
  8
DRW0_CUT
 10
-60.09568547199336
 20
-28.82148117141834
 30
0.0
 11
-60.09568547199336
 21
-28.82148117141834
 31
0.0
  0
LINE
  8
DRW0
 10
-60.09568547199336
 20
-28.82148117141834
 30
0.0
 11
-60.01630931894622
 21
-28.82148117141834
 31
0.0
  0
LINE
  8
DRW0_CUT
 10
-60.01630931894622
 20
-28.82148117141834
 30
0.0
 11
-50.01491403500594
 21
-28.82148117141834
 31
0.0
  0
LINE
  8
DRW0
 10
-50.01491403500594
 20
-28.82148117141834
 30
0.0
 11
-39.957955443932654
 21
-28.82148117141834
 31
0.0
  0
LINE
  8
DRW0_CUT
 10
-39.957955443932654
 20
-28.82148117141834
 30
0.0
 11
-30.07562438956309
 21
-28.82148117141834
 31
0.0
  0
LINE
  8
DRW0
 10
-30.07562438956309
 20
-28.82148117141834
 30
0.0
 11
-20.01072818318509
 21
-28.82148117141834
 31
0.0
  0
LINE
  8
DRW0_CUT
 10
-20.01072818318509
 20
-28.82148117141834
 30
0.0
 11
-10.009332899244809
 21
-28.82148117141834
 31
0.0
  0
LINE
  8
DRW0
 10
-10.009332899244809
 20
-28.82148117141834
 30
0.0
 11
-9.802954901322233
 21
-28.82148117141834
 31
0.0
  0
LINE
  8
DRW0
 10
-9.802954901322233
 20
-28.82148117141834
 30
0.0
 11
4.191060880889447
 21
-28.82148117141834
 31
0.0
  0
LINE
  8
DRW0
 10
4.191060880889447
 20
-28.82148117141834
 30
0.0
 11
4.191060880889447
 21
-28.321411407221326
 31
0.0
  0
LINE
  8
DRW0
 10
4.191060880889447
 20
-28.321411407221326
 30
0.0
 11
-9.802954901322233
 21
-28.321411407221326
 31
0.0
  0
LINE
  8
DRW0_CUT
 10
-9.802954901322233
 20
-28.321411407221326
 30
0.0
 11
-9.802954901322233
 21
-28.321411407221326
 31
0.0
  0
LINE
  8
DRW0
 10
-9.802954901322233
 20
-28.321411407221326
 30
0.0
 11
-9.882331054369377
 21
-28.321411407221326
 31
0.0
  0
LINE
  8
DRW0_CUT
 10
-9.882331054369377
 20
-28.321411407221326
 30
0.0
 11
-19.883726338309657
 21
-28.321411407221326
 31
0.0
  0
LINE
  8
DRW0
 10
-19.883726338309657
 20
-28.321411407221326
 30
0.0
 11
-29.893059237554652
 21
-28.321411407221326
 31
0.0
  0
LINE
  8
DRW0_CUT
 10
-29.893059237554652
 20
-28.321411407221326
 30
0.0
 11
-39.878579290885504
 21
-28.321411407221326
 31
0.0
  0
LINE
  8
DRW0
 10
-39.878579290885504
 20
-28.321411407221326
 30
0.0
 11
-49.8879121901305
 21
-28.321411407221326
 31
0.0
  0
LINE
  8
DRW0_CUT
 10
-49.8879121901305
 20
-28.321411407221326
 30
0.0
 11
-59.88930747407078
 21
-28.321411407221326
 31
0.0
  0
LINE
  8
DRW0
 10
-59.88930747407078
 20
-28.321411407221326
 30
0.0
 11
-60.09568547199336
 21
-28.321411407221326
 31
0.0
  0
LINE
  8
DRW0
 10
-60.09568547199336
 20
-28.321411407221326
 30
0.0
 11
-74.08970125420504
 21
-28.321411407221326
 31
0.0
  0
LINE
  8
DRW0
 10
-74.08970125420504
 20
-28.321411407221326
 30
0.0
 11
-74.08970125420504
 21
-27.82134164302431
 31
0.0
  0
LINE
  8
DRW0
 10
-74.08970125420504
 20
-27.82134164302431
 30
0.0
 11
-60.09568547199336
 21
-27.82134164302431
 31
0.0
  0
LINE
  8
DRW0_CUT
 10
-60.09568547199336
 20
-27.82134164302431
 30
0.0
 11
-60.09568547199336
 21
-27.82134164302431
 31
0.0
  0
LINE
  8
DRW0
 10
-60.09568547199336
 20
-27.82134164302431
 30
0.0
 11
-40.00558113576094
 21
-27.82134164302431
 31
0.0
  0
LINE
  8
DRW0_CUT
 10
-40.00558113576094
 20
-27.82134164302431
 30
0.0
 11
-30.02006108243009
 21
-27.82134164302431
 31
0.0
  0
LINE
  8
DRW0
 10
-30.02006108243009
 20
-27.82134164302431
 30
0.0
 11
-29.869246391640512
 21
-27.82134164302431
 31
0.0
  0
LINE
  8
DRW0
 10
-29.869246391640512
 20
-27.82134164302431
 30
0.0
 11
-15.875230609428833
 21
-27.82134164302431
 31
0.0
  0
LINE
  8
DRW0
 10
-15.875230609428833
 20
-27.82134164302431
 30
0.0
 11
-15.875230609428833
 21
-27.321271878827297
 31
0.0
  0
LINE
  8
DRW0
 10
-15.875230609428833
 20
-27.321271878827297
 30
0.0
 11
-29.869246391640512
 21
-27.321271878827297
 31
0.0
  0
LINE
  8
DRW0_CUT
 10
-29.869246391640512
 20
-27.321271878827297
 30
0.0
 11
-29.869246391640512
 21
-27.321271878827297
 31
0.0
  0
LINE
  8
DRW0
 10
-29.869246391640512
 20
-27.321271878827297
 30
0.0
 11
-30.004185851820658
 21
-27.321271878827297
 31
0.0
  0
LINE
  8
DRW0_CUT
 10
-30.004185851820658
 20
-27.321271878827297
 30
0.0
 11
-39.886516906190224
 21
-27.321271878827297
 31
0.0
  0
LINE
  8
DRW0
 10
-39.886516906190224
 20
-27.321271878827297
 30
0.0
 11
-40.029393981675085
 21
-27.321271878827297
 31
0.0
  0
LINE
  8
DRW0
 10
-40.029393981675085
 20
-27.321271878827297
 30
0.0
 11
-54.02340976388676
 21
-27.321271878827297
 31
0.0
  0
LINE
  8
DRW0
 10
-54.02340976388676
 20
-27.321271878827297
 30
0.0
 11
-54.02340976388676
 21
-26.82120211463028
 31
0.0
  0
LINE
  8
DRW0
 10
-54.02340976388676
 20
-26.82120211463028
 30
0.0
 11
-40.029393981675085
 21
-26.82120211463028
 31
0.0
  0
LINE
  8
DRW0_CUT
 10
-40.029393981675085
 20
-26.82120211463028
 30
0.0
 11
-40.029393981675085
 21
-26.82120211463028
 31
0.0
  0
LINE
  8
DRW0
 10
-40.029393981675085
 20
-26.82120211463028
 30
0.0
 11
-39.84682882966665
 21
-26.82120211463028
 31
0.0
  0
LINE
  8
DRW0_CUT
 10
-39.84682882966665
 20
-26.82120211463028
 30
0.0
 11
-30.162938157914947
 21
-26.82120211463028
 31
0.0
  0
LINE
  8
DRW0
 10
-30.162938157914947
 20
-26.82120211463028
 30
0.0
 11
-30.123250081391376
 21
-26.82120211463028
 31
0.0
  0
LINE
  8
DRW0
 10
-30.123250081391376
 20
-26.82120211463028
 30
0.0
 11
-16.129234299179696
 21
-26.82120211463028
 31
0.0
  0
LINE
  8
DRW0
 10
-16.129234299179696
 20
-26.82120211463028
 30
0.0
 11
-16.129234299179696
 21
-26.321132350433267
 31
0.0
  0
LINE
  8
DRW0
 10
-16.129234299179696
 20
-26.321132350433267
 30
0.0
 11
-30.123250081391376
 21
-26.321132350433267
 31
0.0
  0
LINE
  8
DRW0_CUT
 10
-30.123250081391376
 20
-26.321132350433267
 30
0.0
 11
-30.123250081391376
 21
-26.321132350433267
 31
0.0
  0
LINE
  8
DRW0
 10
-30.123250081391376
 20
-26.321132350433267
 30
0.0
 11
-30.36137854053281
 21
-26.321132350433267
 31
0.0
  0
LINE
  8
DRW0_CUT
 10
-30.36137854053281
 20
-26.321132350433267
 30
0.0
 11
-39.72776460009593
 21
-26.321132350433267
 31
0.0
  0
LINE
  8
DRW0
 10
-39.72776460009593
 20
-26.321132350433267
 30
0.0
 11
-39.77539029192422
 21
-26.321132350433267
 31
0.0
  0
LINE
  8
DRW0
 10
-39.77539029192422
 20
-26.321132350433267
 30
0.0
 11
-53.7694060741359
 21
-26.321132350433267
 31
0.0
  0
LINE
  8
DRW0
 10
-53.7694060741359
 20
-26.321132350433267
 30
0.0
 11
-53.7694060741359
 21
-25.821062586236252
 31
0.0
  0
LINE
  8
DRW0
 10
-53.7694060741359
 20
-25.821062586236252
 30
0.0
 11
-39.775390291924225
 21
-25.821062586236252
 31
0.0
  0
LINE
  8
DRW0_CUT
 10
-39.775390291924225
 20
-25.821062586236252
 30
0.0
 11
-39.775390291924225
 21
-25.821062586236252
 31
0.0
  0
LINE
  8
DRW0
 10
-39.775390291924225
 20
-25.821062586236252
 30
0.0
 11
-39.47376091034507
 21
-25.821062586236252
 31
0.0
  0
LINE
  8
DRW0_CUT
 10
-39.47376091034507
 20
-25.821062586236252
 30
0.0
 11
-30.55188130784596
 21
-25.821062586236252
 31
0.0
  0
LINE
  8
DRW0
 10
-30.55188130784596
 20
-25.821062586236252
 30
0.0
 11
-30.37725377114224
 21
-25.821062586236252
 31
0.0
  0
LINE
  8
DRW0
 10
-30.37725377114224
 20
-25.821062586236252
 30
0.0
 11
-16.38323798893056
 21
-25.821062586236252
 31
0.0
  0
LINE
  8
DRW0
 10
-16.38323798893056
 20
-25.821062586236252
 30
0.0
 11
-16.38323798893056
 21
-25.320992822039237
 31
0.0
  0
LINE
  8
DRW0
 10
-16.38323798893056
 20
-25.320992822039237
 30
0.0
 11
-30.37725377114224
 21
-25.320992822039237
 31
0.0
  0
LINE
  8
DRW0_CUT
 10
-30.37725377114224
 20
-25.320992822039237
 30
0.0
 11
-30.37725377114224
 21
-25.320992822039237
 31
0.0
  0
LINE
  8
DRW0
 10
-30.37725377114224
 20
-25.320992822039237
 30
0.0
 11
-30.75032169046382
 21
-25.320992822039237
 31
0.0
  0
LINE
  8
DRW0_CUT
 10
-30.75032169046382
 20
-25.320992822039237
 30
0.0
 11
-39.100692991023486
 21
-25.320992822039237
 31
0.0
  0
LINE
  8
DRW0
 10
-39.100692991023486
 20
-25.320992822039237
 30
0.0
 11
-69.74782568252621
 21
-25.320992822039237
 31
0.0
  0
LINE
  8
DRW0
 10
-69.74782568252621
 20
-25.320992822039237
 30
0.0
 11
-83.74184146473789
 21
-25.320992822039237
 31
0.0
  0
LINE
  8
DRW0
 10
-83.74184146473789
 20
-25.320992822039237
 30
0.0
 11
-83.74184146473789
 21
-24.820923057842222
 31
0.0
  0
LINE
  8
DRW0
 10
-83.74184146473789
 20
-24.820923057842222
 30
0.0
 11
-69.74782568252621
 21
-24.820923057842222
 31
0.0
  0
LINE
  8
DRW0_CUT
 10
-69.74782568252621
 20
-24.820923057842222
 30
0.0
 11
-66.52515386881213
 21
-24.820923057842222
 31
0.0
  0
LINE
  8
DRW0
 10
-66.52515386881213
 20
-24.820923057842222
 30
0.0
 11
-61.6435204564127
 21
-24.820923057842222
 31
0.0
  0
LINE
  8
DRW0_CUT
 10
-61.6435204564127
 20
-24.820923057842222
 30
0.0
 11
-61.44508007379484
 21
-24.820923057842222
 31
0.0
  0
LINE
  8
DRW0
 10
-61.44508007379484
 20
-24.820923057842222
 30
0.0
 11
-61.34982869013827
 21
-24.820923057842222
 31
0.0
  0
LINE
  8
DRW0_CUT
 10
-61.34982869013827
 20
-24.820923057842222
 30
0.0
 11
-54.221850146504636
 21
-24.820923057842222
 31
0.0
  0
LINE
  8
DRW0
 10
-54.221850146504636
 20
-24.820923057842222
 30
0.0
 11
-53.63446661395576
 21
-24.820923057842222
 31
0.0
  0
LINE
  8
DRW0_CUT
 10
-53.63446661395576
 20
-24.820923057842222
 30
0.0
 11
-53.04708308140688
 21
-24.820923057842222
 31
0.0
  0
LINE
  8
DRW0
 10
-53.04708308140688
 20
-24.820923057842222
 30
0.0
 11
-52.95183169775031
 21
-24.820923057842222
 31
0.0
  0
LINE
  8
DRW0_CUT
 10
-52.95183169775031
 20
-24.820923057842222
 30
0.0
 11
-50.213354417623805
 21
-24.820923057842222
 31
0.0
  0
LINE
  8
DRW0
 10
-50.213354417623805
 20
-24.820923057842222
 30
0.0
 11
-38.8863773777962
 21
-24.820923057842222
 31
0.0
  0
LINE
  8
DRW0_CUT
 10
-38.8863773777962
 20
-24.820923057842222
 30
0.0
 11
-31.290079531184414
 21
-24.820923057842222
 31
0.0
  0
LINE
  8
DRW0
 10
-31.290079531184414
 20
-24.820923057842222
 30
0.0
 11
-31.139264840394837
 21
-24.820923057842222
 31
0.0
  0
LINE
  8
DRW0
 10
-31.139264840394837
 20
-24.820923057842222
 30
0.0
 11
-17.145249058183158
 21
-24.820923057842222
 31
0.0
  0
LINE
  8
DRW0
 10
-17.145249058183158
 20
-24.820923057842222
 30
0.0
 11
-17.145249058183158
 21
-24.320853293645207
 31
0.0
  0
LINE
  8
DRW0
 10
-17.145249058183158
 20
-24.320853293645207
 30
0.0
 11
-31.139264840394837
 21
-24.320853293645207
 31
0.0
  0
LINE
  8
DRW0_CUT
 10
-31.139264840394837
 20
-24.320853293645207
 30
0.0
 11
-31.139264840394837
 21
-24.320853293645207
 31
0.0
  0
LINE
  8
DRW0
 10
-31.139264840394837
 20
-24.320853293645207
 30
0.0
 11
-31.710773142334283
 21
-24.320853293645207
 31
0.0
  0
LINE
  8
DRW0_CUT
 10
-31.710773142334283
 20
-24.320853293645207
 30
0.0
 11
-38.32280669116147
 21
-24.320853293645207
 31
0.0
  0
LINE
  8
DRW0
 10
-38.32280669116147
 20
-24.320853293645207
 30
0.0
 11
-49.951413112568225
 21
-24.320853293645207
 31
0.0
  0
LINE
  8
DRW0_CUT
 10
-49.951413112568225
 20
-24.320853293645207
 30
0.0
 11
-58.64310187123061
 21
-24.320853293645207
 31
0.0
  0
LINE
  8
DRW0
 10
-58.64310187123061
 20
-24.320853293645207
 30
0.0
 11
-58.73835325488719
 21
-24.320853293645207
 31
0.0
  0
LINE
  8
DRW0_CUT
 10
-58.73835325488719
 20
-24.320853293645207
 30
0.0
 11
-61.66733330232684
 21
-24.320853293645207
 31
0.0
  0
LINE
  8
DRW0
 10
-61.66733330232684
 20
-24.320853293645207
 30
0.0
 11
-62.05627645225785
 21
-24.320853293645207
 31
0.0
  0
LINE
  8
DRW0_CUT
 10
-62.05627645225785
 20
-24.320853293645207
 30
0.0
 11
-62.15152783591442
 21
-24.320853293645207
 31
0.0
  0
LINE
  8
DRW0
 10
-62.15152783591442
 20
-24.320853293645207
 30
0.0
 11
-66.16002356479525
 21
-24.320853293645207
 31
0.0
  0
LINE
  8
DRW0_CUT
 10
-66.16002356479525
 20
-24.320853293645207
 30
0.0
 11
-69.67638714478377
 21
-24.320853293645207
 31
0.0
  0
LINE
  8
DRW0
 10
-69.67638714478377
 20
-24.320853293645207
 30
0.0
 11
-69.7478256825262
 21
-24.320853293645207
 31
0.0
  0
LINE
  8
DRW0
 10
-69.7478256825262
 20
-24.320853293645207
 30
0.0
 11
-83.74184146473787
 21
-24.320853293645207
 31
0.0
  0
LINE
  8
DRW0
 10
-83.74184146473787
 20
-24.320853293645207
 30
0.0
 11
-83.74184146473787
 21
-23.820783529448192
 31
0.0
  0
LINE
  8
DRW0
 10
-83.74184146473787
 20
-23.820783529448192
 30
0.0
 11
-69.7478256825262
 21
-23.820783529448192
 31
0.0
  0
LINE
  8
DRW0_CUT
 10
-69.7478256825262
 20
-23.820783529448192
 30
0.0
 11
-69.7478256825262
 21
-23.820783529448192
 31
0.0
  0
LINE
  8
DRW0
 10
-69.7478256825262
 20
-23.820783529448192
 30
0.0
 11
-69.66844952947905
 21
-23.820783529448192
 31
0.0
  0
LINE
  8
DRW0_CUT
 10
-69.66844952947905
 20
-23.820783529448192
 30
0.0
 11
-65.7631427995595
 21
-23.820783529448192
 31
0.0
  0
LINE
  8
DRW0
 10
-65.7631427995595
 20
-23.820783529448192
 30
0.0
 11
-62.246779219570975
 21
-23.820783529448192
 31
0.0
  0
LINE
  8
DRW0_CUT
 10
-62.246779219570975
 20
-23.820783529448192
 30
0.0
 11
-49.745035114645624
 21
-23.820783529448192
 31
0.0
  0
LINE
  8
DRW0
 10
-49.745035114645624
 20
-23.820783529448192
 30
0.0
 11
-37.640171774955995
 21
-23.820783529448192
 31
0.0
  0
LINE
  8
DRW0_CUT
 10
-37.640171774955995
 20
-23.820783529448192
 30
0.0
 11
-32.377532827930274
 21
-23.820783529448192
 31
0.0
  0
LINE
  8
DRW0
 10
-32.377532827930274
 20
-23.820783529448192
 30
0.0
 11
-32.15527959939827
 21
-23.820783529448192
 31
0.0
  0
LINE
  8
DRW0
 10
-32.15527959939827
 20
-23.820783529448192
 30
0.0
 11
-18.16126381718659
 21
-23.820783529448192
 31
0.0
  0
LINE
  8
DRW0
 10
-18.16126381718659
 20
-23.820783529448192
 30
0.0
 11
-18.16126381718659
 21
-23.320713765251178
 31
0.0
  0
LINE
  8
DRW0
 10
-18.16126381718659
 20
-23.320713765251178
 30
0.0
 11
-32.15527959939827
 21
-23.320713765251178
 31
0.0
  0
LINE
  8
DRW0_CUT
 10
-32.15527959939827
 20
-23.320713765251178
 30
0.0
 11
-32.15527959939827
 21
-23.320713765251178
 31
0.0
  0
LINE
  8
DRW0
 10
-32.15527959939827
 20
-23.320713765251178
 30
0.0
 11
-33.314171433886585
 21
-23.320713765251178
 31
0.0
  0
LINE
  8
DRW0_CUT
 10
-33.314171433886585
 20
-23.320713765251178
 30
0.0
 11
-36.42571663333467
 21
-23.320713765251178
 31
0.0
  0
LINE
  8
DRW0
 10
-36.42571663333467
 20
-23.320713765251178
 30
0.0
 11
-49.69740942281733
 21
-23.320713765251178
 31
0.0
  0
LINE
  8
DRW0_CUT
 10
-49.69740942281733
 20
-23.320713765251178
 30
0.0
 11
-62.294404911399255
 21
-23.320713765251178
 31
0.0
  0
LINE
  8
DRW0
 10
-62.294404911399255
 20
-23.320713765251178
 30
0.0
 11
-65.2233849588389
 21
-23.320713765251178
 31
0.0
  0
LINE
  8
DRW0_CUT
 10
-65.2233849588389
 20
-23.320713765251178
 30
0.0
 11
-69.52557245399417
 21
-23.320713765251178
 31
0.0
  0
LINE
  8
DRW0
 10
-69.52557245399417
 20
-23.320713765251178
 30
0.0
 11
-69.74782568252618
 21
-23.320713765251178
 31
0.0
  0
LINE
  8
DRW0
 10
-69.74782568252618
 20
-23.320713765251178
 30
0.0
 11
-83.74184146473786
 21
-23.320713765251178
 31
0.0
  0
LINE
  8
DRW0
 10
-83.74184146473786
 20
-23.320713765251178
 30
0.0
 11
-83.74184146473786
 21
-22.820644001054163
 31
0.0
  0
LINE
  8
DRW0
 10
-83.74184146473786
 20
-22.820644001054163
 30
0.0
 11
-69.74782568252618
 21
-22.820644001054163
 31
0.0
  0
LINE
  8
DRW0_CUT
 10
-69.74782568252618
 20
-22.820644001054163
 30
0.0
 11
-69.74782568252618
 21
-22.820644001054163
 31
0.0
  0
LINE
  8
DRW0
 10
-69.74782568252618
 20
-22.820644001054163
 30
0.0
 11
-69.66844952947903
 21
-22.820644001054163
 31
0.0
  0
LINE
  8
DRW0_CUT
 10
-69.66844952947903
 20
-22.820644001054163
 30
0.0
 11
-65.07257026804933
 21
-22.820644001054163
 31
0.0
  0
LINE
  8
DRW0
 10
-65.07257026804933
 20
-22.820644001054163
 30
0.0
 11
-62.34203060322754
 21
-22.820644001054163
 31
0.0
  0
LINE
  8
DRW0_CUT
 10
-62.34203060322754
 20
-22.820644001054163
 30
0.0
 11
-60.095685471993335
 21
-22.820644001054163
 31
0.0
  0
LINE
  8
DRW0
 10
-60.095685471993335
 20
-22.820644001054163
 30
0.0
 11
-59.317799172131316
 21
-22.820644001054163
 31
0.0
  0
LINE
  8
DRW0_CUT
 10
-59.317799172131316
 20
-22.820644001054163
 30
0.0
 11
-59.02410740585688
 21
-22.820644001054163
 31
0.0
  0
LINE
  8
DRW0
 10
-59.02410740585688
 20
-22.820644001054163
 30
0.0
 11
-58.436723873308004
 21
-22.820644001054163
 31
0.0
  0
LINE
  8
DRW0_CUT
 10
-58.436723873308004
 20
-22.820644001054163
 30
0.0
 11
-50.03872688092005
 21
-22.820644001054163
 31
0.0
  0
LINE
  8
DRW0
 10
-50.03872688092005
 20
-22.820644001054163
 30
0.0
 11
-49.935537881958766
 21
-22.820644001054163
 31
0.0
  0
LINE
  8
DRW0
 10
-49.935537881958766
 20
-22.820644001054163
 30
0.0
 11
-35.94152209974709
 21
-22.820644001054163
 31
0.0
  0
LINE
  8
DRW0
 10
-35.94152209974709
 20
-22.820644001054163
 30
0.0
 11
-35.94152209974709
 21
-22.320574236857148
 31
0.0
  0
LINE
  8
DRW0
 10
-35.94152209974709
 20
-22.320574236857148
 30
0.0
 11
-49.935537881958766
 21
-22.320574236857148
 31
0.0
  0
LINE
  8
DRW0_CUT
 10
-49.935537881958766
 20
-22.320574236857148
 30
0.0
 11
-49.935537881958766
 21
-22.320574236857148
 31
0.0
  0
LINE
  8
DRW0
 10
-49.935537881958766
 20
-22.320574236857148
 30
0.0
 11
-50.213354417623776
 21
-22.320574236857148
 31
0.0
  0
LINE
  8
DRW0_CUT
 10
-50.213354417623776
 20
-22.320574236857148
 30
0.0
 11
-58.31765964373729
 21
-22.320574236857148
 31
0.0
  0
LINE
  8
DRW0
 10
-58.31765964373729
 20
-22.320574236857148
 30
0.0
 11
-58.51610002635515
 21
-22.320574236857148
 31
0.0
  0
LINE
  8
DRW0_CUT
 10
-58.51610002635515
 20
-22.320574236857148
 30
0.0
 11
-60.0798102413839
 21
-22.320574236857148
 31
0.0
  0
LINE
  8
DRW0
 10
-60.0798102413839
 20
-22.320574236857148
 30
0.0
 11
-60.365564392353626
 21
-22.320574236857148
 31
0.0
  0
LINE
  8
DRW0_CUT
 10
-60.365564392353626
 20
-22.320574236857148
 30
0.0
 11
-60.762445157589354
 21
-22.320574236857148
 31
0.0
  0
LINE
  8
DRW0
 10
-60.762445157589354
 20
-22.320574236857148
 30
0.0
 11
-61.24663969117694
 21
-22.320574236857148
 31
0.0
  0
LINE
  8
DRW0_CUT
 10
-61.24663969117694
 20
-22.320574236857148
 30
0.0
 11
-61.4450800737948
 21
-22.320574236857148
 31
0.0
  0
LINE
  8
DRW0
 10
-61.4450800737948
 20
-22.320574236857148
 30
0.0
 11
-61.738771840069234
 21
-22.320574236857148
 31
0.0
  0
LINE
  8
DRW0_CUT
 10
-61.738771840069234
 20
-22.320574236857148
 30
0.0
 11
-62.22296637365682
 21
-22.320574236857148
 31
0.0
  0
LINE
  8
DRW0
 10
-62.22296637365682
 20
-22.320574236857148
 30
0.0
 11
-63.30248205509799
 21
-22.320574236857148
 31
0.0
  0
LINE
  8
DRW0_CUT
 10
-63.30248205509799
 20
-22.320574236857148
 30
0.0
 11
-63.397733438754564
 21
-22.320574236857148
 31
0.0
  0
LINE
  8
DRW0
 10
-63.397733438754564
 20
-22.320574236857148
 30
0.0
 11
-65.83458133730191
 21
-22.320574236857148
 31
0.0
  0
LINE
  8
DRW0_CUT
 10
-65.83458133730191
 20
-22.320574236857148
 30
0.0
 11
-69.64463668356488
 21
-22.320574236857148
 31
0.0
  0
LINE
  8
DRW0
 10
-69.64463668356488
 20
-22.320574236857148
 30
0.0
 11
-69.74782568252617
 21
-22.320574236857148
 31
0.0
  0
LINE
  8
DRW0
 10
-69.74782568252617
 20
-22.320574236857148
 30
0.0
 11
-83.74184146473785
 21
-22.320574236857148
 31
0.0
  0
LINE
  8
DRW0
 10
-83.74184146473785
 20
-22.320574236857148
 30
0.0
 11
-83.74184146473785
 21
-21.820504472660133
 31
0.0
  0
LINE
  8
DRW0
 10
-83.74184146473785
 20
-21.820504472660133
 30
0.0
 11
-69.74782568252617
 21
-21.820504472660133
 31
0.0
  0
LINE
  8
DRW0_CUT
 10
-69.74782568252617
 20
-21.820504472660133
 30
0.0
 11
-69.74782568252617
 21
-21.820504472660133
 31
0.0
  0
LINE
  8
DRW0
 10
-69.74782568252617
 20
-21.820504472660133
 30
0.0
 11
-69.66844952947902
 21
-21.820504472660133
 31
0.0
  0
LINE
  8
DRW0_CUT
 10
-69.66844952947902
 20
-21.820504472660133
 30
0.0
 11
-67.12841263197038
 21
-21.820504472660133
 31
0.0
  0
LINE
  8
DRW0
 10
-67.12841263197038
 20
-21.820504472660133
 30
0.0
 11
-64.00099220191287
 21
-21.820504472660133
 31
0.0
  0
LINE
  8
DRW0_CUT
 10
-64.00099220191287
 20
-21.820504472660133
 30
0.0
 11
-63.70730043563843
 21
-21.820504472660133
 31
0.0
  0
LINE
  8
DRW0
 10
-63.70730043563843
 20
-21.820504472660133
 30
0.0
 11
-62.63572236950197
 21
-21.820504472660133
 31
0.0
  0
LINE
  8
DRW0_CUT
 10
-62.63572236950197
 20
-21.820504472660133
 30
0.0
 11
-62.43728198688411
 21
-21.820504472660133
 31
0.0
  0
LINE
  8
DRW0
 10
-62.43728198688411
 20
-21.820504472660133
 30
0.0
 11
-61.659395687022084
 21
-21.820504472660133
 31
0.0
  0
LINE
  8
DRW0_CUT
 10
-61.659395687022084
 20
-21.820504472660133
 30
0.0
 11
-50.427670030851054
 21
-21.820504472660133
 31
0.0
  0
LINE
  8
DRW0
 10
-50.427670030851054
 20
-21.820504472660133
 30
0.0
 11
-50.18954157170962
 21
-21.820504472660133
 31
0.0
  0
LINE
  8
DRW0
 10
-50.18954157170962
 20
-21.820504472660133
 30
0.0
 11
-36.195525789497935
 21
-21.820504472660133
 31
0.0
  0
LINE
  8
DRW0
 10
-36.195525789497935
 20
-21.820504472660133
 30
0.0
 11
-36.195525789497935
 21
-21.320434708463118
 31
0.0
  0
LINE
  8
DRW0
 10
-36.195525789497935
 20
-21.320434708463118
 30
0.0
 11
-50.18954157170961
 21
-21.320434708463118
 31
0.0
  0
LINE
  8
DRW0_CUT
 10
-50.18954157170961
 20
-21.320434708463118
 30
0.0
 11
-50.18954157170961
 21
-21.320434708463118
 31
0.0
  0
LINE
  8
DRW0
 10
-50.18954157170961
 20
-21.320434708463118
 30
0.0
 11
-50.268917724756754
 21
-21.320434708463118
 31
0.0
  0
LINE
  8
DRW0_CUT
 10
-50.268917724756754
 20
-21.320434708463118
 30
0.0
 11
-62.28646729609452
 21
-21.320434708463118
 31
0.0
  0
LINE
  8
DRW0
 10
-62.28646729609452
 20
-21.320434708463118
 30
0.0
 11
-63.453296745887556
 21
-21.320434708463118
 31
0.0
  0
LINE
  8
DRW0_CUT
 10
-63.453296745887556
 20
-21.320434708463118
 30
0.0
 11
-63.842239895818565
 21
-21.320434708463118
 31
0.0
  0
LINE
  8
DRW0
 10
-63.842239895818565
 20
-21.320434708463118
 30
0.0
 11
-68.43811915724827
 21
-21.320434708463118
 31
0.0
  0
LINE
  8
DRW0_CUT
 10
-68.43811915724827
 20
-21.320434708463118
 30
0.0
 11
-69.50969722338472
 21
-21.320434708463118
 31
0.0
  0
LINE
  8
DRW0
 10
-69.50969722338472
 20
-21.320434708463118
 30
0.0
 11
-69.74782568252616
 21
-21.320434708463118
 31
0.0
  0
LINE
  8
DRW0
 10
-69.74782568252616
 20
-21.320434708463118
 30
0.0
 11
-83.74184146473783
 21
-21.320434708463118
 31
0.0
  0
LINE
  8
DRW0
 10
-83.74184146473783
 20
-21.320434708463118
 30
0.0
 11
-83.74184146473783
 21
-20.820364944266103
 31
0.0
  0
LINE
  8
DRW0
 10
-83.74184146473783
 20
-20.820364944266103
 30
0.0
 11
-69.74782568252616
 21
-20.820364944266103
 31
0.0
  0
LINE
  8
DRW0_CUT
 10
-69.74782568252616
 20
-20.820364944266103
 30
0.0
 11
-69.74782568252616
 21
-20.820364944266103
 31
0.0
  0
LINE
  8
DRW0
 10
-69.74782568252616
 20
-20.820364944266103
 30
0.0
 11
-64.49312435080515
 21
-20.820364944266103
 31
0.0
  0
LINE
  8
DRW0_CUT
 10
-64.49312435080515
 20
-20.820364944266103
 30
0.0
 11
-63.3183572857074
 21
-20.820364944266103
 31
0.0
  0
LINE
  8
DRW0
 10
-63.3183572857074
 20
-20.820364944266103
 30
0.0
 11
-62.92941413577639
 21
-20.820364944266103
 31
0.0
  0
LINE
  8
DRW0_CUT
 10
-62.92941413577639
 20
-20.820364944266103
 30
0.0
 11
-62.73097375315853
 21
-20.820364944266103
 31
0.0
  0
LINE
  8
DRW0
 10
-62.73097375315853
 20
-20.820364944266103
 30
0.0
 11
-62.54047098584538
 21
-20.820364944266103
 31
0.0
  0
LINE
  8
DRW0_CUT
 10
-62.54047098584538
 20
-20.820364944266103
 30
0.0
 11
-59.11935878951343
 21
-20.820364944266103
 31
0.0
  0
LINE
  8
DRW0
 10
-59.11935878951343
 20
-20.820364944266103
 30
0.0
 11
-58.82566702323899
 21
-20.820364944266103
 31
0.0
  0
LINE
  8
DRW0_CUT
 10
-58.82566702323899
 20
-20.820364944266103
 30
0.0
 11
-50.42767003085104
 21
-20.820364944266103
 31
0.0
  0
LINE
  8
DRW0
 10
-50.42767003085104
 20
-20.820364944266103
 30
0.0
 11
-50.189541571709604
 21
-20.820364944266103
 31
0.0
  0
LINE
  8
DRW0
 10
-50.189541571709604
 20
-20.820364944266103
 30
0.0
 11
-36.19552578949792
 21
-20.820364944266103
 31
0.0
  0
LINE
  8
DRW0
 10
-36.19552578949792
 20
-20.820364944266103
 30
0.0
 11
-36.19552578949792
 21
-20.32029518006909
 31
0.0
  0
LINE
  8
DRW0
 10
-36.19552578949792
 20
-20.32029518006909
 30
0.0
 11
-50.1895415717096
 21
-20.32029518006909
 31
0.0
  0
LINE
  8
DRW0_CUT
 10
-50.1895415717096
 20
-20.32029518006909
 30
0.0
 11
-50.1895415717096
 21
-20.32029518006909
 31
0.0
  0
LINE
  8
DRW0
 10
-50.1895415717096
 20
-20.32029518006909
 30
0.0
 11
-50.37210672371803
 21
-20.32029518006909
 31
0.0
  0
LINE
  8
DRW0_CUT
 10
-50.37210672371803
 20
-20.32029518006909
 30
0.0
 11
-62.58015906236895
 21
-20.32029518006909
 31
0.0
  0
LINE
  8
DRW0
 10
-62.58015906236895
 20
-20.32029518006909
 30
0.0
 11
-62.86591321333867
 21
-20.32029518006909
 31
0.0
  0
LINE
  8
DRW0_CUT
 10
-62.86591321333867
 20
-20.32029518006909
 30
0.0
 11
-64.33437204471086
 21
-20.32029518006909
 31
0.0
  0
LINE
  8
DRW0
 10
-64.33437204471086
 20
-20.32029518006909
 30
0.0
 11
-64.66775188750887
 21
-20.32029518006909
 31
0.0
  0
LINE
  8
DRW0
 10
-64.66775188750887
 20
-20.32029518006909
 30
0.0
 11
-78.66176766972055
 21
-20.32029518006909
 31
0.0
  0
LINE
  8
DRW0
 10
-78.66176766972055
 20
-20.32029518006909
 30
0.0
 11
-78.66176766972055
 21
-19.820225415872073
 31
0.0
  0
LINE
  8
DRW0
 10
-78.66176766972055
 20
-19.820225415872073
 30
0.0
 11
-64.66775188750887
 21
-19.820225415872073
 31
0.0
  0
LINE
  8
DRW0_CUT
 10
-64.66775188750887
 20
-19.820225415872073
 30
0.0
 11
-62.90560128986225
 21
-19.820225415872073
 31
0.0
  0
LINE
  8
DRW0
 10
-62.90560128986225
 20
-19.820225415872073
 30
0.0
 11
-62.51665813993124
 21
-19.820225415872073
 31
0.0
  0
LINE
  8
DRW0_CUT
 10
-62.51665813993124
 20
-19.820225415872073
 30
0.0
 11
-50.60229756755476
 21
-19.820225415872073
 31
0.0
  0
LINE
  8
DRW0
 10
-50.60229756755476
 20
-19.820225415872073
 30
0.0
 11
-50.443545261460464
 21
-19.820225415872073
 31
0.0
  0
LINE
  8
DRW0
 10
-50.443545261460464
 20
-19.820225415872073
 30
0.0
 11
-36.44952947924878
 21
-19.820225415872073
 31
0.0
  0
LINE
  8
DRW0
 10
-36.44952947924878
 20
-19.820225415872073
 30
0.0
 11
-36.44952947924878
 21
-19.32015565167506
 31
0.0
  0
LINE
  8
DRW0
 10
-36.44952947924878
 20
-19.32015565167506
 30
0.0
 11
-50.44354526146046
 21
-19.32015565167506
 31
0.0
  0
LINE
  8
DRW0_CUT
 10
-50.44354526146046
 20
-19.32015565167506
 30
0.0
 11
-50.44354526146046
 21
-19.32015565167506
 31
0.0
  0
LINE
  8
DRW0
 10
-50.44354526146046
 20
-19.32015565167506
 30
0.0
 11
-50.5229214145076
 21
-19.32015565167506
 31
0.0
  0
LINE
  8
DRW0_CUT
 10
-50.5229214145076
 20
-19.32015565167506
 30
0.0
 11
-62.24677921957093
 21
-19.32015565167506
 31
0.0
  0
LINE
  8
DRW0
 10
-62.24677921957093
 20
-19.32015565167506
 30
0.0
 11
-62.92941413577638
 21
-19.32015565167506
 31
0.0
  0
LINE
  8
DRW0_CUT
 10
-62.92941413577638
 20
-19.32015565167506
 30
0.0
 11
-64.78681611707958
 21
-19.32015565167506
 31
0.0
  0
LINE
  8
DRW0
 10
-64.78681611707958
 20
-19.32015565167506
 30
0.0
 11
-65.08050788335402
 21
-19.32015565167506
 31
0.0
  0
LINE
  8
DRW0_CUT
 10
-65.08050788335402
 20
-19.32015565167506
 30
0.0
 11
-65.27101065066717
 21
-19.32015565167506
 31
0.0
  0
LINE
  8
DRW0
 10
-65.27101065066717
 20
-19.32015565167506
 30
0.0
 11
-65.42976295676145
 21
-19.32015565167506
 31
0.0
  0
LINE
  8
DRW0
 10
-65.42976295676145
 20
-19.32015565167506
 30
0.0
 11
-79.42377873897313
 21
-19.32015565167506
 31
0.0
  0
LINE
  8
DRW0
 10
-79.42377873897313
 20
-19.32015565167506
 30
0.0
 11
-79.42377873897313
 21
-18.820085887478044
 31
0.0
  0
LINE
  8
DRW0
 10
-79.42377873897313
 20
-18.820085887478044
 30
0.0
 11
-65.42976295676145
 21
-18.820085887478044
 31
0.0
  0
LINE
  8
DRW0_CUT
 10
-65.42976295676145
 20
-18.820085887478044
 30
0.0
 11
-65.42976295676145
 21
-18.820085887478044
 31
0.0
  0
LINE
  8
DRW0
 10
-65.42976295676145
 20
-18.820085887478044
 30
0.0
 11
-64.95350603847858
 21
-18.820085887478044
 31
0.0
  0
LINE
  8
DRW0_CUT
 10
-64.95350603847858
 20
-18.820085887478044
 30
0.0
 11
-50.60229756755474
 21
-18.820085887478044
 31
0.0
  0
LINE
  8
DRW0
 10
-50.60229756755474
 20
-18.820085887478044
 30
0.0
 11
-50.44354526146045
 21
-18.820085887478044
 31
0.0
  0
LINE
  8
DRW0
 10
-50.44354526146045
 20
-18.820085887478044
 30
0.0
 11
-36.44952947924877
 21
-18.820085887478044
 31
0.0
  0
LINE
  8
DRW0
 10
-36.44952947924877
 20
-18.820085887478044
 30
0.0
 11
-36.44952947924877
 21
-18.32001612328103
 31
0.0
  0
LINE
  8
DRW0
 10
-36.44952947924877
 20
-18.32001612328103
 30
0.0
 11
-50.44354526146044
 21
-18.32001612328103
 31
0.0
  0
LINE
  8
DRW0_CUT
 10
-50.44354526146044
 20
-18.32001612328103
 30
0.0
 11
-59.62736616901513
 21
-18.32001612328103
 31
0.0
  0
LINE
  8
DRW0
 10
-59.62736616901513
 20
-18.32001612328103
 30
0.0
 11
-59.81786893632828
 21
-18.32001612328103
 31
0.0
  0
LINE
  8
DRW0_CUT
 10
-59.81786893632828
 20
-18.32001612328103
 30
0.0
 11
-65.19163449762
 21
-18.32001612328103
 31
0.0
  0
LINE
  8
DRW0
 10
-65.19163449762
 20
-18.32001612328103
 30
0.0
 11
-65.42976295676144
 21
-18.32001612328103
 31
0.0
  0
LINE
  8
DRW0
 10
-65.42976295676144
 20
-18.32001612328103
 30
0.0
 11
-79.42377873897311
 21
-18.32001612328103
 31
0.0
  0
LINE
  8
DRW0
 10
-79.42377873897311
 20
-18.32001612328103
 30
0.0
 11
-79.42377873897311
 21
-17.819946359084014
 31
0.0
  0
LINE
  8
DRW0
 10
-79.42377873897311
 20
-17.819946359084014
 30
0.0
 11
-65.42976295676144
 21
-17.819946359084014
 31
0.0
  0
LINE
  8
DRW0_CUT
 10
-65.42976295676144
 20
-17.819946359084014
 30
0.0
 11
-50.29273057067087
 21
-17.819946359084014
 31
0.0
  0
LINE
  8
DRW0
 10
-50.29273057067087
 20
-17.819946359084014
 30
0.0
 11
-49.935537881958716
 21
-17.819946359084014
 31
0.0
  0
LINE
  8
DRW0
 10
-49.935537881958716
 20
-17.819946359084014
 30
0.0
 11
-35.94152209974703
 21
-17.819946359084014
 31
0.0
  0
LINE
  8
DRW0
 10
-35.94152209974703
 20
-17.819946359084014
 30
0.0
 11
-35.94152209974703
 21
-17.319876594887
 31
0.0
  0
LINE
  8
DRW0
 10
-35.94152209974703
 20
-17.319876594887
 30
0.0
 11
-49.93553788195871
 21
-17.319876594887
 31
0.0
  0
LINE
  8
DRW0_CUT
 10
-49.93553788195871
 20
-17.319876594887
 30
0.0
 11
-65.65995380059815
 21
-17.319876594887
 31
0.0
  0
LINE
  8
DRW0
 10
-65.65995380059815
 20
-17.319876594887
 30
0.0
 11
-65.93777033626316
 21
-17.319876594887
 31
0.0
  0
LINE
  8
DRW0
 10
-65.93777033626316
 20
-17.319876594887
 30
0.0
 11
-79.93178611847483
 21
-17.319876594887
 31
0.0
  0
LINE
  8
DRW0
 10
-79.93178611847483
 20
-17.319876594887
 30
0.0
 11
-79.93178611847483
 21
-16.819806830689984
 31
0.0
  0
LINE
  8
DRW0
 10
-79.93178611847483
 20
-16.819806830689984
 30
0.0
 11
-65.93777033626316
 21
-16.819806830689984
 31
0.0
  0
LINE
  8
DRW0_CUT
 10
-65.93777033626316
 20
-16.819806830689984
 30
0.0
 11
-49.8244112676927
 21
-16.819806830689984
 31
0.0
  0
LINE
  8
DRW0
 10
-49.8244112676927
 20
-16.819806830689984
 30
0.0
 11
-49.68153419220784
 21
-16.819806830689984
 31
0.0
  0
LINE
  8
DRW0
 10
-49.68153419220784
 20
-16.819806830689984
 30
0.0
 11
-35.68751840999616
 21
-16.819806830689984
 31
0.0
  0
LINE
  8
DRW0
 10
-35.68751840999616
 20
-16.819806830689984
 30
0.0
 11
-35.68751840999616
 21
-16.31973706649297
 31
0.0
  0
LINE
  8
DRW0
 10
-35.68751840999616
 20
-16.31973706649297
 30
0.0
 11
-49.681534192207835
 21
-16.31973706649297
 31
0.0
  0
LINE
  8
DRW0_CUT
 10
-49.681534192207835
 20
-16.31973706649297
 30
0.0
 11
-49.681534192207835
 21
-16.31973706649297
 31
0.0
  0
LINE
  8
DRW0
 10
-49.681534192207835
 20
-16.31973706649297
 30
0.0
 11
-49.86409934421627
 21
-16.31973706649297
 31
0.0
  0
LINE
  8
DRW0_CUT
 10
-49.86409934421627
 20
-16.31973706649297
 30
0.0
 11
-61.58001953397489
 21
-16.31973706649297
 31
0.0
  0
LINE
  8
DRW0
 10
-61.58001953397489
 20
-16.31973706649297
 30
0.0
 11
-61.873711300249326
 21
-16.31973706649297
 31
0.0
  0
LINE
  8
DRW0_CUT
 10
-61.873711300249326
 20
-16.31973706649297
 30
0.0
 11
-62.945289366385786
 21
-16.31973706649297
 31
0.0
  0
LINE
  8
DRW0
 10
-62.945289366385786
 20
-16.31973706649297
 30
0.0
 11
-63.334232516316796
 21
-16.31973706649297
 31
0.0
  0
LINE
  8
DRW0_CUT
 10
-63.334232516316796
 20
-16.31973706649297
 30
0.0
 11
-65.580577647551
 21
-16.31973706649297
 31
0.0
  0
LINE
  8
DRW0
 10
-65.580577647551
 20
-16.31973706649297
 30
0.0
 11
-65.68376664651228
 21
-16.31973706649297
 31
0.0
  0
LINE
  8
DRW0
 10
-65.68376664651228
 20
-16.31973706649297
 30
0.0
 11
-79.67778242872396
 21
-16.31973706649297
 31
0.0
  0
LINE
  8
DRW0
 10
-79.67778242872396
 20
-16.31973706649297
 30
0.0
 11
-79.67778242872396
 21
-15.819667302295954
 31
0.0
  0
LINE
  8
DRW0
 10
-79.67778242872396
 20
-15.819667302295954
 30
0.0
 11
-65.68376664651228
 21
-15.819667302295954
 31
0.0
  0
LINE
  8
DRW0_CUT
 10
-65.68376664651228
 20
-15.819667302295954
 30
0.0
 11
-65.68376664651228
 21
-15.819667302295954
 31
0.0
  0
LINE
  8
DRW0
 10
-65.68376664651228
 20
-15.819667302295954
 30
0.0
 11
-65.50120149450385
 21
-15.819667302295954
 31
0.0
  0
LINE
  8
DRW0_CUT
 10
-65.50120149450385
 20
-15.819667302295954
 30
0.0
 11
-65.40595011084727
 21
-15.819667302295954
 31
0.0
  0
LINE
  8
DRW0
 10
-65.40595011084727
 20
-15.819667302295954
 30
0.0
 11
-65.3106987271907
 21
-15.819667302295954
 31
0.0
  0
LINE
  8
DRW0_CUT
 10
-65.3106987271907
 20
-15.819667302295954
 30
0.0
 11
-63.358045362230925
 21
-15.819667302295954
 31
0.0
  0
LINE
  8
DRW0
 10
-63.358045362230925
 20
-15.819667302295954
 30
0.0
 11
-62.47697006340761
 21
-15.819667302295954
 31
0.0
  0
LINE
  8
DRW0_CUT
 10
-62.47697006340761
 20
-15.819667302295954
 30
0.0
 11
-62.38171867975104
 21
-15.819667302295954
 31
0.0
  0
LINE
  8
DRW0
 10
-62.38171867975104
 20
-15.819667302295954
 30
0.0
 11
-62.18327829713318
 21
-15.819667302295954
 31
0.0
  0
LINE
  8
DRW0_CUT
 10
-62.18327829713318
 20
-15.819667302295954
 30
0.0
 11
-57.103204502115894
 21
-15.819667302295954
 31
0.0
  0
LINE
  8
DRW0
 10
-57.103204502115894
 20
-15.819667302295954
 30
0.0
 11
-56.61900996852831
 21
-15.819667302295954
 31
0.0
  0
LINE
  8
DRW0_CUT
 10
-56.61900996852831
 20
-15.819667302295954
 30
0.0
 11
-49.58628280855125
 21
-15.819667302295954
 31
0.0
  0
LINE
  8
DRW0
 10
-49.58628280855125
 20
-15.819667302295954
 30
0.0
 11
-49.1735268127061
 21
-15.819667302295954
 31
0.0
  0
LINE
  8
DRW0
 10
-49.1735268127061
 20
-15.819667302295954
 30
0.0
 11
-35.179511030494425
 21
-15.819667302295954
 31
0.0
  0
LINE
  8
DRW0
 10
-35.179511030494425
 20
-15.819667302295954
 30
0.0
 11
-35.179511030494425
 21
-15.31959753809894
 31
0.0
  0
LINE
  8
DRW0
 10
-35.179511030494425
 20
-15.31959753809894
 30
0.0
 11
-49.1735268127061
 21
-15.31959753809894
 31
0.0
  0
LINE
  8
DRW0_CUT
 10
-49.1735268127061
 20
-15.31959753809894
 30
0.0
 11
-56.20625397268316
 21
-15.31959753809894
 31
0.0
  0
LINE
  8
DRW0
 10
-56.20625397268316
 20
-15.31959753809894
 30
0.0
 11
-57.57152380509405
 21
-15.31959753809894
 31
0.0
  0
LINE
  8
DRW0_CUT
 10
-57.57152380509405
 20
-15.31959753809894
 30
0.0
 11
-61.87371130024932
 21
-15.31959753809894
 31
0.0
  0
LINE
  8
DRW0
 10
-61.87371130024932
 20
-15.31959753809894
 30
0.0
 11
-63.040540750042354
 21
-15.31959753809894
 31
0.0
  0
LINE
  8
DRW0_CUT
 10
-63.040540750042354
 20
-15.31959753809894
 30
0.0
 11
-64.60425096507112
 21
-15.31959753809894
 31
0.0
  0
LINE
  8
DRW0
 10
-64.60425096507112
 20
-15.31959753809894
 30
0.0
 11
-64.80269134768898
 21
-15.31959753809894
 31
0.0
  0
LINE
  8
DRW0_CUT
 10
-64.80269134768898
 20
-15.31959753809894
 30
0.0
 11
-64.99319411500213
 21
-15.31959753809894
 31
0.0
  0
LINE
  8
DRW0
 10
-64.99319411500213
 20
-15.31959753809894
 30
0.0
 11
-65.17575926701056
 21
-15.31959753809894
 31
0.0
  0
LINE
  8
DRW0
 10
-65.17575926701056
 20
-15.31959753809894
 30
0.0
 11
-79.16977504922224
 21
-15.31959753809894
 31
0.0
  0
LINE
  8
DRW0
 10
-79.16977504922224
 20
-15.31959753809894
 30
0.0
 11
-79.16977504922224
 21
-14.819527773901925
 31
0.0
  0
LINE
  8
DRW0
 10
-79.16977504922224
 20
-14.819527773901925
 30
0.0
 11
-65.17575926701056
 21
-14.819527773901925
 31
0.0
  0
LINE
  8
DRW0_CUT
 10
-65.17575926701056
 20
-14.819527773901925
 30
0.0
 11
-65.17575926701056
 21
-14.819527773901925
 31
0.0
  0
LINE
  8
DRW0
 10
-65.17575926701056
 20
-14.819527773901925
 30
0.0
 11
-64.21530781514011
 21
-14.819527773901925
 31
0.0
  0
LINE
  8
DRW0_CUT
 10
-64.21530781514011
 20
-14.819527773901925
 30
0.0
 11
-64.12005643148353
 21
-14.819527773901925
 31
0.0
  0
LINE
  8
DRW0
 10
-64.12005643148353
 20
-14.819527773901925
 30
0.0
 11
-63.8263646652091
 21
-14.819527773901925
 31
0.0
  0
LINE
  8
DRW0_CUT
 10
-63.8263646652091
 20
-14.819527773901925
 30
0.0
 11
-62.945289366385786
 21
-14.819527773901925
 31
0.0
  0
LINE
  8
DRW0
 10
-62.945289366385786
 20
-14.819527773901925
 30
0.0
 11
-61.9689626839059
 21
-14.819527773901925
 31
0.0
  0
LINE
  8
DRW0_CUT
 10
-61.9689626839059
 20
-14.819527773901925
 30
0.0
 11
-49.173526812706115
 21
-14.819527773901925
 31
0.0
  0
LINE
  8
DRW0
 10
-49.173526812706115
 20
-14.819527773901925
 30
0.0
 11
-48.91952312295525
 21
-14.819527773901925
 31
0.0
  0
LINE
  8
DRW0
 10
-48.91952312295525
 20
-14.819527773901925
 30
0.0
 11
-34.925507340743565
 21
-14.819527773901925
 31
0.0
  0
LINE
  8
DRW0
 10
-34.925507340743565
 20
-14.819527773901925
 30
0.0
 11
-34.925507340743565
 21
-14.327395625009625
 31
0.0
  0
LINE
  8
DRW0
 10
-34.925507340743565
 20
-14.327395625009625
 30
0.0
 11
-48.91952312295524
 21
-14.327395625009625
 31
0.0
  0
LINE
  8
DRW0_CUT
 10
-48.91952312295524
 20
-14.327395625009625
 30
0.0
 11
-61.714958994155026
 21
-14.327395625009625
 31
0.0
  0
LINE
  8
DRW0
 10
-61.714958994155026
 20
-14.327395625009625
 30
0.0
 11
-62.59603429297834
 21
-14.327395625009625
 31
0.0
  0
LINE
  8
DRW0_CUT
 10
-62.59603429297834
 20
-14.327395625009625
 30
0.0
 11
-62.78653706029149
 21
-14.327395625009625
 31
0.0
  0
LINE
  8
DRW0
 10
-62.78653706029149
 20
-14.327395625009625
 30
0.0
 11
-63.08022882656592
 21
-14.327395625009625
 31
0.0
  0
LINE
  8
DRW0_CUT
 10
-63.08022882656592
 20
-14.327395625009625
 30
0.0
 11
-63.373920592840356
 21
-14.327395625009625
 31
0.0
  0
LINE
  8
DRW0
 10
-63.373920592840356
 20
-14.327395625009625
 30
0.0
 11
-63.57236097545822
 21
-14.327395625009625
 31
0.0
  0
LINE
  8
DRW0_CUT
 10
-63.57236097545822
 20
-14.327395625009625
 30
0.0
 11
-63.66761235911479
 21
-14.327395625009625
 31
0.0
  0
LINE
  8
DRW0
 10
-63.66761235911479
 20
-14.327395625009625
 30
0.0
 11
-63.961304125389226
 21
-14.327395625009625
 31
0.0
  0
LINE
  8
DRW0_CUT
 10
-63.961304125389226
 20
-14.327395625009625
 30
0.0
 11
-64.0565555090458
 21
-14.327395625009625
 31
0.0
  0
LINE
  8
DRW0
 10
-64.0565555090458
 20
-14.327395625009625
 30
0.0
 11
-64.25499589166365
 21
-14.327395625009625
 31
0.0
  0
LINE
  8
DRW0_CUT
 10
-64.25499589166365
 20
-14.327395625009625
 30
0.0
 11
-64.35024727532023
 21
-14.327395625009625
 31
0.0
  0
LINE
  8
DRW0
 10
-64.35024727532023
 20
-14.327395625009625
 30
0.0
 11
-64.92175557725967
 21
-14.327395625009625
 31
0.0
  0
LINE
  8
DRW0
 10
-64.92175557725967
 20
-14.327395625009625
 30
0.0
 11
-78.91577135947135
 21
-14.327395625009625
 31
0.0
  0
LINE
  8
DRW0
 10
-78.91577135947135
 20
-14.327395625009625
 30
0.0
 11
-78.91577135947135
 21
-13.82732586081261
 31
0.0
  0
LINE
  8
DRW0
 10
-78.91577135947135
 20
-13.82732586081261
 30
0.0
 11
-64.92175557725967
 21
-13.82732586081261
 31
0.0
  0
LINE
  8
DRW0_CUT
 10
-64.92175557725967
 20
-13.82732586081261
 30
0.0
 11
-62.38171867975103
 21
-13.82732586081261
 31
0.0
  0
LINE
  8
DRW0
 10
-62.38171867975103
 20
-13.82732586081261
 30
0.0
 11
-61.69908376354558
 21
-13.82732586081261
 31
0.0
  0
LINE
  8
DRW0_CUT
 10
-61.69908376354558
 20
-13.82732586081261
 30
0.0
 11
-48.80839650868921
 21
-13.82732586081261
 31
0.0
  0
LINE
  8
DRW0
 10
-48.80839650868921
 20
-13.82732586081261
 30
0.0
 11
-48.66551943320435
 21
-13.82732586081261
 31
0.0
  0
LINE
  8
DRW0
 10
-48.66551943320435
 20
-13.82732586081261
 30
0.0
 11
-34.671503650992676
 21
-13.82732586081261
 31
0.0
  0
LINE
  8
DRW0
 10
-34.671503650992676
 20
-13.82732586081261
 30
0.0
 11
-34.671503650992676
 21
-13.327256096615596
 31
0.0
  0
LINE
  8
DRW0
 10
-34.671503650992676
 20
-13.327256096615596
 30
0.0
 11
-48.66551943320435
 21
-13.327256096615596
 31
0.0
  0
LINE
  8
DRW0_CUT
 10
-48.66551943320435
 20
-13.327256096615596
 30
0.0
 11
-49.3481543494098
 21
-13.327256096615596
 31
0.0
  0
LINE
  8
DRW0
 10
-49.3481543494098
 20
-13.327256096615596
 30
0.0
 11
-49.64184611568424
 21
-13.327256096615596
 31
0.0
  0
LINE
  8
DRW0_CUT
 10
-49.64184611568424
 20
-13.327256096615596
 30
0.0
 11
-61.95308745329644
 21
-13.327256096615596
 31
0.0
  0
LINE
  8
DRW0
 10
-61.95308745329644
 20
-13.327256096615596
 30
0.0
 11
-62.14359022060959
 21
-13.327256096615596
 31
0.0
  0
LINE
  8
DRW0_CUT
 10
-62.14359022060959
 20
-13.327256096615596
 30
0.0
 11
-64.77887850177481
 21
-13.327256096615596
 31
0.0
  0
LINE
  8
DRW0
 10
-64.77887850177481
 20
-13.327256096615596
 30
0.0
 11
-64.92175557725967
 21
-13.327256096615596
 31
0.0
  0
LINE
  8
DRW0
 10
-64.92175557725967
 20
-13.327256096615596
 30
0.0
 11
-78.91577135947135
 21
-13.327256096615596
 31
0.0
  0
LINE
  8
DRW0
 10
-78.91577135947135
 20
-13.327256096615596
 30
0.0
 11
-78.91577135947135
 21
-12.82718633241858
 31
0.0
  0
LINE
  8
DRW0
 10
-78.91577135947135
 20
-12.82718633241858
 30
0.0
 11
-64.92175557725967
 21
-12.82718633241858
 31
0.0
  0
LINE
  8
DRW0_CUT
 10
-64.92175557725967
 20
-12.82718633241858
 30
0.0
 11
-64.92175557725967
 21
-12.82718633241858
 31
0.0
  0
LINE
  8
DRW0
 10
-64.92175557725967
 20
-12.82718633241858
 30
0.0
 11
-64.73919042525124
 21
-12.82718633241858
 31
0.0
  0
LINE
  8
DRW0_CUT
 10
-64.73919042525124
 20
-12.82718633241858
 30
0.0
 11
-50.284792955366115
 21
-12.82718633241858
 31
0.0
  0
LINE
  8
DRW0
 10
-50.284792955366115
 20
-12.82718633241858
 30
0.0
 11
-49.99903880439639
 21
-12.82718633241858
 31
0.0
  0
LINE
  8
DRW0_CUT
 10
-49.99903880439639
 20
-12.82718633241858
 30
0.0
 11
-49.80059842177853
 21
-12.82718633241858
 31
0.0
  0
LINE
  8
DRW0
 10
-49.80059842177853
 20
-12.82718633241858
 30
0.0
 11
-49.41165527184752
 21
-12.82718633241858
 31
0.0
  0
LINE
  8
DRW0_CUT
 10
-49.41165527184752
 20
-12.82718633241858
 30
0.0
 11
-48.625831356680784
 21
-12.82718633241858
 31
0.0
  0
LINE
  8
DRW0
 10
-48.625831356680784
 20
-12.82718633241858
 30
0.0
 11
-48.41151574345349
 21
-12.82718633241858
 31
0.0
  0
LINE
  8
DRW0
 10
-48.41151574345349
 20
-12.82718633241858
 30
0.0
 11
-34.417499961241816
 21
-12.82718633241858
 31
0.0
  0
LINE
  8
DRW0
 10
-34.417499961241816
 20
-12.82718633241858
 30
0.0
 11
-34.417499961241816
 21
-12.327116568221566
 31
0.0
  0
LINE
  8
DRW0
 10
-34.417499961241816
 20
-12.327116568221566
 30
0.0
 11
-48.41151574345349
 21
-12.327116568221566
 31
0.0
  0
LINE
  8
DRW0_CUT
 10
-48.41151574345349
 20
-12.327116568221566
 30
0.0
 11
-58.277971567213626
 21
-12.327116568221566
 31
0.0
  0
LINE
  8
DRW0
 10
-58.277971567213626
 20
-12.327116568221566
 30
0.0
 11
-58.47641194983149
 21
-12.327116568221566
 31
0.0
  0
LINE
  8
DRW0_CUT
 10
-58.47641194983149
 20
-12.327116568221566
 30
0.0
 11
-61.00851123203542
 21
-12.327116568221566
 31
0.0
  0
LINE
  8
DRW0
 10
-61.00851123203542
 20
-12.327116568221566
 30
0.0
 11
-61.1117002309967
 21
-12.327116568221566
 31
0.0
  0
LINE
  8
DRW0_CUT
 10
-61.1117002309967
 20
-12.327116568221566
 30
0.0
 11
-63.254856363269624
 21
-12.327116568221566
 31
0.0
  0
LINE
  8
DRW0
 10
-63.254856363269624
 20
-12.327116568221566
 30
0.0
 11
-63.54854812954406
 21
-12.327116568221566
 31
0.0
  0
LINE
  8
DRW0_CUT
 10
-63.54854812954406
 20
-12.327116568221566
 30
0.0
 11
-65.40595011084726
 21
-12.327116568221566
 31
0.0
  0
LINE
  8
DRW0
 10
-65.40595011084726
 20
-12.327116568221566
 30
0.0
 11
-66.38227679332714
 21
-12.327116568221566
 31
0.0
  0
LINE
  8
DRW0_CUT
 10
-66.38227679332714
 20
-12.327116568221566
 30
0.0
 11
-66.580717175945
 21
-12.327116568221566
 31
0.0
  0
LINE
  8
DRW0
 10
-66.580717175945
 20
-12.327116568221566
 30
0.0
 11
-66.69978140551571
 21
-12.327116568221566
 31
0.0
  0
LINE
  8
DRW0
 10
-66.69978140551571
 20
-12.327116568221566
 30
0.0
 11
-80.69379718772738
 21
-12.327116568221566
 31
0.0
  0
LINE
  8
DRW0
 10
-80.69379718772738
 20
-12.327116568221566
 30
0.0
 11
-80.69379718772738
 21
-11.827046804024551
 31
0.0
  0
LINE
  8
DRW0
 10
-80.69379718772738
 20
-11.827046804024551
 30
0.0
 11
-66.69978140551571
 21
-11.827046804024551
 31
0.0
  0
LINE
  8
DRW0_CUT
 10
-66.69978140551571
 20
-11.827046804024551
 30
0.0
 11
-66.69978140551571
 21
-11.827046804024551
 31
0.0
  0
LINE
  8
DRW0
 10
-66.69978140551571
 20
-11.827046804024551
 30
0.0
 11
-66.51721625350727
 21
-11.827046804024551
 31
0.0
  0
LINE
  8
DRW0_CUT
 10
-66.51721625350727
 20
-11.827046804024551
 30
0.0
 11
-66.4219648698507
 21
-11.827046804024551
 31
0.0
  0
LINE
  8
DRW0
 10
-66.4219648698507
 20
-11.827046804024551
 30
0.0
 11
-65.35038680371424
 21
-11.827046804024551
 31
0.0
  0
LINE
  8
DRW0_CUT
 10
-65.35038680371424
 20
-11.827046804024551
 30
0.0
 11
-65.24719780475296
 21
-11.827046804024551
 31
0.0
  0
LINE
  8
DRW0
 10
-65.24719780475296
 20
-11.827046804024551
 30
0.0
 11
-65.05669503743981
 21
-11.827046804024551
 31
0.0
  0
LINE
  8
DRW0_CUT
 10
-65.05669503743981
 20
-11.827046804024551
 30
0.0
 11
-48.45120381997705
 21
-11.827046804024551
 31
0.0
  0
LINE
  8
DRW0
 10
-48.45120381997705
 20
-11.827046804024551
 30
0.0
 11
-48.41151574345348
 21
-11.827046804024551
 31
0.0
  0
LINE
  8
DRW0
 10
-48.41151574345348
 20
-11.827046804024551
 30
0.0
 11
-34.4174999612418
 21
-11.827046804024551
 31
0.0
  0
LINE
  8
DRW0
 10
-34.4174999612418
 20
-11.827046804024551
 30
0.0
 11
-34.4174999612418
 21
-11.326977039827536
 31
0.0
  0
LINE
  8
DRW0
 10
-34.4174999612418
 20
-11.326977039827536
 30
0.0
 11
-48.41151574345348
 21
-11.326977039827536
 31
0.0
  0
LINE
  8
DRW0_CUT
 10
-48.41151574345348
 20
-11.326977039827536
 30
0.0
 11
-64.42962342836736
 21
-11.326977039827536
 31
0.0
  0
LINE
  8
DRW0
 10
-64.42962342836736
 20
-11.326977039827536
 30
0.0
 11
-64.52487481202394
 21
-11.326977039827536
 31
0.0
  0
LINE
  8
DRW0_CUT
 10
-64.52487481202394
 20
-11.326977039827536
 30
0.0
 11
-65.60439049346512
 21
-11.326977039827536
 31
0.0
  0
LINE
  8
DRW0
 10
-65.60439049346512
 20
-11.326977039827536
 30
0.0
 11
-66.38227679332714
 21
-11.326977039827536
 31
0.0
  0
LINE
  8
DRW0_CUT
 10
-66.38227679332714
 20
-11.326977039827536
 30
0.0
 11
-66.580717175945
 21
-11.326977039827536
 31
0.0
  0
LINE
  8
DRW0
 10
-66.580717175945
 20
-11.326977039827536
 30
0.0
 11
-66.69978140551571
 21
-11.326977039827536
 31
0.0
  0
LINE
  8
DRW0
 10
-66.69978140551571
 20
-11.326977039827536
 30
0.0
 11
-80.69379718772738
 21
-11.326977039827536
 31
0.0
  0
LINE
  8
DRW0
 10
-80.69379718772738
 20
-11.326977039827536
 30
0.0
 11
-80.69379718772738
 21
-10.826907275630521
 31
0.0
  0
LINE
  8
DRW0
 10
-80.69379718772738
 20
-10.826907275630521
 30
0.0
 11
-66.69978140551571
 21
-10.826907275630521
 31
0.0
  0
LINE
  8
DRW0_CUT
 10
-66.69978140551571
 20
-10.826907275630521
 30
0.0
 11
-66.69978140551571
 21
-10.826907275630521
 31
0.0
  0
LINE
  8
DRW0
 10
-66.69978140551571
 20
-10.826907275630521
 30
0.0
 11
-66.62040525246856
 21
-10.826907275630521
 31
0.0
  0
LINE
  8
DRW0_CUT
 10
-66.62040525246856
 20
-10.826907275630521
 30
0.0
 11
-66.32671348619412
 21
-10.826907275630521
 31
0.0
  0
LINE
  8
DRW0
 10
-66.32671348619412
 20
-10.826907275630521
 30
0.0
 11
-65.44563818737082
 21
-10.826907275630521
 31
0.0
  0
LINE
  8
DRW0_CUT
 10
-65.44563818737082
 20
-10.826907275630521
 30
0.0
 11
-48.55439281893834
 21
-10.826907275630521
 31
0.0
  0
LINE
  8
DRW0
 10
-48.55439281893834
 20
-10.826907275630521
 30
0.0
 11
-48.41151574345348
 21
-10.826907275630521
 31
0.0
  0
LINE
  8
DRW0
 10
-48.41151574345348
 20
-10.826907275630521
 30
0.0
 11
-34.4174999612418
 21
-10.826907275630521
 31
0.0
  0
LINE
  8
DRW0
 10
-34.4174999612418
 20
-10.826907275630521
 30
0.0
 11
-34.4174999612418
 21
-10.326837511433506
 31
0.0
  0
LINE
  8
DRW0
 10
-34.4174999612418
 20
-10.326837511433506
 30
0.0
 11
-48.41151574345348
 21
-10.326837511433506
 31
0.0
  0
LINE
  8
DRW0_CUT
 10
-48.41151574345348
 20
-10.326837511433506
 30
0.0
 11
-48.41151574345348
 21
-10.326837511433506
 31
0.0
  0
LINE
  8
DRW0
 10
-48.41151574345348
 20
-10.326837511433506
 30
0.0
 11
-48.594080895461914
 21
-10.326837511433506
 31
0.0
  0
LINE
  8
DRW0_CUT
 10
-48.594080895461914
 20
-10.326837511433506
 30
0.0
 11
-65.00113173030681
 21
-10.326837511433506
 31
0.0
  0
LINE
  8
DRW0
 10
-65.00113173030681
 20
-10.326837511433506
 30
0.0
 11
-65.09638311396338
 21
-10.326837511433506
 31
0.0
  0
LINE
  8
DRW0_CUT
 10
-65.09638311396338
 20
-10.326837511433506
 30
0.0
 11
-65.29482349658124
 21
-10.326837511433506
 31
0.0
  0
LINE
  8
DRW0
 10
-65.29482349658124
 20
-10.326837511433506
 30
0.0
 11
-66.27115017906112
 21
-10.326837511433506
 31
0.0
  0
LINE
  8
DRW0_CUT
 10
-66.27115017906112
 20
-10.326837511433506
 30
0.0
 11
-66.55690433003085
 21
-10.326837511433506
 31
0.0
  0
LINE
  8
DRW0
 10
-66.55690433003085
 20
-10.326837511433506
 30
0.0
 11
-66.69978140551571
 21
-10.326837511433506
 31
0.0
  0
LINE
  8
DRW0
 10
-66.69978140551571
 20
-10.326837511433506
 30
0.0
 11
-80.69379718772738
 21
-10.326837511433506
 31
0.0
  0
LINE
  8
DRW0
 10
-80.69379718772738
 20
-10.326837511433506
 30
0.0
 11
-80.69379718772738
 21
-9.826767747236492
 31
0.0
  0
LINE
  8
DRW0
 10
-80.69379718772738
 20
-9.826767747236492
 30
0.0
 11
-66.69978140551571
 21
-9.826767747236492
 31
0.0
  0
LINE
  8
DRW0_CUT
 10
-66.69978140551571
 20
-9.826767747236492
 30
0.0
 11
-66.69978140551571
 21
-9.826767747236492
 31
0.0
  0
LINE
  8
DRW0
 10
-66.69978140551571
 20
-9.826767747236492
 30
0.0
 11
-66.51721625350727
 21
-9.826767747236492
 31
0.0
  0
LINE
  8
DRW0_CUT
 10
-66.51721625350727
 20
-9.826767747236492
 30
0.0
 11
-66.22352448723284
 21
-9.826767747236492
 31
0.0
  0
LINE
  8
DRW0
 10
-66.22352448723284
 20
-9.826767747236492
 30
0.0
 11
-64.08036835495992
 21
-9.826767747236492
 31
0.0
  0
LINE
  8
DRW0_CUT
 10
-64.08036835495992
 20
-9.826767747236492
 30
0.0
 11
-62.22296637365672
 21
-9.826767747236492
 31
0.0
  0
LINE
  8
DRW0
 10
-62.22296637365672
 20
-9.826767747236492
 30
0.0
 11
-62.12771499000014
 21
-9.826767747236492
 31
0.0
  0
LINE
  8
DRW0_CUT
 10
-62.12771499000014
 20
-9.826767747236492
 30
0.0
 11
-62.02452599103886
 21
-9.826767747236492
 31
0.0
  0
LINE
  8
DRW0
 10
-62.02452599103886
 20
-9.826767747236492
 30
0.0
 11
-61.83402322372571
 21
-9.826767747236492
 31
0.0
  0
LINE
  8
DRW0_CUT
 10
-61.83402322372571
 20
-9.826767747236492
 30
0.0
 11
-48.74489558625148
 21
-9.826767747236492
 31
0.0
  0
LINE
  8
DRW0
 10
-48.74489558625148
 20
-9.826767747236492
 30
0.0
 11
-48.66551943320434
 21
-9.826767747236492
 31
0.0
  0
LINE
  8
DRW0
 10
-48.66551943320434
 20
-9.826767747236492
 30
0.0
 11
-34.67150365099266
 21
-9.826767747236492
 31
0.0
  0
LINE
  8
DRW0
 10
-34.67150365099266
 20
-9.826767747236492
 30
0.0
 11
-34.67150365099266
 21
-9.326697983039477
 31
0.0
  0
LINE
  8
DRW0
 10
-34.67150365099266
 20
-9.326697983039477
 30
0.0
 11
-48.66551943320434
 21
-9.326697983039477
 31
0.0
  0
LINE
  8
DRW0_CUT
 10
-48.66551943320434
 20
-9.326697983039477
 30
0.0
 11
-48.66551943320434
 21
-9.326697983039477
 31
0.0
  0
LINE
  8
DRW0
 10
-48.66551943320434
 20
-9.326697983039477
 30
0.0
 11
-48.848084585212774
 21
-9.326697983039477
 31
0.0
  0
LINE
  8
DRW0_CUT
 10
-48.848084585212774
 20
-9.326697983039477
 30
0.0
 11
-60.564004774971394
 21
-9.326697983039477
 31
0.0
  0
LINE
  8
DRW0
 10
-60.564004774971394
 20
-9.326697983039477
 30
0.0
 11
-61.445080073794706
 21
-9.326697983039477
 31
0.0
  0
LINE
  8
DRW0_CUT
 10
-61.445080073794706
 20
-9.326697983039477
 30
0.0
 11
-62.71509852254903
 21
-9.326697983039477
 31
0.0
  0
LINE
  8
DRW0
 10
-62.71509852254903
 20
-9.326697983039477
 30
0.0
 11
-63.00879028882346
 21
-9.326697983039477
 31
0.0
  0
LINE
  8
DRW0_CUT
 10
-63.00879028882346
 20
-9.326697983039477
 30
0.0
 11
-63.19929305613661
 21
-9.326697983039477
 31
0.0
  0
LINE
  8
DRW0
 10
-63.19929305613661
 20
-9.326697983039477
 30
0.0
 11
-63.58823620606762
 21
-9.326697983039477
 31
0.0
  0
LINE
  8
DRW0_CUT
 10
-63.58823620606762
 20
-9.326697983039477
 30
0.0
 11
-63.69142520502891
 21
-9.326697983039477
 31
0.0
  0
LINE
  8
DRW0
 10
-63.69142520502891
 20
-9.326697983039477
 30
0.0
 11
-66.23146210253755
 21
-9.326697983039477
 31
0.0
  0
LINE
  8
DRW0_CUT
 10
-66.23146210253755
 20
-9.326697983039477
 30
0.0
 11
-66.4219648698507
 21
-9.326697983039477
 31
0.0
  0
LINE
  8
DRW0
 10
-66.4219648698507
 20
-9.326697983039477
 30
0.0
 11
-66.62040525246856
 21
-9.326697983039477
 31
0.0
  0
LINE
  8
DRW0_CUT
 10
-66.62040525246856
 20
-9.326697983039477
 30
0.0
 11
-66.71565663612513
 21
-9.326697983039477
 31
0.0
  0
LINE
  8
DRW0
 10
-66.71565663612513
 20
-9.326697983039477
 30
0.0
 11
-66.95378509526657
 21
-9.326697983039477
 31
0.0
  0
LINE
  8
DRW0
 10
-66.95378509526657
 20
-9.326697983039477
 30
0.0
 11
-80.94780087747824
 21
-9.326697983039477
 31
0.0
  0
LINE
  8
DRW0
 10
-80.94780087747824
 20
-9.326697983039477
 30
0.0
 11
-80.94780087747824
 21
-8.826628218842462
 31
0.0
  0
LINE
  8
DRW0
 10
-80.94780087747824
 20
-8.826628218842462
 30
0.0
 11
-66.95378509526657
 21
-8.826628218842462
 31
0.0
  0
LINE
  8
DRW0_CUT
 10
-66.95378509526657
 20
-8.826628218842462
 30
0.0
 11
-66.95378509526657
 21
-8.826628218842462
 31
0.0
  0
LINE
  8
DRW0
 10
-66.95378509526657
 20
-8.826628218842462
 30
0.0
 11
-66.4775281769837
 21
-8.826628218842462
 31
0.0
  0
LINE
  8
DRW0_CUT
 10
-66.4775281769837
 20
-8.826628218842462
 30
0.0
 11
-66.38227679332712
 21
-8.826628218842462
 31
0.0
  0
LINE
  8
DRW0
 10
-66.38227679332712
 20
-8.826628218842462
 30
0.0
 11
-62.96910221229988
 21
-8.826628218842462
 31
0.0
  0
LINE
  8
DRW0_CUT
 10
-62.96910221229988
 20
-8.826628218842462
 30
0.0
 11
-62.675410446025445
 21
-8.826628218842462
 31
0.0
  0
LINE
  8
DRW0
 10
-62.675410446025445
 20
-8.826628218842462
 30
0.0
 11
-62.57222144706416
 21
-8.826628218842462
 31
0.0
  0
LINE
  8
DRW0_CUT
 10
-62.57222144706416
 20
-8.826628218842462
 30
0.0
 11
-61.5006433809277
 21
-8.826628218842462
 31
0.0
  0
LINE
  8
DRW0
 10
-61.5006433809277
 20
-8.826628218842462
 30
0.0
 11
-61.405391997271124
 21
-8.826628218842462
 31
0.0
  0
LINE
  8
DRW0_CUT
 10
-61.405391997271124
 20
-8.826628218842462
 30
0.0
 11
-60.91325984837882
 21
-8.826628218842462
 31
0.0
  0
LINE
  8
DRW0
 10
-60.91325984837882
 20
-8.826628218842462
 30
0.0
 11
-60.72275708106567
 21
-8.826628218842462
 31
0.0
  0
LINE
  8
DRW0_CUT
 10
-60.72275708106567
 20
-8.826628218842462
 30
0.0
 11
-60.61956808210439
 21
-8.826628218842462
 31
0.0
  0
LINE
  8
DRW0
 10
-60.61956808210439
 20
-8.826628218842462
 30
0.0
 11
-60.52431669844781
 21
-8.826628218842462
 31
0.0
  0
LINE
  8
DRW0_CUT
 10
-60.52431669844781
 20
-8.826628218842462
 30
0.0
 11
-60.1353735485168
 21
-8.826628218842462
 31
0.0
  0
LINE
  8
DRW0
 10
-60.1353735485168
 20
-8.826628218842462
 30
0.0
 11
-60.03218454955552
 21
-8.826628218842462
 31
0.0
  0
LINE
  8
DRW0_CUT
 10
-60.03218454955552
 20
-8.826628218842462
 30
0.0
 11
-48.99889927600235
 21
-8.826628218842462
 31
0.0
  0
LINE
  8
DRW0
 10
-48.99889927600235
 20
-8.826628218842462
 30
0.0
 11
-48.919523122955205
 21
-8.826628218842462
 31
0.0
  0
LINE
  8
DRW0
 10
-48.919523122955205
 20
-8.826628218842462
 30
0.0
 11
-34.92550734074352
 21
-8.826628218842462
 31
0.0
  0
LINE
  8
DRW0
 10
-34.92550734074352
 20
-8.826628218842462
 30
0.0
 11
-34.92550734074352
 21
-8.326558454645447
 31
0.0
  0
LINE
  8
DRW0
 10
-34.92550734074352
 20
-8.326558454645447
 30
0.0
 11
-48.9195231229552
 21
-8.326558454645447
 31
0.0
  0
LINE
  8
DRW0_CUT
 10
-48.9195231229552
 20
-8.326558454645447
 30
0.0
 11
-48.9195231229552
 21
-8.326558454645447
 31
0.0
  0
LINE
  8
DRW0
 10
-48.9195231229552
 20
-8.326558454645447
 30
0.0
 11
-48.99889927600234
 21
-8.326558454645447
 31
0.0
  0
LINE
  8
DRW0_CUT
 10
-48.99889927600234
 20
-8.326558454645447
 30
0.0
 11
-60.61956808210438
 21
-8.326558454645447
 31
0.0
  0
LINE
  8
DRW0
 10
-60.61956808210438
 20
-8.326558454645447
 30
0.0
 11
-61.50064338092769
 21
-8.326558454645447
 31
0.0
  0
LINE
  8
DRW0_CUT
 10
-61.50064338092769
 20
-8.326558454645447
 30
0.0
 11
-61.8895865308587
 21
-8.326558454645447
 31
0.0
  0
LINE
  8
DRW0
 10
-61.8895865308587
 20
-8.326558454645447
 30
0.0
 11
-61.99277552981999
 21
-8.326558454645447
 31
0.0
  0
LINE
  8
DRW0_CUT
 10
-61.99277552981999
 20
-8.326558454645447
 30
0.0
 11
-62.381718679750996
 21
-8.326558454645447
 31
0.0
  0
LINE
  8
DRW0
 10
-62.381718679750996
 20
-8.326558454645447
 30
0.0
 11
-66.28702540967053
 21
-8.326558454645447
 31
0.0
  0
LINE
  8
DRW0_CUT
 10
-66.28702540967053
 20
-8.326558454645447
 30
0.0
 11
-66.4854657922884
 21
-8.326558454645447
 31
0.0
  0
LINE
  8
DRW0
 10
-66.4854657922884
 20
-8.326558454645447
 30
0.0
 11
-66.69978140551568
 21
-8.326558454645447
 31
0.0
  0
LINE
  8
DRW0
 10
-66.69978140551568
 20
-8.326558454645447
 30
0.0
 11
-80.69379718772736
 21
-8.326558454645447
 31
0.0
  0
LINE
  8
DRW0
 10
-80.69379718772736
 20
-8.326558454645447
 30
0.0
 11
-80.69379718772736
 21
-7.826488690448433
 31
0.0
  0
LINE
  8
DRW0
 10
-80.69379718772736
 20
-7.826488690448433
 30
0.0
 11
-66.69978140551568
 21
-7.826488690448433
 31
0.0
  0
LINE
  8
DRW0_CUT
 10
-66.69978140551568
 20
-7.826488690448433
 30
0.0
 11
-66.69978140551568
 21
-7.826488690448433
 31
0.0
  0
LINE
  8
DRW0
 10
-66.69978140551568
 20
-7.826488690448433
 30
0.0
 11
-66.62040525246853
 21
-7.826488690448433
 31
0.0
  0
LINE
  8
DRW0_CUT
 10
-66.62040525246853
 20
-7.826488690448433
 30
0.0
 11
-66.3267134861941
 21
-7.826488690448433
 31
0.0
  0
LINE
  8
DRW0
 10
-66.3267134861941
 20
-7.826488690448433
 30
0.0
 11
-63.10404167248
 21
-7.826488690448433
 31
0.0
  0
LINE
  8
DRW0_CUT
 10
-63.10404167248
 20
-7.826488690448433
 30
0.0
 11
-63.000852673518715
 21
-7.826488690448433
 31
0.0
  0
LINE
  8
DRW0
 10
-63.000852673518715
 20
-7.826488690448433
 30
0.0
 11
-62.51665813993113
 21
-7.826488690448433
 31
0.0
  0
LINE
  8
DRW0_CUT
 10
-62.51665813993113
 20
-7.826488690448433
 30
0.0
 11
-62.222966373656696
 21
-7.826488690448433
 31
0.0
  0
LINE
  8
DRW0
 10
-62.222966373656696
 20
-7.826488690448433
 30
0.0
 11
-61.92927460738226
 21
-7.826488690448433
 31
0.0
  0
LINE
  8
DRW0_CUT
 10
-61.92927460738226
 20
-7.826488690448433
 30
0.0
 11
-61.83402322372569
 21
-7.826488690448433
 31
0.0
  0
LINE
  8
DRW0
 10
-61.83402322372569
 20
-7.826488690448433
 30
0.0
 11
-61.54033145745125
 21
-7.826488690448433
 31
0.0
  0
LINE
  8
DRW0_CUT
 10
-61.54033145745125
 20
-7.826488690448433
 30
0.0
 11
-60.754507542284514
 21
-7.826488690448433
 31
0.0
  0
LINE
  8
DRW0
 10
-60.754507542284514
 20
-7.826488690448433
 30
0.0
 11
-60.65925615862794
 21
-7.826488690448433
 31
0.0
  0
LINE
  8
DRW0_CUT
 10
-60.65925615862794
 20
-7.826488690448433
 30
0.0
 11
-60.46875339131479
 21
-7.826488690448433
 31
0.0
  0
LINE
  8
DRW0
 10
-60.46875339131479
 20
-7.826488690448433
 30
0.0
 11
-60.27031300869693
 21
-7.826488690448433
 31
0.0
  0
LINE
  8
DRW0_CUT
 10
-60.27031300869693
 20
-7.826488690448433
 30
0.0
 11
-49.23702773514376
 21
-7.826488690448433
 31
0.0
  0
LINE
  8
DRW0
 10
-49.23702773514376
 20
-7.826488690448433
 30
0.0
 11
-49.173526812706044
 21
-7.826488690448433
 31
0.0
  0
LINE
  8
DRW0
 10
-49.173526812706044
 20
-7.826488690448433
 30
0.0
 11
-35.17951103049437
 21
-7.826488690448433
 31
0.0
  0
LINE
  8
DRW0
 10
-35.17951103049437
 20
-7.826488690448433
 30
0.0
 11
-35.17951103049437
 21
-7.326418926251419
 31
0.0
  0
LINE
  8
DRW0
 10
-35.17951103049437
 20
-7.326418926251419
 30
0.0
 11
-49.173526812706044
 21
-7.326418926251419
 31
0.0
  0
LINE
  8
DRW0_CUT
 10
-49.173526812706044
 20
-7.326418926251419
 30
0.0
 11
-49.173526812706044
 21
-7.326418926251419
 31
0.0
  0
LINE
  8
DRW0
 10
-49.173526812706044
 20
-7.326418926251419
 30
0.0
 11
-49.35609196471448
 21
-7.326418926251419
 31
0.0
  0
LINE
  8
DRW0_CUT
 10
-49.35609196471448
 20
-7.326418926251419
 30
0.0
 11
-60.48462862192422
 21
-7.326418926251419
 31
0.0
  0
LINE
  8
DRW0
 10
-60.48462862192422
 20
-7.326418926251419
 30
0.0
 11
-60.683069004542084
 21
-7.326418926251419
 31
0.0
  0
LINE
  8
DRW0_CUT
 10
-60.683069004542084
 20
-7.326418926251419
 30
0.0
 11
-61.16726353812967
 21
-7.326418926251419
 31
0.0
  0
LINE
  8
DRW0
 10
-61.16726353812967
 20
-7.326418926251419
 30
0.0
 11
-61.36570392074753
 21
-7.326418926251419
 31
0.0
  0
LINE
  8
DRW0_CUT
 10
-61.36570392074753
 20
-7.326418926251419
 30
0.0
 11
-61.56414430336539
 21
-7.326418926251419
 31
0.0
  0
LINE
  8
DRW0
 10
-61.56414430336539
 20
-7.326418926251419
 30
0.0
 11
-62.342030603227414
 21
-7.326418926251419
 31
0.0
  0
LINE
  8
DRW0_CUT
 10
-62.342030603227414
 20
-7.326418926251419
 30
0.0
 11
-62.826225136815
 21
-7.326418926251419
 31
0.0
  0
LINE
  8
DRW0
 10
-62.826225136815
 20
-7.326418926251419
 30
0.0
 11
-66.34258871680352
 21
-7.326418926251419
 31
0.0
  0
LINE
  8
DRW0_CUT
 10
-66.34258871680352
 20
-7.326418926251419
 30
0.0
 11
-66.4457777157648
 21
-7.326418926251419
 31
0.0
  0
LINE
  8
DRW0
 10
-66.4457777157648
 20
-7.326418926251419
 30
0.0
 11
-66.69978140551567
 21
-7.326418926251419
 31
0.0
  0
LINE
  8
DRW0
 10
-66.69978140551567
 20
-7.326418926251419
 30
0.0
 11
-80.69379718772734
 21
-7.326418926251419
 31
0.0
  0
LINE
  8
DRW0
 10
-80.69379718772734
 20
-7.326418926251419
 30
0.0
 11
-80.69379718772734
 21
-6.826349162054405
 31
0.0
  0
LINE
  8
DRW0
 10
-80.69379718772734
 20
-6.826349162054405
 30
0.0
 11
-66.69978140551567
 21
-6.826349162054405
 31
0.0
  0
LINE
  8
DRW0_CUT
 10
-66.69978140551567
 20
-6.826349162054405
 30
0.0
 11
-66.69978140551567
 21
-6.826349162054405
 31
0.0
  0
LINE
  8
DRW0
 10
-66.69978140551567
 20
-6.826349162054405
 30
0.0
 11
-66.32671348619408
 21
-6.826349162054405
 31
0.0
  0
LINE
  8
DRW0_CUT
 10
-66.32671348619408
 20
-6.826349162054405
 30
0.0
 11
-66.2235244872328
 21
-6.826349162054405
 31
0.0
  0
LINE
  8
DRW0
 10
-66.2235244872328
 20
-6.826349162054405
 30
0.0
 11
-61.44508007379466
 21
-6.826349162054405
 31
0.0
  0
LINE
  8
DRW0_CUT
 10
-61.44508007379466
 20
-6.826349162054405
 30
0.0
 11
-60.952947924902354
 21
-6.826349162054405
 31
0.0
  0
LINE
  8
DRW0
 10
-60.952947924902354
 20
-6.826349162054405
 30
0.0
 11
-60.75450754228449
 21
-6.826349162054405
 31
0.0
  0
LINE
  8
DRW0_CUT
 10
-60.75450754228449
 20
-6.826349162054405
 30
0.0
 11
-60.07187262607904
 21
-6.826349162054405
 31
0.0
  0
LINE
  8
DRW0
 10
-60.07187262607904
 20
-6.826349162054405
 30
0.0
 11
-59.97662124242247
 21
-6.826349162054405
 31
0.0
  0
LINE
  8
DRW0_CUT
 10
-59.97662124242247
 20
-6.826349162054405
 30
0.0
 11
-59.68292947614803
 21
-6.826349162054405
 31
0.0
  0
LINE
  8
DRW0
 10
-59.68292947614803
 20
-6.826349162054405
 30
0.0
 11
-59.58767809249146
 21
-6.826349162054405
 31
0.0
  0
LINE
  8
DRW0_CUT
 10
-59.58767809249146
 20
-6.826349162054405
 30
0.0
 11
-49.530719501418176
 21
-6.826349162054405
 31
0.0
  0
LINE
  8
DRW0
 10
-49.530719501418176
 20
-6.826349162054405
 30
0.0
 11
-49.42753050245689
 21
-6.826349162054405
 31
0.0
  0
LINE
  8
DRW0
 10
-49.42753050245689
 20
-6.826349162054405
 30
0.0
 11
-35.43351472024521
 21
-6.826349162054405
 31
0.0
  0
LINE
  8
DRW0
 10
-35.43351472024521
 20
-6.826349162054405
 30
0.0
 11
-35.43351472024521
 21
-6.326279397857391
 31
0.0
  0
LINE
  8
DRW0
 10
-35.43351472024521
 20
-6.326279397857391
 30
0.0
 11
-49.42753050245689
 21
-6.326279397857391
 31
0.0
  0
LINE
  8
DRW0_CUT
 10
-49.42753050245689
 20
-6.326279397857391
 30
0.0
 11
-49.42753050245689
 21
-6.326279397857391
 31
0.0
  0
LINE
  8
DRW0
 10
-49.42753050245689
 20
-6.326279397857391
 30
0.0
 11
-49.50690665550403
 21
-6.326279397857391
 31
0.0
  0
LINE
  8
DRW0_CUT
 10
-49.50690665550403
 20
-6.326279397857391
 30
0.0
 11
-61.818147993116234
 21
-6.326279397857391
 31
0.0
  0
LINE
  8
DRW0
 10
-61.818147993116234
 20
-6.326279397857391
 30
0.0
 11
-66.0171464893102
 21
-6.326279397857391
 31
0.0
  0
LINE
  8
DRW0_CUT
 10
-66.0171464893102
 20
-6.326279397857391
 30
0.0
 11
-66.11239787296678
 21
-6.326279397857391
 31
0.0
  0
LINE
  8
DRW0
 10
-66.11239787296678
 20
-6.326279397857391
 30
0.0
 11
-66.19177402601393
 21
-6.326279397857391
 31
0.0
  0
LINE
  8
DRW0
 10
-66.19177402601393
 20
-6.326279397857391
 30
0.0
 11
-80.1857898082256
 21
-6.326279397857391
 31
0.0
  0
LINE
  8
DRW0
 10
-80.1857898082256
 20
-6.326279397857391
 30
0.0
 11
-80.1857898082256
 21
-5.826209633660377
 31
0.0
  0
LINE
  8
DRW0
 10
-80.1857898082256
 20
-5.826209633660377
 30
0.0
 11
-66.19177402601393
 21
-5.826209633660377
 31
0.0
  0
LINE
  8
DRW0_CUT
 10
-66.19177402601393
 20
-5.826209633660377
 30
0.0
 11
-66.19177402601393
 21
-5.826209633660377
 31
0.0
  0
LINE
  8
DRW0
 10
-66.19177402601393
 20
-5.826209633660377
 30
0.0
 11
-66.0092088740055
 21
-5.826209633660377
 31
0.0
  0
LINE
  8
DRW0_CUT
 10
-66.0092088740055
 20
-5.826209633660377
 30
0.0
 11
-65.71551710773106
 21
-5.826209633660377
 31
0.0
  0
LINE
  8
DRW0
 10
-65.71551710773106
 20
-5.826209633660377
 30
0.0
 11
-61.71495899415495
 21
-5.826209633660377
 31
0.0
  0
LINE
  8
DRW0_CUT
 10
-61.71495899415495
 20
-5.826209633660377
 30
0.0
 11
-49.60215803916061
 21
-5.826209633660377
 31
0.0
  0
LINE
  8
DRW0
 10
-49.60215803916061
 20
-5.826209633660377
 30
0.0
 11
-49.42753050245689
 21
-5.826209633660377
 31
0.0
  0
LINE
  8
DRW0
 10
-49.42753050245689
 20
-5.826209633660377
 30
0.0
 11
-35.43351472024521
 21
-5.826209633660377
 31
0.0
  0
LINE
  8
DRW0
 10
-35.43351472024521
 20
-5.826209633660377
 30
0.0
 11
-35.43351472024521
 21
-5.326139869463363
 31
0.0
  0
LINE
  8
DRW0
 10
-35.43351472024521
 20
-5.326139869463363
 30
0.0
 11
-49.42753050245689
 21
-5.326139869463363
 31
0.0
  0
LINE
  8
DRW0_CUT
 10
-49.42753050245689
 20
-5.326139869463363
 30
0.0
 11
-49.42753050245689
 21
-5.326139869463363
 31
0.0
  0
LINE
  8
DRW0
 10
-49.42753050245689
 20
-5.326139869463363
 30
0.0
 11
-49.610095654465326
 21
-5.326139869463363
 31
0.0
  0
LINE
  8
DRW0_CUT
 10
-49.610095654465326
 20
-5.326139869463363
 30
0.0
 11
-61.61970761049838
 21
-5.326139869463363
 31
0.0
  0
LINE
  8
DRW0
 10
-61.61970761049838
 20
-5.326139869463363
 30
0.0
 11
-65.23132257414348
 21
-5.326139869463363
 31
0.0
  0
LINE
  8
DRW0_CUT
 10
-65.23132257414348
 20
-5.326139869463363
 30
0.0
 11
-65.62026572407449
 21
-5.326139869463363
 31
0.0
  0
LINE
  8
DRW0
 10
-65.62026572407449
 20
-5.326139869463363
 30
0.0
 11
-65.6837666465122
 21
-5.326139869463363
 31
0.0
  0
LINE
  8
DRW0
 10
-65.6837666465122
 20
-5.326139869463363
 30
0.0
 11
-79.67778242872387
 21
-5.326139869463363
 31
0.0
  0
LINE
  8
DRW0
 10
-79.67778242872387
 20
-5.326139869463363
 30
0.0
 11
-79.67778242872387
 21
-4.826070105266349
 31
0.0
  0
LINE
  8
DRW0
 10
-79.67778242872387
 20
-4.826070105266349
 30
0.0
 11
-65.6837666465122
 21
-4.826070105266349
 31
0.0
  0
LINE
  8
DRW0_CUT
 10
-65.6837666465122
 20
-4.826070105266349
 30
0.0
 11
-65.6837666465122
 21
-4.826070105266349
 31
0.0
  0
LINE
  8
DRW0
 10
-65.6837666465122
 20
-4.826070105266349
 30
0.0
 11
-65.60439049346505
 21
-4.826070105266349
 31
0.0
  0
LINE
  8
DRW0_CUT
 10
-65.60439049346505
 20
-4.826070105266349
 30
0.0
 11
-64.72331519464174
 21
-4.826070105266349
 31
0.0
  0
LINE
  8
DRW0
 10
-64.72331519464174
 20
-4.826070105266349
 30
0.0
 11
-61.69908376354552
 21
-4.826070105266349
 31
0.0
  0
LINE
  8
DRW0_CUT
 10
-61.69908376354552
 20
-4.826070105266349
 30
0.0
 11
-49.87997457482561
 21
-4.826070105266349
 31
0.0
  0
LINE
  8
DRW0
 10
-49.87997457482561
 20
-4.826070105266349
 30
0.0
 11
-49.68153419220775
 21
-4.826070105266349
 31
0.0
  0
LINE
  8
DRW0
 10
-49.68153419220775
 20
-4.826070105266349
 30
0.0
 11
-35.68751840999607
 21
-4.826070105266349
 31
0.0
  0
LINE
  8
DRW0
 10
-35.68751840999607
 20
-4.826070105266349
 30
0.0
 11
-35.68751840999607
 21
-4.326000341069335
 31
0.0
  0
LINE
  8
DRW0
 10
-35.68751840999607
 20
-4.326000341069335
 30
0.0
 11
-49.68153419220775
 21
-4.326000341069335
 31
0.0
  0
LINE
  8
DRW0_CUT
 10
-49.68153419220775
 20
-4.326000341069335
 30
0.0
 11
-49.68153419220775
 21
-4.326000341069335
 31
0.0
  0
LINE
  8
DRW0
 10
-49.68153419220775
 20
-4.326000341069335
 30
0.0
 11
-49.864099344216186
 21
-4.326000341069335
 31
0.0
  0
LINE
  8
DRW0_CUT
 10
-49.864099344216186
 20
-4.326000341069335
 30
0.0
 11
-61.778459916592666
 21
-4.326000341069335
 31
0.0
  0
LINE
  8
DRW0
 10
-61.778459916592666
 20
-4.326000341069335
 30
0.0
 11
-62.46109483279812
 21
-4.326000341069335
 31
0.0
  0
LINE
  8
DRW0_CUT
 10
-62.46109483279812
 20
-4.326000341069335
 30
0.0
 11
-63.14372974900357
 21
-4.326000341069335
 31
0.0
  0
LINE
  8
DRW0
 10
-63.14372974900357
 20
-4.326000341069335
 30
0.0
 11
-64.31849681410132
 21
-4.326000341069335
 31
0.0
  0
LINE
  8
DRW0_CUT
 10
-64.31849681410132
 20
-4.326000341069335
 30
0.0
 11
-64.8026913476889
 21
-4.326000341069335
 31
0.0
  0
LINE
  8
DRW0
 10
-64.8026913476889
 20
-4.326000341069335
 30
0.0
 11
-64.92175557725962
 21
-4.326000341069335
 31
0.0
  0
LINE
  8
DRW0
 10
-64.92175557725962
 20
-4.326000341069335
 30
0.0
 11
-78.9157713594713
 21
-4.326000341069335
 31
0.0
  0
LINE
  8
DRW0
 10
-78.9157713594713
 20
-4.326000341069335
 30
0.0
 11
-78.9157713594713
 21
-3.825930576872321
 31
0.0
  0
LINE
  8
DRW0
 10
-78.9157713594713
 20
-3.825930576872321
 30
0.0
 11
-64.92175557725962
 21
-3.825930576872321
 31
0.0
  0
LINE
  8
DRW0_CUT
 10
-64.92175557725962
 20
-3.825930576872321
 30
0.0
 11
-64.92175557725962
 21
-3.825930576872321
 31
0.0
  0
LINE
  8
DRW0
 10
-64.92175557725962
 20
-3.825930576872321
 30
0.0
 11
-64.35024727532017
 21
-3.825930576872321
 31
0.0
  0
LINE
  8
DRW0_CUT
 10
-64.35024727532017
 20
-3.825930576872321
 30
0.0
 11
-63.762863742771295
 21
-3.825930576872321
 31
0.0
  0
LINE
  8
DRW0
 10
-63.762863742771295
 20
-3.825930576872321
 30
0.0
 11
-63.66761235911472
 21
-3.825930576872321
 31
0.0
  0
LINE
  8
DRW0_CUT
 10
-63.66761235911472
 20
-3.825930576872321
 30
0.0
 11
-50.09429018805291
 21
-3.825930576872321
 31
0.0
  0
LINE
  8
DRW0
 10
-50.09429018805291
 20
-3.825930576872321
 30
0.0
 11
-49.935537881958616
 21
-3.825930576872321
 31
0.0
  0
LINE
  8
DRW0
 10
-49.935537881958616
 20
-3.825930576872321
 30
0.0
 11
-35.94152209974693
 21
-3.825930576872321
 31
0.0
  0
LINE
  8
DRW0
 10
-35.94152209974693
 20
-3.825930576872321
 30
0.0
 11
-35.94152209974693
 21
-3.325860812675307
 31
0.0
  0
LINE
  8
DRW0
 10
-35.94152209974693
 20
-3.325860812675307
 30
0.0
 11
-49.93553788195861
 21
-3.325860812675307
 31
0.0
  0
LINE
  8
DRW0_CUT
 10
-49.93553788195861
 20
-3.325860812675307
 30
0.0
 11
-49.93553788195861
 21
-3.325860812675307
 31
0.0
  0
LINE
  8
DRW0
 10
-49.93553788195861
 20
-3.325860812675307
 30
0.0
 11
-50.118103033967046
 21
-3.325860812675307
 31
0.0
  0
LINE
  8
DRW0_CUT
 10
-50.118103033967046
 20
-3.325860812675307
 30
0.0
 11
-63.58823620606757
 21
-3.325860812675307
 31
0.0
  0
LINE
  8
DRW0
 10
-63.58823620606757
 20
-3.325860812675307
 30
0.0
 11
-63.65173712850529
 21
-3.325860812675307
 31
0.0
  0
LINE
  8
DRW0
 10
-63.65173712850529
 20
-3.325860812675307
 30
0.0
 11
-77.64575291071696
 21
-3.325860812675307
 31
0.0
  0
LINE
  8
DRW0
 10
-77.64575291071696
 20
-3.325860812675307
 30
0.0
 11
-77.64575291071696
 21
-2.825791048478293
 31
0.0
  0
LINE
  8
DRW0
 10
-77.64575291071696
 20
-2.825791048478293
 30
0.0
 11
-63.65173712850529
 21
-2.825791048478293
 31
0.0
  0
LINE
  8
DRW0_CUT
 10
-63.65173712850529
 20
-2.825791048478293
 30
0.0
 11
-63.65173712850529
 21
-2.825791048478293
 31
0.0
  0
LINE
  8
DRW0
 10
-63.65173712850529
 20
-2.825791048478293
 30
0.0
 11
-63.17548021022242
 21
-2.825791048478293
 31
0.0
  0
LINE
  8
DRW0_CUT
 10
-63.17548021022242
 20
-2.825791048478293
 30
0.0
 11
-62.19915352774253
 21
-2.825791048478293
 31
0.0
  0
LINE
  8
DRW0
 10
-62.19915352774253
 20
-2.825791048478293
 30
0.0
 11
-62.10390214408596
 21
-2.825791048478293
 31
0.0
  0
LINE
  8
DRW0_CUT
 10
-62.10390214408596
 20
-2.825791048478293
 30
0.0
 11
-50.387981954327344
 21
-2.825791048478293
 31
0.0
  0
LINE
  8
DRW0
 10
-50.387981954327344
 20
-2.825791048478293
 30
0.0
 11
-50.18954157170948
 21
-2.825791048478293
 31
0.0
  0
LINE
  8
DRW0
 10
-50.18954157170948
 20
-2.825791048478293
 30
0.0
 11
-36.19552578949781
 21
-2.825791048478293
 31
0.0
  0
LINE
  8
DRW0
 10
-36.19552578949781
 20
-2.825791048478293
 30
0.0
 11
-36.19552578949781
 21
-2.325721284281279
 31
0.0
  0
LINE
  8
DRW0
 10
-36.19552578949781
 20
-2.325721284281279
 30
0.0
 11
-50.18954157170948
 21
-2.325721284281279
 31
0.0
  0
LINE
  8
DRW0_CUT
 10
-50.18954157170948
 20
-2.325721284281279
 30
0.0
 11
-50.18954157170948
 21
-2.325721284281279
 31
0.0
  0
LINE
  8
DRW0
 10
-50.18954157170948
 20
-2.325721284281279
 30
0.0
 11
-50.76104987364893
 21
-2.325721284281279
 31
0.0
  0
LINE
  8
DRW0_CUT
 10
-50.76104987364893
 20
-2.325721284281279
 30
0.0
 11
-61.699083763545524
 21
-2.325721284281279
 31
0.0
  0
LINE
  8
DRW0
 10
-61.699083763545524
 20
-2.325721284281279
 30
0.0
 11
-61.99277552981996
 21
-2.325721284281279
 31
0.0
  0
LINE
  8
DRW0_CUT
 10
-61.99277552981996
 20
-2.325721284281279
 30
0.0
 11
-62.08802691347653
 21
-2.325721284281279
 31
0.0
  0
LINE
  8
DRW0
 10
-62.08802691347653
 20
-2.325721284281279
 30
0.0
 11
-62.18327829713311
 21
-2.325721284281279
 31
0.0
  0
LINE
  8
DRW0_CUT
 10
-62.18327829713311
 20
-2.325721284281279
 30
0.0
 11
-62.86591321333856
 21
-2.325721284281279
 31
0.0
  0
LINE
  8
DRW0
 10
-62.86591321333856
 20
-2.325721284281279
 30
0.0
 11
-62.8897260592527
 21
-2.325721284281279
 31
0.0
  0
LINE
  8
DRW0
 10
-62.8897260592527
 20
-2.325721284281279
 30
0.0
 11
-76.88374184146438
 21
-2.325721284281279
 31
0.0
  0
LINE
  8
DRW0
 10
-76.88374184146438
 20
-2.325721284281279
 30
0.0
 11
-76.88374184146438
 21
-1.8256515200842651
 31
0.0
  0
LINE
  8
DRW0
 10
-76.88374184146438
 20
-1.8256515200842651
 30
0.0
 11
-62.88972605925271
 21
-1.8256515200842651
 31
0.0
  0
LINE
  8
DRW0_CUT
 10
-62.88972605925271
 20
-1.8256515200842651
 30
0.0
 11
-62.88972605925271
 21
-1.8256515200842651
 31
0.0
  0
LINE
  8
DRW0
 10
-62.88972605925271
 20
-1.8256515200842651
 30
0.0
 11
-61.2466396911768
 21
-1.8256515200842651
 31
0.0
  0
LINE
  8
DRW0_CUT
 10
-61.2466396911768
 20
-1.8256515200842651
 30
0.0
 11
-51.08649210114223
 21
-1.8256515200842651
 31
0.0
  0
LINE
  8
DRW0
 10
-51.08649210114223
 20
-1.8256515200842651
 30
0.0
 11
-50.95155264096208
 21
-1.8256515200842651
 31
0.0
  0
LINE
  8
DRW0
 10
-50.95155264096208
 20
-1.8256515200842651
 30
0.0
 11
-36.9575368587504
 21
-1.8256515200842651
 31
0.0
  0
LINE
  8
DRW0
 10
-36.9575368587504
 20
-1.8256515200842651
 30
0.0
 11
-36.9575368587504
 21
-1.3255817558872511
 31
0.0
  0
LINE
  8
DRW0
 10
-36.9575368587504
 20
-1.3255817558872511
 30
0.0
 11
-50.95155264096208
 21
-1.3255817558872511
 31
0.0
  0
LINE
  8
DRW0_CUT
 10
-50.95155264096208
 20
-1.3255817558872511
 30
0.0
 11
-50.95155264096208
 21
-1.3255817558872511
 31
0.0
  0
LINE
  8
DRW0
 10
-50.95155264096208
 20
-1.3255817558872511
 30
0.0
 11
-51.81675270917596
 21
-1.3255817558872511
 31
0.0
  0
LINE
  8
DRW0_CUT
 10
-51.81675270917596
 20
-1.3255817558872511
 30
0.0
 11
-60.40525246887706
 21
-1.3255817558872511
 31
0.0
  0
LINE
  8
DRW0
 10
-60.40525246887706
 20
-1.3255817558872511
 30
0.0
 11
-60.89738461776936
 21
-1.3255817558872511
 31
0.0
  0
LINE
  8
DRW0_CUT
 10
-60.89738461776936
 20
-1.3255817558872511
 30
0.0
 11
-61.381579151356945
 21
-1.3255817558872511
 31
0.0
  0
LINE
  8
DRW0
 10
-61.381579151356945
 20
-1.3255817558872511
 30
0.0
 11
-61.48476815031823
 21
-1.3255817558872511
 31
0.0
  0
LINE
  8
DRW0_CUT
 10
-61.48476815031823
 20
-1.3255817558872511
 30
0.0
 11
-61.67527091763138
 21
-1.3255817558872511
 31
0.0
  0
LINE
  8
DRW0
 10
-61.67527091763138
 20
-1.3255817558872511
 30
0.0
 11
-61.87371130024924
 21
-1.3255817558872511
 31
0.0
  0
LINE
  8
DRW0
 10
-61.87371130024924
 20
-1.3255817558872511
 30
0.0
 11
-75.86772708246092
 21
-1.3255817558872511
 31
0.0
  0
LINE
  8
DRW0
 10
-75.86772708246092
 20
-1.3255817558872511
 30
0.0
 11
-75.86772708246092
 21
-0.825511991690237
 31
0.0
  0
LINE
  8
DRW0
 10
-75.86772708246092
 20
-0.825511991690237
 30
0.0
 11
-61.87371130024924
 21
-0.825511991690237
 31
0.0
  0
LINE
  8
DRW0_CUT
 10
-61.87371130024924
 20
-0.825511991690237
 30
0.0
 11
-61.87371130024924
 21
-0.825511991690237
 31
0.0
  0
LINE
  8
DRW0
 10
-61.87371130024924
 20
-0.825511991690237
 30
0.0
 11
-60.32587631582991
 21
-0.825511991690237
 31
0.0
  0
LINE
  8
DRW0_CUT
 10
-60.32587631582991
 20
-0.825511991690237
 30
0.0
 11
-59.841681782242325
 21
-0.825511991690237
 31
0.0
  0
LINE
  8
DRW0
 10
-59.841681782242325
 20
-0.825511991690237
 30
0.0
 11
-59.54799001596789
 21
-0.825511991690237
 31
0.0
  0
LINE
  8
DRW0_CUT
 10
-59.54799001596789
 20
-0.825511991690237
 30
0.0
 11
-54.37266483729403
 21
-0.825511991690237
 31
0.0
  0
LINE
  8
DRW0
 10
-54.37266483729403
 20
-0.825511991690237
 30
0.0
 11
-53.197897772196285
 21
-0.825511991690237
 31
0.0
  0
LINE
  8
DRW0_CUT
 10
-53.197897772196285
 20
-0.825511991690237
 30
0.0
 11
-52.999457389578424
 21
-0.825511991690237
 31
0.0
  0
LINE
  8
DRW0
 10
-52.999457389578424
 20
-0.825511991690237
 30
0.0
 11
-52.98358215896899
 21
-0.825511991690237
 31
0.0
  0
LINE
  8
DRW0
 10
-52.98358215896899
 20
-0.825511991690237
 30
0.0
 11
-38.98956637675731
 21
-0.825511991690237
 31
0.0
  0
LINE
  8
DRW0
 10
-38.98956637675731
 20
-0.825511991690237
 30
0.0
 11
-38.98956637675731
 21
-0.32544222749322294
 31
0.0
  0
LINE
  8
DRW0
 10
-38.98956637675731
 20
-0.32544222749322294
 30
0.0
 11
-52.983582158968986
 21
-0.32544222749322294
 31
0.0
  0
LINE
  8
DRW0_CUT
 10
-52.983582158968986
 20
-0.32544222749322294
 30
0.0
 11
-52.983582158968986
 21
-0.32544222749322294
 31
0.0
  0
LINE
  8
DRW0
 10
-52.983582158968986
 20
-0.32544222749322294
 30
0.0
 11
-55.11880067593719
 21
-0.32544222749322294
 31
0.0
  0
LINE
  8
DRW0_CUT
 10
-55.11880067593719
 20
-0.32544222749322294
 30
0.0
 11
-57.55564857448454
 21
-0.32544222749322294
 31
0.0
  0
LINE
  8
DRW0
 10
-57.55564857448454
 20
-0.32544222749322294
 30
0.0
 11
-57.754088957102404
 21
-0.32544222749322294
 31
0.0
  0
LINE
  8
DRW0_CUT
 10
-57.754088957102404
 20
-0.32544222749322294
 30
0.0
 11
-58.53197525696443
 21
-0.32544222749322294
 31
0.0
  0
LINE
  8
DRW0
 10
-58.53197525696443
 20
-0.32544222749322294
 30
0.0
 11
-58.571663333488004
 21
-0.32544222749322294
 31
0.0
  0
LINE
  8
DRW0
 10
-58.571663333488004
 20
-0.32544222749322294
 30
0.0
 11
-72.56567911569968
 21
-0.32544222749322294
 31
0.0
  0
ENDSEC
  0
EOF
