999
dxfrw 0.6.3
  0
SECTION
  2
HEADER
  9
$ACADVER
  1
AC1021
  9
$DWGCODEPAGE
  3
ANSI_1252
  9
$INSBASE
 10
0
 20
0
 30
0
  9
$EXTMIN
 10
-141.635068559977
 20
-193.2056327672412
 30
0
  9
$EXTMAX
 10
-46.30252383559353
 20
-66.04161434597495
 30
0
  9
$LIMMIN
 10
0
 20
0
  9
$LIMMAX
 10
12
 20
9
  9
$ORTHOMODE
 70
    0
  9
$REGENMODE
 70
    1
  9
$FILLMODE
 70
    1
  9
$QTEXTMODE
 70
    0
  9
$MIRRTEXT
 70
    1
  9
$LTSCALE
 40
1
  9
$ATTMODE
 70
    1
  9
$TEXTSIZE
 40
0.2
  9
$TRACEWID
 40
0.05
  9
$TEXTSTYLE
  7
STANDARD
  9
$CLAYER
  8
0
  9
$CELTYPE
  6
BYLAYER
  9
$CECOLOR
 62
  256
  9
$CELTSCALE
 40
1
  9
$DISPSILH
 70
    0
  9
$DIMSCALE
 40
1
  9
$DIMASZ
 40
0.18
  9
$DIMEXO
 40
0.0625
  9
$DIMDLI
 40
0.38
  9
$DIMRND
 40
0
  9
$DIMDLE
 40
0
  9
$DIMEXE
 40
0.18
  9
$DIMTP
 40
0
  9
$DIMTM
 40
0
  9
$DIMTXT
 40
0.18
  9
$DIMCEN
 40
0.09
  9
$DIMTSZ
 40
0
  9
$DIMTOL
 70
    0
  9
$DIMLIM
 70
    0
  9
$DIMTIH
 70
    1
  9
$DIMTOH
 70
    1
  9
$DIMSE1
 70
    0
  9
$DIMSE2
 70
    0
  9
$DIMTAD
 70
    0
  9
$DIMZIN
 70
    0
  9
$DIMBLK
  1

  9
$DIMASO
 70
    1
  9
$DIMSHO
 70
    1
  9
$DIMPOST
  1

  9
$DIMAPOST
  1

  9
$DIMALT
 70
    0
  9
$DIMALTD
 70
    2
  9
$DIMALTF
 40
25.4
  9
$DIMLFAC
 40
1
  9
$DIMTOFL
 70
    0
  9
$DIMTVP
 40
0
  9
$DIMTIX
 70
    0
  9
$DIMSOXD
 70
    0
  9
$DIMSAH
 70
    0
  9
$DIMBLK1
  1

  9
$DIMBLK2
  1

  9
$DIMSTYLE
  2
STANDARD
  9
$DIMCLRD
 70
    0
  9
$DIMCLRE
 70
    0
  9
$DIMCLRT
 70
    0
  9
$DIMTFAC
 40
1
  9
$DIMGAP
 40
0.09
  9
$DIMJUST
 70
    0
  9
$DIMSD1
 70
    0
  9
$DIMSD2
 70
    0
  9
$DIMTOLJ
 70
    0
  9
$DIMTZIN
 70
    8
  9
$DIMALTZ
 70
    0
  9
$DIMALTTZ
 70
    0
  9
$DIMUPT
 70
    0
  9
$DIMDEC
 70
    4
  9
$DIMTDEC
 70
    2
  9
$DIMALTU
 70
    2
  9
$DIMALTTD
 70
    3
  9
$DIMTXSTY
  7
STANDARD
  9
$DIMAUNIT
 70
    0
  9
$DIMADEC
 70
    0
  9
$DIMALTRND
 40
0
  9
$DIMAZIN
 70
    0
  9
$DIMDSEP
 70
   44
  9
$DIMATFIT
 70
    3
  9
$DIMFRAC
 70
    0
  9
$DIMLDRBLK
  1
STANDARD
  9
$DIMLUNIT
 70
    2
  9
$DIMLWD
 70
   -2
  9
$DIMLWE
 70
   -2
  9
$DIMTMOVE
 70
    0
  9
$DIMFXL
 40
1
  9
$DIMFXLON
 70
    0
  9
$DIMJOGANG
 40
0.7854
  9
$DIMTFILL
 70
    0
  9
$DIMTFILLCLR
 70
    0
  9
$DIMARCSYM
 70
    0
  9
$DIMLTYPE
  6

  9
$DIMLTEX1
  6

  9
$DIMLTEX2
  6

  9
$LUNITS
 70
    2
  9
$LUPREC
 70
    4
  9
$SKETCHINC
 40
0.1
  9
$FILLETRAD
 40
0.5
  9
$AUNITS
 70
    0
  9
$AUPREC
 70
    0
  9
$MENU
  1
.
  9
$ELEVATION
 40
0
  9
$PELEVATION
 40
0
  9
$THICKNESS
 40
0
  9
$LIMCHECK
 70
    0
  9
$CHAMFERA
 40
0
  9
$CHAMFERB
 40
0
  9
$CHAMFERC
 40
0
  9
$CHAMFERD
 40
0
  9
$SKPOLY
 70
    0
  9
$USRTIMER
 70
    1
  9
$ANGBASE
 50
0
  9
$ANGDIR
 70
    0
  9
$PDMODE
 70
    0
  9
$PDSIZE
 40
0
  9
$PLINEWID
 40
0
  9
$SPLFRAME
 70
    0
  9
$SPLINETYPE
 70
    6
  9
$SPLINESEGS
 70
    8
  9
$HANDSEED
  5
20000
  9
$SURFTAB1
 70
    6
  9
$SURFTAB2
 70
    6
  9
$SURFTYPE
 70
    6
  9
$SURFU
 70
    6
  9
$SURFV
 70
    6
  9
$UCSBASE
  2

  9
$UCSNAME
  2

  9
$UCSORG
 10
0
 20
0
 30
0
  9
$UCSXDIR
 10
1
 20
0
 30
0
  9
$UCSYDIR
 10
0
 20
1
 30
0
  9
$UCSORTHOREF
  2

  9
$UCSORTHOVIEW
 70
    0
  9
$UCSORGTOP
 10
0
 20
0
 30
0
  9
$UCSORGBOTTOM
 10
0
 20
0
 30
0
  9
$UCSORGLEFT
 10
0
 20
0
 30
0
  9
$UCSORGRIGHT
 10
0
 20
0
 30
0
  9
$UCSORGFRONT
 10
0
 20
0
 30
0
  9
$UCSORGBACK
 10
0
 20
0
 30
0
  9
$PUCSBASE
  2

  9
$PUCSNAME
  2

  9
$PUCSORG
 10
0
 20
0
 30
0
  9
$PUCSXDIR
 10
1
 20
0
 30
0
  9
$PUCSYDIR
 10
0
 20
1
 30
0
  9
$PUCSORTHOREF
  2

  9
$PUCSORTHOVIEW
 70
    0
  9
$PUCSORGTOP
 10
0
 20
0
 30
0
  9
$PUCSORGBOTTOM
 10
0
 20
0
 30
0
  9
$PUCSORGLEFT
 10
0
 20
0
 30
0
  9
$PUCSORGRIGHT
 10
0
 20
0
 30
0
  9
$PUCSORGFRONT
 10
0
 20
0
 30
0
  9
$PUCSORGBACK
 10
0
 20
0
 30
0
  9
$USERI1
 70
    0
  9
$USERI2
 70
    0
  9
$USERI3
 70
    0
  9
$USERI4
 70
    0
  9
$USERI5
 70
    0
  9
$USERR1
 40
0
  9
$USERR2
 40
0
  9
$USERR3
 40
0
  9
$USERR4
 40
0
  9
$USERR5
 40
0
  9
$WORLDVIEW
 70
    1
  9
$SHADEDGE
 70
    3
  9
$SHADEDIF
 70
   70
  9
$TILEMODE
 70
    1
  9
$MAXACTVP
 70
   64
  9
$PINSBASE
 10
0
 20
0
 30
0
  9
$PLIMCHECK
 70
    0
  9
$PEXTMIN
 10
1e+20
 20
1e+20
 30
1e+20
  9
$PEXTMAX
 10
-1e+20
 20
-1e+20
 30
-1e+20
  9
$GRIDMODE
 70
    1
  9
$SNAPSTYLE
 70
    0
  9
$PLIMMIN
 10
0
 20
0
  9
$PLIMMAX
 10
12
 20
9
  9
$UNITMODE
 70
    0
  9
$VISRETAIN
 70
    1
  9
$PLINEGEN
 70
    0
  9
$PSLTSCALE
 70
    1
  9
$TREEDEPTH
 70
 3020
  9
$CMLSTYLE
  2
Standard
  9
$CMLJUST
 70
    0
  9
$CMLSCALE
 40
20
  9
$PROXYGRAPHICS
 70
    1
  9
$MEASUREMENT
 70
    1
  9
$CELWEIGHT
370
   -1
  9
$ENDCAPS
280
    0
  9
$JOINSTYLE
280
    0
  9
$LWDISPLAY
290
    0
  9
$INSUNITS
 70
    4
  9
$HYPERLINKBASE
  1

  9
$STYLESHEET
  1

  9
$XEDIT
290
    1
  9
$CEPSNTYPE
380
    0
  9
$PSTYLEMODE
290
    1
  9
$EXTNAMES
290
    1
  9
$PSVPSCALE
 40
1
  9
$OLESTARTUP
290
    0
  9
$SORTENTS
280
  127
  9
$INDEXCTL
280
    0
  9
$HIDETEXT
280
    1
  9
$XCLIPFRAME
290
    0
  9
$HALOGAP
280
    0
  9
$OBSCOLOR
 70
  257
  9
$OBSLTYPE
280
    0
  9
$INTERSECTIONDISPLAY
280
    0
  9
$INTERSECTIONCOLOR
 70
  257
  9
$DIMASSOC
280
    1
  9
$PROJECTNAME
  1

  9
$CAMERADISPLAY
290
    0
  9
$LENSLENGTH
 40
50
  9
$CAMERAHEIGHT
 40
0
  9
$STEPSPERSEC
 40
2
  9
$STEPSIZE
 40
50
  9
$3DDWFPREC
 40
2
  9
$PSOLWIDTH
 40
5
  9
$PSOLHEIGHT
 40
80
  9
$LOFTANG1
 40
1.570796326794897
  9
$LOFTANG2
 40
1.570796326794897
  9
$LOFTMAG1
 40
0
  9
$LOFTMAG2
 40
0
  9
$LOFTPARAM
 70
    7
  9
$LOFTNORMALS
280
    1
  9
$LATITUDE
 40
1
  9
$LONGITUDE
 40
1
  9
$NORTHDIRECTION
 40
0
  9
$TIMEZONE
 70
-8000
  9
$LIGHTGLYPHDISPLAY
280
    1
  9
$TILEMODELIGHTSYNCH
280
    1
  9
$SOLIDHIST
280
    1
  9
$SHOWHIST
280
    1
  9
$DWFFRAME
280
    2
  9
$DGNFRAME
280
    0
  9
$REALWORLDSCALE
290
    1
  9
$INTERFERECOLOR
 62
    1
  9
$CSHADOW
280
    0
  9
$SHADOWPLANELOCATION
 40
0
  0
ENDSEC
  0
SECTION
  2
CLASSES
  0
ENDSEC
  0
SECTION
  2
TABLES
  0
TABLE
  2
VPORT
  5
8
330
0
100
AcDbSymbolTable
 70
    1
  0
VPORT
  5
31
330
2
100
AcDbSymbolTableRecord
100
AcDbViewportTableRecord
  2
*ACTIVE
 70
    0
 10
0
 20
0
 11
1
 21
1
 12
28.05548513208069
 22
16.77544471815134
 13
0
 23
0
 14
10
 24
10
 15
10
 25
10
 16
0
 26
0
 36
1
 17
0
 27
0
 37
0
 40
240.0623985528554
 41
1.832530120481928
 42
50
 43
0
 44
0
 50
0
 51
0
 71
    0
 72
  100
 73
    1
 74
    3
 75
    0
 76
    1
 77
    0
 78
    0
281
    0
 65
    1
110
0
120
0
130
0
111
1
121
0
131
0
112
0
122
1
132
0
 79
    0
146
0
348
10020
 60
    7
 61
    5
292
1
282
    1
141
0
142
0
 63
  250
421
3358443
  0
ENDTAB
  0
TABLE
  2
LTYPE
  5
5
330
0
100
AcDbSymbolTable
 70
    4
  0
LTYPE
  5
14
330
5
100
AcDbSymbolTableRecord
100
AcDbLinetypeTableRecord
  2
ByBlock
 70
    0
  3

 72
   65
 73
    0
 40
0
  0
LTYPE
  5
15
330
5
100
AcDbSymbolTableRecord
100
AcDbLinetypeTableRecord
  2
ByLayer
 70
    0
  3

 72
   65
 73
    0
 40
0
  0
LTYPE
  5
16
330
5
100
AcDbSymbolTableRecord
100
AcDbLinetypeTableRecord
  2
Continuous
 70
    0
  3
Solid line
 72
   65
 73
    0
 40
0
  0
LTYPE
  5
32
330
5
100
AcDbSymbolTableRecord
100
AcDbLinetypeTableRecord
  2
DOT
 70
    0
  3
Dot . . . . . . . . . . . . . . . . . . . . . .
 72
   65
 73
    2
 40
6.35
 49
0
 74
    0
 49
-6.35
 74
    0
  0
LTYPE
  5
33
330
5
100
AcDbSymbolTableRecord
100
AcDbLinetypeTableRecord
  2
DOTTINY
 70
    0
  3
Dot (.15x) .....................................
 72
   65
 73
    2
 40
0.9525
 49
0
 74
    0
 49
-0.9525
 74
    0
  0
LTYPE
  5
34
330
5
100
AcDbSymbolTableRecord
100
AcDbLinetypeTableRecord
  2
DOT2
 70
    0
  3
Dot (.5x) .....................................
 72
   65
 73
    2
 40
3.175
 49
0
 74
    0
 49
-3.175
 74
    0
  0
LTYPE
  5
35
330
5
100
AcDbSymbolTableRecord
100
AcDbLinetypeTableRecord
  2
DOTX2
 70
    0
  3
Dot (2x) .  .  .  .  .  .  .  .  .  .  .  .  .
 72
   65
 73
    2
 40
12.7
 49
0
 74
    0
 49
-12.7
 74
    0
  0
LTYPE
  5
36
330
5
100
AcDbSymbolTableRecord
100
AcDbLinetypeTableRecord
  2
DASHED
 70
    0
  3
Dashed _ _ _ _ _ _ _ _ _ _ _ _ _ _ _ _ _
 72
   65
 73
    2
 40
19.05
 49
12.7
 74
    0
 49
-6.35
 74
    0
  0
LTYPE
  5
37
330
5
100
AcDbSymbolTableRecord
100
AcDbLinetypeTableRecord
  2
DASHEDTINY
 70
    0
  3
Dashed (.15x) _ _ _ _ _ _ _ _ _ _ _ _ _ _ _ _ _
 72
   65
 73
    2
 40
2.8575
 49
1.905
 74
    0
 49
-0.9525
 74
    0
  0
LTYPE
  5
38
330
5
100
AcDbSymbolTableRecord
100
AcDbLinetypeTableRecord
  2
DASHED2
 70
    0
  3
Dashed (.5x) _ _ _ _ _ _ _ _ _ _ _ _ _ _ _ _ _
 72
   65
 73
    2
 40
9.524999999999999
 49
6.35
 74
    0
 49
-3.175
 74
    0
  0
LTYPE
  5
39
330
5
100
AcDbSymbolTableRecord
100
AcDbLinetypeTableRecord
  2
DASHEDX2
 70
    0
  3
Dashed (2x) ____  ____  ____  ____  ____  ___
 72
   65
 73
    2
 40
38.09999999999999
 49
25.4
 74
    0
 49
-12.7
 74
    0
  0
LTYPE
  5
3A
330
5
100
AcDbSymbolTableRecord
100
AcDbLinetypeTableRecord
  2
DASHDOT
 70
    0
  3
Dash dot __ . __ . __ . __ . __ . __ . __ . __
 72
   65
 73
    4
 40
25.4
 49
12.7
 74
    0
 49
-6.35
 74
    0
 49
0
 74
    0
 49
-6.35
 74
    0
  0
LTYPE
  5
3B
330
5
100
AcDbSymbolTableRecord
100
AcDbLinetypeTableRecord
  2
DASHDOTTINY
 70
    0
  3
Dash dot (.15x) _._._._._._._._._._._._._._._.
 72
   65
 73
    4
 40
3.81
 49
1.905
 74
    0
 49
-0.9525
 74
    0
 49
0
 74
    0
 49
-0.9525
 74
    0
  0
LTYPE
  5
3C
330
5
100
AcDbSymbolTableRecord
100
AcDbLinetypeTableRecord
  2
DASHDOT2
 70
    0
  3
Dash dot (.5x) _._._._._._._._._._._._._._._.
 72
   65
 73
    4
 40
12.7
 49
6.35
 74
    0
 49
-3.175
 74
    0
 49
0
 74
    0
 49
-3.175
 74
    0
  0
LTYPE
  5
3D
330
5
100
AcDbSymbolTableRecord
100
AcDbLinetypeTableRecord
  2
DASHDOTX2
 70
    0
  3
Dash dot (2x) ____  .  ____  .  ____  .  ___
 72
   65
 73
    4
 40
50.8
 49
25.4
 74
    0
 49
-12.7
 74
    0
 49
0
 74
    0
 49
-12.7
 74
    0
  0
LTYPE
  5
3E
330
5
100
AcDbSymbolTableRecord
100
AcDbLinetypeTableRecord
  2
DIVIDE
 70
    0
  3
Divide ____ . . ____ . . ____ . . ____ . . ____
 72
   65
 73
    6
 40
31.75
 49
12.7
 74
    0
 49
-6.35
 74
    0
 49
0
 74
    0
 49
-6.35
 74
    0
 49
0
 74
    0
 49
-6.35
 74
    0
  0
LTYPE
  5
3F
330
5
100
AcDbSymbolTableRecord
100
AcDbLinetypeTableRecord
  2
DIVIDETINY
 70
    0
  3
Divide (.15x) __..__..__..__..__..__..__..__.._
 72
   65
 73
    6
 40
4.7625
 49
1.905
 74
    0
 49
-0.9525
 74
    0
 49
0
 74
    0
 49
-0.9525
 74
    0
 49
0
 74
    0
 49
-0.9525
 74
    0
  0
LTYPE
  5
40
330
5
100
AcDbSymbolTableRecord
100
AcDbLinetypeTableRecord
  2
DIVIDE2
 70
    0
  3
Divide (.5x) __..__..__..__..__..__..__..__.._
 72
   65
 73
    6
 40
15.875
 49
6.35
 74
    0
 49
-3.175
 74
    0
 49
0
 74
    0
 49
-3.175
 74
    0
 49
0
 74
    0
 49
-3.175
 74
    0
  0
LTYPE
  5
41
330
5
100
AcDbSymbolTableRecord
100
AcDbLinetypeTableRecord
  2
DIVIDEX2
 70
    0
  3
Divide (2x) ________  .  .  ________  .  .  _
 72
   65
 73
    6
 40
63.5
 49
25.4
 74
    0
 49
-12.7
 74
    0
 49
0
 74
    0
 49
-12.7
 74
    0
 49
0
 74
    0
 49
-12.7
 74
    0
  0
LTYPE
  5
42
330
5
100
AcDbSymbolTableRecord
100
AcDbLinetypeTableRecord
  2
BORDER
 70
    0
  3
Border __ __ . __ __ . __ __ . __ __ . __ __ .
 72
   65
 73
    6
 40
44.45
 49
12.7
 74
    0
 49
-6.35
 74
    0
 49
12.7
 74
    0
 49
-6.35
 74
    0
 49
0
 74
    0
 49
-6.35
 74
    0
  0
LTYPE
  5
43
330
5
100
AcDbSymbolTableRecord
100
AcDbLinetypeTableRecord
  2
BORDERTINY
 70
    0
  3
Border (.15x) __.__.__.__.__.__.__.__.__.__.__.
 72
   65
 73
    6
 40
6.6675
 49
1.905
 74
    0
 49
-0.9525
 74
    0
 49
1.905
 74
    0
 49
-0.9525
 74
    0
 49
0
 74
    0
 49
-0.9525
 74
    0
  0
LTYPE
  5
44
330
5
100
AcDbSymbolTableRecord
100
AcDbLinetypeTableRecord
  2
BORDER2
 70
    0
  3
Border (.5x) __.__.__.__.__.__.__.__.__.__.__.
 72
   65
 73
    6
 40
22.225
 49
6.35
 74
    0
 49
-3.175
 74
    0
 49
6.35
 74
    0
 49
-3.175
 74
    0
 49
0
 74
    0
 49
-3.175
 74
    0
  0
LTYPE
  5
45
330
5
100
AcDbSymbolTableRecord
100
AcDbLinetypeTableRecord
  2
BORDERX2
 70
    0
  3
Border (2x) ____  ____  .  ____  ____  .  ___
 72
   65
 73
    6
 40
88.89999999999999
 49
25.4
 74
    0
 49
-12.7
 74
    0
 49
25.4
 74
    0
 49
-12.7
 74
    0
 49
0
 74
    0
 49
-12.7
 74
    0
  0
LTYPE
  5
46
330
5
100
AcDbSymbolTableRecord
100
AcDbLinetypeTableRecord
  2
CENTER
 70
    0
  3
Center ____ _ ____ _ ____ _ ____ _ ____ _ ____
 72
   65
 73
    4
 40
50.8
 49
31.75
 74
    0
 49
-6.35
 74
    0
 49
6.35
 74
    0
 49
-6.35
 74
    0
  0
LTYPE
  5
47
330
5
100
AcDbSymbolTableRecord
100
AcDbLinetypeTableRecord
  2
CENTERTINY
 70
    0
  3
Center (.15x) ___ _ ___ _ ___ _ ___ _ ___ _ ___
 72
   65
 73
    4
 40
7.619999999999999
 49
4.7625
 74
    0
 49
-0.9525
 74
    0
 49
0.9525
 74
    0
 49
-0.9525
 74
    0
  0
LTYPE
  5
48
330
5
100
AcDbSymbolTableRecord
100
AcDbLinetypeTableRecord
  2
CENTER2
 70
    0
  3
Center (.5x) ___ _ ___ _ ___ _ ___ _ ___ _ ___
 72
   65
 73
    4
 40
28.575
 49
19.05
 74
    0
 49
-3.175
 74
    0
 49
3.175
 74
    0
 49
-3.175
 74
    0
  0
LTYPE
  5
49
330
5
100
AcDbSymbolTableRecord
100
AcDbLinetypeTableRecord
  2
CENTERX2
 70
    0
  3
Center (2x) ________  __  ________  __  _____
 72
   65
 73
    4
 40
101.6
 49
63.5
 74
    0
 49
-12.7
 74
    0
 49
12.7
 74
    0
 49
-12.7
 74
    0
  0
ENDTAB
  0
TABLE
  2
LAYER
  5
2
330
0
100
AcDbSymbolTable
 70
    1
  0
LAYER
  5
10
330
2
100
AcDbSymbolTableRecord
100
AcDbLayerTableRecord
  2
0
 70
    0
 62
    7
  6
CONTINUOUS
370
   -3
390
F
  0
LAYER
  5
4A
330
2
100
AcDbSymbolTableRecord
100
AcDbLayerTableRecord
  2
LAYER_1
 70
    0
 62
   18
  6
CONTINUOUS
370
   -3
390
F
  0
ENDTAB
  0
TABLE
  2
STYLE
  5
3
330
0
100
AcDbSymbolTable
 70
    3
  0
STYLE
  5
4B
330
2
100
AcDbSymbolTableRecord
100
AcDbTextStyleTableRecord
  2
Standard
 70
    0
 40
0
 41
1
 50
0
 71
    0
 42
1
  3
txt
  4

  0
ENDTAB
  0
TABLE
  2
VIEW
  5
6
330
0
100
AcDbSymbolTable
 70
    0
  0
ENDTAB
  0
TABLE
  2
UCS
  5
7
330
0
100
AcDbSymbolTable
 70
    0
  0
ENDTAB
  0
TABLE
  2
APPID
  5
9
330
0
100
AcDbSymbolTable
 70
    1
  0
APPID
  5
12
330
9
100
AcDbSymbolTableRecord
100
AcDbRegAppTableRecord
  2
ACAD
 70
    0
  0
APPID
  5
4C
330
9
100
AcDbSymbolTableRecord
100
AcDbRegAppTableRecord
  2
LibreCad
 70
    0
  0
ENDTAB
  0
TABLE
  2
DIMSTYLE
  5
A
330
0
100
AcDbSymbolTable
 70
    1
100
AcDbDimStyleTable
 71
    1
  0
DIMSTYLE
105
4D
330
A
100
AcDbSymbolTableRecord
100
AcDbDimStyleTableRecord
  2
Standard
 70
    0
 40
1
 41
0.18
 42
0.0625
 43
0.38
 44
0.18
 45
0
 46
0
 47
0
 48
0
 49
1
140
0.18
141
0.09
142
0
143
25.4
144
1
145
0
146
1
147
0.09
148
0
 71
    0
 72
    0
 73
    1
 74
    1
 75
    0
 76
    0
 77
    0
 78
    0
 79
    0
170
    0
171
    2
172
    0
173
    0
174
    0
175
    0
176
    0
177
    0
178
    0
179
    0
271
    4
272
    4
273
    2
274
    2
275
    0
276
    0
277
    2
278
    0
279
    0
280
    0
281
    0
282
    0
283
    1
284
    0
285
    0
286
    0
288
    0
289
    3
340
standard
341

371
   -2
372
   -2
  0
ENDTAB
  0
TABLE
  2
BLOCK_RECORD
  5
1
330
0
100
AcDbSymbolTable
 70
    2
  0
BLOCK_RECORD
  5
1F
330
1
100
AcDbSymbolTableRecord
100
AcDbBlockTableRecord
  2
*Model_Space
 70
    0
280
    1
281
    0
  0
BLOCK_RECORD
  5
1E
330
1
100
AcDbSymbolTableRecord
100
AcDbBlockTableRecord
  2
*Paper_Space
 70
    0
280
    1
281
    0
  0
ENDTAB
  0
ENDSEC
  0
SECTION
  2
BLOCKS
  0
BLOCK
  5
20
330
1F
100
AcDbEntity
  8
0
100
AcDbBlockBegin
  2
*Model_Space
 70
    0
 10
0
 20
0
 30
0
  3
*Model_Space
  1

  0
ENDBLK
  5
21
330
1F
100
AcDbEntity
  8
0
100
AcDbBlockEnd
  0
BLOCK
  5
1C
330
1B
100
AcDbEntity
  8
0
100
AcDbBlockBegin
  2
*Paper_Space
 70
    0
 10
0
 20
0
 30
0
  3
*Paper_Space
  1

  0
ENDBLK
  5
1D
330
1F
100
AcDbEntity
  8
0
100
AcDbBlockEnd
  0
ENDSEC
  0
SECTION
  2
ENTITIES
  0
LWPOLYLINE
  5
4E
100
AcDbEntity
  8
0
  6
ByLayer
 62
  256
370
   -1
100
AcDbPolyline
 90
    4
 70
    1
 43
0
 10
-112.3020285599769
 20
-163.8725927672411
 10
-112.3020285599769
 20
-193.2056327672412
 10
-141.6350685599769
 20
-193.2056327672412
 10
-141.6350685599769
 20
-163.8725927672411
  0
LWPOLYLINE
  5
4F
100
AcDbEntity
  8
0
  6
ByLayer
 62
  256
370
   -1
100
AcDbPolyline
 90
    4
 70
    1
 43
0
 10
-113.9183703340394
 20
-172.9126724257815
 10
-113.9183703340394
 20
-187.9125224257815
 10
-128.9182203340394
 20
-187.9125224257815
 10
-128.9182203340394
 20
-172.9126724257815
  0
LWPOLYLINE
  5
50
100
AcDbEntity
  8
0
  6
ByLayer
 62
  256
370
   -1
100
AcDbPolyline
 90
    4
 70
    1
 43
0
 10
-112.3020285599769
 20
-131.5395827672411
 10
-112.3020285599769
 20
-160.8726227672411
 10
-141.6350685599769
 20
-160.8726227672411
 10
-141.6350685599769
 20
-131.5395827672411
  0
LWPOLYLINE
  5
51
100
AcDbEntity
  8
0
  6
ByLayer
 62
  256
370
   -1
100
AcDbPolyline
 90
    4
 70
    1
 43
0
 10
-113.9183703340394
 20
-140.5796624257815
 10
-113.9183703340394
 20
-155.5795124257815
 10
-128.9182203340394
 20
-155.5795124257815
 10
-128.9182203340394
 20
-140.5796624257815
  0
LWPOLYLINE
  5
52
100
AcDbEntity
  8
0
  6
ByLayer
 62
  256
370
   -1
100
AcDbPolyline
 90
    4
 70
    1
 43
0
 10
-121.3019385599769
 20
-108.2064827672411
 10
-121.3019385599769
 20
-128.5396127672411
 10
-141.6350685599769
 20
-128.5396127672411
 10
-141.6350685599769
 20
-108.2064827672411
  0
LWPOLYLINE
  5
53
100
AcDbEntity
  8
0
  6
ByLayer
 62
  256
370
   -1
100
AcDbPolyline
 90
   24
 70
    1
 43
0
 10
-126.6352185599769
 20
-123.8729927672411
 10
-126.7374400588845
 20
-124.6494421379773
 10
-127.0371383293857
 20
-125.3729777672411
 10
-127.5138894296207
 20
-125.9942918975973
 10
-128.1352035599769
 20
-126.4710429978323
 10
-128.8587391892407
 20
-126.7707412683335
 10
-129.6351885599769
 20
-126.8729627672411
 10
-130.4116379307131
 20
-126.7707412683335
 10
-131.1351735599769
 20
-126.4710429978323
 10
-131.7564876903332
 20
-125.9942918975973
 10
-132.2332387905682
 20
-125.3729777672411
 10
-132.5329370610694
 20
-124.6494421379773
 10
-132.6351585599769
 20
-123.8729927672411
 10
-132.5329370610694
 20
-123.0965433965049
 10
-132.2332387905682
 20
-122.3730077672411
 10
-131.7564876903332
 20
-121.7516936368849
 10
-131.1351735599769
 20
-121.2749425366499
 10
-130.4116379307131
 20
-120.9752442661487
 10
-129.6351885599769
 20
-120.8730227672411
 10
-128.8587391892407
 20
-120.9752442661487
 10
-128.1352035599769
 20
-121.2749425366499
 10
-127.5138894296208
 20
-121.7516936368849
 10
-127.0371383293857
 20
-122.3730077672411
 10
-126.7374400588845
 20
-123.0965433965049
  0
LWPOLYLINE
  5
54
100
AcDbEntity
  8
0
  6
ByLayer
 62
  256
370
   -1
100
AcDbPolyline
 90
    4
 70
    1
 43
0
 10
-121.3019385599769
 20
-84.87338276724113
 10
-121.3019385599769
 20
-105.2065127672411
 10
-141.6350685599769
 20
-105.2065127672411
 10
-141.635068559977
 20
-84.87338276724113
  0
LWPOLYLINE
  5
55
100
AcDbEntity
  8
0
  6
ByLayer
 62
  256
370
   -1
100
AcDbPolyline
 90
   24
 70
    1
 43
0
 10
-126.6352185599769
 20
-100.5398927672411
 10
-126.7374400588845
 20
-101.3163421379773
 10
-127.0371383293857
 20
-102.0398777672411
 10
-127.5138894296207
 20
-102.6611918975973
 10
-128.1352035599769
 20
-103.1379429978323
 10
-128.8587391892407
 20
-103.4376412683335
 10
-129.6351885599769
 20
-103.5398627672411
 10
-130.4116379307131
 20
-103.4376412683335
 10
-131.1351735599769
 20
-103.1379429978323
 10
-131.7564876903332
 20
-102.6611918975973
 10
-132.2332387905682
 20
-102.0398777672411
 10
-132.5329370610694
 20
-101.3163421379773
 10
-132.6351585599769
 20
-100.5398927672411
 10
-132.5329370610694
 20
-99.76344339650488
 10
-132.2332387905682
 20
-99.03990776724112
 10
-131.7564876903332
 20
-98.41859363688489
 10
-131.1351735599769
 20
-97.9418425366499
 10
-130.4116379307131
 20
-97.6421442661487
 10
-129.6351885599769
 20
-97.53992276724112
 10
-128.8587391892407
 20
-97.6421442661487
 10
-128.1352035599769
 20
-97.9418425366499
 10
-127.5138894296208
 20
-98.41859363688489
 10
-127.0371383293857
 20
-99.03990776724112
 10
-126.7374400588845
 20
-99.76344339650488
  0
LWPOLYLINE
  5
56
100
AcDbEntity
  8
0
  6
ByLayer
 62
  256
370
   -1
100
AcDbPolyline
 90
   97
 70
    1
 43
0
 10
-138.552967551235
 20
-68.37098335733459
 10
-139.6165216999577
 20
-69.49485964229511
 10
-140.4772521006297
 20
-70.78070119883363
 10
-141.1109391808473
 20
-72.19232650872556
 10
-141.4997520029458
 20
-73.69001470075143
 10
-141.6327499979746
 20
-75.23162323227965
 10
-141.5641301910348
 20
-76.18757340267589
 10
-141.3557694628833
 20
-77.12306002104602
 10
-141.0121923625734
 20
-78.01776901414247
 10
-140.5408596599812
 20
-78.85227179403736
 10
-139.9520063353364
 20
-79.6084471495205
 10
-139.2584193268313
 20
-80.26987474783948
 10
-138.4751598625125
 20
-80.82219170189782
 10
-137.6192364060153
 20
-81.25340446006152
 10
-136.7092353181147
 20
-81.55414924589313
 10
-135.7649172542724
 20
-81.71789539237101
 10
-134.8067880623977
 20
-81.74108715519213
 10
-133.8556534987696
 20
-81.62322092568995
 10
-130.3755773330606
 20
-81.60783959303538
 10
-130.2163337253288
 20
-81.53415507049247
 10
-130.0586829389645
 20
-81.45712153867311
 10
-129.902695396432
 20
-81.37677340838677
 10
-129.7484407772261
 20
-81.29314657107069
 10
-129.5959879867463
 20
-81.20627838275797
 10
-129.4454051255167
 20
-81.11620764738993
 10
-129.2967594587658
 20
-81.02297459948311
 10
-129.150117386379
 20
-80.92662088615579
 10
-129.0055444132381
 20
-80.82718954852506
 10
-128.8631051199599
 20
-80.72472500247976
 10
-128.7228631340485
 20
-80.6192730188407
 10
-128.5848811014725
 20
-80.51088070291364
 10
-128.5182413795593
 20
-80.51328504143069
 10
-128.4515873248837
 20
-80.51525236847223
 10
-128.3849218032588
 20
-80.51678259945241
 10
-128.3182476809904
 20
-80.5178756685783
 10
-128.2515678247542
 20
-80.51853152885315
 10
-128.1848851014725
 20
-80.51875015207804
 10
-128.1182023781908
 20
-80.51853152885315
 10
-128.0515225219546
 20
-80.5178756685783
 10
-127.9848483996862
 20
-80.51678259945241
 10
-127.9181828780613
 20
-80.51525236847223
 10
-127.8515288233858
 20
-80.51328504143069
 10
-127.7848891014725
 20
-80.51088070291364
 10
-125.3752948829853
 20
-80.38912078780896
 10
-122.9690133160857
 20
-80.21368192241118
 10
-120.5672400669892
 20
-79.98465128119172
 10
-118.1711685617565
 20
-79.7021426680396
 10
-115.7819893932876
 20
-79.3662964597124
 10
-113.4008897297238
 20
-78.97727953608424
 10
-111.0290527245506
 20
-78.53528519722413
 10
-108.6676569286971
 20
-78.04053306734636
 10
-106.3178757049208
 20
-77.4932689856804
 10
-103.9808766447713
 20
-76.89376488431559
 10
-101.657820988421
 20
-76.24231865307907
 10
-99.34986304765286
 20
-75.53925399151646
 10
-98.89388378367335
 20
-75.11175996520383
 10
-98.54680664230591
 20
-74.59194683565397
 10
-98.32673981737743
 20
-74.00693502015103
 10
-98.2451649429275
 20
-73.3872465729692
 10
-98.30633805734604
 20
-72.76521274608793
 10
-98.5070675513888
 20
-72.1732871579152
 10
-98.83688068527634
 20
-71.64235257773849
 10
-99.27856998711482
 20
-71.20010966671143
 10
-99.80909102517505
 20
-70.86963174023566
 10
-100.4007647142007
 20
-70.66816095469358
 10
-101.0227214273389
 20
-70.60620872556069
 10
-101.6425115694677
 20
-70.68700731114359
 10
-103.618670059949
 20
-71.28634389831086
 10
-105.6248840246957
 20
-71.77574378784337
 10
-107.6550425236741
 20
-72.15371626467791
 10
-109.7029616816529
 20
-72.41911002233326
 10
-111.7624035243243
 20
-72.57111666979704
 10
-113.8270949792124
 20
-72.60927319388907
 10
-115.8907469834904
 20
-72.53346336960334
 10
-117.9470736405044
 20
-72.34391811412937
 10
-119.989811366653
 20
-72.04121478347685
 10
-122.0127379703017
 20
-71.62627541384657
 10
-124.0096916046165
 20
-71.10036391310166
 10
-125.9745895365871
 20
-70.46508221089682
 10
-126.1268282167961
 20
-70.13843805724765
 10
-126.2890919624719
 20
-69.81665630558321
 10
-126.4612256666098
 20
-69.50004454527625
 10
-126.6430647875669
 20
-69.18890542373342
 10
-126.834435506347
 20
-68.88353635709669
 10
-127.0351548927527
 20
-68.58422924594515
 10
-127.2450310802477
 20
-68.29127019626836
 10
-127.463863449361
 20
-68.00493924597976
 10
-127.6914428194578
 20
-67.72551009722937
 10
-127.9275516486938
 20
-67.45324985477421
 10
-128.1719642419629
 20
-67.18841877065378
 10
-128.4244469666373
 20
-66.93126999541673
 10
-129.8711550931897
 20
-66.38237936174795
 10
-131.3892584512329
 20
-66.08303420067082
 10
-132.93604004812
 20
-66.0416576047088
 10
-134.4679759315785
 20
-66.25941384488181
 10
-135.9419598838913
 20
-66.73017560998868
 10
-137.3165163616977
 20
-67.44069641931286
  0
LWPOLYLINE
  5
57
100
AcDbEntity
  8
0
  6
ByLayer
 62
  256
370
   -1
100
AcDbPolyline
 90
   97
 70
    1
 43
0
 10
-104.9307435516433
 20
-88.28881377598307
 10
-106.0546198366038
 20
-87.22525962726033
 10
-107.3404613931424
 20
-86.36452922658833
 10
-108.7520867030343
 20
-85.73084214637073
 10
-110.2497748950602
 20
-85.34202932427229
 10
-111.7913834265884
 20
-85.20903132924343
 10
-112.7473335969846
 20
-85.27765113618329
 10
-113.6828202153547
 20
-85.48601186433478
 10
-114.5775292084512
 20
-85.82958896464461
 10
-115.4120319883461
 20
-86.30092166723684
 10
-116.1682073438292
 20
-86.88977499188159
 10
-116.8296349421482
 20
-87.58336200038681
 10
-117.3819518962066
 20
-88.36662146470555
 10
-117.8131646543703
 20
-89.22254492120275
 10
-118.1139094402018
 20
-90.13254600910334
 10
-118.2776555866797
 20
-91.07686407294563
 10
-118.3008473495009
 20
-92.03499326482033
 10
-118.1829811199987
 20
-92.98612782844849
 10
-118.1675997873441
 20
-96.46620399415744
 10
-118.0939152648012
 20
-96.62544760188929
 10
-118.0168817329819
 20
-96.78309838825358
 10
-117.9365336026955
 20
-96.93908593078604
 10
-117.8529067653794
 20
-97.09334054999195
 10
-117.7660385770667
 20
-97.24579334047176
 10
-117.6759678416987
 20
-97.39637620170139
 10
-117.5827347937918
 20
-97.5450218684523
 10
-117.4863810804645
 20
-97.69166394083901
 10
-117.3869497428338
 20
-97.83623691397993
 10
-117.2844851967885
 20
-97.97867620725813
 10
-117.1790332131494
 20
-98.11891819316959
 10
-117.0706408972223
 20
-98.25690022574554
 10
-117.0730452357394
 20
-98.32353994765876
 10
-117.0750125627809
 20
-98.3901940023343
 10
-117.0765427937611
 20
-98.45685952395925
 10
-117.077635862887
 20
-98.52353364622765
 10
-117.0782917231619
 20
-98.59021350246385
 10
-117.0785103463868
 20
-98.65689622574556
 10
-117.0782917231619
 20
-98.72357894902721
 10
-117.077635862887
 20
-98.79025880526342
 10
-117.0765427937611
 20
-98.85693292753182
 10
-117.0750125627809
 20
-98.92359844915677
 10
-117.0730452357394
 20
-98.99025250383231
 10
-117.0706408972223
 20
-99.05689222574553
 10
-116.9488809821177
 20
-101.4664864442327
 10
-116.7734421167199
 20
-103.8727680111324
 10
-116.5444114755005
 20
-106.2745412602289
 10
-116.2619028623483
 20
-108.6706127654616
 10
-115.9260566540211
 20
-111.0597919339304
 10
-115.537039730393
 20
-113.4408915974943
 10
-115.0950453915328
 20
-115.8127286026674
 10
-114.6002932616551
 20
-118.1741243985209
 10
-114.0530291799891
 20
-120.5239056222972
 10
-113.4535250786243
 20
-122.8609046824468
 10
-112.8020788473878
 20
-125.183960338797
 10
-112.0990141858252
 20
-127.4919182795652
 10
-111.6715201595126
 20
-127.9478975435447
 10
-111.1517070299627
 20
-128.2949746849121
 10
-110.5666952144598
 20
-128.5150415098406
 10
-109.9470067672779
 20
-128.5966163842905
 10
-109.3249729403967
 20
-128.535443269872
 10
-108.7330473522239
 20
-128.3347137758292
 10
-108.2021127720472
 20
-128.0049006419417
 10
-107.7598698610201
 20
-127.5632113401032
 10
-107.4293919345444
 20
-127.032690302043
 10
-107.2279211490023
 20
-126.4410166130173
 10
-107.1659689198694
 20
-125.8190598998791
 10
-107.2467675054523
 20
-125.1992697577503
 10
-107.8461040926196
 20
-123.223111267269
 10
-108.3355039821521
 20
-121.2168973025223
 10
-108.7134764589867
 20
-119.1867388035439
 10
-108.978870216642
 20
-117.1388196455651
 10
-109.1308768641057
 20
-115.0793778028938
 10
-109.1690333881978
 20
-113.0146863480056
 10
-109.0932235639121
 20
-110.9510343437276
 10
-108.9036783084381
 20
-108.8947076867137
 10
-108.6009749777856
 20
-106.8519699605651
 10
-108.1860356081553
 20
-104.8290433569164
 10
-107.6601241074104
 20
-102.8320897226016
 10
-107.0248424052055
 20
-100.8671917906309
 10
-106.6981982515564
 20
-100.714953110422
 10
-106.3764164998919
 20
-100.5526893647462
 10
-106.059804739585
 20
-100.3805556606083
 10
-105.7486656180421
 20
-100.1987165396511
 10
-105.4432965514054
 20
-100.007345820871
 10
-105.1439894402539
 20
-99.8066264344654
 10
-104.8510303905771
 20
-99.59675024697036
 10
-104.5646994402885
 20
-99.37791787785702
 10
-104.2852702915381
 20
-99.15033850776028
 10
-104.013010049083
 20
-98.91422967852422
 10
-103.7481789649625
 20
-98.66981708525513
 10
-103.4910301897255
 20
-98.41733436058077
 10
-102.9421395560567
 20
-96.97062623402833
 10
-102.6427943949795
 20
-95.45252287598517
 10
-102.6014177990175
 20
-93.90574127909805
 10
-102.8191740391906
 20
-92.37380539563955
 10
-103.2899358042974
 20
-90.89982144332676
 10
-104.0004566136216
 20
-89.52526496552041
  0
LWPOLYLINE
  5
58
100
AcDbEntity
  8
0
  6
ByLayer
 62
  256
370
   -1
100
AcDbPolyline
 90
   63
 70
    1
 43
0
 10
-96.26399724965242
 20
-188.645388365586
 10
-95.91082104097762
 20
-187.5525794454551
 10
-95.73177101546801
 20
-186.4181607138322
 10
-95.73119815121018
 20
-185.2696989416699
 10
-95.90911636900542
 20
-184.1351021507048
 10
-96.26120219408949
 20
-183.0419414387934
 10
-96.77889981807785
 20
-182.0167809926151
 10
-97.44962900809418
 20
-181.084532568668
 10
-98.25709081081834
 20
-180.2678501288952
 10
-99.18166362273831
 20
-179.5865793415059
 10
-100.2008800019612
 20
-179.057275324314
 10
-101.2899726348896
 20
-178.6928003496
 10
-102.4224761905827
 20
-178.5020112864067
 10
-102.5504056076507
 20
-178.4729924616887
 10
-102.6791049377434
 20
-178.4476052528421
 10
-102.8084711093794
 20
-178.4258699917304
 10
-102.9384005170234
 20
-178.4078040854806
 10
-103.0687891040611
 20
-178.3934220025418
 10
-103.199532446135
 20
-178.3827352610983
 10
-103.330525834775
 20
-178.3757524198449
 10
-103.4616643612557
 20
-178.3724790711322
 10
-103.5928430006156
 20
-178.3729178364883
 10
-103.7239566957676
 20
-178.3770683645189
 10
-103.8549004416367
 20
-178.3849273311892
 10
-103.985569369255
 20
-178.3964884424855
 10
-104.9460812882046
 20
-178.8185728130449
 10
-105.843978046361
 20
-179.3612695736829
 10
-106.6641948797582
 20
-180.0154734475071
 10
-107.3929703254177
 20
-180.7702083096398
 10
-108.0180771089082
 20
-181.6128113428345
 10
-108.5290272915428
 20
-182.5291454921383
 10
-108.9172482352874
 20
-183.5038366540726
 10
-109.1762264330699
 20
-184.5205316208094
 10
-109.30161679133
 20
-185.5621724516
 10
-109.2913155312826
 20
-186.611282668096
 10
-109.1454954857729
 20
-187.6502604718253
 10
-108.8666031995144
 20
-188.6616740642692
 10
-108.5309427682445
 20
-189.530848103625
 10
-108.0703124417534
 20
-190.3407562083672
 10
-107.4948625539252
 20
-191.0735514474408
 10
-106.8172735735853
 20
-191.7130861294812
 10
-106.0524766808824
 20
-192.2452676292747
 10
-105.2173247475622
 20
-192.6583689292992
 10
-104.3302209713296
 20
-192.9432870333297
 10
-103.410713347618
 20
-193.0937435577702
 10
-102.4790639148844
 20
-193.1064230805344
 10
-101.5558022654318
 20
-192.9810461988514
 10
-100.6612731604831
 20
-192.7203756861151
 10
-99.81518821814564
 20
-192.3301556121053
 10
-99.65223263331833
 20
-192.2341561898854
 10
-99.49447699034258
 20
-192.1298318456398
 10
-99.3423461869227
 20
-192.0174635656681
 10
-99.19624997086802
 20
-191.897354001738
 10
-99.05658183648175
 20
-191.7698266559254
 10
-98.92371796472671
 20
-191.6352250092964
 10
-98.79801621002269
 20
-191.4939115967791
 10
-98.67981513640454
 20
-191.3462670307142
 10
-98.56943310563651
 20
-191.1926889757178
 10
-98.46716741973952
 20
-191.0335910776142
 10
-98.37329352024042
 20
-190.8694018493262
 10
-98.28806424630004
 20
-190.700563516722
 10
-97.27603074797622
 20
-189.672975941154
 10
-96.73727017490589
 20
-189.1259350852832
  0
LWPOLYLINE
  5
59
100
AcDbEntity
  8
0
  6
ByLayer
 62
  256
370
   -1
100
AcDbPolyline
 90
   24
 70
    1
 43
0
 10
-103.7101928106192
 20
-189.4599183308499
 10
-104.1869439108542
 20
-188.8386042004937
 10
-104.4866421813554
 20
-188.1150685712299
 10
-104.588863680263
 20
-187.3386192004937
 10
-104.4866421813554
 20
-186.5621698297575
 10
-104.1869439108542
 20
-185.8386342004937
 10
-103.7101928106192
 20
-185.2173200701375
 10
-103.088878680263
 20
-184.7405689699025
 10
-102.3653430509992
 20
-184.4408706994013
 10
-101.588893680263
 20
-184.3386492004937
 10
-100.8124443095268
 20
-184.4408706994013
 10
-100.088908680263
 20
-184.7405689699025
 10
-99.46759454990678
 20
-185.2173200701375
 10
-98.99084344967179
 20
-185.8386342004937
 10
-98.69114517917058
 20
-186.5621698297575
 10
-98.58892368026301
 20
-187.3386192004937
 10
-98.69114517917056
 20
-188.1150685712299
 10
-98.99084344967179
 20
-188.8386042004937
 10
-99.46759454990678
 20
-189.4599183308499
 10
-100.088908680263
 20
-189.9366694310849
 10
-100.8124443095268
 20
-190.2363677015861
 10
-101.588893680263
 20
-190.3385892004937
 10
-102.3653430509992
 20
-190.2363677015861
 10
-103.088878680263
 20
-189.9366694310849
  0
LWPOLYLINE
  5
5A
100
AcDbEntity
  8
0
  6
ByLayer
 62
  256
370
   -1
100
AcDbPolyline
 90
   63
 70
    1
 43
0
 10
-96.26399724965242
 20
-170.812233365586
 10
-95.91082104097762
 20
-169.7194244454551
 10
-95.73177101546801
 20
-168.5850057138322
 10
-95.73119815121018
 20
-167.4365439416699
 10
-95.90911636900542
 20
-166.3019471507048
 10
-96.26120219408949
 20
-165.2087864387934
 10
-96.77889981807785
 20
-164.1836259926151
 10
-97.44962900809418
 20
-163.251377568668
 10
-98.25709081081834
 20
-162.4346951288952
 10
-99.18166362273831
 20
-161.7534243415059
 10
-100.2008800019612
 20
-161.224120324314
 10
-101.2899726348896
 20
-160.8596453496
 10
-102.4224761905827
 20
-160.6688562864067
 10
-102.5504056076507
 20
-160.6398374616887
 10
-102.6791049377434
 20
-160.6144502528421
 10
-102.8084711093794
 20
-160.5927149917304
 10
-102.9384005170234
 20
-160.5746490854806
 10
-103.0687891040611
 20
-160.5602670025418
 10
-103.199532446135
 20
-160.5495802610984
 10
-103.330525834775
 20
-160.5425974198449
 10
-103.4616643612557
 20
-160.5393240711322
 10
-103.5928430006156
 20
-160.5397628364883
 10
-103.7239566957676
 20
-160.543913364519
 10
-103.8549004416367
 20
-160.5517723311892
 10
-103.985569369255
 20
-160.5633334424856
 10
-104.9460812882046
 20
-160.9854178130449
 10
-105.843978046361
 20
-161.5281145736829
 10
-106.6641948797582
 20
-162.1823184475071
 10
-107.3929703254177
 20
-162.9370533096398
 10
-108.0180771089082
 20
-163.7796563428345
 10
-108.5290272915428
 20
-164.6959904921383
 10
-108.9172482352874
 20
-165.6706816540726
 10
-109.1762264330699
 20
-166.6873766208094
 10
-109.30161679133
 20
-167.7290174516
 10
-109.2913155312826
 20
-168.7781276680959
 10
-109.1454954857729
 20
-169.8171054718253
 10
-108.8666031995144
 20
-170.8285190642692
 10
-108.5309427682445
 20
-171.697693103625
 10
-108.0703124417534
 20
-172.5076012083672
 10
-107.4948625539252
 20
-173.2403964474408
 10
-106.8172735735853
 20
-173.8799311294812
 10
-106.0524766808824
 20
-174.4121126292746
 10
-105.2173247475622
 20
-174.8252139292992
 10
-104.3302209713296
 20
-175.1101320333297
 10
-103.410713347618
 20
-175.2605885577702
 10
-102.4790639148844
 20
-175.2732680805344
 10
-101.5558022654318
 20
-175.1478911988514
 10
-100.6612731604831
 20
-174.8872206861151
 10
-99.81518821814564
 20
-174.4970006121053
 10
-99.65223263331833
 20
-174.4010011898854
 10
-99.49447699034258
 20
-174.2966768456398
 10
-99.3423461869227
 20
-174.1843085656681
 10
-99.19624997086802
 20
-174.064199001738
 10
-99.05658183648175
 20
-173.9366716559254
 10
-98.92371796472671
 20
-173.8020700092964
 10
-98.79801621002269
 20
-173.6607565967791
 10
-98.67981513640454
 20
-173.5131120307142
 10
-98.56943310563651
 20
-173.3595339757178
 10
-98.46716741973952
 20
-173.2004360776142
 10
-98.37329352024042
 20
-173.0362468493262
 10
-98.28806424630004
 20
-172.867408516722
 10
-97.27603074797622
 20
-171.839820941154
 10
-96.73727017490589
 20
-171.2927800852833
  0
LWPOLYLINE
  5
5B
100
AcDbEntity
  8
0
  6
ByLayer
 62
  256
370
   -1
100
AcDbPolyline
 90
   24
 70
    1
 43
0
 10
-103.7101928106192
 20
-171.6267633308499
 10
-104.1869439108542
 20
-171.0054492004937
 10
-104.4866421813554
 20
-170.2819135712299
 10
-104.588863680263
 20
-169.5054642004937
 10
-104.4866421813554
 20
-168.7290148297575
 10
-104.1869439108542
 20
-168.0054792004937
 10
-103.7101928106192
 20
-167.3841650701375
 10
-103.088878680263
 20
-166.9074139699025
 10
-102.3653430509992
 20
-166.6077156994013
 10
-101.588893680263
 20
-166.5054942004937
 10
-100.8124443095268
 20
-166.6077156994013
 10
-100.088908680263
 20
-166.9074139699025
 10
-99.46759454990678
 20
-167.3841650701375
 10
-98.99084344967179
 20
-168.0054792004937
 10
-98.69114517917058
 20
-168.7290148297575
 10
-98.58892368026301
 20
-169.5054642004937
 10
-98.69114517917056
 20
-170.2819135712299
 10
-98.99084344967179
 20
-171.0054492004937
 10
-99.46759454990678
 20
-171.6267633308499
 10
-100.088908680263
 20
-172.1035144310849
 10
-100.8124443095268
 20
-172.4032127015861
 10
-101.588893680263
 20
-172.5054342004937
 10
-102.3653430509992
 20
-172.4032127015861
 10
-103.088878680263
 20
-172.1035144310849
  0
LWPOLYLINE
  5
5C
100
AcDbEntity
  8
0
  6
ByLayer
 62
  256
370
   -1
100
AcDbPolyline
 90
    4
 70
    1
 43
0
 10
-62.87335424436027
 20
-163.8725495085073
 10
-62.87335424436027
 20
-193.2055895085073
 10
-92.2063942443603
 20
-193.2055895085073
 10
-92.2063942443603
 20
-163.8725495085073
  0
LWPOLYLINE
  5
5D
100
AcDbEntity
  8
0
  6
ByLayer
 62
  256
370
   -1
100
AcDbPolyline
 90
    4
 70
    1
 43
0
 10
-64.48969601842278
 20
-172.9126291670477
 10
-64.48969601842278
 20
-187.9124791670477
 10
-79.48954601842277
 20
-187.9124791670477
 10
-79.4895460184228
 20
-172.9126291670477
  0
LWPOLYLINE
  5
5E
100
AcDbEntity
  8
0
  6
ByLayer
 62
  256
370
   -1
100
AcDbPolyline
 90
    4
 70
    1
 43
0
 10
-62.87335424436027
 20
-131.5395395085073
 10
-62.87335424436027
 20
-160.8725795085073
 10
-92.2063942443603
 20
-160.8725795085073
 10
-92.2063942443603
 20
-131.5395395085073
  0
LWPOLYLINE
  5
5F
100
AcDbEntity
  8
0
  6
ByLayer
 62
  256
370
   -1
100
AcDbPolyline
 90
    4
 70
    1
 43
0
 10
-64.48969601842278
 20
-140.5796191670477
 10
-64.48969601842278
 20
-155.5794691670476
 10
-79.48954601842277
 20
-155.5794691670476
 10
-79.4895460184228
 20
-140.5796191670477
  0
LWPOLYLINE
  5
60
100
AcDbEntity
  8
0
  6
ByLayer
 62
  256
370
   -1
100
AcDbPolyline
 90
    4
 70
    1
 43
0
 10
-71.8732642443603
 20
-108.2064395085073
 10
-71.8732642443603
 20
-128.5395695085073
 10
-92.2063942443603
 20
-128.5395695085073
 10
-92.2063942443603
 20
-108.2064395085073
  0
LWPOLYLINE
  5
61
100
AcDbEntity
  8
0
  6
ByLayer
 62
  256
370
   -1
100
AcDbPolyline
 90
   24
 70
    1
 43
0
 10
-77.20654424436032
 20
-123.8729495085072
 10
-77.3087657432679
 20
-124.6493988792435
 10
-77.60846401376908
 20
-125.3729345085073
 10
-78.08521511400409
 20
-125.9942486388635
 10
-78.70652924436031
 20
-126.4709997390985
 10
-79.4300648736241
 20
-126.7706980095997
 10
-80.20651424436031
 20
-126.8729195085073
 10
-80.98296361509654
 20
-126.7706980095997
 10
-81.70649924436032
 20
-126.4709997390985
 10
-82.3278133747165
 20
-125.9942486388635
 10
-82.8045644749515
 20
-125.3729345085073
 10
-83.10426274545273
 20
-124.6493988792435
 10
-83.20648424436031
 20
-123.8729495085072
 10
-83.10426274545273
 20
-123.096500137771
 10
-82.8045644749515
 20
-122.3729645085073
 10
-82.32781337471653
 20
-121.7516503781511
 10
-81.70649924436032
 20
-121.274899277916
 10
-80.98296361509654
 20
-120.9752010074148
 10
-80.20651424436031
 20
-120.8729795085073
 10
-79.4300648736241
 20
-120.9752010074148
 10
-78.70652924436031
 20
-121.274899277916
 10
-78.08521511400411
 20
-121.751650378151
 10
-77.60846401376908
 20
-122.3729645085072
 10
-77.3087657432679
 20
-123.096500137771
  0
LWPOLYLINE
  5
62
100
AcDbEntity
  8
0
  6
ByLayer
 62
  256
370
   -1
100
AcDbPolyline
 90
    4
 70
    1
 43
0
 10
-71.8732642443603
 20
-84.87333950850729
 10
-71.8732642443603
 20
-105.2064695085072
 10
-92.2063942443603
 20
-105.2064695085072
 10
-92.20639424436033
 20
-84.87333950850729
  0
LWPOLYLINE
  5
63
100
AcDbEntity
  8
0
  6
ByLayer
 62
  256
370
   -1
100
AcDbPolyline
 90
   24
 70
    1
 43
0
 10
-77.20654424436032
 20
-100.5398495085072
 10
-77.3087657432679
 20
-101.3162988792435
 10
-77.60846401376908
 20
-102.0398345085072
 10
-78.08521511400409
 20
-102.6611486388635
 10
-78.70652924436031
 20
-103.1378997390985
 10
-79.4300648736241
 20
-103.4375980095997
 10
-80.20651424436031
 20
-103.5398195085073
 10
-80.98296361509654
 20
-103.4375980095997
 10
-81.70649924436032
 20
-103.1378997390985
 10
-82.3278133747165
 20
-102.6611486388635
 10
-82.8045644749515
 20
-102.0398345085072
 10
-83.10426274545273
 20
-101.3162988792435
 10
-83.20648424436031
 20
-100.5398495085072
 10
-83.10426274545273
 20
-99.76340013777104
 10
-82.8045644749515
 20
-99.03986450850724
 10
-82.32781337471653
 20
-98.41855037815105
 10
-81.70649924436032
 20
-97.94179927791606
 10
-80.98296361509654
 20
-97.64210100741482
 10
-80.20651424436031
 20
-97.53987950850724
 10
-79.4300648736241
 20
-97.64210100741482
 10
-78.70652924436031
 20
-97.94179927791606
 10
-78.08521511400413
 20
-98.41855037815102
 10
-77.60846401376908
 20
-99.03986450850724
 10
-77.3087657432679
 20
-99.76340013777104
  0
LWPOLYLINE
  5
64
100
AcDbEntity
  8
0
  6
ByLayer
 62
  256
370
   -1
100
AcDbPolyline
 90
   97
 70
    1
 43
0
 10
-89.12429323561832
 20
-68.37094009860071
 10
-90.18784738434108
 20
-69.49481638356127
 10
-91.04857778501307
 20
-70.78065794009979
 10
-91.68226486523069
 20
-72.19228324999172
 10
-92.07107768732914
 20
-73.68997144201758
 10
-92.204075682358
 20
-75.23157997354581
 10
-92.13545587541813
 20
-76.18753014394206
 10
-91.92709514726664
 20
-77.12301676231213
 10
-91.58351804695678
 20
-78.01772575540863
 10
-91.11218534436458
 20
-78.85222853530352
 10
-90.52333201971982
 20
-79.60840389078665
 10
-89.82974501121461
 20
-80.26983148910564
 10
-89.04648554689587
 20
-80.82214844316398
 10
-88.19056209039866
 20
-81.25336120132768
 10
-87.28056100249808
 20
-81.55410598715926
 10
-86.33624293865579
 20
-81.71785213363717
 10
-85.37811374678108
 20
-81.74104389645829
 10
-84.42697918315292
 20
-81.62317766695611
 10
-80.94690301744396
 20
-81.60779633430154
 10
-80.78765940971212
 20
-81.53411181175863
 10
-80.63000862334785
 20
-81.45707827993927
 10
-80.47402108081536
 20
-81.37673014965293
 10
-80.31976646160948
 20
-81.29310331233681
 10
-80.16731367112965
 20
-81.20623512402413
 10
-80.01673080990003
 20
-81.11616438865605
 10
-79.86808514314913
 20
-81.02293134074927
 10
-79.72144307076239
 20
-80.92657762742192
 10
-79.57687009762151
 20
-80.82714628979122
 10
-79.43443080434329
 20
-80.72468174374592
 10
-79.29418881843183
 20
-80.61922976010682
 10
-79.15620678585589
 20
-80.51083744417976
 10
-79.08956706394265
 20
-80.51324178269682
 10
-79.02291300926711
 20
-80.51520910973836
 10
-78.95624748764217
 20
-80.51673934071857
 10
-78.88957336537376
 20
-80.51783240984446
 10
-78.82289350913757
 20
-80.51848827011931
 10
-78.75621078585587
 20
-80.51870689334416
 10
-78.6895280625742
 20
-80.51848827011931
 10
-78.62284820633801
 20
-80.51783240984446
 10
-78.5561740840696
 20
-80.51673934071857
 10
-78.48950856244466
 20
-80.51520910973836
 10
-78.42285450776912
 20
-80.51324178269682
 10
-78.35621478585588
 20
-80.51083744417976
 10
-75.94662056736871
 20
-80.38907752907512
 10
-73.54033900046906
 20
-80.21363866367734
 10
-71.13856575137252
 20
-79.98460802245788
 10
-68.74249424613983
 20
-79.70209940930576
 10
-66.35331507767101
 20
-79.36625320097853
 10
-63.97221541410711
 20
-78.9772362773504
 10
-61.60037840893396
 20
-78.53524193849024
 10
-59.23898261308049
 20
-78.04048980861252
 10
-56.8892013893042
 20
-77.49322572694656
 10
-54.55220232915464
 20
-76.89372162558173
 10
-52.2291466728044
 20
-76.24227539434523
 10
-49.92118873203621
 20
-75.53921073278262
 10
-49.46520946805673
 20
-75.11171670646995
 10
-49.11813232668929
 20
-74.59190357692013
 10
-48.8980655017608
 20
-74.00689176141719
 10
-48.81649062731087
 20
-73.38720331423536
 10
-48.87766374172942
 20
-72.76516948735409
 10
-49.07839323577217
 20
-72.17324389918136
 10
-49.40820636965972
 20
-71.64230931900461
 10
-49.84989567149819
 20
-71.20006640797754
 10
-50.38041670955842
 20
-70.86958848150179
 10
-50.9720903985841
 20
-70.66811769595969
 10
-51.5940471117223
 20
-70.60616546682681
 10
-52.21383725385108
 20
-70.68696405240975
 10
-54.18999574433241
 20
-71.28630063957701
 10
-56.19620970907908
 20
-71.77570052910953
 10
-58.22636820805749
 20
-72.15367300594407
 10
-60.27428736603626
 20
-72.41906676359942
 10
-62.33372920870765
 20
-72.57107341106315
 10
-64.3984206635958
 20
-72.60922993515523
 10
-66.4620726678738
 20
-72.53342011086949
 10
-68.51839932488775
 20
-72.34387485539548
 10
-70.56113705103634
 20
-72.04117152474299
 10
-72.58406365468504
 20
-71.62623215511273
 10
-74.58101728899983
 20
-71.10032065436779
 10
-76.5459152209705
 20
-70.46503895216298
 10
-76.69815390117942
 20
-70.13839479851381
 10
-76.86041764685524
 20
-69.81661304684935
 10
-77.03255135099316
 20
-69.50000128654241
 10
-77.2143904719503
 20
-69.18886216499956
 10
-77.40576119073037
 20
-68.88349309836283
 10
-77.60648057713603
 20
-68.58418598721131
 10
-77.81635676463107
 20
-68.29122693753449
 10
-78.03518913374441
 20
-68.00489598724592
 10
-78.26276850384114
 20
-67.72546683849554
 10
-78.49887733307719
 20
-67.45320659604037
 10
-78.74328992634628
 20
-67.18837551191994
 10
-78.99577265102066
 20
-66.93122673668289
 10
-80.44248077757308
 20
-66.38233610301408
 10
-81.96058413561624
 20
-66.08299094193697
 10
-83.50736573250336
 20
-66.04161434597495
 10
-85.03930161596188
 20
-66.25937058614797
 10
-86.51328556827465
 20
-66.73013235125484
 10
-87.88784204608102
 20
-67.44065316057898
  0
LWPOLYLINE
  5
65
100
AcDbEntity
  8
0
  6
ByLayer
 62
  256
370
   -1
100
AcDbPolyline
 90
   97
 70
    1
 43
0
 10
-55.5020692360267
 20
-88.28877051724923
 10
-56.62594552098722
 20
-87.22521636852649
 10
-57.91178707752573
 20
-86.36448596785449
 10
-59.32341238741763
 20
-85.73079888763685
 10
-60.82110057944355
 20
-85.34198606553844
 10
-62.36270911097175
 20
-85.20898807050959
 10
-63.31865928136803
 20
-85.27760787744941
 10
-64.25414589973809
 20
-85.48596860560095
 10
-65.14885489283459
 20
-85.82954570591077
 10
-65.98335767272947
 20
-86.300878408503
 10
-66.73953302821261
 20
-86.88973173314773
 10
-67.40096062653163
 20
-87.58331874165293
 10
-67.95327758058993
 20
-88.36657820597171
 10
-68.38449033875362
 20
-89.2225016624689
 10
-68.6852351245852
 20
-90.1325027503695
 10
-68.84898127106311
 20
-91.07682081421179
 10
-68.87217303388424
 20
-92.03495000608646
 10
-68.75430680438203
 20
-92.98608456971463
 10
-68.7389254717275
 20
-96.4661607354236
 10
-68.66524094918458
 20
-96.62540434315545
 10
-68.58820741736523
 20
-96.7830551295197
 10
-68.50785928707887
 20
-96.9390426720522
 10
-68.42423244976278
 20
-97.09329729125807
 10
-68.33736426145008
 20
-97.24575008173792
 10
-68.24729352608203
 20
-97.39633294296755
 10
-68.1540604781752
 20
-97.54497860971841
 10
-68.05770676484786
 20
-97.69162068210517
 10
-67.95827542721715
 20
-97.83619365524605
 10
-67.85581088117188
 20
-97.97863294852425
 10
-67.75035889753279
 20
-98.11887493443571
 10
-67.64196658160571
 20
-98.2568569670117
 10
-67.64437092012277
 20
-98.32349668892492
 10
-67.64633824716431
 20
-98.39015074360046
 10
-67.64786847814452
 20
-98.45681626522537
 10
-67.64896154727037
 20
-98.52349038749381
 10
-67.64961740754525
 20
-98.59017024372997
 10
-67.6498360307701
 20
-98.65685296701167
 10
-67.64961740754525
 20
-98.72353569029337
 10
-67.64896154727037
 20
-98.79021554652955
 10
-67.64786847814452
 20
-98.85688966879798
 10
-67.64633824716431
 20
-98.92355519042289
 10
-67.64437092012277
 20
-98.99020924509843
 10
-67.64196658160571
 20
-99.05684896701165
 10
-67.52020666650107
 20
-101.4664431854988
 10
-67.34476780110326
 20
-103.8727247523985
 10
-67.11573715988382
 20
-106.274498001495
 10
-66.8332285467317
 20
-108.6705695067277
 10
-66.49738233840448
 20
-111.0597486751966
 10
-66.10836541477634
 20
-113.4408483387604
 10
-65.66637107591622
 20
-115.8126853439336
 10
-65.17161894603849
 20
-118.1740811397871
 10
-64.62435486437251
 20
-120.5238623635634
 10
-64.02485076300769
 20
-122.8608614237129
 10
-63.37340453177117
 20
-125.1839170800632
 10
-62.67033987020857
 20
-127.4918750208313
 10
-62.24284584389592
 20
-127.9478542848108
 10
-61.7230327143461
 20
-128.2949314261783
 10
-61.13802089884315
 20
-128.5149982511068
 10
-60.51833245166129
 20
-128.5965731255567
 10
-59.89629862478
 20
-128.5354000111382
 10
-59.30437303660732
 20
-128.3346705170954
 10
-58.77343845643057
 20
-128.0048573832078
 10
-58.33119554540352
 20
-127.5631680813694
 10
-58.00071761892775
 20
-127.0326470433091
 10
-57.79924683338565
 20
-126.4409733542835
 10
-57.73729460425278
 20
-125.8190166411453
 10
-57.81809318983568
 20
-125.1992264990165
 10
-58.41742977700294
 20
-123.2230680085352
 10
-58.90682966653547
 20
-121.2168540437885
 10
-59.28480214337
 20
-119.1866955448101
 10
-59.55019590102539
 20
-117.1387763868313
 10
-59.70220254848911
 20
-115.0793345441599
 10
-59.74035907258119
 20
-113.0146430892718
 10
-59.66454924829544
 20
-110.9509910849938
 10
-59.47500399282146
 20
-108.8946644279798
 10
-59.17230066216896
 20
-106.8519267018312
 10
-58.7573612925387
 20
-104.8290000981825
 10
-58.23144979179376
 20
-102.8320464638677
 10
-57.59616808958891
 20
-100.867148531897
 10
-57.26952393593977
 20
-100.7149098516881
 10
-56.9477421842753
 20
-100.5526461060123
 10
-56.63113042396837
 20
-100.3805124018744
 10
-56.31999130242549
 20
-100.1986732809172
 10
-56.01462223578876
 20
-100.0073025621372
 10
-55.71531512463724
 20
-99.80658317573152
 10
-55.42235607496048
 20
-99.59670698823648
 10
-55.13602512467183
 20
-99.37787461912315
 10
-54.85659597592146
 20
-99.1502952490264
 10
-54.58433573346636
 20
-98.91418641979038
 10
-54.31950464934589
 20
-98.66977382652129
 10
-54.06235587410885
 20
-98.41729110184689
 10
-53.51346524044003
 20
-96.97058297529449
 10
-53.21412007936291
 20
-95.45247961725133
 10
-53.17274348340091
 20
-93.90569802036418
 10
-53.39049972357394
 20
-92.37376213690567
 10
-53.86126148868081
 20
-90.89977818459292
 10
-54.57178229800492
 20
-89.52522170678652
  0
LWPOLYLINE
  5
66
100
AcDbEntity
  8
0
  6
ByLayer
 62
  256
370
   -1
100
AcDbPolyline
 90
   63
 70
    1
 43
0
 10
-46.83532293403579
 20
-188.6453451068522
 10
-46.48214672536101
 20
-187.5525361867212
 10
-46.30309669985138
 20
-186.4181174550984
 10
-46.30252383559353
 20
-185.269655682936
 10
-46.48044205338878
 20
-184.135058891971
 10
-46.83252787847286
 20
-183.0418981800596
 10
-47.35022550246121
 20
-182.0167377338812
 10
-48.02095469247755
 20
-181.0844893099342
 10
-48.82841649520171
 20
-180.2678068701614
 10
-49.75298930712169
 20
-179.5865360827721
 10
-50.77220568634462
 20
-179.0572320655801
 10
-51.861298319273
 20
-178.6927570908661
 10
-52.99380187496608
 20
-178.5019680276728
 10
-53.12173129203404
 20
-178.4729492029549
 10
-53.25043062212676
 20
-178.4475619941082
 10
-53.37979679376274
 20
-178.4258267329965
 10
-53.50972620140674
 20
-178.4077608267467
 10
-53.64011478844442
 20
-178.393378743808
 10
-53.77085813051839
 20
-178.3826920023645
 10
-53.90185151915831
 20
-178.375709161111
 10
-54.03299004563911
 20
-178.3724358123984
 10
-54.16416868499896
 20
-178.3728745777544
 10
-54.29528238015097
 20
-178.3770251057851
 10
-54.42622612602
 20
-178.3848840724554
 10
-54.55689505363839
 20
-178.3964451837517
 10
-55.51740697258799
 20
-178.818529554311
 10
-56.41530373074434
 20
-179.3612263149491
 10
-57.23552056414157
 20
-180.0154301887733
 10
-57.96429600980109
 20
-180.770165050906
 10
-58.58940279329161
 20
-181.6127680841006
 10
-59.10035297592619
 20
-182.5291022334044
 10
-59.48857391967073
 20
-183.5037933953387
 10
-59.74755211745328
 20
-184.5204883620756
 10
-59.87294247571333
 20
-185.5621291928662
 10
-59.86264121566599
 20
-186.6112394093621
 10
-59.71682117015627
 20
-187.6502172130914
 10
-59.43792888389778
 20
-188.6616308055353
 10
-59.1022684526279
 20
-189.5308048448912
 10
-58.64163812613673
 20
-190.3407129496334
 10
-58.06618823830856
 20
-191.073508188707
 10
-57.38859925796865
 20
-191.7130428707474
 10
-56.62380236526576
 20
-192.2452243705408
 10
-55.78865043194553
 20
-192.6583256705653
 10
-54.90154665571295
 20
-192.9432437745958
 10
-53.98203903200137
 20
-193.0937002990364
 10
-53.05038959926773
 20
-193.1063798218006
 10
-52.12712794981516
 20
-192.9810029401175
 10
-51.23259884486649
 20
-192.7203324273812
 10
-50.38651390252897
 20
-192.3301123533714
 10
-50.22355831770169
 20
-192.2341129311515
 10
-50.06580267472596
 20
-192.1297885869059
 10
-49.91367187130606
 20
-192.0174203069343
 10
-49.76757565525139
 20
-191.8973107430042
 10
-49.62790752086512
 20
-191.7697833971915
 10
-49.49504364911007
 20
-191.6351817505626
 10
-49.36934189440609
 20
-191.4938683380452
 10
-49.2511408207879
 20
-191.3462237719804
 10
-49.14075879001989
 20
-191.1926457169839
 10
-49.03849310412291
 20
-191.0335478188803
 10
-48.94461920462379
 20
-190.8693585905924
 10
-48.85938993068342
 20
-190.7005202579882
 10
-47.8473564323596
 20
-189.6729326824202
 10
-47.30859585928926
 20
-189.1258918265494
  0
LWPOLYLINE
  5
67
100
AcDbEntity
  8
0
  6
ByLayer
 62
  256
370
   -1
100
AcDbPolyline
 90
   24
 70
    1
 43
0
 10
-54.28151849500254
 20
-189.459875072116
 10
-54.75826959523756
 20
-188.8385609417599
 10
-55.05796786573876
 20
-188.1150253124961
 10
-55.16018936464637
 20
-187.3385759417598
 10
-55.05796786573876
 20
-186.5621265710236
 10
-54.75826959523755
 20
-185.8385909417599
 10
-54.28151849500254
 20
-185.2172768114037
 10
-53.66020436464636
 20
-184.7405257111687
 10
-52.93666873538258
 20
-184.4408274406674
 10
-52.16021936464637
 20
-184.3386059417599
 10
-51.38376999391015
 20
-184.4408274406674
 10
-50.66023436464634
 20
-184.7405257111687
 10
-50.03892023429016
 20
-185.2172768114037
 10
-49.56216913405513
 20
-185.8385909417598
 10
-49.26247086355394
 20
-186.5621265710236
 10
-49.16024936464635
 20
-187.3385759417598
 10
-49.26247086355393
 20
-188.1150253124961
 10
-49.56216913405517
 20
-188.8385609417599
 10
-50.03892023429012
 20
-189.4598750721161
 10
-50.66023436464634
 20
-189.936626172351
 10
-51.38376999391015
 20
-190.2363244428523
 10
-52.16021936464637
 20
-190.3385459417598
 10
-52.93666873538258
 20
-190.2363244428523
 10
-53.66020436464636
 20
-189.9366261723511
  0
LWPOLYLINE
  5
68
100
AcDbEntity
  8
0
  6
ByLayer
 62
  256
370
   -1
100
AcDbPolyline
 90
   63
 70
    1
 43
0
 10
-46.83532293403579
 20
-170.8121901068522
 10
-46.48214672536101
 20
-169.7193811867212
 10
-46.30309669985138
 20
-168.5849624550984
 10
-46.30252383559353
 20
-167.436500682936
 10
-46.48044205338878
 20
-166.3019038919709
 10
-46.83252787847286
 20
-165.2087431800596
 10
-47.35022550246121
 20
-164.1835827338812
 10
-48.02095469247755
 20
-163.2513343099342
 10
-48.82841649520171
 20
-162.4346518701614
 10
-49.75298930712169
 20
-161.7533810827721
 10
-50.77220568634462
 20
-161.2240770655802
 10
-51.861298319273
 20
-160.8596020908661
 10
-52.99380187496608
 20
-160.6688130276728
 10
-53.12173129203404
 20
-160.6397942029548
 10
-53.25043062212676
 20
-160.6144069941082
 10
-53.37979679376274
 20
-160.5926717329966
 10
-53.50972620140674
 20
-160.5746058267467
 10
-53.64011478844442
 20
-160.560223743808
 10
-53.77085813051839
 20
-160.5495370023645
 10
-53.90185151915831
 20
-160.542554161111
 10
-54.03299004563911
 20
-160.5392808123983
 10
-54.16416868499896
 20
-160.5397195777544
 10
-54.29528238015097
 20
-160.5438701057851
 10
-54.42622612602
 20
-160.5517290724554
 10
-54.55689505363839
 20
-160.5632901837517
 10
-55.51740697258799
 20
-160.985374554311
 10
-56.41530373074434
 20
-161.5280713149491
 10
-57.23552056414157
 20
-162.1822751887732
 10
-57.96429600980109
 20
-162.9370100509059
 10
-58.58940279329161
 20
-163.7796130841006
 10
-59.10035297592619
 20
-164.6959472334044
 10
-59.48857391967073
 20
-165.6706383953387
 10
-59.74755211745328
 20
-166.6873333620755
 10
-59.87294247571333
 20
-167.7289741928662
 10
-59.86264121566599
 20
-168.7780844093621
 10
-59.71682117015627
 20
-169.8170622130914
 10
-59.43792888389778
 20
-170.8284758055353
 10
-59.1022684526279
 20
-171.6976498448911
 10
-58.64163812613673
 20
-172.5075579496334
 10
-58.06618823830856
 20
-173.240353188707
 10
-57.38859925796865
 20
-173.8798878707474
 10
-56.62380236526576
 20
-174.4120693705408
 10
-55.78865043194553
 20
-174.8251706705653
 10
-54.90154665571295
 20
-175.1100887745958
 10
-53.98203903200137
 20
-175.2605452990364
 10
-53.05038959926773
 20
-175.2732248218006
 10
-52.12712794981516
 20
-175.1478479401175
 10
-51.23259884486649
 20
-174.8871774273813
 10
-50.38651390252897
 20
-174.4969573533714
 10
-50.22355831770169
 20
-174.4009579311515
 10
-50.06580267472596
 20
-174.2966335869059
 10
-49.91367187130606
 20
-174.1842653069343
 10
-49.76757565525139
 20
-174.0641557430042
 10
-49.62790752086512
 20
-173.9366283971915
 10
-49.49504364911007
 20
-173.8020267505626
 10
-49.36934189440609
 20
-173.6607133380452
 10
-49.2511408207879
 20
-173.5130687719804
 10
-49.14075879001989
 20
-173.3594907169839
 10
-49.03849310412291
 20
-173.2003928188803
 10
-48.94461920462379
 20
-173.0362035905924
 10
-48.85938993068342
 20
-172.8673652579882
 10
-47.8473564323596
 20
-171.8397776824202
 10
-47.30859585928926
 20
-171.2927368265494
  0
LWPOLYLINE
  5
69
100
AcDbEntity
  8
0
  6
ByLayer
 62
  256
370
   -1
100
AcDbPolyline
 90
   24
 70
    1
 43
0
 10
-54.28151849500254
 20
-171.6267200721161
 10
-54.75826959523756
 20
-171.0054059417598
 10
-55.05796786573876
 20
-170.2818703124961
 10
-55.16018936464637
 20
-169.5054209417598
 10
-55.05796786573876
 20
-168.7289715710236
 10
-54.75826959523755
 20
-168.0054359417599
 10
-54.28151849500254
 20
-167.3841218114036
 10
-53.66020436464636
 20
-166.9073707111687
 10
-52.93666873538258
 20
-166.6076724406674
 10
-52.16021936464637
 20
-166.5054509417598
 10
-51.38376999391015
 20
-166.6076724406674
 10
-50.66023436464634
 20
-166.9073707111686
 10
-50.03892023429016
 20
-167.3841218114036
 10
-49.56216913405513
 20
-168.0054359417599
 10
-49.26247086355394
 20
-168.7289715710236
 10
-49.16024936464635
 20
-169.5054209417598
 10
-49.26247086355393
 20
-170.2818703124961
 10
-49.56216913405517
 20
-171.0054059417598
 10
-50.03892023429012
 20
-171.6267200721161
 10
-50.66023436464634
 20
-172.103471172351
 10
-51.38376999391015
 20
-172.4031694428523
 10
-52.16021936464637
 20
-172.5053909417599
 10
-52.93666873538258
 20
-172.4031694428523
 10
-53.66020436464636
 20
-172.1034711723511
  0
ENDSEC
  0
SECTION
  2
OBJECTS
  0
DICTIONARY
  5
C
330
0
100
AcDbDictionary
281
    1
  3
ACAD_GROUP
350
D
  0
DICTIONARY
  5
D
330
C
100
AcDbDictionary
281
    1
  0
PLOTSETTINGS
  5
6A
100
AcDbPlotSettings
  6
1x1
 40
0
 41
0
 42
0
 43
0
  0
ENDSEC
  0
EOF
