999
dxfrw 0.6.3
  0
SECTION
  2
HEADER
  9
$ACADVER
  1
AC1021
  9
$DWGCODEPAGE
  3
ANSI_1252
  9
$INSBASE
 10
0
 20
0
 30
0
  9
$EXTMIN
 10
-17.30760862109982
 20
-15.73967695199289
 30
0
  9
$EXTMAX
 10
32
 20
60
 30
0
  9
$LIMMIN
 10
0
 20
0
  9
$LIMMAX
 10
420
 20
297
  9
$ORTHOMODE
 70
    0
  9
$REGENMODE
 70
    1
  9
$FILLMODE
 70
    1
  9
$QTEXTMODE
 70
    0
  9
$MIRRTEXT
 70
    0
  9
$LTSCALE
 40
1
  9
$ATTMODE
 70
    0
  9
$TEXTSIZE
 40
2.5
  9
$TRACEWID
 40
15.68
  9
$TEXTSTYLE
  7
STANDARD
  9
$CLAYER
  8
0
  9
$CELTYPE
  6
BYLAYER
  9
$CECOLOR
 62
  256
  9
$CELTSCALE
 40
1
  9
$DISPSILH
 70
    0
  9
$DIMSCALE
 40
2.5
  9
$DIMASZ
 40
2.5
  9
$DIMEXO
 40
0.625
  9
$DIMDLI
 40
3.75
  9
$DIMRND
 40
0
  9
$DIMDLE
 40
0
  9
$DIMEXE
 40
1.25
  9
$DIMTP
 40
0
  9
$DIMTM
 40
0
  9
$DIMTXT
 40
2.5
  9
$DIMCEN
 40
2.5
  9
$DIMTSZ
 40
0
  9
$DIMTOL
 70
    0
  9
$DIMLIM
 70
    0
  9
$DIMTIH
 70
    0
  9
$DIMTOH
 70
    0
  9
$DIMSE1
 70
    0
  9
$DIMSE2
 70
    0
  9
$DIMTAD
 70
    1
  9
$DIMZIN
 70
    8
  9
$DIMBLK
  1

  9
$DIMASO
 70
    1
  9
$DIMSHO
 70
    1
  9
$DIMPOST
  1

  9
$DIMAPOST
  1

  9
$DIMALT
 70
    0
  9
$DIMALTD
 70
    3
  9
$DIMALTF
 40
0.03937
  9
$DIMLFAC
 40
1
  9
$DIMTOFL
 70
    1
  9
$DIMTVP
 40
0
  9
$DIMTIX
 70
    0
  9
$DIMSOXD
 70
    0
  9
$DIMSAH
 70
    0
  9
$DIMBLK1
  1

  9
$DIMBLK2
  1

  9
$DIMSTYLE
  2
STANDARD
  9
$DIMCLRD
 70
    0
  9
$DIMCLRE
 70
    0
  9
$DIMCLRT
 70
    0
  9
$DIMTFAC
 40
1
  9
$DIMGAP
 40
0.625
  9
$DIMJUST
 70
    0
  9
$DIMSD1
 70
    0
  9
$DIMSD2
 70
    0
  9
$DIMTOLJ
 70
    0
  9
$DIMTZIN
 70
    8
  9
$DIMALTZ
 70
    0
  9
$DIMALTTZ
 70
    0
  9
$DIMUPT
 70
    0
  9
$DIMDEC
 70
    2
  9
$DIMTDEC
 70
    2
  9
$DIMALTU
 70
    2
  9
$DIMALTTD
 70
    3
  9
$DIMTXSTY
  7
STANDARD
  9
$DIMAUNIT
 70
    0
  9
$DIMADEC
 70
    0
  9
$DIMALTRND
 40
0
  9
$DIMAZIN
 70
    0
  9
$DIMDSEP
 70
   44
  9
$DIMATFIT
 70
    3
  9
$DIMFRAC
 70
    0
  9
$DIMLDRBLK
  1
STANDARD
  9
$DIMLUNIT
 70
    2
  9
$DIMLWD
 70
   -2
  9
$DIMLWE
 70
   -2
  9
$DIMTMOVE
 70
    0
  9
$DIMFXL
 40
1
  9
$DIMFXLON
 70
    0
  9
$DIMJOGANG
 40
0.7854
  9
$DIMTFILL
 70
    0
  9
$DIMTFILLCLR
 70
    0
  9
$DIMARCSYM
 70
    0
  9
$DIMLTYPE
  6

  9
$DIMLTEX1
  6

  9
$DIMLTEX2
  6

  9
$LUNITS
 70
    2
  9
$LUPREC
 70
    4
  9
$SKETCHINC
 40
1
  9
$FILLETRAD
 40
0
  9
$AUNITS
 70
    0
  9
$AUPREC
 70
    2
  9
$MENU
  1
.
  9
$ELEVATION
 40
0
  9
$PELEVATION
 40
0
  9
$THICKNESS
 40
0
  9
$LIMCHECK
 70
    0
  9
$CHAMFERA
 40
0
  9
$CHAMFERB
 40
0
  9
$CHAMFERC
 40
0
  9
$CHAMFERD
 40
0
  9
$SKPOLY
 70
    0
  9
$USRTIMER
 70
    1
  9
$ANGBASE
 50
0
  9
$ANGDIR
 70
    0
  9
$PDMODE
 70
   34
  9
$PDSIZE
 40
0
  9
$PLINEWID
 40
0
  9
$SPLFRAME
 70
    0
  9
$SPLINETYPE
 70
    2
  9
$SPLINESEGS
 70
    8
  9
$HANDSEED
  5
20000
  9
$SURFTAB1
 70
    6
  9
$SURFTAB2
 70
    6
  9
$SURFTYPE
 70
    6
  9
$SURFU
 70
    6
  9
$SURFV
 70
    6
  9
$UCSBASE
  2

  9
$UCSNAME
  2

  9
$UCSORG
 10
0
 20
0
 30
0
  9
$UCSXDIR
 10
1
 20
0
 30
0
  9
$UCSYDIR
 10
0
 20
1
 30
0
  9
$UCSORTHOREF
  2

  9
$UCSORTHOVIEW
 70
    0
  9
$UCSORGTOP
 10
0
 20
0
 30
0
  9
$UCSORGBOTTOM
 10
0
 20
0
 30
0
  9
$UCSORGLEFT
 10
0
 20
0
 30
0
  9
$UCSORGRIGHT
 10
0
 20
0
 30
0
  9
$UCSORGFRONT
 10
0
 20
0
 30
0
  9
$UCSORGBACK
 10
0
 20
0
 30
0
  9
$PUCSBASE
  2

  9
$PUCSNAME
  2

  9
$PUCSORG
 10
0
 20
0
 30
0
  9
$PUCSXDIR
 10
1
 20
0
 30
0
  9
$PUCSYDIR
 10
0
 20
1
 30
0
  9
$PUCSORTHOREF
  2

  9
$PUCSORTHOVIEW
 70
    0
  9
$PUCSORGTOP
 10
0
 20
0
 30
0
  9
$PUCSORGBOTTOM
 10
0
 20
0
 30
0
  9
$PUCSORGLEFT
 10
0
 20
0
 30
0
  9
$PUCSORGRIGHT
 10
0
 20
0
 30
0
  9
$PUCSORGFRONT
 10
0
 20
0
 30
0
  9
$PUCSORGBACK
 10
0
 20
0
 30
0
  9
$USERI1
 70
    0
  9
$USERI2
 70
    0
  9
$USERI3
 70
    0
  9
$USERI4
 70
    0
  9
$USERI5
 70
    0
  9
$USERR1
 40
0
  9
$USERR2
 40
0
  9
$USERR3
 40
0
  9
$USERR4
 40
0
  9
$USERR5
 40
0
  9
$WORLDVIEW
 70
    1
  9
$SHADEDGE
 70
    3
  9
$SHADEDIF
 70
   70
  9
$TILEMODE
 70
    1
  9
$MAXACTVP
 70
   64
  9
$PINSBASE
 10
0
 20
0
 30
0
  9
$PLIMCHECK
 70
    0
  9
$PEXTMIN
 10
0
 20
0
 30
0
  9
$PEXTMAX
 10
0
 20
0
 30
0
  9
$SNAPSTYLE
 70
    0
  9
$PLIMMIN
 10
0
 20
0
  9
$PLIMMAX
 10
210
 20
297
  9
$UNITMODE
 70
    0
  9
$VISRETAIN
 70
    1
  9
$PLINEGEN
 70
    0
  9
$PSLTSCALE
 70
    1
  9
$TREEDEPTH
 70
 3020
  9
$CMLSTYLE
  2
Standard
  9
$CMLJUST
 70
    0
  9
$CMLSCALE
 40
20
  9
$PROXYGRAPHICS
 70
    1
  9
$MEASUREMENT
 70
    1
  9
$CELWEIGHT
370
   -1
  9
$ENDCAPS
280
    0
  9
$JOINSTYLE
280
    0
  9
$LWDISPLAY
290
    0
  9
$INSUNITS
 70
    4
  9
$HYPERLINKBASE
  1

  9
$STYLESHEET
  1

  9
$XEDIT
290
    1
  9
$CEPSNTYPE
380
    0
  9
$PSTYLEMODE
290
    1
  9
$EXTNAMES
290
    1
  9
$PSVPSCALE
 40
1
  9
$OLESTARTUP
290
    0
  9
$SORTENTS
280
  127
  9
$INDEXCTL
280
    0
  9
$HIDETEXT
280
    1
  9
$XCLIPFRAME
290
    0
  9
$HALOGAP
280
    0
  9
$OBSCOLOR
 70
  257
  9
$OBSLTYPE
280
    0
  9
$INTERSECTIONDISPLAY
280
    0
  9
$INTERSECTIONCOLOR
 70
  257
  9
$DIMASSOC
280
    1
  9
$PROJECTNAME
  1

  9
$CAMERADISPLAY
290
    0
  9
$LENSLENGTH
 40
50
  9
$CAMERAHEIGHT
 40
0
  9
$STEPSPERSEC
 40
2
  9
$STEPSIZE
 40
50
  9
$3DDWFPREC
 40
2
  9
$PSOLWIDTH
 40
5
  9
$PSOLHEIGHT
 40
80
  9
$LOFTANG1
 40
1.570796326794897
  9
$LOFTANG2
 40
1.570796326794897
  9
$LOFTMAG1
 40
0
  9
$LOFTMAG2
 40
0
  9
$LOFTPARAM
 70
    7
  9
$LOFTNORMALS
280
    1
  9
$LATITUDE
 40
1
  9
$LONGITUDE
 40
1
  9
$NORTHDIRECTION
 40
0
  9
$TIMEZONE
 70
-8000
  9
$LIGHTGLYPHDISPLAY
280
    1
  9
$TILEMODELIGHTSYNCH
280
    1
  9
$SOLIDHIST
280
    1
  9
$SHOWHIST
280
    1
  9
$DWFFRAME
280
    2
  9
$DGNFRAME
280
    0
  9
$REALWORLDSCALE
290
    1
  9
$INTERFERECOLOR
 62
    1
  9
$CSHADOW
280
    0
  9
$SHADOWPLANELOCATION
 40
0
  0
ENDSEC
  0
SECTION
  2
CLASSES
  0
ENDSEC
  0
SECTION
  2
TABLES
  0
TABLE
  2
VPORT
  5
8
330
0
100
AcDbSymbolTable
 70
    1
  0
VPORT
  5
31
330
2
100
AcDbSymbolTableRecord
100
AcDbViewportTableRecord
  2
*ACTIVE
 70
    0
 10
0
 20
0
 11
1
 21
1
 12
66.92730714703112
 22
58.67832519879475
 13
0
 23
0
 14
10
 24
10
 15
10
 25
10
 16
0
 26
0
 36
1
 17
0
 27
0
 37
0
 40
141.1681446811584
 41
1.832530120481928
 42
50
 43
0
 44
0
 50
0
 51
0
 71
    0
 72
  100
 73
    1
 74
    3
 75
    0
 76
    1
 77
    0
 78
    0
281
    0
 65
    1
110
0
120
0
130
0
111
1
121
0
131
0
112
0
122
1
132
0
 79
    0
146
0
348
10020
 60
    7
 61
    5
292
1
282
    1
141
0
142
0
 63
  250
421
3358443
  0
ENDTAB
  0
TABLE
  2
LTYPE
  5
5
330
0
100
AcDbSymbolTable
 70
    4
  0
LTYPE
  5
14
330
5
100
AcDbSymbolTableRecord
100
AcDbLinetypeTableRecord
  2
ByBlock
 70
    0
  3

 72
   65
 73
    0
 40
0
  0
LTYPE
  5
15
330
5
100
AcDbSymbolTableRecord
100
AcDbLinetypeTableRecord
  2
ByLayer
 70
    0
  3

 72
   65
 73
    0
 40
0
  0
LTYPE
  5
16
330
5
100
AcDbSymbolTableRecord
100
AcDbLinetypeTableRecord
  2
Continuous
 70
    0
  3
Solid line
 72
   65
 73
    0
 40
0
  0
LTYPE
  5
32
330
5
100
AcDbSymbolTableRecord
100
AcDbLinetypeTableRecord
  2
DOT
 70
    0
  3
Dot . . . . . . . . . . . . . . . . . . . . . .
 72
   65
 73
    2
 40
6.35
 49
0
 74
    0
 49
-6.35
 74
    0
  0
LTYPE
  5
33
330
5
100
AcDbSymbolTableRecord
100
AcDbLinetypeTableRecord
  2
DOTTINY
 70
    0
  3
Dot (.15x) .....................................
 72
   65
 73
    2
 40
0.9525
 49
0
 74
    0
 49
-0.9525
 74
    0
  0
LTYPE
  5
34
330
5
100
AcDbSymbolTableRecord
100
AcDbLinetypeTableRecord
  2
DOT2
 70
    0
  3
Dot (.5x) .....................................
 72
   65
 73
    2
 40
3.175
 49
0
 74
    0
 49
-3.175
 74
    0
  0
LTYPE
  5
35
330
5
100
AcDbSymbolTableRecord
100
AcDbLinetypeTableRecord
  2
DOTX2
 70
    0
  3
Dot (2x) .  .  .  .  .  .  .  .  .  .  .  .  .
 72
   65
 73
    2
 40
12.7
 49
0
 74
    0
 49
-12.7
 74
    0
  0
LTYPE
  5
36
330
5
100
AcDbSymbolTableRecord
100
AcDbLinetypeTableRecord
  2
DASHED
 70
    0
  3
Dashed _ _ _ _ _ _ _ _ _ _ _ _ _ _ _ _ _
 72
   65
 73
    2
 40
19.05
 49
12.7
 74
    0
 49
-6.35
 74
    0
  0
LTYPE
  5
37
330
5
100
AcDbSymbolTableRecord
100
AcDbLinetypeTableRecord
  2
DASHEDTINY
 70
    0
  3
Dashed (.15x) _ _ _ _ _ _ _ _ _ _ _ _ _ _ _ _ _
 72
   65
 73
    2
 40
2.8575
 49
1.905
 74
    0
 49
-0.9525
 74
    0
  0
LTYPE
  5
38
330
5
100
AcDbSymbolTableRecord
100
AcDbLinetypeTableRecord
  2
DASHED2
 70
    0
  3
Dashed (.5x) _ _ _ _ _ _ _ _ _ _ _ _ _ _ _ _ _
 72
   65
 73
    2
 40
9.524999999999999
 49
6.35
 74
    0
 49
-3.175
 74
    0
  0
LTYPE
  5
39
330
5
100
AcDbSymbolTableRecord
100
AcDbLinetypeTableRecord
  2
DASHEDX2
 70
    0
  3
Dashed (2x) ____  ____  ____  ____  ____  ___
 72
   65
 73
    2
 40
38.09999999999999
 49
25.4
 74
    0
 49
-12.7
 74
    0
  0
LTYPE
  5
3A
330
5
100
AcDbSymbolTableRecord
100
AcDbLinetypeTableRecord
  2
DASHDOT
 70
    0
  3
Dash dot __ . __ . __ . __ . __ . __ . __ . __
 72
   65
 73
    4
 40
25.4
 49
12.7
 74
    0
 49
-6.35
 74
    0
 49
0
 74
    0
 49
-6.35
 74
    0
  0
LTYPE
  5
3B
330
5
100
AcDbSymbolTableRecord
100
AcDbLinetypeTableRecord
  2
DASHDOTTINY
 70
    0
  3
Dash dot (.15x) _._._._._._._._._._._._._._._.
 72
   65
 73
    4
 40
3.81
 49
1.905
 74
    0
 49
-0.9525
 74
    0
 49
0
 74
    0
 49
-0.9525
 74
    0
  0
LTYPE
  5
3C
330
5
100
AcDbSymbolTableRecord
100
AcDbLinetypeTableRecord
  2
DASHDOT2
 70
    0
  3
Dash dot (.5x) _._._._._._._._._._._._._._._.
 72
   65
 73
    4
 40
12.7
 49
6.35
 74
    0
 49
-3.175
 74
    0
 49
0
 74
    0
 49
-3.175
 74
    0
  0
LTYPE
  5
3D
330
5
100
AcDbSymbolTableRecord
100
AcDbLinetypeTableRecord
  2
DASHDOTX2
 70
    0
  3
Dash dot (2x) ____  .  ____  .  ____  .  ___
 72
   65
 73
    4
 40
50.8
 49
25.4
 74
    0
 49
-12.7
 74
    0
 49
0
 74
    0
 49
-12.7
 74
    0
  0
LTYPE
  5
3E
330
5
100
AcDbSymbolTableRecord
100
AcDbLinetypeTableRecord
  2
DIVIDE
 70
    0
  3
Divide ____ . . ____ . . ____ . . ____ . . ____
 72
   65
 73
    6
 40
31.75
 49
12.7
 74
    0
 49
-6.35
 74
    0
 49
0
 74
    0
 49
-6.35
 74
    0
 49
0
 74
    0
 49
-6.35
 74
    0
  0
LTYPE
  5
3F
330
5
100
AcDbSymbolTableRecord
100
AcDbLinetypeTableRecord
  2
DIVIDETINY
 70
    0
  3
Divide (.15x) __..__..__..__..__..__..__..__.._
 72
   65
 73
    6
 40
4.7625
 49
1.905
 74
    0
 49
-0.9525
 74
    0
 49
0
 74
    0
 49
-0.9525
 74
    0
 49
0
 74
    0
 49
-0.9525
 74
    0
  0
LTYPE
  5
40
330
5
100
AcDbSymbolTableRecord
100
AcDbLinetypeTableRecord
  2
DIVIDE2
 70
    0
  3
Divide (.5x) __..__..__..__..__..__..__..__.._
 72
   65
 73
    6
 40
15.875
 49
6.35
 74
    0
 49
-3.175
 74
    0
 49
0
 74
    0
 49
-3.175
 74
    0
 49
0
 74
    0
 49
-3.175
 74
    0
  0
LTYPE
  5
41
330
5
100
AcDbSymbolTableRecord
100
AcDbLinetypeTableRecord
  2
DIVIDEX2
 70
    0
  3
Divide (2x) ________  .  .  ________  .  .  _
 72
   65
 73
    6
 40
63.5
 49
25.4
 74
    0
 49
-12.7
 74
    0
 49
0
 74
    0
 49
-12.7
 74
    0
 49
0
 74
    0
 49
-12.7
 74
    0
  0
LTYPE
  5
42
330
5
100
AcDbSymbolTableRecord
100
AcDbLinetypeTableRecord
  2
BORDER
 70
    0
  3
Border __ __ . __ __ . __ __ . __ __ . __ __ .
 72
   65
 73
    6
 40
44.45
 49
12.7
 74
    0
 49
-6.35
 74
    0
 49
12.7
 74
    0
 49
-6.35
 74
    0
 49
0
 74
    0
 49
-6.35
 74
    0
  0
LTYPE
  5
43
330
5
100
AcDbSymbolTableRecord
100
AcDbLinetypeTableRecord
  2
BORDERTINY
 70
    0
  3
Border (.15x) __.__.__.__.__.__.__.__.__.__.__.
 72
   65
 73
    6
 40
6.6675
 49
1.905
 74
    0
 49
-0.9525
 74
    0
 49
1.905
 74
    0
 49
-0.9525
 74
    0
 49
0
 74
    0
 49
-0.9525
 74
    0
  0
LTYPE
  5
44
330
5
100
AcDbSymbolTableRecord
100
AcDbLinetypeTableRecord
  2
BORDER2
 70
    0
  3
Border (.5x) __.__.__.__.__.__.__.__.__.__.__.
 72
   65
 73
    6
 40
22.225
 49
6.35
 74
    0
 49
-3.175
 74
    0
 49
6.35
 74
    0
 49
-3.175
 74
    0
 49
0
 74
    0
 49
-3.175
 74
    0
  0
LTYPE
  5
45
330
5
100
AcDbSymbolTableRecord
100
AcDbLinetypeTableRecord
  2
BORDERX2
 70
    0
  3
Border (2x) ____  ____  .  ____  ____  .  ___
 72
   65
 73
    6
 40
88.89999999999999
 49
25.4
 74
    0
 49
-12.7
 74
    0
 49
25.4
 74
    0
 49
-12.7
 74
    0
 49
0
 74
    0
 49
-12.7
 74
    0
  0
LTYPE
  5
46
330
5
100
AcDbSymbolTableRecord
100
AcDbLinetypeTableRecord
  2
CENTER
 70
    0
  3
Center ____ _ ____ _ ____ _ ____ _ ____ _ ____
 72
   65
 73
    4
 40
50.8
 49
31.75
 74
    0
 49
-6.35
 74
    0
 49
6.35
 74
    0
 49
-6.35
 74
    0
  0
LTYPE
  5
47
330
5
100
AcDbSymbolTableRecord
100
AcDbLinetypeTableRecord
  2
CENTERTINY
 70
    0
  3
Center (.15x) ___ _ ___ _ ___ _ ___ _ ___ _ ___
 72
   65
 73
    4
 40
7.619999999999999
 49
4.7625
 74
    0
 49
-0.9525
 74
    0
 49
0.9525
 74
    0
 49
-0.9525
 74
    0
  0
LTYPE
  5
48
330
5
100
AcDbSymbolTableRecord
100
AcDbLinetypeTableRecord
  2
CENTER2
 70
    0
  3
Center (.5x) ___ _ ___ _ ___ _ ___ _ ___ _ ___
 72
   65
 73
    4
 40
28.575
 49
19.05
 74
    0
 49
-3.175
 74
    0
 49
3.175
 74
    0
 49
-3.175
 74
    0
  0
LTYPE
  5
49
330
5
100
AcDbSymbolTableRecord
100
AcDbLinetypeTableRecord
  2
CENTERX2
 70
    0
  3
Center (2x) ________  __  ________  __  _____
 72
   65
 73
    4
 40
101.6
 49
63.5
 74
    0
 49
-12.7
 74
    0
 49
12.7
 74
    0
 49
-12.7
 74
    0
  0
ENDTAB
  0
TABLE
  2
LAYER
  5
2
330
0
100
AcDbSymbolTable
 70
    1
  0
LAYER
  5
10
330
2
100
AcDbSymbolTableRecord
100
AcDbLayerTableRecord
  2
0
 70
    0
 62
    7
  6
CONTINUOUS
370
    0
390
F
  0
ENDTAB
  0
TABLE
  2
STYLE
  5
3
330
0
100
AcDbSymbolTable
 70
    3
  0
STYLE
  5
4A
330
2
100
AcDbSymbolTableRecord
100
AcDbTextStyleTableRecord
  2
Standard
 70
    0
 40
0
 41
1
 50
0
 71
    0
 42
1
  3
txt
  4

  0
ENDTAB
  0
TABLE
  2
VIEW
  5
6
330
0
100
AcDbSymbolTable
 70
    0
  0
ENDTAB
  0
TABLE
  2
UCS
  5
7
330
0
100
AcDbSymbolTable
 70
    0
  0
ENDTAB
  0
TABLE
  2
APPID
  5
9
330
0
100
AcDbSymbolTable
 70
    1
  0
APPID
  5
12
330
9
100
AcDbSymbolTableRecord
100
AcDbRegAppTableRecord
  2
ACAD
 70
    0
  0
APPID
  5
4B
330
9
100
AcDbSymbolTableRecord
100
AcDbRegAppTableRecord
  2
LibreCad
 70
    0
  0
ENDTAB
  0
TABLE
  2
DIMSTYLE
  5
A
330
0
100
AcDbSymbolTable
 70
    1
100
AcDbDimStyleTable
 71
    1
  0
DIMSTYLE
105
4C
330
A
100
AcDbSymbolTableRecord
100
AcDbDimStyleTableRecord
  2
Standard
 70
    0
 40
1
 41
2.5
 42
0.625
 43
0.38
 44
1.25
 45
0
 46
0
 47
0
 48
0
 49
1
140
2.5
141
0.09
142
2.5
143
25.4
144
1
145
0
146
1
147
0.625
148
0
 71
    0
 72
    0
 73
    0
 74
    1
 75
    0
 76
    0
 77
    0
 78
    1
 79
    0
170
    0
171
    2
172
    0
173
    0
174
    0
175
    0
176
    0
177
    0
178
    0
179
    0
271
    2
272
    4
273
    2
274
    2
275
    0
276
    0
277
    2
278
    0
279
    0
280
    0
281
    0
282
    0
283
    1
284
    0
285
    0
286
    0
288
    0
289
    3
340
standard
341

371
   -2
372
   -2
  0
ENDTAB
  0
TABLE
  2
BLOCK_RECORD
  5
1
330
0
100
AcDbSymbolTable
 70
    2
  0
BLOCK_RECORD
  5
1F
330
1
100
AcDbSymbolTableRecord
100
AcDbBlockTableRecord
  2
*Model_Space
 70
    0
280
    1
281
    0
  0
BLOCK_RECORD
  5
1E
330
1
100
AcDbSymbolTableRecord
100
AcDbBlockTableRecord
  2
*Paper_Space
 70
    0
280
    1
281
    0
  0
ENDTAB
  0
ENDSEC
  0
SECTION
  2
BLOCKS
  0
BLOCK
  5
20
330
1F
100
AcDbEntity
  8
0
100
AcDbBlockBegin
  2
*Model_Space
 70
    0
 10
0
 20
0
 30
0
  3
*Model_Space
  1

  0
ENDBLK
  5
21
330
1F
100
AcDbEntity
  8
0
100
AcDbBlockEnd
  0
BLOCK
  5
1C
330
1B
100
AcDbEntity
  8
0
100
AcDbBlockBegin
  2
*Paper_Space
 70
    0
 10
0
 20
0
 30
0
  3
*Paper_Space
  1

  0
ENDBLK
  5
1D
330
1F
100
AcDbEntity
  8
0
100
AcDbBlockEnd
  0
ENDSEC
  0
SECTION
  2
ENTITIES
  0
CIRCLE
  5
4D
100
AcDbEntity
  8
0
  6
ByLayer
 62
  256
370
   -1
100
AcDbCircle
 10
0
 20
0
 40
8
  0
SPLINE
  5
4E
100
AcDbEntity
  8
0
  6
ByLayer
 62
  256
370
   -1
100
AcDbSpline
210
0
220
0
230
0
 70
    8
 71
    2
 72
  526
 73
  523
 74
    0
 42
1e-07
 43
1e-07
 40
0
 40
0
 40
0
 40
0.001919385796545105
 40
0.003838771593090211
 40
0.005758157389635317
 40
0.007677543186180422
 40
0.009596928982725527
 40
0.01151631477927063
 40
0.01343570057581574
 40
0.01535508637236084
 40
0.01727447216890595
 40
0.01919385796545105
 40
0.02111324376199616
 40
0.02303262955854127
 40
0.02495201535508637
 40
0.02687140115163148
 40
0.02879078694817658
 40
0.03071017274472169
 40
0.03262955854126679
 40
0.0345489443378119
 40
0.036468330134357
 40
0.03838771593090211
 40
0.04030710172744722
 40
0.04222648752399232
 40
0.04414587332053743
 40
0.04606525911708254
 40
0.04798464491362764
 40
0.04990403071017274
 40
0.05182341650671785
 40
0.05374280230326296
 40
0.05566218809980806
 40
0.05758157389635317
 40
0.05950095969289827
 40
0.06142034548944338
 40
0.06333973128598848
 40
0.06525911708253358
 40
0.0671785028790787
 40
0.0690978886756238
 40
0.07101727447216891
 40
0.07293666026871401
 40
0.07485604606525911
 40
0.07677543186180422
 40
0.07869481765834933
 40
0.08061420345489444
 40
0.08253358925143954
 40
0.08445297504798464
 40
0.08637236084452975
 40
0.08829174664107485
 40
0.09021113243761997
 40
0.09213051823416507
 40
0.09404990403071017
 40
0.09596928982725528
 40
0.09788867562380038
 40
0.09980806142034548
 40
0.1017274472168906
 40
0.1036468330134357
 40
0.1055662188099808
 40
0.1074856046065259
 40
0.109404990403071
 40
0.1113243761996161
 40
0.1132437619961612
 40
0.1151631477927063
 40
0.1170825335892514
 40
0.1190019193857965
 40
0.1209213051823416
 40
0.1228406909788868
 40
0.1247600767754319
 40
0.126679462571977
 40
0.1285988483685221
 40
0.1305182341650672
 40
0.1324376199616123
 40
0.1343570057581574
 40
0.1362763915547025
 40
0.1381957773512476
 40
0.1401151631477927
 40
0.1420345489443378
 40
0.1439539347408829
 40
0.145873320537428
 40
0.1477927063339731
 40
0.1497120921305182
 40
0.1516314779270633
 40
0.1535508637236084
 40
0.1554702495201536
 40
0.1573896353166987
 40
0.1593090211132438
 40
0.1612284069097889
 40
0.163147792706334
 40
0.1650671785028791
 40
0.1669865642994242
 40
0.1689059500959693
 40
0.1708253358925144
 40
0.1727447216890595
 40
0.1746641074856046
 40
0.1765834932821497
 40
0.1785028790786948
 40
0.1804222648752399
 40
0.182341650671785
 40
0.1842610364683301
 40
0.1861804222648752
 40
0.1880998080614203
 40
0.1900191938579655
 40
0.1919385796545106
 40
0.1938579654510557
 40
0.1957773512476008
 40
0.1976967370441459
 40
0.199616122840691
 40
0.2015355086372361
 40
0.2034548944337812
 40
0.2053742802303263
 40
0.2072936660268714
 40
0.2092130518234165
 40
0.2111324376199616
 40
0.2130518234165067
 40
0.2149712092130518
 40
0.2168905950095969
 40
0.218809980806142
 40
0.2207293666026871
 40
0.2226487523992322
 40
0.2245681381957773
 40
0.2264875239923225
 40
0.2284069097888676
 40
0.2303262955854127
 40
0.2322456813819578
 40
0.2341650671785029
 40
0.236084452975048
 40
0.2380038387715931
 40
0.2399232245681382
 40
0.2418426103646833
 40
0.2437619961612284
 40
0.2456813819577735
 40
0.2476007677543186
 40
0.2495201535508637
 40
0.2514395393474088
 40
0.2533589251439539
 40
0.255278310940499
 40
0.2571976967370441
 40
0.2591170825335892
 40
0.2610364683301343
 40
0.2629558541266795
 40
0.2648752399232246
 40
0.2667946257197697
 40
0.2687140115163148
 40
0.2706333973128599
 40
0.272552783109405
 40
0.2744721689059501
 40
0.2763915547024952
 40
0.2783109404990403
 40
0.2802303262955854
 40
0.2821497120921305
 40
0.2840690978886756
 40
0.2859884836852207
 40
0.2879078694817658
 40
0.2898272552783109
 40
0.291746641074856
 40
0.2936660268714011
 40
0.2955854126679462
 40
0.2975047984644913
 40
0.2994241842610365
 40
0.3013435700575816
 40
0.3032629558541267
 40
0.3051823416506718
 40
0.3071017274472169
 40
0.309021113243762
 40
0.3109404990403071
 40
0.3128598848368522
 40
0.3147792706333973
 40
0.3166986564299424
 40
0.3186180422264875
 40
0.3205374280230326
 40
0.3224568138195777
 40
0.3243761996161229
 40
0.326295585412668
 40
0.3282149712092131
 40
0.3301343570057582
 40
0.3320537428023033
 40
0.3339731285988484
 40
0.3358925143953935
 40
0.3378119001919386
 40
0.3397312859884837
 40
0.3416506717850288
 40
0.3435700575815739
 40
0.345489443378119
 40
0.3474088291746641
 40
0.3493282149712092
 40
0.3512476007677543
 40
0.3531669865642994
 40
0.3550863723608445
 40
0.3570057581573896
 40
0.3589251439539348
 40
0.3608445297504799
 40
0.362763915547025
 40
0.3646833013435701
 40
0.3666026871401152
 40
0.3685220729366603
 40
0.3704414587332054
 40
0.3723608445297505
 40
0.3742802303262956
 40
0.3761996161228407
 40
0.3781190019193858
 40
0.3800383877159309
 40
0.381957773512476
 40
0.3838771593090211
 40
0.3857965451055662
 40
0.3877159309021113
 40
0.3896353166986564
 40
0.3915547024952015
 40
0.3934740882917466
 40
0.3953934740882917
 40
0.3973128598848368
 40
0.3992322456813819
 40
0.401151631477927
 40
0.4030710172744721
 40
0.4049904030710173
 40
0.4069097888675624
 40
0.4088291746641075
 40
0.4107485604606526
 40
0.4126679462571977
 40
0.4145873320537428
 40
0.4165067178502879
 40
0.418426103646833
 40
0.4203454894433781
 40
0.4222648752399232
 40
0.4241842610364683
 40
0.4261036468330134
 40
0.4280230326295585
 40
0.4299424184261036
 40
0.4318618042226487
 40
0.4337811900191939
 40
0.435700575815739
 40
0.4376199616122841
 40
0.4395393474088292
 40
0.4414587332053743
 40
0.4433781190019194
 40
0.4452975047984645
 40
0.4472168905950096
 40
0.4491362763915547
 40
0.4510556621880998
 40
0.4529750479846449
 40
0.45489443378119
 40
0.4568138195777351
 40
0.4587332053742803
 40
0.4606525911708254
 40
0.4625719769673705
 40
0.4644913627639156
 40
0.4664107485604607
 40
0.4683301343570058
 40
0.4702495201535509
 40
0.472168905950096
 40
0.4740882917466411
 40
0.4760076775431862
 40
0.4779270633397313
 40
0.4798464491362764
 40
0.4817658349328215
 40
0.4836852207293666
 40
0.4856046065259117
 40
0.4875239923224568
 40
0.4894433781190019
 40
0.491362763915547
 40
0.4932821497120921
 40
0.4952015355086372
 40
0.4971209213051823
 40
0.4990403071017274
 40
0.5009596928982726
 40
0.5028790786948176
 40
0.5047984644913628
 40
0.5067178502879078
 40
0.508637236084453
 40
0.510556621880998
 40
0.5124760076775432
 40
0.5143953934740882
 40
0.5163147792706334
 40
0.5182341650671785
 40
0.5201535508637236
 40
0.5220729366602687
 40
0.5239923224568138
 40
0.525911708253359
 40
0.527831094049904
 40
0.5297504798464492
 40
0.5316698656429942
 40
0.5335892514395394
 40
0.5355086372360844
 40
0.5374280230326296
 40
0.5393474088291746
 40
0.5412667946257198
 40
0.5431861804222649
 40
0.54510556621881
 40
0.5470249520153551
 40
0.5489443378119002
 40
0.5508637236084453
 40
0.5527831094049904
 40
0.5547024952015355
 40
0.5566218809980806
 40
0.5585412667946257
 40
0.5604606525911708
 40
0.5623800383877159
 40
0.564299424184261
 40
0.5662188099808061
 40
0.5681381957773513
 40
0.5700575815738963
 40
0.5719769673704415
 40
0.5738963531669866
 40
0.5758157389635317
 40
0.5777351247600768
 40
0.5796545105566219
 40
0.581573896353167
 40
0.5834932821497121
 40
0.5854126679462572
 40
0.5873320537428023
 40
0.5892514395393474
 40
0.5911708253358925
 40
0.5930902111324377
 40
0.5950095969289827
 40
0.5969289827255279
 40
0.5988483685220729
 40
0.6007677543186181
 40
0.6026871401151631
 40
0.6046065259117083
 40
0.6065259117082533
 40
0.6084452975047985
 40
0.6103646833013435
 40
0.6122840690978887
 40
0.6142034548944337
 40
0.6161228406909789
 40
0.6180422264875239
 40
0.6199616122840691
 40
0.6218809980806143
 40
0.6238003838771593
 40
0.6257197696737045
 40
0.6276391554702495
 40
0.6295585412667947
 40
0.6314779270633397
 40
0.6333973128598849
 40
0.6353166986564299
 40
0.6372360844529751
 40
0.6391554702495201
 40
0.6410748560460653
 40
0.6429942418426103
 40
0.6449136276391555
 40
0.6468330134357005
 40
0.6487523992322457
 40
0.6506717850287908
 40
0.6525911708253359
 40
0.654510556621881
 40
0.6564299424184261
 40
0.6583493282149712
 40
0.6602687140115163
 40
0.6621880998080614
 40
0.6641074856046065
 40
0.6660268714011516
 40
0.6679462571976967
 40
0.6698656429942419
 40
0.6717850287907869
 40
0.6737044145873321
 40
0.6756238003838771
 40
0.6775431861804223
 40
0.6794625719769674
 40
0.6813819577735125
 40
0.6833013435700576
 40
0.6852207293666027
 40
0.6871401151631478
 40
0.6890595009596929
 40
0.690978886756238
 40
0.6928982725527831
 40
0.6948176583493282
 40
0.6967370441458733
 40
0.6986564299424184
 40
0.7005758157389635
 40
0.7024952015355086
 40
0.7044145873320538
 40
0.7063339731285988
 40
0.708253358925144
 40
0.710172744721689
 40
0.7120921305182342
 40
0.7140115163147792
 40
0.7159309021113244
 40
0.7178502879078695
 40
0.7197696737044146
 40
0.7216890595009597
 40
0.7236084452975048
 40
0.7255278310940499
 40
0.727447216890595
 40
0.7293666026871402
 40
0.7312859884836852
 40
0.7332053742802304
 40
0.7351247600767754
 40
0.7370441458733206
 40
0.7389635316698656
 40
0.7408829174664108
 40
0.7428023032629558
 40
0.744721689059501
 40
0.746641074856046
 40
0.7485604606525912
 40
0.7504798464491362
 40
0.7523992322456814
 40
0.7543186180422264
 40
0.7562380038387716
 40
0.7581573896353166
 40
0.7600767754318618
 40
0.761996161228407
 40
0.763915547024952
 40
0.7658349328214972
 40
0.7677543186180422
 40
0.7696737044145874
 40
0.7715930902111324
 40
0.7735124760076776
 40
0.7754318618042226
 40
0.7773512476007678
 40
0.7792706333973128
 40
0.781190019193858
 40
0.783109404990403
 40
0.7850287907869482
 40
0.7869481765834933
 40
0.7888675623800384
 40
0.7907869481765835
 40
0.7927063339731286
 40
0.7946257197696737
 40
0.7965451055662188
 40
0.7984644913627639
 40
0.800383877159309
 40
0.8023032629558541
 40
0.8042226487523992
 40
0.8061420345489443
 40
0.8080614203454894
 40
0.8099808061420346
 40
0.8119001919385797
 40
0.8138195777351248
 40
0.8157389635316699
 40
0.817658349328215
 40
0.8195777351247601
 40
0.8214971209213052
 40
0.8234165067178503
 40
0.8253358925143954
 40
0.8272552783109405
 40
0.8291746641074856
 40
0.8310940499040307
 40
0.8330134357005758
 40
0.8349328214971209
 40
0.8368522072936661
 40
0.8387715930902111
 40
0.8406909788867563
 40
0.8426103646833013
 40
0.8445297504798465
 40
0.8464491362763915
 40
0.8483685220729367
 40
0.8502879078694817
 40
0.8522072936660269
 40
0.8541266794625719
 40
0.8560460652591171
 40
0.8579654510556622
 40
0.8598848368522073
 40
0.8618042226487524
 40
0.8637236084452975
 40
0.8656429942418427
 40
0.8675623800383877
 40
0.8694817658349329
 40
0.8714011516314779
 40
0.8733205374280231
 40
0.8752399232245681
 40
0.8771593090211133
 40
0.8790786948176583
 40
0.8809980806142035
 40
0.8829174664107485
 40
0.8848368522072937
 40
0.8867562380038387
 40
0.8886756238003839
 40
0.8905950095969289
 40
0.8925143953934741
 40
0.8944337811900192
 40
0.8963531669865643
 40
0.8982725527831094
 40
0.9001919385796545
 40
0.9021113243761996
 40
0.9040307101727447
 40
0.9059500959692899
 40
0.9078694817658349
 40
0.9097888675623801
 40
0.9117082533589251
 40
0.9136276391554703
 40
0.9155470249520153
 40
0.9174664107485605
 40
0.9193857965451055
 40
0.9213051823416507
 40
0.9232245681381958
 40
0.9251439539347409
 40
0.927063339731286
 40
0.9289827255278311
 40
0.9309021113243762
 40
0.9328214971209213
 40
0.9347408829174664
 40
0.9366602687140115
 40
0.9385796545105566
 40
0.9404990403071017
 40
0.9424184261036468
 40
0.9443378119001919
 40
0.946257197696737
 40
0.9481765834932822
 40
0.9500959692898272
 40
0.9520153550863724
 40
0.9539347408829175
 40
0.9558541266794626
 40
0.9577735124760077
 40
0.9596928982725528
 40
0.9616122840690979
 40
0.963531669865643
 40
0.9654510556621881
 40
0.9673704414587332
 40
0.9692898272552783
 40
0.9712092130518234
 40
0.9731285988483686
 40
0.9750479846449136
 40
0.9769673704414588
 40
0.9788867562380038
 40
0.980806142034549
 40
0.982725527831094
 40
0.9846449136276392
 40
0.9865642994241842
 40
0.9884836852207294
 40
0.9904030710172744
 40
0.9923224568138196
 40
0.9942418426103646
 40
0.9961612284069098
 40
0.9980806142034548
 40
1
 40
1
 40
1
 10
5.462171478746319
 20
11.79680815885255
 30
0
 10
5.492725454217908
 20
11.78541702353568
 30
0
 10
5.584227180929588
 20
11.75077818889811
 30
0
 10
5.705836156997584
 20
11.70333804990829
 30
0
 10
5.82705432593168
 20
11.65463994109592
 30
0
 10
5.947868680584429
 20
11.6046869389262
 30
0
 10
6.068266236300997
 20
11.55348225429649
 30
0
 10
6.18823403230795
 20
11.50102923239362
 30
0
 10
6.307759133101429
 20
11.44733135253687
 30
0
 10
6.426828629834562
 20
11.39239222800668
 30
0
 10
6.545429641704001
 20
11.33621560585896
 30
0
 10
6.66354931733537
 20
11.27880536672503
 30
0
 10
6.781174836167526
 20
11.2201655245973
 30
0
 10
6.898293409835487
 20
11.16030022660054
 30
0
 10
7.014892283551833
 20
11.09921375274889
 30
0
 10
7.130958737486499
 20
11.03691051568848
 30
0
 10
7.246480088144713
 20
10.97339506042573
 30
0
 10
7.361443689743069
 20
10.90867206404145
 30
0
 10
7.475836935583434
 20
10.84274633539052
 30
0
 10
7.589647259424679
 20
10.77562281478738
 30
0
 10
7.702862136851977
 20
10.70730657367721
 30
0
 10
7.815469086643569
 20
10.63780281429284
 30
0
 10
7.927455672134897
 20
10.56711686929753
 30
0
 10
8.038809502579809
 20
10.4952542014134
 30
0
 10
8.149518234508909
 20
10.42222040303583
 30
0
 10
8.259569573084635
 20
10.3480211958335
 30
0
 10
8.368951273453201
 20
10.27266243033447
 30
0
 10
8.477651142093022
 20
10.19615008549804
 30
0
 10
8.585657038159603
 20
10.11849026827254
 30
0
 10
8.692956874826692
 20
10.03968921313905
 30
0
 10
8.799538620623633
 20
9.959753281641134
 30
0
 10
8.905390300768591
 20
9.878688961900501
 30
0
 10
9.010499998497753
 20
9.796502868118768
 30
0
 10
9.114855856390113
 20
9.71320174006523
 30
0
 10
9.218446077687895
 20
9.628792442550797
 30
0
 10
9.321258927612313
 20
9.543281964888019
 30
0
 10
9.423282734674633
 20
9.456677420337323
 30
0
 10
9.524505891982351
 20
9.368986045539446
 30
0
 10
9.624916858540322
 20
9.280215199934187
 30
0
 10
9.724504160546717
 20
9.190372365165393
 30
0
 10
9.823256392683691
 20
9.099465144472356
 30
0
 10
9.921162219402541
 20
9.007501262067585
 30
0
 10
10.01821037620333
 20
8.914488562501029
 30
0
 10
10.1143896709087
 20
8.820435010010826
 30
0
 10
10.20968898493182
 20
8.725348687860544
 30
0
 10
10.30409727453833
 20
8.629237797663098
 30
0
 10
10.39760357210207
 20
8.532110658691256
 30
0
 10
10.49019698735453
 20
8.43397570717492
 30
0
 10
10.58186670862784
 20
8.334841495585122
 30
0
 10
10.67260200409118
 20
8.234716691904918
 30
0
 10
10.76239222298039
 20
8.133610078887065
 30
0
 10
10.85122679682084
 20
8.03153055329879
 30
0
 10
10.93909524064319
 20
7.928487125153454
 30
0
 10
11.02598715419201
 20
7.824488916929355
 30
0
 10
11.11189222312719
 20
7.719545162775663
 30
0
 10
11.19680022021786
 20
7.613665207705589
 30
0
 10
11.28070100652876
 20
7.506858506776766
 30
0
 10
11.36358453259901
 20
7.399134624259111
 30
0
 10
11.44544083961293
 20
7.29050323278997
 30
0
 10
11.52626006056298
 20
7.180974112516864
 30
0
 10
11.60603242140462
 20
7.070557150227756
 30
0
 10
11.68474824220289
 20
6.95926233846899
 30
0
 10
11.76239793827071
 20
6.847099774650941
 30
0
 10
11.83897202129862
 20
6.734079660141504
 30
0
 10
11.91446110047595
 20
6.620212299347403
 30
0
 10
11.98885588360324
 20
6.505508098783543
 30
0
 10
12.06214717819582
 20
6.389977566130375
 30
0
 10
12.13432589257829
 20
6.273631309279381
 30
0
 10
12.20538303697
 20
6.156480035366819
 30
0
 10
12.27530972456119
 20
6.03853454979575
 30
0
 10
12.34409717257975
 20
5.919805755246459
 30
0
 10
12.41173670334859
 20
5.8003046506754
 30
0
 10
12.47821974533318
 20
5.680042330302655
 30
0
 10
12.54353783417957
 20
5.559029982588128
 30
0
 10
12.60768261374233
 20
5.437278889196457
 30
0
 10
12.67064583710269
 20
5.314800423950818
 30
0
 10
12.73241936757639
 20
5.191606051775659
 30
0
 10
12.79299517971144
 20
5.067707327628502
 30
0
 10
12.85236536027545
 20
4.94311589542089
 30
0
 10
12.91052210923249
 20
4.817843486928605
 30
0
 10
12.96745774070943
 20
4.691901920691204
 30
0
 10
13.02316468395154
 20
4.565303100901055
 30
0
 10
13.07763548426727
 20
4.438059016281898
 30
0
 10
13.13086280396211
 20
4.31018173895709
 30
0
 10
13.18283942326142
 20
4.181683423307635
 30
0
 10
13.23355824122212
 20
4.052576304820053
 30
0
 10
13.28301227663313
 20
3.922872698924292
 30
0
 10
13.33119466890435
 20
3.792584999821691
 30
0
 10
13.37809867894431
 20
3.66172567930319
 30
0
 10
13.42371769002611
 20
3.530307285557832
 30
0
 10
13.46804520864175
 20
3.398342441971738
 30
0
 10
13.51107486534465
 20
3.265843845917594
 30
0
 10
13.55280041558021
 20
3.132824267534836
 30
0
 10
13.59321574050448
 20
2.999296548500603
 30
0
 10
13.63231484779059
 20
2.86527360079159
 30
0
 10
13.6700918724232
 20
2.730768405436946
 30
0
 10
13.70654107748034
 20
2.59579401126228
 30
0
 10
13.74165685490314
 20
2.460363533624955
 30
0
 10
13.7754337262529
 20
2.32449015314076
 30
0
 10
13.80786634345561
 20
2.188187114402089
 30
0
 10
13.83894948953384
 20
2.051467724687758
 30
0
 10
13.86867807932572
 20
1.914345352664575
 30
0
 10
13.89704716019126
 20
1.776833427080804
 30
0
 10
13.92405191270545
 20
1.638945435451638
 30
0
 10
13.94968765133858
 20
1.500694922736815
 30
0
 10
13.97394982512318
 20
1.362095490010501
 30
0
 10
13.99683401830795
 20
1.223160793123586
 30
0
 10
14.01833595099824
 20
1.083904541358506
 30
0
 10
14.03845147978316
 20
0.944340496076731
 30
0
 10
14.05717659834928
 20
0.8044824693590574
 30
0
 10
14.07450743808073
 20
0.6643443226388309
 30
0
 10
14.09044026864566
 20
0.5239399653282407
 30
0
 10
14.10497149856896
 20
0.3832833534378169
 30
0
 10
14.11809767579132
 20
0.2423884881892737
 30
0
 10
14.12981548821421
 20
0.1012694146218299
 30
0
 10
14.14012176423108
 20
-0.04005977980785083
 30
0
 10
14.14901347324459
 20
-0.1815849666319585
 30
0
 10
14.15648772616946
 20
-0.323291977783941
 30
0
 10
14.16254177592161
 20
-0.4651666070168635
 30
0
 10
14.16717301789261
 20
-0.6071946113275887
 30
0
 10
14.17037899041023
 20
-0.749361712386631
 30
0
 10
14.17215737518432
 20
-0.8916535979735415
 30
0
 10
14.17250599773854
 20
-1.034055923417682
 30
0
 10
14.17142282782734
 20
-1.17655431304424
 30
0
 10
14.16890597983861
 20
-1.319134361625337
 30
0
 10
14.16495371318158
 20
-1.461781635836096
 30
0
 10
14.15956443266014
 20
-1.604481675715501
 30
0
 10
14.15273668883138
 20
-1.747219996131915
 30
0
 10
14.14446917834935
 20
-1.889982088253115
 30
0
 10
14.13476074429405
 20
-2.032753421020657
 30
0
 10
14.12361037648542
 20
-2.175519442628488
 30
0
 10
14.11101721178254
 20
-2.318265582005575
 30
0
 10
14.09698053436768
 20
-2.460977250302469
 30
0
 10
14.08149977601543
 20
-2.603639842381613
 30
0
 10
14.06457451634673
 20
-2.746238738311241
 30
0
 10
14.04620448306769
 20
-2.888759304862754
 30
0
 10
14.02638955219334
 20
-3.031186897011366
 30
0
 10
14.00512974825616
 20
-3.173506859439905
 30
0
 10
13.98242524449919
 20
-3.315704528045595
 30
0
 10
13.95827636305416
 20
-3.45776523144969
 30
0
 10
13.93268357510393
 20
-3.599674292509757
 30
0
 10
13.90564750102985
 20
-3.741417029834501
 30
0
 10
13.87716891054358
 20
-3.882978759300964
 30
0
 10
13.84724872280348
 20
-4.024344795573893
 30
0
 10
13.81588800651561
 20
-4.165500453627229
 30
0
 10
13.78308798001912
 20
-4.306431050267409
 30
0
 10
13.74885001135627
 20
-4.447121905658483
 30
0
 10
13.71317561832673
 20
-4.587558344848746
 30
0
 10
13.67606646852646
 20
-4.727725699298837
 30
0
 10
13.63752437937093
 20
-4.867609308411078
 30
0
 10
13.59755131810267
 20
-5.007194521059909
 30
0
 10
13.55614940178329
 20
-5.146466697123285
 30
0
 10
13.51332089726981
 20
-5.285411209014857
 30
0
 10
13.46906822117522
 20
-5.424013443216738
 30
0
 10
13.42339393981355
 20
-5.562258801812783
 30
0
 10
13.37630076912905
 20
-5.700132704022153
 30
0
 10
13.32779157460976
 20
-5.837620587732989
 30
0
 10
13.27786937118536
 20
-5.974707911036123
 30
0
 10
13.22653732310927
 20
-6.111380153758567
 30
0
 10
13.17379874382497
 20
-6.247622818996663
 30
0
 10
13.11965709581673
 20
-6.383421434648763
 30
0
 10
13.06411599044438
 20
-6.518761554947211
 30
0
 10
13.00717918776252
 20
-6.653628761989486
 30
0
 10
12.94885059632393
 20
-6.788008667268424
 30
0
 10
12.88913427296715
 20
-6.921886913201214
 30
0
 10
12.82803442258848
 20
-7.055249174657119
 30
0
 10
12.76555539789811
 20
-7.188081160483724
 30
0
 10
12.70170169916058
 20
-7.320368615031543
 30
0
 10
12.63647797391954
 20
-7.452097319676821
 30
0
 10
12.56988901670674
 20
-7.583253094342384
 30
0
 10
12.50193976873538
 20
-7.713821799016372
 30
0
 10
12.43263531757775
 20
-7.843789335268675
 30
0
 10
12.3619808968272
 20
-7.973141647764937
 30
0
 10
12.28998188574447
 20
-8.101864725777927
 30
0
 10
12.21664380888838
 20
-8.229944604696197
 30
0
 10
12.1419723357309
 20
-8.357367367529731
 30
0
 10
12.06597328025663
 20
-8.484119146412565
 30
0
 10
11.98865260054673
 20
-8.610186124102128
 30
0
 10
11.91001639834725
 20
-8.73555453547516
 30
0
 10
11.83007091862209
 20
-8.860210669020089
 30
0
 10
11.7488225490902
 20
-8.984140868325618
 30
0
 10
11.66627781974765
 20
-9.107331533565457
 30
0
 10
11.58244340237404
 20
-9.229769122979002
 30
0
 10
11.49732611002354
 20
-9.35144015434774
 30
0
 10
11.41093289650072
 20
-9.472331206467347
 30
0
 10
11.32327085582091
 20
-9.592428920615212
 30
0
 10
11.23434722165532
 20
-9.711720002013241
 30
0
 10
11.14416936676091
 20
-9.830191221285874
 30
0
 10
11.05274480239514
 20
-9.947829415913024
 30
0
 10
10.96008117771543
 20
-10.06462149167787
 30
0
 10
10.86618627916356
 20
-10.1805544241093
 30
0
 10
10.77106802983509
 20
-10.29561525991894
 30
0
 10
10.67473448883365
 20
-10.40979111843239
 30
0
 10
10.57719385061023
 20
-10.52306919301482
 30
0
 10
10.47845444428777
 20
-10.63543675249054
 30
0
 10
10.37852473297059
 20
-10.74688114255636
 30
0
 10
10.27741331303925
 20
-10.8573897871889
 30
0
 10
10.17512891343056
 20
-10.96695019004527
 30
0
 10
10.07168039490287
 20
-11.07554993585724
 30
0
 10
9.967076749286795
 20
-11.18317669181874
 30
0
 10
9.861327098721297
 20
-11.28981820896639
 30
0
 10
9.754440694875326
 20
-11.39546232355302
 30
0
 10
9.646426918154956
 20
-11.500096958414
 30
0
 10
9.53729527689619
 20
-11.60371012432627
 30
0
 10
9.427055406543404
 20
-11.70628992135978
 30
0
 10
9.315717068813582
 20
-11.80782454022138
 30
0
 10
9.203290150846367
 20
-11.90830226359083
 30
0
 10
9.089784664340019
 20
-12.00771146744899
 30
0
 10
8.975210744673356
 20
-12.10604062239779
 30
0
 10
8.859578650013676
 20
-12.20327829497202
 30
0
 10
8.74289876041095
 20
-12.29941314894273
 30
0
 10
8.625181576878038
 20
-12.39443394661212
 30
0
 10
8.506437720457354
 20
-12.48832955009973
 30
0
 10
8.386677931273786
 20
-12.58108892261973
 30
0
 10
8.265913067574123
 20
-12.67270112974941
 30
0
 10
8.14415410475301
 20
-12.76315534068846
 30
0
 10
8.021412134365494
 20
-12.85244082950891
 30
0
 10
7.89769836312632
 20
-12.94054697639591
 30
0
 10
7.773024111895994
 20
-13.02746326887872
 30
0
 10
7.647400814653758
 20
-13.11317930305219
 30
0
 10
7.520840017457522
 20
-13.1976847847884
 30
0
 10
7.393353377390895
 20
-13.28096953093824
 30
0
 10
7.26495266149737
 20
-13.36302347052308
 30
0
 10
7.13564974570178
 20
-13.44383664591605
 30
0
 10
7.005456613719112
 20
-13.52339921401304
 30
0
 10
6.874385355950805
 20
-13.60170144739319
 30
0
 10
6.742448168368602
 20
-13.67873373546877
 30
0
 10
6.609657351386029
 20
-13.75448658562418
 30
0
 10
6.476025308717746
 20
-13.8289506243443
 30
0
 10
6.341564546226648
 20
-13.9021165983315
 30
0
 10
6.206287670759056
 20
-13.97397537561178
 30
0
 10
6.070207388967927
 20
-14.04451794662943
 30
0
 10
5.933336506124312
 20
-14.11373542533038
 30
0
 10
5.795687924917082
 20
-14.18161905023397
 30
0
 10
5.657274644241115
 20
-14.2481601854931
 30
0
 10
5.51810975797399
 20
-14.31335032194249
 30
0
 10
5.378206453741351
 20
-14.37718107813518
 30
0
 10
5.237578011671024
 20
-14.43964420136685
 30
0
 10
5.09623780313603
 20
-14.5007315686881
 30
0
 10
4.954199289486587
 20
-14.56043518790438
 30
0
 10
4.811476020771235
 20
-14.61874719856353
 30
0
 10
4.668081634447233
 20
-14.6756598729309
 30
0
 10
4.524029854080277
 20
-14.73116561695169
 30
0
 10
4.379334488033733
 20
-14.78525697120068
 30
0
 10
4.234009428147497
 20
-14.83792661181908
 30
0
 10
4.088068648406558
 20
-14.8891673514383
 30
0
 10
3.941526203599466
 20
-14.9389721400908
 30
0
 10
3.794396227966778
 20
-14.98733406610766
 30
0
 10
3.646692933839622
 20
-15.03424635700281
 30
0
 10
3.498430610268553
 20
-15.07970238034399
 30
0
 10
3.34962362164275
 20
-15.12369564461005
 30
0
 10
3.200286406299779
 20
-15.16621980003468
 30
0
 10
3.050433475125985
 20
-15.2072686394365
 30
0
 10
2.900079410147686
 20
-15.24683609903516
 30
0
 10
2.749238863113307
 20
-15.28491625925368
 30
0
 10
2.597926554066554
 20
-15.32150334550665
 30
0
 10
2.446157269910824
 20
-15.35659172897434
 30
0
 10
2.29394586296494
 20
-15.39017592736259
 30
0
 10
2.14130724951038
 20
-15.42225060564843
 30
0
 10
1.988256408330139
 20
-15.45281057681117
 30
0
 10
1.834808379239348
 20
-15.48185080254906
 30
0
 10
1.680978261607832
 20
-15.50936639398143
 30
0
 10
1.526781212874706
 20
-15.53535261233596
 30
0
 10
1.372232447055191
 20
-15.55980486962132
 30
0
 10
1.217347233239783
 20
-15.58271872928494
 30
0
 10
1.062140894085918
 20
-15.60408990685568
 30
0
 10
0.9066288043022978
 20
-15.62391427057172
 30
0
 10
0.7508263891260072
 20
-15.64218784199313
 30
0
 10
0.5947491227925896
 20
-15.65890679659927
 30
0
 10
0.4384125269992215
 20
-15.67406746437103
 30
0
 10
0.2818321693611486
 20
-15.68766633035762
 30
0
 10
0.1250236618615258
 20
-15.69970003522793
 30
0
 10
-0.03199734070517395
 20
-15.71016537580642
 30
0
 10
-0.1892151422960343
 20
-15.7190593055934
 30
0
 10
-0.3466140071886941
 20
-15.72637893526968
 30
0
 10
-0.5041781615563139
 20
-15.73212153318553
 30
0
 10
-0.6618917950483524
 20
-15.73628452583372
 30
0
 10
-0.8197390623769941
 20
-15.73886549830689
 30
0
 10
-0.9777040849090727
 20
-15.73986219473885
 30
0
 10
-1.135770952263322
 20
-15.73927251872992
 30
0
 10
-1.293923723912805
 20
-15.73709453375629
 30
0
 10
-1.452146430792346
 20
-15.73332646356318
 30
0
 10
-1.61042307691082
 20
-15.72796669254189
 30
0
 10
-1.768737640968121
 20
-15.72101376609058
 30
0
 10
-1.927074077976659
 20
-15.71246639095881
 30
0
 10
-2.085416320887203
 20
-15.70232343557569
 30
0
 10
-2.243748282218935
 20
-15.69058393036166
 30
0
 10
-2.402053855693521
 20
-15.67724706802389
 30
0
 10
-2.560316917873041
 20
-15.66231220383502
 30
0
 10
-2.718521329801633
 20
-15.64577885589563
 30
0
 10
-2.876650938650635
 20
-15.62764670537979
 30
0
 10
-3.034689579367122
 20
-15.60791559676428
 30
0
 10
-3.192621076325614
 20
-15.58658553804098
 30
0
 10
-3.35042924498281
 20
-15.56365670091253
 30
0
 10
-3.508097893535191
 20
-15.53912942097138
 30
0
 10
-3.665610824579282
 20
-15.51300419786185
 30
0
 10
-3.822951836774472
 20
-15.48528169542559
 30
0
 10
-3.980104726508119
 20
-15.45596274182994
 30
0
 10
-4.137053289562886
 20
-15.4250483296796
 30
0
 10
-4.293781322786053
 20
-15.39253961611127
 30
0
 10
-4.450272625760641
 20
-15.35843792287135
 30
0
 10
-4.606511002478242
 20
-15.3227447363767
 30
0
 10
-4.762480263013294
 20
-15.28546170775837
 30
0
 10
-4.918164225198677
 20
-15.24659065288824
 30
0
 10
-5.073546716302455
 20
-15.2061335523888
 30
0
 10
-5.228611574705567
 20
-15.1640925516256
 30
0
 10
-5.383342651580359
 20
-15.12046996068282
 30
0
 10
-5.537723812569682
 20
-15.07526825432166
 30
0
 10
-5.691738939466441
 20
-15.02849007192153
 30
0
 10
-5.845371931893447
 20
-14.98013821740432
 30
0
 10
-5.998606708983321
 20
-14.93021565914129
 30
0
 10
-6.151427211058335
 20
-14.87872552984294
 30
0
 10
-6.30381740131003
 20
-14.82567112643174
 30
0
 10
-6.455761267478313
 20
-14.77105590989752
 30
0
 10
-6.607242823530075
 20
-14.71488350513598
 30
0
 10
-6.758246111336891
 20
-14.6571577007697
 30
0
 10
-6.908755202351891
 20
-14.59788244895226
 30
0
 10
-7.058754199285378
 20
-14.53706186515498
 30
0
 10
-7.20822723777924
 20
-14.47470022793664
 30
0
 10
-7.357158488079795
 20
-14.4108019786959
 30
0
 10
-7.505532156709045
 20
-14.34537172140671
 30
0
 10
-7.653332488134014
 20
-14.27841422233642
 30
0
 10
-7.800543766434159
 20
-14.20993440974692
 30
0
 10
-7.947150316966521
 20
-14.13993737357844
 30
0
 10
-8.093136508028561
 20
-14.06842836511648
 30
0
 10
-8.2384867525184
 20
-13.9954127966414
 30
0
 10
-8.383185509592417
 20
-13.92089624106117
 30
0
 10
-8.527217286319885
 20
-13.84488443152684
 30
0
 10
-8.670566639334577
 20
-13.76738326103115
 30
0
 10
-8.813218176483117
 20
-13.68839878198998
 30
0
 10
-8.955156558469927
 20
-13.60793720580695
 30
0
 10
-9.096366500498554
 20
-13.52600490242089
 30
0
 10
-9.236832773909239
 20
-13.44260839983656
 30
0
 10
-9.376540207812576
 20
-13.35775438363829
 30
0
 10
-9.515473690718995
 20
-13.27144969648688
 30
0
 10
-9.653618172164002
 20
-13.18370133759958
 30
0
 10
-9.790958664328924
 20
-13.09451646221328
 30
0
 10
-9.92748024365703
 20
-13.003902381031
 30
0
 10
-10.06316805246485
 20
-12.91186655965151
 30
0
 10
-10.19800730054846
 20
-12.81841661798242
 30
0
 10
-10.33198326678468
 20
-12.72356032963651
 30
0
 10
-10.46508130072688
 20
-12.62730562131154
 30
0
 10
-10.59728682419531
 20
-12.52966057215342
 30
0
 10
-10.72858533286177
 20
-12.43063341310301
 30
0
 10
-10.85896239782838
 20
-12.33023252622627
 30
0
 10
-10.98840366720045
 20
-12.22846644402823
 30
0
 10
-11.11689486765296
 20
-12.12534384875036
 30
0
 10
-11.24442180599098
 20
-12.02087357165195
 30
0
 10
-11.37097037070321
 20
-11.91506459227493
 30
0
 10
-11.49652653350915
 20
-11.80792603769273
 30
0
 10
-11.6210763508992
 20
-11.69946718174297
 30
0
 10
-11.74460596566782
 20
-11.58969744424401
 30
0
 10
-11.86710160843949
 20
-11.47862639019566
 30
0
 10
-11.98854959918721
 20
-11.36626372896379
 30
0
 10
-12.10893634874366
 20
-11.25261931344921
 30
0
 10
-12.22824836030446
 20
-11.13770313924074
 30
0
 10
-12.34647223092368
 20
-11.02152534375244
 30
0
 10
-12.46359465300135
 20
-10.90409620534541
 30
0
 10
-12.57960241576269
 20
-10.78542614243379
 30
0
 10
-12.69448240672905
 20
-10.66552571257543
 30
0
 10
-12.80822161318036
 20
-10.54440561154703
 30
0
 10
-12.92080712360881
 20
-10.42207667240405
 30
0
 10
-13.0322261291638
 20
-10.29854986452522
 30
0
 10
-13.14246592508785
 20
-10.17383629264202
 30
0
 10
-13.25151391214335
 20
-10.04794719585295
 30
0
 10
-13.35935759803
 20
-9.920893946622874
 30
0
 10
-13.4659845987928
 20
-9.792688049767401
 30
0
 10
-13.57138264022041
 20
-9.663341141422467
 30
0
 10
-13.67553955923368
 20
-9.532864987999151
 30
0
 10
-13.77844330526433
 20
-9.401271485123853
 30
0
 10
-13.88008194162346
 20
-9.268572656563965
 30
0
 10
-13.98044364685988
 20
-9.134780653139003
 30
0
 10
-14.07951671610796
 20
-8.99990775161746
 30
0
 10
-14.17728956242502
 20
-8.863966353599361
 30
0
 10
-14.27375071811801
 20
-8.726968984384676
 30
0
 10
-14.36888883605923
 20
-8.588928291827663
 30
0
 10
-14.46269269099126
 20
-8.44985704517728
 30
0
 10
-14.55515118082051
 20
-8.309768133903727
 30
0
 10
-14.64625332789968
 20
-8.168674566511276
 30
0
 10
-14.73598828029867
 20
-8.026589469337443
 30
0
 10
-14.82434531306393
 20
-7.883526085338678
 30
0
 10
-14.91131382946613
 20
-7.739497772862595
 30
0
 10
-14.99688336223591
 20
-7.594518004406951
 30
0
 10
-15.08104357478766
 20
-7.448600365365439
 30
0
 10
-15.16378426243111
 20
-7.301758552760366
 30
0
 10
-15.24509535357069
 20
-7.154006373962468
 30
0
 10
-15.32496691089245
 20
-7.005357745397826
 30
0
 10
-15.40338913253837
 20
-6.855826691242117
 30
0
 10
-15.48035235326805
 20
-6.705427342102249
 30
0
 10
-15.55584704560749
 20
-6.554173933685548
 30
0
 10
-15.62986382098502
 20
-6.402080805456632
 30
0
 10
-15.70239343085399
 20
-6.249162399282018
 30
0
 10
-15.77342676780234
 20
-6.095433258062713
 30
0
 10
-15.84295486664879
 20
-5.940908024354783
 30
0
 10
-15.91096890552554
 20
-5.785601438978159
 30
0
 10
-15.97746020694733
 20
-5.629528339613709
 30
0
 10
-16.04242023886684
 20
-5.472703659388768
 30
0
 10
-16.10584061571615
 20
-5.315142425451253
 30
0
 10
-16.16771309943426
 20
-5.156859757532462
 30
0
 10
-16.22802960048046
 20
-4.997870866498752
 30
0
 10
-16.28678217883362
 20
-4.838191052892197
 30
0
 10
-16.34396304497687
 20
-4.677835705460339
 30
0
 10
-16.39956456086811
 20
-4.516820299675271
 30
0
 10
-16.45357924089573
 20
-4.355160396242075
 30
0
 10
-16.50599975281971
 20
-4.192871639596833
 30
0
 10
-16.55681891869802
 20
-4.029969756394354
 30
0
 10
-16.60602971579783
 20
-3.866470553985703
 30
0
 10
-16.65362527749202
 20
-3.702389918885778
 30
0
 10
-16.6995988941403
 20
-3.53774381523098
 30
0
 10
-16.74394401395521
 20
-3.372548283227199
 30
0
 10
-16.78665424385276
 20
-3.206819437588224
 30
0
 10
-16.82772335028754
 20
-3.04057346596477
 30
0
 10
-16.86714526007236
 20
-2.873826627364219
 30
0
 10
-16.90491406118219
 20
-2.706595250561293
 30
0
 10
-16.94102400354234
 20
-2.538895732499751
 30
0
 10
-16.97546949980078
 20
-2.370744536685332
 30
0
 10
-17.00824512608451
 20
-2.202158191570031
 30
0
 10
-17.03934562273986
 20
-2.033153288927931
 30
0
 10
-17.0687658950567
 20
-1.863746482222706
 30
0
 10
-17.09650101397635
 20
-1.693954484966981
 30
0
 10
-17.12254621678315
 20
-1.523794069073691
 30
0
 10
-17.14689690777974
 20
-1.353282063199627
 30
0
 10
-17.16954865894564
 20
-1.182435351081299
 30
0
 10
-17.19049721057943
 20
-1.011270869863316
 30
0
 10
-17.2097384719241
 20
-0.8398056084194195
 30
0
 10
-17.22726852177579
 20
-0.6680566056663548
 30
0
 10
-17.2430836090755
 20
-0.496040948870739
 30
0
 10
-17.25718015348414
 20
-0.3237757719491005
 30
0
 10
-17.26955474594033
 20
-0.151278253761249
 30
0
 10
-17.28020414920128
 20
0.02143438360284357
 30
0
 10
-17.28912529836654
 20
0.1943448765424852
 30
0
 10
-17.29631530138438
 20
0.367435921671859
 30
0
 10
-17.30177143954108
 20
0.540690177551594
 30
0
 10
-17.30549116793271
 20
0.7140902664261443
 30
0
 10
-17.30747211591959
 20
0.8876187759667946
 30
0
 10
-17.30771208756318
 20
1.061258261020128
 30
0
 10
-17.30620906204546
 20
1.234991245361771
 30
0
 10
-17.30296119407074
 20
1.408800223455242
 30
0
 10
-17.29796681424964
 20
1.582667662215725
 30
0
 10
-17.29122442946559
 20
1.756576002778608
 30
0
 10
-17.28273272322326
 20
1.930507662272569
 30
0
 10
-17.27249055597934
 20
2.104445035597071
 30
0
 10
-17.26049696545535
 20
2.278370497204067
 30
0
 10
-17.24675116693258
 20
2.452266402883735
 30
0
 10
-17.2312525535288
 20
2.626115091554061
 30
0
 10
-17.2140006964573
 20
2.799898887054102
 30
0
 10
-17.19499534526747
 20
2.973600099940726
 30
0
 10
-17.17423642806746
 20
3.14720102928866
 30
0
 10
-17.15172405172865
 20
3.320683964493676
 30
0
 10
-17.12745850207179
 20
3.494031187078683
 30
0
 10
-17.101440244035
 20
3.667224972502606
 30
0
 10
-17.07366992182343
 20
3.840247591971812
 30
0
 10
-17.04414835904057
 20
4.013081314253942
 30
0
 10
-17.01287655880131
 20
4.18570840749392
 30
0
 10
-16.97985570382637
 20
4.358111141031986
 30
0
 10
-16.94508715651867
 20
4.530271787223569
 30
0
 10
-16.9085724590209
 20
4.702172623260769
 30
0
 10
-16.87031333325485
 20
4.873795932995327
 30
0
 10
-16.83031168094215
 20
5.045124008762841
 30
0
 10
-16.78856958360651
 20
5.216139153208054
 30
0
 10
-16.74508930255742
 20
5.386823681111062
 30
0
 10
-16.69987327885535
 20
5.557159921214194
 30
0
 10
-16.65292413325825
 20
5.727130218049412
 30
0
 10
-16.60424466614968
 20
5.896716933766059
 30
0
 10
-16.55383785744809
 20
6.065902449958713
 30
0
 10
-16.50170686649773
 20
6.234669169494989
 30
0
 10
-16.4478550319408
 20
6.402999518343143
 30
0
 10
-16.392285871571
 20
6.570875947399166
 30
0
 10
-16.33500308216858
 20
6.73828093431334
 30
0
 10
-16.27601053931656
 20
6.905196985315919
 30
0
 10
-16.21531229719851
 20
7.071606637041831
 30
0
 10
-16.15291258837764
 20
7.23749245835421
 30
0
 10
-16.08881582355721
 20
7.402837052166503
 30
0
 10
-16.02302659132244
 20
7.567623057263039
 30
0
 10
-15.95554965786373
 20
7.731833150117815
 30
0
 10
-15.8863899666813
 20
7.895450046711366
 30
0
 10
-15.81555263827129
 20
8.058456504345417
 30
0
 10
-15.74304296979323
 20
8.220835323455317
 30
0
 10
-15.66886643471901
 20
8.38256934941983
 30
0
 10
-15.59302868246321
 20
8.543641474368293
 30
0
 10
-15.51553553799505
 20
8.704034638984853
 30
0
 10
-15.43639300143176
 20
8.863731834309601
 30
0
 10
-15.35560724761343
 20
9.022716103536419
 30
0
 10
-15.27318462565955
 20
9.180970543807398
 30
0
 10
-15.18913165850695
 20
9.338478308003527
 30
0
 10
-15.10345504242953
 20
9.495222606531605
 30
0
 10
-15.01616164653943
 20
9.651186709107053
 30
0
 10
-14.92725851227008
 20
9.80635394653255
 30
0
 10
-14.83675285284075
 20
9.96070771247221
 30
0
 10
-14.74465205270299
 20
10.11423146522118
 30
0
 10
-14.65096366696875
 20
10.26690872947047
 30
0
 10
-14.55569542082045
 20
10.41872309806671
 30
0
 10
-14.4588552089027
 20
10.56965823376688
 30
0
 10
-14.36045109469615
 20
10.71969787098756
 30
0
 10
-14.26049130987315
 20
10.86882581754871
 30
0
 10
-14.15898425363546
 20
11.01702595641173
 30
0
 10
-14.05593849203402
 20
11.16428224741155
 30
0
 10
-13.95136275727077
 20
11.31057872898267
 30
0
 10
-13.84526594698273
 20
11.45589951987895
 30
0
 10
-13.73765712350815
 20
11.60022882088681
 30
0
 10
-13.62854551313505
 20
11.74355091653194
 30
0
 10
-13.51794050533207
 20
11.88585017677905
 30
0
 10
-13.40585165196163
 20
12.02711105872469
 30
0
 10
-13.29228866647566
 20
12.1673181082828
 30
0
 10
-13.17726142309377
 20
12.30645596186297
 30
0
 10
-13.06077995596402
 20
12.44450934804099
 30
0
 10
-12.9428544583064
 20
12.58146308922187
 30
0
 10
-12.82349528153897
 20
12.71730210329475
 30
0
 10
-12.70271293438683
 20
12.85201140527978
 30
0
 10
-12.58051808197397
 20
12.98557610896677
 30
0
 10
-12.45692154489806
 20
13.11798142854529
 30
0
 10
-12.3319342982883
 20
13.24921268022622
 30
0
 10
-12.20556747084632
 20
13.37925528385443
 30
0
 10
-12.07783234387034
 20
13.50809476451248
 30
0
 10
-11.94874035026257
 20
13.63571675411522
 30
0
 10
-11.81830307351996
 20
13.76210699299498
 30
0
 10
-11.68653224670844
 20
13.88725133147728
 30
0
 10
-11.55343975142066
 20
14.01113573144687
 30
0
 10
-11.41903761671742
 20
14.1337462679039
 30
0
 10
-11.2833380180527
 20
14.25506913051008
 30
0
 10
-11.14635327618269
 20
14.37509062512465
 30
0
 10
-11.03871006673829
 20
14.46751209541315
 30
0
 10
-11
 20
14.50037411797469
 30
0
  0
LINE
  5
4F
100
AcDbEntity
  8
0
  6
ByLayer
 62
  256
370
   -1
100
AcDbLine
 10
-11
 20
14.50037411797469
 11
-11
 21
58.00000000000001
  0
ARC
  5
50
100
AcDbEntity
  8
0
  6
ByLayer
 62
  256
370
   -1
100
AcDbCircle
 10
-9
 20
58
 40
2
100
AcDbArc
 50
90
 51
179.9999999999998
  0
LINE
  5
51
100
AcDbEntity
  8
0
  6
ByLayer
 62
  256
370
   -1
100
AcDbLine
 10
-9
 20
60
 11
-1.786168346906027
 21
60
  0
LINE
  5
52
100
AcDbEntity
  8
0
  6
ByLayer
 62
  256
370
   -1
100
AcDbLine
 10
0.2011135866079475
 20
58.22518995698957
 11
5.462171478746319
 21
11.79680815885255
  0
ARC
  5
53
100
AcDbEntity
  8
0
  6
ByLayer
 62
  256
370
   -1
100
AcDbCircle
 10
-1.786168346906027
 20
58
 40
2
100
AcDbArc
 50
6.464926441074354
 51
90.00000000000003
  0
CIRCLE
  5
54
100
AcDbEntity
  8
0
  6
ByLayer
 62
  256
370
   -1
100
AcDbCircle
 10
20
 20
40
 40
12
  0
CIRCLE
  5
55
100
AcDbEntity
  8
0
  6
ByLayer
 62
  256
370
   -1
100
AcDbCircle
 10
20
 20
18
 40
8
  0
CIRCLE
  5
56
100
AcDbEntity
  8
0
  6
ByLayer
 62
  256
370
   -1
100
AcDbCircle
 10
20
 20
40
 40
3
  0
CIRCLE
  5
57
100
AcDbEntity
  8
0
  6
ByLayer
 62
  256
370
   -1
100
AcDbCircle
 10
20
 20
18
 40
3
  0
ENDSEC
  0
SECTION
  2
OBJECTS
  0
DICTIONARY
  5
C
330
0
100
AcDbDictionary
281
    1
  3
ACAD_GROUP
350
D
  0
DICTIONARY
  5
D
330
C
100
AcDbDictionary
281
    1
  0
PLOTSETTINGS
  5
58
100
AcDbPlotSettings
  6
1x1
 40
0
 41
0
 42
0
 43
0
  0
ENDSEC
  0
EOF
