999
dxfrw 0.6.3
  0
SECTION
  2
HEADER
  9
$ACADVER
  1
AC1021
  9
$DWGCODEPAGE
  3
ANSI_1252
  9
$INSBASE
 10
0
 20
0
 30
0
  9
$EXTMIN
 10
10.0004
 20
69.1596
 30
0
  9
$EXTMAX
 10
219.08
 20
318.2538116518799
 30
0
  9
$LIMMIN
 10
0
 20
0
  9
$LIMMAX
 10
420
 20
297
  9
$ORTHOMODE
 70
    0
  9
$REGENMODE
 70
    1
  9
$FILLMODE
 70
    0
  9
$QTEXTMODE
 70
    0
  9
$MIRRTEXT
 70
    0
  9
$LTSCALE
 40
1
  9
$ATTMODE
 70
    0
  9
$TEXTSIZE
 40
2.5
  9
$TRACEWID
 40
15.68
  9
$TEXTSTYLE
  7
STANDARD
  9
$CLAYER
  8
0
  9
$CELTYPE
  6
BYLAYER
  9
$CECOLOR
 62
  256
  9
$CELTSCALE
 40
1
  9
$DISPSILH
 70
    0
  9
$DIMSCALE
 40
2.5
  9
$DIMASZ
 40
2.5
  9
$DIMEXO
 40
0.625
  9
$DIMDLI
 40
3.75
  9
$DIMRND
 40
0
  9
$DIMDLE
 40
0
  9
$DIMEXE
 40
1.25
  9
$DIMTP
 40
0
  9
$DIMTM
 40
0
  9
$DIMTXT
 40
2.5
  9
$DIMCEN
 40
2.5
  9
$DIMTSZ
 40
0
  9
$DIMTOL
 70
    0
  9
$DIMLIM
 70
    0
  9
$DIMTIH
 70
    0
  9
$DIMTOH
 70
    0
  9
$DIMSE1
 70
    0
  9
$DIMSE2
 70
    0
  9
$DIMTAD
 70
    1
  9
$DIMZIN
 70
    8
  9
$DIMBLK
  1

  9
$DIMASO
 70
    1
  9
$DIMSHO
 70
    1
  9
$DIMPOST
  1

  9
$DIMAPOST
  1

  9
$DIMALT
 70
    0
  9
$DIMALTD
 70
    3
  9
$DIMALTF
 40
0.03937
  9
$DIMLFAC
 40
1
  9
$DIMTOFL
 70
    1
  9
$DIMTVP
 40
0
  9
$DIMTIX
 70
    0
  9
$DIMSOXD
 70
    0
  9
$DIMSAH
 70
    0
  9
$DIMBLK1
  1

  9
$DIMBLK2
  1

  9
$DIMSTYLE
  2
Standard
  9
$DIMCLRD
 70
    0
  9
$DIMCLRE
 70
    0
  9
$DIMCLRT
 70
    0
  9
$DIMTFAC
 40
1
  9
$DIMGAP
 40
0.625
  9
$DIMJUST
 70
    0
  9
$DIMSD1
 70
    0
  9
$DIMSD2
 70
    0
  9
$DIMTOLJ
 70
    0
  9
$DIMTZIN
 70
    8
  9
$DIMALTZ
 70
    0
  9
$DIMALTTZ
 70
    0
  9
$DIMUPT
 70
    0
  9
$DIMDEC
 70
    2
  9
$DIMTDEC
 70
    2
  9
$DIMALTU
 70
    2
  9
$DIMALTTD
 70
    3
  9
$DIMTXSTY
  7
STANDARD
  9
$DIMAUNIT
 70
    0
  9
$DIMADEC
 70
    0
  9
$DIMALTRND
 40
0
  9
$DIMAZIN
 70
    0
  9
$DIMDSEP
 70
   44
  9
$DIMATFIT
 70
    3
  9
$DIMFRAC
 70
    0
  9
$DIMLDRBLK
  1
STANDARD
  9
$DIMLUNIT
 70
    2
  9
$DIMLWD
 70
   -2
  9
$DIMLWE
 70
   -2
  9
$DIMTMOVE
 70
    0
  9
$DIMFXL
 40
1
  9
$DIMFXLON
 70
    0
  9
$DIMJOGANG
 40
0.7854
  9
$DIMTFILL
 70
    0
  9
$DIMTFILLCLR
 70
    0
  9
$DIMARCSYM
 70
    0
  9
$DIMLTYPE
  6

  9
$DIMLTEX1
  6

  9
$DIMLTEX2
  6

  9
$LUNITS
 70
    2
  9
$LUPREC
 70
    4
  9
$SKETCHINC
 40
1
  9
$FILLETRAD
 40
0
  9
$AUNITS
 70
    0
  9
$AUPREC
 70
    2
  9
$MENU
  1
.
  9
$ELEVATION
 40
0
  9
$PELEVATION
 40
0
  9
$THICKNESS
 40
0
  9
$LIMCHECK
 70
    0
  9
$CHAMFERA
 40
0
  9
$CHAMFERB
 40
0
  9
$CHAMFERC
 40
0
  9
$CHAMFERD
 40
0
  9
$SKPOLY
 70
    0
  9
$USRTIMER
 70
    1
  9
$ANGBASE
 50
0
  9
$ANGDIR
 70
    0
  9
$PDMODE
 70
   34
  9
$PDSIZE
 40
0
  9
$PLINEWID
 40
0
  9
$SPLFRAME
 70
    1
  9
$SPLINETYPE
 70
    2
  9
$SPLINESEGS
 70
    8
  9
$HANDSEED
  5
20000
  9
$SURFTAB1
 70
    6
  9
$SURFTAB2
 70
    6
  9
$SURFTYPE
 70
    6
  9
$SURFU
 70
    6
  9
$SURFV
 70
    6
  9
$UCSBASE
  2

  9
$UCSNAME
  2

  9
$UCSORG
 10
0
 20
0
 30
0
  9
$UCSXDIR
 10
1
 20
0
 30
0
  9
$UCSYDIR
 10
0
 20
1
 30
0
  9
$UCSORTHOREF
  2

  9
$UCSORTHOVIEW
 70
    0
  9
$UCSORGTOP
 10
0
 20
0
 30
0
  9
$UCSORGBOTTOM
 10
0
 20
0
 30
0
  9
$UCSORGLEFT
 10
0
 20
0
 30
0
  9
$UCSORGRIGHT
 10
0
 20
0
 30
0
  9
$UCSORGFRONT
 10
0
 20
0
 30
0
  9
$UCSORGBACK
 10
0
 20
0
 30
0
  9
$PUCSBASE
  2

  9
$PUCSNAME
  2

  9
$PUCSORG
 10
0
 20
0
 30
0
  9
$PUCSXDIR
 10
1
 20
0
 30
0
  9
$PUCSYDIR
 10
0
 20
1
 30
0
  9
$PUCSORTHOREF
  2

  9
$PUCSORTHOVIEW
 70
    0
  9
$PUCSORGTOP
 10
0
 20
0
 30
0
  9
$PUCSORGBOTTOM
 10
0
 20
0
 30
0
  9
$PUCSORGLEFT
 10
0
 20
0
 30
0
  9
$PUCSORGRIGHT
 10
0
 20
0
 30
0
  9
$PUCSORGFRONT
 10
0
 20
0
 30
0
  9
$PUCSORGBACK
 10
0
 20
0
 30
0
  9
$USERI1
 70
    0
  9
$USERI2
 70
    0
  9
$USERI3
 70
    0
  9
$USERI4
 70
    0
  9
$USERI5
 70
    0
  9
$USERR1
 40
0
  9
$USERR2
 40
0
  9
$USERR3
 40
0
  9
$USERR4
 40
0
  9
$USERR5
 40
0
  9
$WORLDVIEW
 70
    1
  9
$SHADEDGE
 70
    3
  9
$SHADEDIF
 70
   70
  9
$TILEMODE
 70
    1
  9
$MAXACTVP
 70
   64
  9
$PINSBASE
 10
0
 20
0
 30
0
  9
$PLIMCHECK
 70
    0
  9
$PEXTMIN
 10
0
 20
0
 30
0
  9
$PEXTMAX
 10
0
 20
0
 30
0
  9
$SNAPSTYLE
 70
    0
  9
$PLIMMIN
 10
0
 20
0
  9
$PLIMMAX
 10
210
 20
297
  9
$UNITMODE
 70
    0
  9
$VISRETAIN
 70
    1
  9
$PLINEGEN
 70
    0
  9
$PSLTSCALE
 70
    1
  9
$TREEDEPTH
 70
 3020
  9
$CMLSTYLE
  2
Standard
  9
$CMLJUST
 70
    0
  9
$CMLSCALE
 40
20
  9
$PROXYGRAPHICS
 70
    1
  9
$MEASUREMENT
 70
    1
  9
$CELWEIGHT
370
   -1
  9
$ENDCAPS
280
    0
  9
$JOINSTYLE
280
    0
  9
$LWDISPLAY
290
    0
  9
$INSUNITS
 70
    4
  9
$HYPERLINKBASE
  1

  9
$STYLESHEET
  1

  9
$XEDIT
290
    1
  9
$CEPSNTYPE
380
    0
  9
$PSTYLEMODE
290
    1
  9
$EXTNAMES
290
    1
  9
$PSVPSCALE
 40
1
  9
$OLESTARTUP
290
    0
  9
$SORTENTS
280
  127
  9
$INDEXCTL
280
    0
  9
$HIDETEXT
280
    1
  9
$XCLIPFRAME
290
    0
  9
$HALOGAP
280
    0
  9
$OBSCOLOR
 70
  257
  9
$OBSLTYPE
280
    0
  9
$INTERSECTIONDISPLAY
280
    0
  9
$INTERSECTIONCOLOR
 70
  257
  9
$DIMASSOC
280
    1
  9
$PROJECTNAME
  1

  9
$CAMERADISPLAY
290
    0
  9
$LENSLENGTH
 40
50
  9
$CAMERAHEIGHT
 40
0
  9
$STEPSPERSEC
 40
2
  9
$STEPSIZE
 40
50
  9
$3DDWFPREC
 40
2
  9
$PSOLWIDTH
 40
5
  9
$PSOLHEIGHT
 40
80
  9
$LOFTANG1
 40
1.570796326794897
  9
$LOFTANG2
 40
1.570796326794897
  9
$LOFTMAG1
 40
0
  9
$LOFTMAG2
 40
0
  9
$LOFTPARAM
 70
    7
  9
$LOFTNORMALS
280
    1
  9
$LATITUDE
 40
1
  9
$LONGITUDE
 40
1
  9
$NORTHDIRECTION
 40
0
  9
$TIMEZONE
 70
-8000
  9
$LIGHTGLYPHDISPLAY
280
    1
  9
$TILEMODELIGHTSYNCH
280
    1
  9
$SOLIDHIST
280
    1
  9
$SHOWHIST
280
    1
  9
$DWFFRAME
280
    2
  9
$DGNFRAME
280
    0
  9
$REALWORLDSCALE
290
    1
  9
$INTERFERECOLOR
 62
    1
  9
$CSHADOW
280
    0
  9
$SHADOWPLANELOCATION
 40
0
  0
ENDSEC
  0
SECTION
  2
CLASSES
  0
ENDSEC
  0
SECTION
  2
TABLES
  0
TABLE
  2
VPORT
  5
8
330
0
100
AcDbSymbolTable
 70
    1
  0
VPORT
  5
31
330
2
100
AcDbSymbolTableRecord
100
AcDbViewportTableRecord
  2
*ACTIVE
 70
    0
 10
0
 20
0
 11
1
 21
1
 12
345.993057835566
 22
210.5285710139721
 13
0
 23
0
 14
10
 24
10
 15
10
 25
10
 16
0
 26
0
 36
1
 17
0
 27
0
 37
0
 40
579.5645570202216
 41
1.832530120481928
 42
50
 43
0
 44
0
 50
0
 51
0
 71
    0
 72
  100
 73
    1
 74
    3
 75
    0
 76
    1
 77
    0
 78
    0
281
    0
 65
    1
110
0
120
0
130
0
111
1
121
0
131
0
112
0
122
1
132
0
 79
    0
146
0
348
10020
 60
    7
 61
    5
292
1
282
    1
141
0
142
0
 63
  250
421
3358443
  0
ENDTAB
  0
TABLE
  2
LTYPE
  5
5
330
0
100
AcDbSymbolTable
 70
    4
  0
LTYPE
  5
14
330
5
100
AcDbSymbolTableRecord
100
AcDbLinetypeTableRecord
  2
ByBlock
 70
    0
  3

 72
   65
 73
    0
 40
0
  0
LTYPE
  5
15
330
5
100
AcDbSymbolTableRecord
100
AcDbLinetypeTableRecord
  2
ByLayer
 70
    0
  3

 72
   65
 73
    0
 40
0
  0
LTYPE
  5
16
330
5
100
AcDbSymbolTableRecord
100
AcDbLinetypeTableRecord
  2
Continuous
 70
    0
  3
Solid line
 72
   65
 73
    0
 40
0
  0
LTYPE
  5
32
330
5
100
AcDbSymbolTableRecord
100
AcDbLinetypeTableRecord
  2
DOT
 70
    0
  3
Dot . . . . . . . . . . . . . . . . . . . . . .
 72
   65
 73
    2
 40
6.35
 49
0
 74
    0
 49
-6.35
 74
    0
  0
LTYPE
  5
33
330
5
100
AcDbSymbolTableRecord
100
AcDbLinetypeTableRecord
  2
DOTTINY
 70
    0
  3
Dot (.15x) .....................................
 72
   65
 73
    2
 40
0.9525
 49
0
 74
    0
 49
-0.9525
 74
    0
  0
LTYPE
  5
34
330
5
100
AcDbSymbolTableRecord
100
AcDbLinetypeTableRecord
  2
DOT2
 70
    0
  3
Dot (.5x) .....................................
 72
   65
 73
    2
 40
3.175
 49
0
 74
    0
 49
-3.175
 74
    0
  0
LTYPE
  5
35
330
5
100
AcDbSymbolTableRecord
100
AcDbLinetypeTableRecord
  2
DOTX2
 70
    0
  3
Dot (2x) .  .  .  .  .  .  .  .  .  .  .  .  .
 72
   65
 73
    2
 40
12.7
 49
0
 74
    0
 49
-12.7
 74
    0
  0
LTYPE
  5
36
330
5
100
AcDbSymbolTableRecord
100
AcDbLinetypeTableRecord
  2
DASHED
 70
    0
  3
Dashed _ _ _ _ _ _ _ _ _ _ _ _ _ _ _ _ _
 72
   65
 73
    2
 40
19.05
 49
12.7
 74
    0
 49
-6.35
 74
    0
  0
LTYPE
  5
37
330
5
100
AcDbSymbolTableRecord
100
AcDbLinetypeTableRecord
  2
DASHEDTINY
 70
    0
  3
Dashed (.15x) _ _ _ _ _ _ _ _ _ _ _ _ _ _ _ _ _
 72
   65
 73
    2
 40
2.8575
 49
1.905
 74
    0
 49
-0.9525
 74
    0
  0
LTYPE
  5
38
330
5
100
AcDbSymbolTableRecord
100
AcDbLinetypeTableRecord
  2
DASHED2
 70
    0
  3
Dashed (.5x) _ _ _ _ _ _ _ _ _ _ _ _ _ _ _ _ _
 72
   65
 73
    2
 40
9.524999999999999
 49
6.35
 74
    0
 49
-3.175
 74
    0
  0
LTYPE
  5
39
330
5
100
AcDbSymbolTableRecord
100
AcDbLinetypeTableRecord
  2
DASHEDX2
 70
    0
  3
Dashed (2x) ____  ____  ____  ____  ____  ___
 72
   65
 73
    2
 40
38.09999999999999
 49
25.4
 74
    0
 49
-12.7
 74
    0
  0
LTYPE
  5
3A
330
5
100
AcDbSymbolTableRecord
100
AcDbLinetypeTableRecord
  2
DASHDOT
 70
    0
  3
Dash dot __ . __ . __ . __ . __ . __ . __ . __
 72
   65
 73
    4
 40
25.4
 49
12.7
 74
    0
 49
-6.35
 74
    0
 49
0
 74
    0
 49
-6.35
 74
    0
  0
LTYPE
  5
3B
330
5
100
AcDbSymbolTableRecord
100
AcDbLinetypeTableRecord
  2
DASHDOTTINY
 70
    0
  3
Dash dot (.15x) _._._._._._._._._._._._._._._.
 72
   65
 73
    4
 40
3.81
 49
1.905
 74
    0
 49
-0.9525
 74
    0
 49
0
 74
    0
 49
-0.9525
 74
    0
  0
LTYPE
  5
3C
330
5
100
AcDbSymbolTableRecord
100
AcDbLinetypeTableRecord
  2
DASHDOT2
 70
    0
  3
Dash dot (.5x) _._._._._._._._._._._._._._._.
 72
   65
 73
    4
 40
12.7
 49
6.35
 74
    0
 49
-3.175
 74
    0
 49
0
 74
    0
 49
-3.175
 74
    0
  0
LTYPE
  5
3D
330
5
100
AcDbSymbolTableRecord
100
AcDbLinetypeTableRecord
  2
DASHDOTX2
 70
    0
  3
Dash dot (2x) ____  .  ____  .  ____  .  ___
 72
   65
 73
    4
 40
50.8
 49
25.4
 74
    0
 49
-12.7
 74
    0
 49
0
 74
    0
 49
-12.7
 74
    0
  0
LTYPE
  5
3E
330
5
100
AcDbSymbolTableRecord
100
AcDbLinetypeTableRecord
  2
DIVIDE
 70
    0
  3
Divide ____ . . ____ . . ____ . . ____ . . ____
 72
   65
 73
    6
 40
31.75
 49
12.7
 74
    0
 49
-6.35
 74
    0
 49
0
 74
    0
 49
-6.35
 74
    0
 49
0
 74
    0
 49
-6.35
 74
    0
  0
LTYPE
  5
3F
330
5
100
AcDbSymbolTableRecord
100
AcDbLinetypeTableRecord
  2
DIVIDETINY
 70
    0
  3
Divide (.15x) __..__..__..__..__..__..__..__.._
 72
   65
 73
    6
 40
4.7625
 49
1.905
 74
    0
 49
-0.9525
 74
    0
 49
0
 74
    0
 49
-0.9525
 74
    0
 49
0
 74
    0
 49
-0.9525
 74
    0
  0
LTYPE
  5
40
330
5
100
AcDbSymbolTableRecord
100
AcDbLinetypeTableRecord
  2
DIVIDE2
 70
    0
  3
Divide (.5x) __..__..__..__..__..__..__..__.._
 72
   65
 73
    6
 40
15.875
 49
6.35
 74
    0
 49
-3.175
 74
    0
 49
0
 74
    0
 49
-3.175
 74
    0
 49
0
 74
    0
 49
-3.175
 74
    0
  0
LTYPE
  5
41
330
5
100
AcDbSymbolTableRecord
100
AcDbLinetypeTableRecord
  2
DIVIDEX2
 70
    0
  3
Divide (2x) ________  .  .  ________  .  .  _
 72
   65
 73
    6
 40
63.5
 49
25.4
 74
    0
 49
-12.7
 74
    0
 49
0
 74
    0
 49
-12.7
 74
    0
 49
0
 74
    0
 49
-12.7
 74
    0
  0
LTYPE
  5
42
330
5
100
AcDbSymbolTableRecord
100
AcDbLinetypeTableRecord
  2
BORDER
 70
    0
  3
Border __ __ . __ __ . __ __ . __ __ . __ __ .
 72
   65
 73
    6
 40
44.45
 49
12.7
 74
    0
 49
-6.35
 74
    0
 49
12.7
 74
    0
 49
-6.35
 74
    0
 49
0
 74
    0
 49
-6.35
 74
    0
  0
LTYPE
  5
43
330
5
100
AcDbSymbolTableRecord
100
AcDbLinetypeTableRecord
  2
BORDERTINY
 70
    0
  3
Border (.15x) __.__.__.__.__.__.__.__.__.__.__.
 72
   65
 73
    6
 40
6.6675
 49
1.905
 74
    0
 49
-0.9525
 74
    0
 49
1.905
 74
    0
 49
-0.9525
 74
    0
 49
0
 74
    0
 49
-0.9525
 74
    0
  0
LTYPE
  5
44
330
5
100
AcDbSymbolTableRecord
100
AcDbLinetypeTableRecord
  2
BORDER2
 70
    0
  3
Border (.5x) __.__.__.__.__.__.__.__.__.__.__.
 72
   65
 73
    6
 40
22.225
 49
6.35
 74
    0
 49
-3.175
 74
    0
 49
6.35
 74
    0
 49
-3.175
 74
    0
 49
0
 74
    0
 49
-3.175
 74
    0
  0
LTYPE
  5
45
330
5
100
AcDbSymbolTableRecord
100
AcDbLinetypeTableRecord
  2
BORDERX2
 70
    0
  3
Border (2x) ____  ____  .  ____  ____  .  ___
 72
   65
 73
    6
 40
88.89999999999999
 49
25.4
 74
    0
 49
-12.7
 74
    0
 49
25.4
 74
    0
 49
-12.7
 74
    0
 49
0
 74
    0
 49
-12.7
 74
    0
  0
LTYPE
  5
46
330
5
100
AcDbSymbolTableRecord
100
AcDbLinetypeTableRecord
  2
CENTER
 70
    0
  3
Center ____ _ ____ _ ____ _ ____ _ ____ _ ____
 72
   65
 73
    4
 40
50.8
 49
31.75
 74
    0
 49
-6.35
 74
    0
 49
6.35
 74
    0
 49
-6.35
 74
    0
  0
LTYPE
  5
47
330
5
100
AcDbSymbolTableRecord
100
AcDbLinetypeTableRecord
  2
CENTERTINY
 70
    0
  3
Center (.15x) ___ _ ___ _ ___ _ ___ _ ___ _ ___
 72
   65
 73
    4
 40
7.619999999999999
 49
4.7625
 74
    0
 49
-0.9525
 74
    0
 49
0.9525
 74
    0
 49
-0.9525
 74
    0
  0
LTYPE
  5
48
330
5
100
AcDbSymbolTableRecord
100
AcDbLinetypeTableRecord
  2
CENTER2
 70
    0
  3
Center (.5x) ___ _ ___ _ ___ _ ___ _ ___ _ ___
 72
   65
 73
    4
 40
28.575
 49
19.05
 74
    0
 49
-3.175
 74
    0
 49
3.175
 74
    0
 49
-3.175
 74
    0
  0
LTYPE
  5
49
330
5
100
AcDbSymbolTableRecord
100
AcDbLinetypeTableRecord
  2
CENTERX2
 70
    0
  3
Center (2x) ________  __  ________  __  _____
 72
   65
 73
    4
 40
101.6
 49
63.5
 74
    0
 49
-12.7
 74
    0
 49
12.7
 74
    0
 49
-12.7
 74
    0
  0
ENDTAB
  0
TABLE
  2
LAYER
  5
2
330
0
100
AcDbSymbolTable
 70
    1
  0
LAYER
  5
10
330
2
100
AcDbSymbolTableRecord
100
AcDbLayerTableRecord
  2
0
 70
    0
 62
    7
  6
CONTINUOUS
370
   -3
390
F
  0
ENDTAB
  0
TABLE
  2
STYLE
  5
3
330
0
100
AcDbSymbolTable
 70
    3
  0
STYLE
  5
4A
330
2
100
AcDbSymbolTableRecord
100
AcDbTextStyleTableRecord
  2
Standard
 70
    0
 40
0
 41
1
 50
0
 71
    0
 42
1
  3
txt
  4

  0
ENDTAB
  0
TABLE
  2
VIEW
  5
6
330
0
100
AcDbSymbolTable
 70
    0
  0
ENDTAB
  0
TABLE
  2
UCS
  5
7
330
0
100
AcDbSymbolTable
 70
    0
  0
ENDTAB
  0
TABLE
  2
APPID
  5
9
330
0
100
AcDbSymbolTable
 70
    1
  0
APPID
  5
12
330
9
100
AcDbSymbolTableRecord
100
AcDbRegAppTableRecord
  2
ACAD
 70
    0
  0
APPID
  5
4B
330
9
100
AcDbSymbolTableRecord
100
AcDbRegAppTableRecord
  2
LibreCad
 70
    0
  0
ENDTAB
  0
TABLE
  2
DIMSTYLE
  5
A
330
0
100
AcDbSymbolTable
 70
    1
100
AcDbDimStyleTable
 71
    1
  0
DIMSTYLE
105
4C
330
A
100
AcDbSymbolTableRecord
100
AcDbDimStyleTableRecord
  2
Standard
 70
    0
 40
1
 41
2.5
 42
0.625
 43
0.38
 44
1.25
 45
0
 46
0
 47
0
 48
0
 49
1
140
2.5
141
0.09
142
2.5
143
25.4
144
1
145
0
146
1
147
0.625
148
0
 71
    0
 72
    0
 73
    0
 74
    1
 75
    0
 76
    0
 77
    0
 78
    1
 79
    0
170
    0
171
    2
172
    0
173
    0
174
    0
175
    0
176
    0
177
    0
178
    0
179
    0
271
    2
272
    4
273
    2
274
    2
275
    0
276
    0
277
    2
278
    0
279
    0
280
    0
281
    0
282
    0
283
    1
284
    0
285
    0
286
    0
288
    0
289
    3
340
standard
341

371
   -2
372
   -2
  0
ENDTAB
  0
TABLE
  2
BLOCK_RECORD
  5
1
330
0
100
AcDbSymbolTable
 70
    2
  0
BLOCK_RECORD
  5
1F
330
1
100
AcDbSymbolTableRecord
100
AcDbBlockTableRecord
  2
*Model_Space
 70
    0
280
    1
281
    0
  0
BLOCK_RECORD
  5
1E
330
1
100
AcDbSymbolTableRecord
100
AcDbBlockTableRecord
  2
*Paper_Space
 70
    0
280
    1
281
    0
  0
ENDTAB
  0
ENDSEC
  0
SECTION
  2
BLOCKS
  0
BLOCK
  5
20
330
1F
100
AcDbEntity
  8
0
100
AcDbBlockBegin
  2
*Model_Space
 70
    0
 10
0
 20
0
 30
0
  3
*Model_Space
  1

  0
ENDBLK
  5
21
330
1F
100
AcDbEntity
  8
0
100
AcDbBlockEnd
  0
BLOCK
  5
1C
330
1B
100
AcDbEntity
  8
0
100
AcDbBlockBegin
  2
*Paper_Space
 70
    0
 10
0
 20
0
 30
0
  3
*Paper_Space
  1

  0
ENDBLK
  5
1D
330
1F
100
AcDbEntity
  8
0
100
AcDbBlockEnd
  0
ENDSEC
  0
SECTION
  2
ENTITIES
  0
LWPOLYLINE
  5
4D
100
AcDbEntity
  8
0
  6
ByLayer
 62
    5
370
   -1
100
AcDbPolyline
 90
   21
 70
    1
 43
0
 10
26.0394
 20
72.2394
 10
23.0808
 20
72.2394
 10
23.0766
 20
72.2394
 10
23.0642
 20
72.2256
 10
23.0808
 20
72.23690000000001
 10
23.0808
 20
72.2394
 10
23.0808
 20
75.1597
 10
23.0808
 20
75.1639
 10
23.0642
 20
75.1748
 10
23.0766
 20
75.1597
 10
23.0808
 20
75.1597
 10
28.9994
 20
75.1597
 10
29.0022
 20
75.1597
 10
29.0132
 20
75.1748
 10
28.9994
 20
75.1639
 10
28.9994
 20
75.1597
 10
28.9994
 20
72.2394
 10
28.9994
 20
72.23690000000001
 10
29.0132
 20
72.2256
 10
29.0022
 20
72.2394
 10
28.9994
 20
72.2394
  0
LWPOLYLINE
  5
4E
100
AcDbEntity
  8
0
  6
ByLayer
 62
    5
370
   -1
100
AcDbPolyline
 90
   21
 70
    1
 43
0
 10
38.0393
 20
72.2394
 10
35.0793
 20
72.2394
 10
35.0752
 20
72.2394
 10
35.0642
 20
72.2256
 10
35.0793
 20
72.23690000000001
 10
35.0793
 20
72.2394
 10
35.0793
 20
75.1597
 10
35.0793
 20
75.1639
 10
35.0642
 20
75.1748
 10
35.0752
 20
75.1597
 10
35.0793
 20
75.1597
 10
40.9995
 20
75.1597
 10
41.0023
 20
75.1597
 10
41.0147
 20
75.1748
 10
40.9995
 20
75.1639
 10
40.9995
 20
75.1597
 10
40.9995
 20
72.2394
 10
40.9995
 20
72.23690000000001
 10
41.0147
 20
72.2256
 10
41.0023
 20
72.2394
 10
40.9995
 20
72.2394
  0
LWPOLYLINE
  5
4F
100
AcDbEntity
  8
0
  6
ByLayer
 62
    5
370
   -1
100
AcDbPolyline
 90
   21
 70
    1
 43
0
 10
50.0408
 20
72.2394
 10
47.0793
 20
72.2394
 10
47.075
 20
72.2394
 10
47.0641
 20
72.2256
 10
47.0793
 20
72.23690000000001
 10
47.0793
 20
72.2394
 10
47.0793
 20
75.1597
 10
47.0793
 20
75.1639
 10
47.0641
 20
75.1748
 10
47.075
 20
75.1597
 10
47.0793
 20
75.1597
 10
52.9992
 20
75.1597
 10
53.002
 20
75.1597
 10
53.0144
 20
75.1748
 10
52.9992
 20
75.1639
 10
52.9992
 20
75.1597
 10
52.9992
 20
72.2394
 10
52.9992
 20
72.23690000000001
 10
53.0144
 20
72.2256
 10
53.002
 20
72.2394
 10
52.9992
 20
72.2394
  0
LWPOLYLINE
  5
50
100
AcDbEntity
  8
0
  6
ByLayer
 62
    5
370
   -1
100
AcDbPolyline
 90
   21
 70
    1
 43
0
 10
62.0391
 20
72.2394
 10
59.0808
 20
72.2394
 10
59.0765
 20
72.2394
 10
59.0642
 20
72.2256
 10
59.0808
 20
72.23690000000001
 10
59.0808
 20
72.2394
 10
59.0808
 20
75.1597
 10
59.0808
 20
75.1639
 10
59.0642
 20
75.1748
 10
59.0765
 20
75.1597
 10
59.0808
 20
75.1597
 10
65.00069999999999
 20
75.1597
 10
65.0035
 20
75.1597
 10
65.0145
 20
75.1748
 10
65.00069999999999
 20
75.1639
 10
65.00069999999999
 20
75.1597
 10
65.00069999999999
 20
72.2394
 10
65.00069999999999
 20
72.23690000000001
 10
65.0145
 20
72.2256
 10
65.0035
 20
72.2394
 10
65.00069999999999
 20
72.2394
  0
LWPOLYLINE
  5
51
100
AcDbEntity
  8
0
  6
ByLayer
 62
    5
370
   -1
100
AcDbPolyline
 90
   21
 70
    1
 43
0
 10
74.0406
 20
72.2394
 10
71.0805
 20
72.2394
 10
71.0766
 20
72.2394
 10
71.0639
 20
72.2256
 10
71.0805
 20
72.23690000000001
 10
71.0805
 20
72.2394
 10
71.0805
 20
75.1597
 10
71.0805
 20
75.1639
 10
71.0639
 20
75.1748
 10
71.0766
 20
75.1597
 10
71.0805
 20
75.1597
 10
77.0008
 20
75.1597
 10
77.0033
 20
75.1597
 10
77.0146
 20
75.1748
 10
77.0008
 20
75.1639
 10
77.0008
 20
75.1597
 10
77.0008
 20
72.2394
 10
77.0008
 20
72.23690000000001
 10
77.0146
 20
72.2256
 10
77.0033
 20
72.2394
 10
77.0008
 20
72.2394
  0
LWPOLYLINE
  5
52
100
AcDbEntity
  8
0
  6
ByLayer
 62
    5
370
   -1
100
AcDbPolyline
 90
   21
 70
    1
 43
0
 10
86.0407
 20
72.2394
 10
83.0806
 20
72.2394
 10
83.0763
 20
72.2394
 10
83.0654
 20
72.2256
 10
83.0806
 20
72.23690000000001
 10
83.0806
 20
72.2394
 10
83.0806
 20
75.1597
 10
83.0806
 20
75.1639
 10
83.0654
 20
75.1748
 10
83.0763
 20
75.1597
 10
83.0806
 20
75.1597
 10
88.9991
 20
75.1597
 10
89.002
 20
75.1597
 10
89.01430000000001
 20
75.1748
 10
88.9991
 20
75.1639
 10
88.9991
 20
75.1597
 10
88.9991
 20
72.2394
 10
88.9991
 20
72.23690000000001
 10
89.01430000000001
 20
72.2256
 10
89.002
 20
72.2394
 10
88.9991
 20
72.2394
  0
LWPOLYLINE
  5
53
100
AcDbEntity
  8
0
  6
ByLayer
 62
    5
370
   -1
100
AcDbPolyline
 90
   21
 70
    1
 43
0
 10
98.04049999999999
 20
72.2394
 10
95.08069999999999
 20
72.2394
 10
95.07640000000001
 20
72.2394
 10
95.0655
 20
72.2256
 10
95.08069999999999
 20
72.23690000000001
 10
95.08069999999999
 20
72.2394
 10
95.08069999999999
 20
75.1597
 10
95.08069999999999
 20
75.1639
 10
95.0655
 20
75.1748
 10
95.07640000000001
 20
75.1597
 10
95.08069999999999
 20
75.1597
 10
101.001
 20
75.1597
 10
101.003
 20
75.1597
 10
101.014
 20
75.1748
 10
101.001
 20
75.1639
 10
101.001
 20
75.1597
 10
101.001
 20
72.2394
 10
101.001
 20
72.23690000000001
 10
101.014
 20
72.2256
 10
101.003
 20
72.2394
 10
101.001
 20
72.2394
  0
LWPOLYLINE
  5
54
100
AcDbEntity
  8
0
  6
ByLayer
 62
    0
370
   -1
100
AcDbPolyline
 90
  128
 70
    1
 43
0
 10
13.0404
 20
69.1596
 10
111.04
 20
69.1596
 10
114.04
 20
69.1596
 10
114.049
 20
69.1596
 10
114.08
 20
69.19
 10
114.08
 20
69.1995
 10
114.08
 20
77.20050000000001
 10
114.08
 20
77.2114
 10
114.049
 20
77.2403
 10
114.04
 20
77.2403
 10
111.079
 20
77.2403
 10
111.075
 20
77.2403
 10
111.064
 20
77.2266
 10
111.079
 20
77.2375
 10
111.079
 20
77.2403
 10
111.079
 20
83.16030000000001
 10
111.079
 20
83.1645
 10
111.064
 20
83.1755
 10
111.075
 20
83.16030000000001
 10
111.079
 20
83.16030000000001
 10
114.04
 20
83.16030000000001
 10
114.049
 20
83.16030000000001
 10
114.08
 20
83.1906
 10
114.08
 20
83.20050000000001
 10
114.08
 20
89.20059999999999
 10
114.08
 20
89.2115
 10
114.049
 20
89.24039999999999
 10
114.04
 20
89.24039999999999
 10
111.079
 20
89.24039999999999
 10
111.075
 20
89.24039999999999
 10
111.064
 20
89.22669999999999
 10
111.079
 20
89.2376
 10
111.079
 20
89.24039999999999
 10
111.079
 20
95.1604
 10
111.079
 20
95.16459999999999
 10
111.064
 20
95.1756
 10
111.075
 20
95.1604
 10
111.079
 20
95.1604
 10
114.04
 20
95.1604
 10
114.049
 20
95.1604
 10
114.08
 20
95.19070000000001
 10
114.08
 20
95.2003
 10
114.08
 20
101.2
 10
114.08
 20
101.211
 10
114.049
 20
101.24
 10
114.04
 20
101.24
 10
111.079
 20
101.24
 10
111.075
 20
101.24
 10
111.064
 20
101.226
 10
111.079
 20
101.238
 10
111.079
 20
101.24
 10
111.079
 20
107.16
 10
111.079
 20
107.164
 10
111.064
 20
107.176
 10
111.075
 20
107.16
 10
111.079
 20
107.16
 10
114.04
 20
107.16
 10
114.049
 20
107.16
 10
114.08
 20
107.191
 10
114.08
 20
107.2
 10
114.08
 20
115.2
 10
114.08
 20
115.211
 10
114.049
 20
115.24
 10
114.04
 20
115.24
 10
111.04
 20
115.24
 10
13.0404
 20
115.24
 10
10.0404
 20
115.24
 10
10.0294
 20
115.24
 10
10.0004
 20
115.211
 10
10.0004
 20
115.2
 10
10.0004
 20
107.2
 10
10.0004
 20
107.191
 10
10.0294
 20
107.16
 10
10.0404
 20
107.16
 10
13.0004
 20
107.16
 10
13.0032
 20
107.16
 10
13.0142
 20
107.176
 10
13.0004
 20
107.164
 10
13.0004
 20
107.16
 10
13.0004
 20
101.24
 10
13.0004
 20
101.238
 10
13.0142
 20
101.226
 10
13.0032
 20
101.24
 10
13.0004
 20
101.24
 10
10.0404
 20
101.24
 10
10.0294
 20
101.24
 10
10.0004
 20
101.211
 10
10.0004
 20
101.2
 10
10.0004
 20
95.2003
 10
10.0004
 20
95.19070000000001
 10
10.0294
 20
95.1604
 10
10.0404
 20
95.1604
 10
13.0004
 20
95.1604
 10
13.0032
 20
95.1604
 10
13.0142
 20
95.1756
 10
13.0004
 20
95.16459999999999
 10
13.0004
 20
95.1604
 10
13.0004
 20
89.24039999999999
 10
13.0004
 20
89.2376
 10
13.0142
 20
89.22669999999999
 10
13.0032
 20
89.24039999999999
 10
13.0004
 20
89.24039999999999
 10
10.0404
 20
89.24039999999999
 10
10.0294
 20
89.24039999999999
 10
10.0004
 20
89.2115
 10
10.0004
 20
89.20059999999999
 10
10.0004
 20
83.20050000000001
 10
10.0004
 20
83.1906
 10
10.0294
 20
83.16030000000001
 10
10.0404
 20
83.16030000000001
 10
13.0004
 20
83.16030000000001
 10
13.0032
 20
83.16030000000001
 10
13.0142
 20
83.1755
 10
13.0004
 20
83.1645
 10
13.0004
 20
83.16030000000001
 10
13.0004
 20
77.2403
 10
13.0004
 20
77.2375
 10
13.0142
 20
77.2266
 10
13.0032
 20
77.2403
 10
13.0004
 20
77.2403
 10
10.0404
 20
77.2403
 10
10.0294
 20
77.2403
 10
10.0004
 20
77.2114
 10
10.0004
 20
77.20050000000001
 10
10.0004
 20
69.1995
 10
10.0004
 20
69.19
 10
10.0294
 20
69.1596
 10
10.0404
 20
69.1596
  0
LWPOLYLINE
  5
55
100
AcDbEntity
  8
0
  6
ByLayer
 62
    0
370
   -1
100
AcDbPolyline
 90
  808
 70
    1
 43
0
 10
13.0404
 20
119.741
 10
22.9995
 20
119.741
 10
23.0022
 20
119.741
 10
23.0132
 20
119.756
 10
22.9995
 20
119.745
 10
22.9995
 20
119.741
 10
22.9995
 20
116.78
 10
22.9995
 20
116.771
 10
23.0284
 20
116.741
 10
23.0394
 20
116.741
 10
29.0394
 20
116.741
 10
29.0491
 20
116.741
 10
29.0794
 20
116.771
 10
29.0794
 20
116.78
 10
29.0794
 20
119.741
 10
29.0794
 20
119.745
 10
29.0642
 20
119.756
 10
29.0752
 20
119.741
 10
29.0794
 20
119.741
 10
35.0008
 20
119.741
 10
35.0036
 20
119.741
 10
35.0146
 20
119.756
 10
35.0008
 20
119.745
 10
35.0008
 20
119.741
 10
35.0008
 20
116.78
 10
35.0008
 20
116.771
 10
35.0297
 20
116.741
 10
35.0394
 20
116.741
 10
41.0408
 20
116.741
 10
41.0503
 20
116.741
 10
41.0792
 20
116.771
 10
41.0792
 20
116.78
 10
41.0792
 20
119.741
 10
41.0792
 20
119.745
 10
41.064
 20
119.756
 10
41.0753
 20
119.741
 10
41.0792
 20
119.741
 10
46.9995
 20
119.741
 10
47.002
 20
119.741
 10
47.0147
 20
119.756
 10
46.9995
 20
119.745
 10
46.9995
 20
119.741
 10
46.9995
 20
116.78
 10
46.9995
 20
116.771
 10
47.0299
 20
116.741
 10
47.0408
 20
116.741
 10
53.0408
 20
116.741
 10
53.0504
 20
116.741
 10
53.0807
 20
116.771
 10
53.0807
 20
116.78
 10
53.0807
 20
119.741
 10
53.0807
 20
119.745
 10
53.0655
 20
119.756
 10
53.0765
 20
119.741
 10
53.0807
 20
119.741
 10
58.9993
 20
119.741
 10
59.0021
 20
119.741
 10
59.013
 20
119.756
 10
58.9993
 20
119.745
 10
58.9993
 20
119.741
 10
58.9993
 20
116.78
 10
58.9993
 20
116.771
 10
59.0282
 20
116.741
 10
59.0391
 20
116.741
 10
65.03919999999999
 20
116.741
 10
65.04900000000001
 20
116.741
 10
65.0804
 20
116.771
 10
65.0804
 20
116.78
 10
65.0804
 20
119.741
 10
65.0804
 20
119.745
 10
65.0642
 20
119.756
 10
65.0766
 20
119.741
 10
65.0804
 20
119.741
 10
71.0008
 20
119.741
 10
71.00360000000001
 20
119.741
 10
71.0145
 20
119.756
 10
71.0008
 20
119.745
 10
71.0008
 20
119.741
 10
71.0008
 20
116.78
 10
71.0008
 20
116.771
 10
71.02970000000001
 20
116.741
 10
71.03919999999999
 20
116.741
 10
77.0407
 20
116.741
 10
77.0502
 20
116.741
 10
77.0791
 20
116.771
 10
77.0791
 20
116.78
 10
77.0791
 20
119.741
 10
77.0791
 20
119.745
 10
77.06399999999999
 20
119.756
 10
77.0749
 20
119.741
 10
77.0791
 20
119.741
 10
83.0005
 20
119.741
 10
83.0033
 20
119.741
 10
83.01430000000001
 20
119.756
 10
83.0005
 20
119.745
 10
83.0005
 20
119.741
 10
83.0005
 20
116.78
 10
83.0005
 20
116.771
 10
83.0294
 20
116.741
 10
83.0407
 20
116.741
 10
89.04040000000001
 20
116.741
 10
89.05029999999999
 20
116.741
 10
89.0806
 20
116.771
 10
89.0806
 20
116.78
 10
89.0806
 20
119.741
 10
89.0806
 20
119.745
 10
89.0655
 20
119.756
 10
89.07640000000001
 20
119.741
 10
89.0806
 20
119.741
 10
94.9992
 20
119.741
 10
95.002
 20
119.741
 10
95.01430000000001
 20
119.756
 10
94.9992
 20
119.745
 10
94.9992
 20
119.741
 10
94.9992
 20
116.78
 10
94.9992
 20
116.771
 10
95.0295
 20
116.741
 10
95.04049999999999
 20
116.741
 10
101.04
 20
116.741
 10
101.05
 20
116.741
 10
101.08
 20
116.771
 10
101.08
 20
116.78
 10
101.08
 20
119.741
 10
101.08
 20
119.745
 10
101.065
 20
119.756
 10
101.076
 20
119.741
 10
101.08
 20
119.741
 10
111.04
 20
119.741
 10
111.049
 20
119.741
 10
111.079
 20
119.771
 10
111.079
 20
119.78
 10
111.079
 20
130.24
 10
111.079
 20
130.244
 10
111.064
 20
130.255
 10
111.075
 20
130.24
 10
111.079
 20
130.24
 10
114.04
 20
130.24
 10
114.049
 20
130.24
 10
114.08
 20
130.27
 10
114.08
 20
130.28
 10
114.08
 20
136.28
 10
114.08
 20
136.291
 10
114.049
 20
136.32
 10
114.04
 20
136.32
 10
111.079
 20
136.32
 10
111.075
 20
136.32
 10
111.064
 20
136.306
 10
111.079
 20
136.317
 10
111.079
 20
136.32
 10
111.079
 20
142.24
 10
111.079
 20
142.244
 10
111.064
 20
142.255
 10
111.075
 20
142.24
 10
111.079
 20
142.24
 10
114.04
 20
142.24
 10
114.049
 20
142.24
 10
114.08
 20
142.27
 10
114.08
 20
142.28
 10
114.08
 20
148.28
 10
114.08
 20
148.291
 10
114.049
 20
148.32
 10
114.04
 20
148.32
 10
111.079
 20
148.32
 10
111.075
 20
148.32
 10
111.064
 20
148.306
 10
111.079
 20
148.317
 10
111.079
 20
148.32
 10
111.079
 20
154.24
 10
111.079
 20
154.244
 10
111.064
 20
154.255
 10
111.075
 20
154.24
 10
111.079
 20
154.24
 10
114.04
 20
154.24
 10
114.049
 20
154.24
 10
114.08
 20
154.27
 10
114.08
 20
154.28
 10
114.08
 20
160.28
 10
114.08
 20
160.291
 10
114.049
 20
160.32
 10
114.04
 20
160.32
 10
111.079
 20
160.32
 10
111.075
 20
160.32
 10
111.064
 20
160.306
 10
111.079
 20
160.317
 10
111.079
 20
160.32
 10
111.079
 20
166.239
 10
111.079
 20
166.244
 10
111.064
 20
166.255
 10
111.075
 20
166.239
 10
111.079
 20
166.239
 10
114.04
 20
166.239
 10
114.049
 20
166.239
 10
114.08
 20
166.27
 10
114.08
 20
166.28
 10
114.08
 20
172.28
 10
114.08
 20
172.291
 10
114.049
 20
172.32
 10
114.04
 20
172.32
 10
111.079
 20
172.32
 10
111.075
 20
172.32
 10
111.064
 20
172.306
 10
111.079
 20
172.317
 10
111.079
 20
172.32
 10
111.079
 20
178.24
 10
111.079
 20
178.244
 10
111.064
 20
178.255
 10
111.075
 20
178.24
 10
111.079
 20
178.24
 10
114.04
 20
178.24
 10
114.049
 20
178.24
 10
114.08
 20
178.27
 10
114.08
 20
178.279
 10
114.08
 20
184.279
 10
114.08
 20
184.29
 10
114.049
 20
184.319
 10
114.04
 20
184.319
 10
111.079
 20
184.319
 10
111.075
 20
184.319
 10
111.064
 20
184.306
 10
111.079
 20
184.317
 10
111.079
 20
184.319
 10
111.079
 20
190.24
 10
111.079
 20
190.244
 10
111.064
 20
190.255
 10
111.075
 20
190.24
 10
111.079
 20
190.24
 10
114.04
 20
190.24
 10
114.049
 20
190.24
 10
114.08
 20
190.27
 10
114.08
 20
190.28
 10
114.08
 20
196.28
 10
114.08
 20
196.29
 10
114.049
 20
196.319
 10
114.04
 20
196.319
 10
111.079
 20
196.319
 10
111.075
 20
196.319
 10
111.064
 20
196.306
 10
111.079
 20
196.317
 10
111.079
 20
196.319
 10
111.079
 20
202.239
 10
111.079
 20
202.244
 10
111.064
 20
202.255
 10
111.075
 20
202.239
 10
111.079
 20
202.239
 10
114.04
 20
202.239
 10
114.049
 20
202.239
 10
114.08
 20
202.27
 10
114.08
 20
202.28
 10
114.08
 20
208.279
 10
114.08
 20
208.291
 10
114.049
 20
208.32
 10
114.04
 20
208.32
 10
111.079
 20
208.32
 10
111.075
 20
208.32
 10
111.064
 20
208.306
 10
111.079
 20
208.317
 10
111.079
 20
208.32
 10
111.079
 20
214.239
 10
111.079
 20
214.244
 10
111.064
 20
214.255
 10
111.075
 20
214.239
 10
111.079
 20
214.239
 10
114.04
 20
214.239
 10
114.049
 20
214.239
 10
114.08
 20
214.27
 10
114.08
 20
214.279
 10
114.08
 20
220.279
 10
114.08
 20
220.29
 10
114.049
 20
220.319
 10
114.04
 20
220.319
 10
111.079
 20
220.319
 10
111.075
 20
220.319
 10
111.064
 20
220.305
 10
111.079
 20
220.317
 10
111.079
 20
220.319
 10
111.079
 20
226.24
 10
111.079
 20
226.243
 10
111.064
 20
226.256
 10
111.075
 20
226.24
 10
111.079
 20
226.24
 10
114.04
 20
226.24
 10
114.049
 20
226.24
 10
114.08
 20
226.271
 10
114.08
 20
226.281
 10
114.08
 20
232.279
 10
114.08
 20
232.29
 10
114.049
 20
232.321
 10
114.04
 20
232.321
 10
111.079
 20
232.321
 10
111.075
 20
232.321
 10
111.064
 20
232.306
 10
111.079
 20
232.318
 10
111.079
 20
232.321
 10
111.079
 20
238.239
 10
111.079
 20
238.244
 10
111.064
 20
238.254
 10
111.075
 20
238.239
 10
111.079
 20
238.239
 10
114.04
 20
238.239
 10
114.049
 20
238.239
 10
114.08
 20
238.27
 10
114.08
 20
238.28
 10
114.08
 20
244.279
 10
114.08
 20
244.29
 10
114.049
 20
244.321
 10
114.04
 20
244.321
 10
111.079
 20
244.321
 10
111.075
 20
244.321
 10
111.064
 20
244.306
 10
111.079
 20
244.318
 10
111.079
 20
244.321
 10
111.079
 20
250.241
 10
111.079
 20
250.245
 10
111.064
 20
250.256
 10
111.075
 20
250.241
 10
111.079
 20
250.241
 10
114.04
 20
250.241
 10
114.049
 20
250.241
 10
114.08
 20
250.27
 10
114.08
 20
250.279
 10
114.08
 20
256.281
 10
114.08
 20
256.29
 10
114.049
 20
256.319
 10
114.04
 20
256.319
 10
111.079
 20
256.319
 10
111.075
 20
256.319
 10
111.064
 20
256.305
 10
111.079
 20
256.316
 10
111.079
 20
256.319
 10
111.079
 20
262.239
 10
111.079
 20
262.243
 10
111.064
 20
262.256
 10
111.075
 20
262.239
 10
111.079
 20
262.239
 10
114.04
 20
262.239
 10
114.049
 20
262.239
 10
114.08
 20
262.271
 10
114.08
 20
262.281
 10
114.08
 20
268.28
 10
114.08
 20
268.292
 10
114.049
 20
268.321
 10
114.04
 20
268.321
 10
111.079
 20
268.321
 10
111.075
 20
268.321
 10
111.064
 20
268.307
 10
111.079
 20
268.318
 10
111.079
 20
268.321
 10
111.079
 20
274.239
 10
111.079
 20
274.243
 10
111.064
 20
274.256
 10
111.075
 20
274.239
 10
111.079
 20
274.239
 10
114.04
 20
274.239
 10
114.049
 20
274.239
 10
114.08
 20
274.271
 10
114.08
 20
274.28
 10
114.08
 20
280.279
 10
114.08
 20
280.29
 10
114.049
 20
280.32
 10
114.04
 20
280.32
 10
111.079
 20
280.32
 10
111.075
 20
280.32
 10
111.064
 20
280.305
 10
111.079
 20
280.318
 10
111.079
 20
280.32
 10
111.079
 20
286.241
 10
111.079
 20
286.245
 10
111.064
 20
286.256
 10
111.075
 20
286.241
 10
111.079
 20
286.241
 10
114.04
 20
286.241
 10
114.049
 20
286.241
 10
114.08
 20
286.271
 10
114.08
 20
286.281
 10
114.08
 20
292.281
 10
114.08
 20
292.292
 10
114.049
 20
292.32
 10
114.04
 20
292.32
 10
111.079
 20
292.32
 10
111.075
 20
292.32
 10
111.064
 20
292.307
 10
111.079
 20
292.318
 10
111.079
 20
292.32
 10
111.079
 20
298.24
 10
111.079
 20
298.245
 10
111.064
 20
298.256
 10
111.075
 20
298.24
 10
111.079
 20
298.24
 10
114.04
 20
298.24
 10
114.049
 20
298.24
 10
114.08
 20
298.271
 10
114.08
 20
298.281
 10
114.08
 20
304.28
 10
114.08
 20
304.292
 10
114.049
 20
304.321
 10
114.04
 20
304.321
 10
111.079
 20
304.321
 10
111.075
 20
304.321
 10
111.064
 20
304.307
 10
111.079
 20
304.318
 10
111.079
 20
304.321
 10
111.079
 20
314.78
 10
111.079
 20
314.791
 10
111.049
 20
314.82
 10
111.04
 20
314.82
 10
101.08
 20
314.82
 10
101.076
 20
314.82
 10
101.065
 20
314.806
 10
101.08
 20
314.817
 10
101.08
 20
314.82
 10
101.08
 20
317.78
 10
101.08
 20
317.791
 10
101.05
 20
317.82
 10
101.04
 20
317.82
 10
95.04049999999999
 20
317.82
 10
95.0295
 20
317.82
 10
94.9992
 20
317.791
 10
94.9992
 20
317.78
 10
94.9992
 20
314.82
 10
94.9992
 20
314.817
 10
95.01430000000001
 20
314.806
 10
95.002
 20
314.82
 10
94.9992
 20
314.82
 10
89.0806
 20
314.82
 10
89.07640000000001
 20
314.82
 10
89.0655
 20
314.806
 10
89.0806
 20
314.817
 10
89.0806
 20
314.82
 10
89.0806
 20
317.78
 10
89.0806
 20
317.791
 10
89.05029999999999
 20
317.82
 10
89.04040000000001
 20
317.82
 10
83.0407
 20
317.82
 10
83.0294
 20
317.82
 10
83.0005
 20
317.791
 10
83.0005
 20
317.78
 10
83.0005
 20
314.82
 10
83.0005
 20
314.817
 10
83.01430000000001
 20
314.806
 10
83.0033
 20
314.82
 10
83.0005
 20
314.82
 10
77.0791
 20
314.82
 10
77.0749
 20
314.82
 10
77.06399999999999
 20
314.806
 10
77.0791
 20
314.817
 10
77.0791
 20
314.82
 10
77.0791
 20
317.78
 10
77.0791
 20
317.791
 10
77.0502
 20
317.82
 10
77.0407
 20
317.82
 10
71.03919999999999
 20
317.82
 10
71.02970000000001
 20
317.82
 10
71.0008
 20
317.791
 10
71.0008
 20
317.78
 10
71.0008
 20
314.82
 10
71.0008
 20
314.817
 10
71.0145
 20
314.806
 10
71.00360000000001
 20
314.82
 10
71.0008
 20
314.82
 10
65.0804
 20
314.82
 10
65.0766
 20
314.82
 10
65.0642
 20
314.806
 10
65.0804
 20
314.817
 10
65.0804
 20
314.82
 10
65.0804
 20
317.78
 10
65.0804
 20
317.791
 10
65.04900000000001
 20
317.82
 10
65.03919999999999
 20
317.82
 10
59.0391
 20
317.82
 10
59.0282
 20
317.82
 10
58.9993
 20
317.791
 10
58.9993
 20
317.78
 10
58.9993
 20
314.82
 10
58.9993
 20
314.817
 10
59.013
 20
314.806
 10
59.0021
 20
314.82
 10
58.9993
 20
314.82
 10
53.0807
 20
314.82
 10
53.0765
 20
314.82
 10
53.0655
 20
314.806
 10
53.0807
 20
314.817
 10
53.0807
 20
314.82
 10
53.0807
 20
317.78
 10
53.0807
 20
317.791
 10
53.0504
 20
317.82
 10
53.0408
 20
317.82
 10
47.0408
 20
317.82
 10
47.0299
 20
317.82
 10
46.9995
 20
317.791
 10
46.9995
 20
317.78
 10
46.9995
 20
314.82
 10
46.9995
 20
314.817
 10
47.0147
 20
314.806
 10
47.002
 20
314.82
 10
46.9995
 20
314.82
 10
41.0792
 20
314.82
 10
41.0753
 20
314.82
 10
41.064
 20
314.806
 10
41.0792
 20
314.817
 10
41.0792
 20
314.82
 10
41.0792
 20
317.78
 10
41.0792
 20
317.791
 10
41.0503
 20
317.82
 10
41.0408
 20
317.82
 10
35.0394
 20
317.82
 10
35.0297
 20
317.82
 10
35.0008
 20
317.791
 10
35.0008
 20
317.78
 10
35.0008
 20
314.82
 10
35.0008
 20
314.817
 10
35.0146
 20
314.806
 10
35.0036
 20
314.82
 10
35.0008
 20
314.82
 10
29.0794
 20
314.82
 10
29.0752
 20
314.82
 10
29.0642
 20
314.806
 10
29.0794
 20
314.817
 10
29.0794
 20
314.82
 10
29.0794
 20
317.78
 10
29.0794
 20
317.791
 10
29.0491
 20
317.82
 10
29.0394
 20
317.82
 10
23.0394
 20
317.82
 10
23.0284
 20
317.82
 10
22.9995
 20
317.791
 10
22.9995
 20
317.78
 10
22.9995
 20
314.82
 10
22.9995
 20
314.817
 10
23.0132
 20
314.806
 10
23.0022
 20
314.82
 10
22.9995
 20
314.82
 10
13.0404
 20
314.82
 10
13.0294
 20
314.82
 10
13.0004
 20
314.791
 10
13.0004
 20
314.78
 10
13.0004
 20
304.321
 10
13.0004
 20
304.318
 10
13.0142
 20
304.307
 10
13.0032
 20
304.321
 10
13.0004
 20
304.321
 10
10.0404
 20
304.321
 10
10.0294
 20
304.321
 10
10.0004
 20
304.292
 10
10.0004
 20
304.28
 10
10.0004
 20
298.281
 10
10.0004
 20
298.271
 10
10.0294
 20
298.24
 10
10.0404
 20
298.24
 10
13.0004
 20
298.24
 10
13.0032
 20
298.24
 10
13.0142
 20
298.256
 10
13.0004
 20
298.245
 10
13.0004
 20
298.24
 10
13.0004
 20
292.32
 10
13.0004
 20
292.318
 10
13.0142
 20
292.307
 10
13.0032
 20
292.32
 10
13.0004
 20
292.32
 10
10.0404
 20
292.32
 10
10.0294
 20
292.32
 10
10.0004
 20
292.292
 10
10.0004
 20
292.281
 10
10.0004
 20
286.281
 10
10.0004
 20
286.271
 10
10.0294
 20
286.241
 10
10.0404
 20
286.241
 10
13.0004
 20
286.241
 10
13.0032
 20
286.241
 10
13.0142
 20
286.256
 10
13.0004
 20
286.245
 10
13.0004
 20
286.241
 10
13.0004
 20
280.32
 10
13.0004
 20
280.318
 10
13.0142
 20
280.305
 10
13.0032
 20
280.32
 10
13.0004
 20
280.32
 10
10.0404
 20
280.32
 10
10.0294
 20
280.32
 10
10.0004
 20
280.29
 10
10.0004
 20
280.279
 10
10.0004
 20
274.28
 10
10.0004
 20
274.271
 10
10.0294
 20
274.239
 10
10.0404
 20
274.239
 10
13.0004
 20
274.239
 10
13.0032
 20
274.239
 10
13.0142
 20
274.256
 10
13.0004
 20
274.243
 10
13.0004
 20
274.239
 10
13.0004
 20
268.321
 10
13.0004
 20
268.318
 10
13.0142
 20
268.307
 10
13.0032
 20
268.321
 10
13.0004
 20
268.321
 10
10.0404
 20
268.321
 10
10.0294
 20
268.321
 10
10.0004
 20
268.292
 10
10.0004
 20
268.28
 10
10.0004
 20
262.281
 10
10.0004
 20
262.271
 10
10.0294
 20
262.239
 10
10.0404
 20
262.239
 10
13.0004
 20
262.239
 10
13.0032
 20
262.239
 10
13.0142
 20
262.256
 10
13.0004
 20
262.243
 10
13.0004
 20
262.239
 10
13.0004
 20
256.319
 10
13.0004
 20
256.316
 10
13.0142
 20
256.305
 10
13.0032
 20
256.319
 10
13.0004
 20
256.319
 10
10.0404
 20
256.319
 10
10.0294
 20
256.319
 10
10.0004
 20
256.29
 10
10.0004
 20
256.281
 10
10.0004
 20
250.279
 10
10.0004
 20
250.27
 10
10.0294
 20
250.241
 10
10.0404
 20
250.241
 10
13.0004
 20
250.241
 10
13.0032
 20
250.241
 10
13.0142
 20
250.256
 10
13.0004
 20
250.245
 10
13.0004
 20
250.241
 10
13.0004
 20
244.321
 10
13.0004
 20
244.318
 10
13.0142
 20
244.306
 10
13.0032
 20
244.321
 10
13.0004
 20
244.321
 10
10.0404
 20
244.321
 10
10.0294
 20
244.321
 10
10.0004
 20
244.29
 10
10.0004
 20
244.279
 10
10.0004
 20
238.28
 10
10.0004
 20
238.27
 10
10.0294
 20
238.239
 10
10.0404
 20
238.239
 10
13.0004
 20
238.239
 10
13.0032
 20
238.239
 10
13.0142
 20
238.254
 10
13.0004
 20
238.244
 10
13.0004
 20
238.239
 10
13.0004
 20
232.321
 10
13.0004
 20
232.318
 10
13.0142
 20
232.306
 10
13.0032
 20
232.321
 10
13.0004
 20
232.321
 10
10.0404
 20
232.321
 10
10.0294
 20
232.321
 10
10.0004
 20
232.29
 10
10.0004
 20
232.279
 10
10.0004
 20
226.281
 10
10.0004
 20
226.271
 10
10.0294
 20
226.24
 10
10.0404
 20
226.24
 10
13.0004
 20
226.24
 10
13.0032
 20
226.24
 10
13.0142
 20
226.256
 10
13.0004
 20
226.243
 10
13.0004
 20
226.24
 10
13.0004
 20
220.319
 10
13.0004
 20
220.317
 10
13.0142
 20
220.305
 10
13.0032
 20
220.319
 10
13.0004
 20
220.319
 10
10.0404
 20
220.319
 10
10.0294
 20
220.319
 10
10.0004
 20
220.29
 10
10.0004
 20
220.279
 10
10.0004
 20
214.279
 10
10.0004
 20
214.27
 10
10.0294
 20
214.239
 10
10.0404
 20
214.239
 10
13.0004
 20
214.239
 10
13.0032
 20
214.239
 10
13.0142
 20
214.255
 10
13.0004
 20
214.244
 10
13.0004
 20
214.239
 10
13.0004
 20
208.32
 10
13.0004
 20
208.317
 10
13.0142
 20
208.306
 10
13.0032
 20
208.32
 10
13.0004
 20
208.32
 10
10.0404
 20
208.32
 10
10.0294
 20
208.32
 10
10.0004
 20
208.291
 10
10.0004
 20
208.279
 10
10.0004
 20
202.28
 10
10.0004
 20
202.27
 10
10.0294
 20
202.239
 10
10.0404
 20
202.239
 10
13.0004
 20
202.239
 10
13.0032
 20
202.239
 10
13.0142
 20
202.255
 10
13.0004
 20
202.244
 10
13.0004
 20
202.239
 10
13.0004
 20
196.319
 10
13.0004
 20
196.317
 10
13.0142
 20
196.306
 10
13.0032
 20
196.319
 10
13.0004
 20
196.319
 10
10.0404
 20
196.319
 10
10.0294
 20
196.319
 10
10.0004
 20
196.29
 10
10.0004
 20
196.28
 10
10.0004
 20
190.28
 10
10.0004
 20
190.27
 10
10.0294
 20
190.24
 10
10.0404
 20
190.24
 10
13.0004
 20
190.24
 10
13.0032
 20
190.24
 10
13.0142
 20
190.255
 10
13.0004
 20
190.244
 10
13.0004
 20
190.24
 10
13.0004
 20
184.319
 10
13.0004
 20
184.317
 10
13.0142
 20
184.306
 10
13.0032
 20
184.319
 10
13.0004
 20
184.319
 10
10.0404
 20
184.319
 10
10.0294
 20
184.319
 10
10.0004
 20
184.29
 10
10.0004
 20
184.279
 10
10.0004
 20
178.279
 10
10.0004
 20
178.27
 10
10.0294
 20
178.24
 10
10.0404
 20
178.24
 10
13.0004
 20
178.24
 10
13.0032
 20
178.24
 10
13.0142
 20
178.255
 10
13.0004
 20
178.244
 10
13.0004
 20
178.24
 10
13.0004
 20
172.32
 10
13.0004
 20
172.317
 10
13.0142
 20
172.306
 10
13.0032
 20
172.32
 10
13.0004
 20
172.32
 10
10.0404
 20
172.32
 10
10.0294
 20
172.32
 10
10.0004
 20
172.291
 10
10.0004
 20
172.28
 10
10.0004
 20
166.28
 10
10.0004
 20
166.27
 10
10.0294
 20
166.239
 10
10.0404
 20
166.239
 10
13.0004
 20
166.239
 10
13.0032
 20
166.239
 10
13.0142
 20
166.255
 10
13.0004
 20
166.244
 10
13.0004
 20
166.239
 10
13.0004
 20
160.32
 10
13.0004
 20
160.317
 10
13.0142
 20
160.306
 10
13.0032
 20
160.32
 10
13.0004
 20
160.32
 10
10.0404
 20
160.32
 10
10.0294
 20
160.32
 10
10.0004
 20
160.291
 10
10.0004
 20
160.28
 10
10.0004
 20
154.28
 10
10.0004
 20
154.27
 10
10.0294
 20
154.24
 10
10.0404
 20
154.24
 10
13.0004
 20
154.24
 10
13.0032
 20
154.24
 10
13.0142
 20
154.255
 10
13.0004
 20
154.244
 10
13.0004
 20
154.24
 10
13.0004
 20
148.32
 10
13.0004
 20
148.317
 10
13.0142
 20
148.306
 10
13.0032
 20
148.32
 10
13.0004
 20
148.32
 10
10.0404
 20
148.32
 10
10.0294
 20
148.32
 10
10.0004
 20
148.291
 10
10.0004
 20
148.28
 10
10.0004
 20
142.28
 10
10.0004
 20
142.27
 10
10.0294
 20
142.24
 10
10.0404
 20
142.24
 10
13.0004
 20
142.24
 10
13.0032
 20
142.24
 10
13.0142
 20
142.255
 10
13.0004
 20
142.244
 10
13.0004
 20
142.24
 10
13.0004
 20
136.32
 10
13.0004
 20
136.317
 10
13.0142
 20
136.306
 10
13.0032
 20
136.32
 10
13.0004
 20
136.32
 10
10.0404
 20
136.32
 10
10.0294
 20
136.32
 10
10.0004
 20
136.291
 10
10.0004
 20
136.28
 10
10.0004
 20
130.28
 10
10.0004
 20
130.27
 10
10.0294
 20
130.24
 10
10.0404
 20
130.24
 10
13.0004
 20
130.24
 10
13.0032
 20
130.24
 10
13.0142
 20
130.255
 10
13.0004
 20
130.244
 10
13.0004
 20
130.24
 10
13.0004
 20
119.78
 10
13.0004
 20
119.771
 10
13.0294
 20
119.741
  0
LWPOLYLINE
  5
56
100
AcDbEntity
  8
0
  6
ByLayer
 62
    5
370
   -1
100
AcDbPolyline
 90
   21
 70
    1
 43
0
 10
159.8886143529272
 20
133.7148116518799
 10
159.8886143529272
 20
130.7538116518799
 10
159.8886143529272
 20
130.7498116518799
 10
159.9024143529272
 20
130.7388116518799
 10
159.8911143529272
 20
130.7538116518799
 10
159.8886143529272
 20
130.7538116518799
 10
156.9683143529272
 20
130.7538116518799
 10
156.9641143529272
 20
130.7538116518799
 10
156.9532143529271
 20
130.7388116518799
 10
156.9683143529272
 20
130.7498116518799
 10
156.9683143529272
 20
130.7538116518799
 10
156.9683143529272
 20
136.6738116518799
 10
156.9683143529272
 20
136.6768116518799
 10
156.9532143529271
 20
136.6878116518799
 10
156.9641143529272
 20
136.6738116518799
 10
156.9683143529272
 20
136.6738116518799
 10
159.8886143529272
 20
136.6738116518799
 10
159.8911143529272
 20
136.6738116518799
 10
159.9024143529272
 20
136.6878116518799
 10
159.8886143529272
 20
136.6768116518799
 10
159.8886143529272
 20
136.6738116518799
  0
LWPOLYLINE
  5
57
100
AcDbEntity
  8
0
  6
ByLayer
 62
    5
370
   -1
100
AcDbPolyline
 90
   21
 70
    1
 43
0
 10
159.8886143529272
 20
145.7138116518799
 10
159.8886143529272
 20
142.7558116518799
 10
159.8886143529272
 20
142.7518116518799
 10
159.9024143529272
 20
142.7388116518799
 10
159.8911143529272
 20
142.7558116518799
 10
159.8886143529272
 20
142.7558116518799
 10
156.9683143529272
 20
142.7558116518799
 10
156.9641143529272
 20
142.7558116518799
 10
156.9532143529271
 20
142.7388116518799
 10
156.9683143529272
 20
142.7518116518799
 10
156.9683143529272
 20
142.7558116518799
 10
156.9683143529272
 20
148.6758116518799
 10
156.9683143529272
 20
148.6788116518799
 10
156.9532143529271
 20
148.6898116518799
 10
156.9641143529272
 20
148.6758116518799
 10
156.9683143529272
 20
148.6758116518799
 10
159.8886143529272
 20
148.6758116518799
 10
159.8911143529272
 20
148.6758116518799
 10
159.9024143529272
 20
148.6898116518799
 10
159.8886143529272
 20
148.6788116518799
 10
159.8886143529272
 20
148.6758116518799
  0
LWPOLYLINE
  5
58
100
AcDbEntity
  8
0
  6
ByLayer
 62
    5
370
   -1
100
AcDbPolyline
 90
   21
 70
    1
 43
0
 10
159.8886143529272
 20
157.7158116518799
 10
159.8886143529272
 20
154.7538116518799
 10
159.8886143529272
 20
154.7498116518799
 10
159.9024143529272
 20
154.7388116518799
 10
159.8911143529272
 20
154.7538116518799
 10
159.8886143529272
 20
154.7538116518799
 10
156.9683143529272
 20
154.7538116518799
 10
156.9641143529272
 20
154.7538116518799
 10
156.9532143529271
 20
154.7388116518799
 10
156.9683143529272
 20
154.7498116518799
 10
156.9683143529272
 20
154.7538116518799
 10
156.9683143529272
 20
160.6738116518799
 10
156.9683143529272
 20
160.6768116518799
 10
156.9532143529271
 20
160.6898116518799
 10
156.9641143529272
 20
160.6738116518799
 10
156.9683143529272
 20
160.6738116518799
 10
159.8886143529272
 20
160.6738116518799
 10
159.8911143529272
 20
160.6738116518799
 10
159.9024143529272
 20
160.6898116518799
 10
159.8886143529272
 20
160.6768116518799
 10
159.8886143529272
 20
160.6738116518799
  0
LWPOLYLINE
  5
59
100
AcDbEntity
  8
0
  6
ByLayer
 62
    5
370
   -1
100
AcDbPolyline
 90
   21
 70
    1
 43
0
 10
159.8886143529272
 20
169.7158116518799
 10
159.8886143529272
 20
166.7558116518799
 10
159.8886143529272
 20
166.7508116518799
 10
159.9024143529272
 20
166.7408116518799
 10
159.8911143529272
 20
166.7558116518799
 10
159.8886143529272
 20
166.7558116518799
 10
156.9683143529272
 20
166.7558116518799
 10
156.9641143529272
 20
166.7558116518799
 10
156.9532143529271
 20
166.7408116518799
 10
156.9683143529272
 20
166.7508116518799
 10
156.9683143529272
 20
166.7558116518799
 10
156.9683143529272
 20
172.6738116518799
 10
156.9683143529272
 20
172.6768116518799
 10
156.9532143529271
 20
172.6888116518799
 10
156.9641143529272
 20
172.6738116518799
 10
156.9683143529272
 20
172.6738116518799
 10
159.8886143529272
 20
172.6738116518799
 10
159.8911143529272
 20
172.6738116518799
 10
159.9024143529272
 20
172.6888116518799
 10
159.8886143529272
 20
172.6768116518799
 10
159.8886143529272
 20
172.6738116518799
  0
LWPOLYLINE
  5
5A
100
AcDbEntity
  8
0
  6
ByLayer
 62
    5
370
   -1
100
AcDbPolyline
 90
   21
 70
    1
 43
0
 10
159.8886143529272
 20
181.7138116518799
 10
159.8886143529272
 20
178.7558116518799
 10
159.8886143529272
 20
178.7518116518799
 10
159.9024143529272
 20
178.7388116518799
 10
159.8911143529272
 20
178.7558116518799
 10
159.8886143529272
 20
178.7558116518799
 10
156.9683143529272
 20
178.7558116518799
 10
156.9641143529272
 20
178.7558116518799
 10
156.9532143529271
 20
178.7388116518799
 10
156.9683143529272
 20
178.7518116518799
 10
156.9683143529272
 20
178.7558116518799
 10
156.9683143529272
 20
184.6758116518799
 10
156.9683143529272
 20
184.6788116518799
 10
156.9532143529271
 20
184.6888116518799
 10
156.9641143529272
 20
184.6758116518799
 10
156.9683143529272
 20
184.6758116518799
 10
159.8886143529272
 20
184.6758116518799
 10
159.8911143529272
 20
184.6758116518799
 10
159.9024143529272
 20
184.6888116518799
 10
159.8886143529272
 20
184.6788116518799
 10
159.8886143529272
 20
184.6758116518799
  0
LWPOLYLINE
  5
5B
100
AcDbEntity
  8
0
  6
ByLayer
 62
    5
370
   -1
100
AcDbPolyline
 90
   21
 70
    1
 43
0
 10
159.8886143529272
 20
193.7158116518799
 10
159.8886143529272
 20
190.7558116518799
 10
159.8886143529272
 20
190.7508116518799
 10
159.9024143529272
 20
190.7398116518799
 10
159.8911143529272
 20
190.7558116518799
 10
159.8886143529272
 20
190.7558116518799
 10
156.9683143529272
 20
190.7558116518799
 10
156.9641143529272
 20
190.7558116518799
 10
156.9532143529271
 20
190.7398116518799
 10
156.9683143529272
 20
190.7508116518799
 10
156.9683143529272
 20
190.7558116518799
 10
156.9683143529272
 20
196.6748116518799
 10
156.9683143529272
 20
196.6778116518799
 10
156.9532143529271
 20
196.6888116518799
 10
156.9641143529272
 20
196.6748116518799
 10
156.9683143529272
 20
196.6748116518799
 10
159.8886143529272
 20
196.6748116518799
 10
159.8911143529272
 20
196.6748116518799
 10
159.9024143529272
 20
196.6888116518799
 10
159.8886143529272
 20
196.6778116518799
 10
159.8886143529272
 20
196.6748116518799
  0
LWPOLYLINE
  5
5C
100
AcDbEntity
  8
0
  6
ByLayer
 62
    5
370
   -1
100
AcDbPolyline
 90
   21
 70
    1
 43
0
 10
159.8886143529272
 20
205.7148116518799
 10
159.8886143529272
 20
202.7558116518799
 10
159.8886143529272
 20
202.7508116518799
 10
159.9024143529272
 20
202.7398116518799
 10
159.8911143529272
 20
202.7558116518799
 10
159.8886143529272
 20
202.7558116518799
 10
156.9683143529272
 20
202.7558116518799
 10
156.9641143529272
 20
202.7558116518799
 10
156.9532143529271
 20
202.7398116518799
 10
156.9683143529272
 20
202.7508116518799
 10
156.9683143529272
 20
202.7558116518799
 10
156.9683143529272
 20
208.6738116518799
 10
156.9683143529272
 20
208.6768116518799
 10
156.9532143529271
 20
208.6888116518799
 10
156.9641143529272
 20
208.6738116518799
 10
156.9683143529272
 20
208.6738116518799
 10
159.8886143529272
 20
208.6738116518799
 10
159.8911143529272
 20
208.6738116518799
 10
159.9024143529272
 20
208.6888116518799
 10
159.8886143529272
 20
208.6768116518799
 10
159.8886143529272
 20
208.6738116518799
  0
LWPOLYLINE
  5
5D
100
AcDbEntity
  8
0
  6
ByLayer
 62
    5
370
   -1
100
AcDbPolyline
 90
   21
 70
    1
 43
0
 10
159.8886143529272
 20
217.7148116518799
 10
159.8886143529272
 20
214.7548116518799
 10
159.8886143529272
 20
214.7508116518799
 10
159.9024143529272
 20
214.7398116518799
 10
159.8911143529272
 20
214.7548116518799
 10
159.8886143529272
 20
214.7548116518799
 10
156.9683143529272
 20
214.7548116518799
 10
156.9641143529272
 20
214.7548116518799
 10
156.9532143529271
 20
214.7398116518799
 10
156.9683143529272
 20
214.7508116518799
 10
156.9683143529272
 20
214.7548116518799
 10
156.9683143529272
 20
220.6758116518799
 10
156.9683143529272
 20
220.6778116518799
 10
156.9532143529271
 20
220.6888116518799
 10
156.9641143529272
 20
220.6758116518799
 10
156.9683143529272
 20
220.6758116518799
 10
159.8886143529272
 20
220.6758116518799
 10
159.8911143529272
 20
220.6758116518799
 10
159.9024143529272
 20
220.6888116518799
 10
159.8886143529272
 20
220.6778116518799
 10
159.8886143529272
 20
220.6758116518799
  0
LWPOLYLINE
  5
5E
100
AcDbEntity
  8
0
  6
ByLayer
 62
    5
370
   -1
100
AcDbPolyline
 90
   21
 70
    1
 43
0
 10
159.8886143529272
 20
229.7158116518799
 10
159.8886143529272
 20
226.7548116518799
 10
159.8886143529272
 20
226.7508116518799
 10
159.9024143529272
 20
226.7398116518799
 10
159.8911143529272
 20
226.7548116518799
 10
159.8886143529272
 20
226.7548116518799
 10
156.9683143529272
 20
226.7548116518799
 10
156.9641143529272
 20
226.7548116518799
 10
156.9532143529271
 20
226.7398116518799
 10
156.9683143529272
 20
226.7508116518799
 10
156.9683143529272
 20
226.7548116518799
 10
156.9683143529272
 20
232.6748116518799
 10
156.9683143529272
 20
232.6778116518799
 10
156.9532143529271
 20
232.6888116518799
 10
156.9641143529272
 20
232.6748116518799
 10
156.9683143529272
 20
232.6748116518799
 10
159.8886143529272
 20
232.6748116518799
 10
159.8911143529272
 20
232.6748116518799
 10
159.9024143529272
 20
232.6888116518799
 10
159.8886143529272
 20
232.6778116518799
 10
159.8886143529272
 20
232.6748116518799
  0
LWPOLYLINE
  5
5F
100
AcDbEntity
  8
0
  6
ByLayer
 62
    5
370
   -1
100
AcDbPolyline
 90
   21
 70
    1
 43
0
 10
159.8886143529272
 20
241.7148116518799
 10
159.8886143529272
 20
238.7558116518799
 10
159.8886143529272
 20
238.7508116518799
 10
159.9024143529272
 20
238.7398116518799
 10
159.8911143529272
 20
238.7558116518799
 10
159.8886143529272
 20
238.7558116518799
 10
156.9683143529272
 20
238.7558116518799
 10
156.9641143529272
 20
238.7558116518799
 10
156.9532143529271
 20
238.7398116518799
 10
156.9683143529272
 20
238.7508116518799
 10
156.9683143529272
 20
238.7558116518799
 10
156.9683143529272
 20
244.6748116518799
 10
156.9683143529272
 20
244.6778116518799
 10
156.9532143529271
 20
244.6888116518799
 10
156.9641143529272
 20
244.6748116518799
 10
156.9683143529272
 20
244.6748116518799
 10
159.8886143529272
 20
244.6748116518799
 10
159.8911143529272
 20
244.6748116518799
 10
159.9024143529272
 20
244.6888116518799
 10
159.8886143529272
 20
244.6778116518799
 10
159.8886143529272
 20
244.6748116518799
  0
LWPOLYLINE
  5
60
100
AcDbEntity
  8
0
  6
ByLayer
 62
    5
370
   -1
100
AcDbPolyline
 90
   21
 70
    1
 43
0
 10
159.8886143529272
 20
253.7148116518799
 10
159.8886143529272
 20
250.7548116518799
 10
159.8886143529272
 20
250.7508116518799
 10
159.9024143529272
 20
250.7398116518799
 10
159.8911143529272
 20
250.7548116518799
 10
159.8886143529272
 20
250.7548116518799
 10
156.9683143529272
 20
250.7548116518799
 10
156.9641143529272
 20
250.7548116518799
 10
156.9532143529271
 20
250.7398116518799
 10
156.9683143529272
 20
250.7508116518799
 10
156.9683143529272
 20
250.7548116518799
 10
156.9683143529272
 20
256.6758116518799
 10
156.9683143529272
 20
256.6778116518799
 10
156.9532143529271
 20
256.6888116518799
 10
156.9641143529272
 20
256.6758116518799
 10
156.9683143529272
 20
256.6758116518799
 10
159.8886143529272
 20
256.6758116518799
 10
159.8911143529272
 20
256.6758116518799
 10
159.9024143529272
 20
256.6888116518799
 10
159.8886143529272
 20
256.6778116518799
 10
159.8886143529272
 20
256.6758116518799
  0
LWPOLYLINE
  5
61
100
AcDbEntity
  8
0
  6
ByLayer
 62
    5
370
   -1
100
AcDbPolyline
 90
   21
 70
    1
 43
0
 10
159.8886143529272
 20
265.7148116518799
 10
159.8886143529272
 20
262.7548116518799
 10
159.8886143529272
 20
262.7508116518799
 10
159.9024143529272
 20
262.7398116518799
 10
159.8911143529272
 20
262.7548116518799
 10
159.8886143529272
 20
262.7548116518799
 10
156.9683143529272
 20
262.7548116518799
 10
156.9641143529272
 20
262.7548116518799
 10
156.9532143529271
 20
262.7398116518799
 10
156.9683143529272
 20
262.7508116518799
 10
156.9683143529272
 20
262.7548116518799
 10
156.9683143529272
 20
268.6748116518799
 10
156.9683143529272
 20
268.6778116518799
 10
156.9532143529271
 20
268.6888116518799
 10
156.9641143529272
 20
268.6748116518799
 10
156.9683143529272
 20
268.6748116518799
 10
159.8886143529272
 20
268.6748116518799
 10
159.8911143529272
 20
268.6748116518799
 10
159.9024143529272
 20
268.6888116518799
 10
159.8886143529272
 20
268.6778116518799
 10
159.8886143529272
 20
268.6748116518799
  0
LWPOLYLINE
  5
62
100
AcDbEntity
  8
0
  6
ByLayer
 62
    5
370
   -1
100
AcDbPolyline
 90
   21
 70
    1
 43
0
 10
159.8886143529272
 20
277.7148116518799
 10
159.8886143529272
 20
274.7548116518799
 10
159.8886143529272
 20
274.7508116518799
 10
159.9024143529272
 20
274.7398116518799
 10
159.8911143529272
 20
274.7548116518799
 10
159.8886143529272
 20
274.7548116518799
 10
156.9683143529272
 20
274.7548116518799
 10
156.9641143529272
 20
274.7548116518799
 10
156.9532143529271
 20
274.7398116518799
 10
156.9683143529272
 20
274.7508116518799
 10
156.9683143529272
 20
274.7548116518799
 10
156.9683143529272
 20
280.6748116518799
 10
156.9683143529272
 20
280.6778116518799
 10
156.9532143529271
 20
280.6888116518799
 10
156.9641143529272
 20
280.6748116518799
 10
156.9683143529272
 20
280.6748116518799
 10
159.8886143529272
 20
280.6748116518799
 10
159.8911143529272
 20
280.6748116518799
 10
159.9024143529272
 20
280.6888116518799
 10
159.8886143529272
 20
280.6778116518799
 10
159.8886143529272
 20
280.6748116518799
  0
LWPOLYLINE
  5
63
100
AcDbEntity
  8
0
  6
ByLayer
 62
    5
370
   -1
100
AcDbPolyline
 90
   21
 70
    1
 43
0
 10
159.8886143529272
 20
289.7148116518799
 10
159.8886143529272
 20
286.7548116518799
 10
159.8886143529272
 20
286.7508116518799
 10
159.9024143529272
 20
286.7398116518799
 10
159.8911143529272
 20
286.7548116518799
 10
159.8886143529272
 20
286.7548116518799
 10
156.9683143529272
 20
286.7548116518799
 10
156.9641143529272
 20
286.7548116518799
 10
156.9532143529271
 20
286.7398116518799
 10
156.9683143529272
 20
286.7508116518799
 10
156.9683143529272
 20
286.7548116518799
 10
156.9683143529272
 20
292.6748116518799
 10
156.9683143529272
 20
292.6778116518799
 10
156.9532143529271
 20
292.6888116518799
 10
156.9641143529272
 20
292.6748116518799
 10
156.9683143529272
 20
292.6748116518799
 10
159.8886143529272
 20
292.6748116518799
 10
159.8911143529272
 20
292.6748116518799
 10
159.9024143529272
 20
292.6888116518799
 10
159.8886143529272
 20
292.6778116518799
 10
159.8886143529272
 20
292.6748116518799
  0
LWPOLYLINE
  5
64
100
AcDbEntity
  8
0
  6
ByLayer
 62
    5
370
   -1
100
AcDbPolyline
 90
   21
 70
    1
 43
0
 10
159.8886143529272
 20
301.7148116518799
 10
159.8886143529272
 20
298.7548116518799
 10
159.8886143529272
 20
298.7508116518799
 10
159.9024143529272
 20
298.7398116518799
 10
159.8911143529272
 20
298.7548116518799
 10
159.8886143529272
 20
298.7548116518799
 10
156.9683143529272
 20
298.7548116518799
 10
156.9641143529272
 20
298.7548116518799
 10
156.9532143529271
 20
298.7398116518799
 10
156.9683143529272
 20
298.7508116518799
 10
156.9683143529272
 20
298.7548116518799
 10
156.9683143529272
 20
304.6748116518799
 10
156.9683143529272
 20
304.6778116518799
 10
156.9532143529271
 20
304.6888116518799
 10
156.9641143529272
 20
304.6748116518799
 10
156.9683143529272
 20
304.6748116518799
 10
159.8886143529272
 20
304.6748116518799
 10
159.8911143529272
 20
304.6748116518799
 10
159.9024143529272
 20
304.6888116518799
 10
159.8886143529272
 20
304.6778116518799
 10
159.8886143529272
 20
304.6748116518799
  0
LWPOLYLINE
  5
65
100
AcDbEntity
  8
0
  6
ByLayer
 62
    7
370
   -1
100
AcDbPolyline
 90
  124
 70
    1
 43
0
 10
162.9684143529272
 20
120.2148116518799
 10
162.9684143529272
 20
315.2158116518799
 10
162.9684143529272
 20
315.2248116518799
 10
162.9380143529272
 20
315.2538116518799
 10
162.9285143529272
 20
315.2538116518799
 10
154.9674143529272
 20
315.2538116518799
 10
154.9635143529272
 20
315.2538116518799
 10
154.9522143529272
 20
315.2388116518799
 10
154.9674143529272
 20
315.2498116518799
 10
154.9674143529272
 20
315.2538116518799
 10
154.9674143529272
 20
318.2158116518799
 10
154.9674143529272
 20
318.2248116518799
 10
154.9370143529272
 20
318.2538116518799
 10
154.9275143529272
 20
318.2538116518799
 10
148.9275143529272
 20
318.2538116518799
 10
148.9165143529272
 20
318.2538116518799
 10
148.8876143529272
 20
318.2248116518799
 10
148.8876143529272
 20
318.2158116518799
 10
148.8876143529272
 20
315.2538116518799
 10
148.8876143529272
 20
315.2498116518799
 10
148.9014143529272
 20
315.2388116518799
 10
148.8904143529272
 20
315.2538116518799
 10
148.8876143529272
 20
315.2538116518799
 10
142.9676143529272
 20
315.2538116518799
 10
142.9634143529272
 20
315.2538116518799
 10
142.9525143529272
 20
315.2388116518799
 10
142.9676143529272
 20
315.2498116518799
 10
142.9676143529272
 20
315.2538116518799
 10
142.9676143529272
 20
318.2158116518799
 10
142.9676143529272
 20
318.2248116518799
 10
142.9373143529272
 20
318.2538116518799
 10
142.9274143529272
 20
318.2538116518799
 10
136.9277143529272
 20
318.2538116518799
 10
136.9165143529272
 20
318.2538116518799
 10
136.8875143529272
 20
318.2248116518799
 10
136.8875143529272
 20
318.2158116518799
 10
136.8875143529272
 20
315.2538116518799
 10
136.8875143529272
 20
315.2498116518799
 10
136.9013143529272
 20
315.2388116518799
 10
136.8903143529272
 20
315.2538116518799
 10
136.8875143529272
 20
315.2538116518799
 10
130.9680143529272
 20
315.2538116518799
 10
130.9630143529272
 20
315.2538116518799
 10
130.9520143529272
 20
315.2388116518799
 10
130.9680143529272
 20
315.2498116518799
 10
130.9680143529272
 20
315.2538116518799
 10
130.9680143529272
 20
318.2158116518799
 10
130.9680143529272
 20
318.2248116518799
 10
130.9370143529272
 20
318.2538116518799
 10
130.9280143529272
 20
318.2538116518799
 10
124.9280143529272
 20
318.2538116518799
 10
124.9170143529272
 20
318.2538116518799
 10
124.8880143529272
 20
318.2248116518799
 10
124.8880143529272
 20
318.2158116518799
 10
124.8880143529272
 20
315.2538116518799
 10
124.8880143529272
 20
315.2498116518799
 10
124.9020143529272
 20
315.2388116518799
 10
124.8910143529272
 20
315.2538116518799
 10
124.8880143529272
 20
315.2538116518799
 10
116.9280143529272
 20
315.2538116518799
 10
116.9170143529272
 20
315.2538116518799
 10
116.8880143529272
 20
315.2248116518799
 10
116.8880143529272
 20
315.2158116518799
 10
116.8880143529272
 20
120.2148116518799
 10
116.8880143529272
 20
120.2038116518799
 10
116.9170143529272
 20
120.1748116518799
 10
116.9280143529272
 20
120.1748116518799
 10
124.8880143529272
 20
120.1748116518799
 10
124.8910143529272
 20
120.1748116518799
 10
124.9020143529272
 20
120.1888116518799
 10
124.8880143529272
 20
120.1778116518799
 10
124.8880143529272
 20
120.1748116518799
 10
124.8880143529272
 20
117.2148116518799
 10
124.8880143529272
 20
117.2038116518799
 10
124.9170143529272
 20
117.1748116518799
 10
124.9280143529272
 20
117.1748116518799
 10
130.9280143529272
 20
117.1748116518799
 10
130.9370143529272
 20
117.1748116518799
 10
130.9680143529272
 20
117.2038116518799
 10
130.9680143529272
 20
117.2148116518799
 10
130.9680143529272
 20
120.1748116518799
 10
130.9680143529272
 20
120.1778116518799
 10
130.9520143529272
 20
120.1888116518799
 10
130.9630143529272
 20
120.1748116518799
 10
130.9680143529272
 20
120.1748116518799
 10
136.8875143529272
 20
120.1748116518799
 10
136.8903143529272
 20
120.1748116518799
 10
136.9013143529272
 20
120.1888116518799
 10
136.8875143529272
 20
120.1778116518799
 10
136.8875143529272
 20
120.1748116518799
 10
136.8875143529272
 20
117.2148116518799
 10
136.8875143529272
 20
117.2038116518799
 10
136.9165143529272
 20
117.1748116518799
 10
136.9277143529272
 20
117.1748116518799
 10
142.9274143529272
 20
117.1748116518799
 10
142.9373143529272
 20
117.1748116518799
 10
142.9676143529272
 20
117.2038116518799
 10
142.9676143529272
 20
117.2148116518799
 10
142.9676143529272
 20
120.1748116518799
 10
142.9676143529272
 20
120.1778116518799
 10
142.9525143529272
 20
120.1888116518799
 10
142.9634143529272
 20
120.1748116518799
 10
142.9676143529272
 20
120.1748116518799
 10
148.8876143529272
 20
120.1748116518799
 10
148.8904143529272
 20
120.1748116518799
 10
148.9014143529272
 20
120.1888116518799
 10
148.8876143529272
 20
120.1778116518799
 10
148.8876143529272
 20
120.1748116518799
 10
148.8876143529272
 20
117.2148116518799
 10
148.8876143529272
 20
117.2038116518799
 10
148.9165143529272
 20
117.1748116518799
 10
148.9275143529272
 20
117.1748116518799
 10
154.9275143529272
 20
117.1748116518799
 10
154.9370143529272
 20
117.1748116518799
 10
154.9674143529272
 20
117.2038116518799
 10
154.9674143529272
 20
117.2148116518799
 10
154.9674143529272
 20
120.1748116518799
 10
154.9674143529272
 20
120.1778116518799
 10
154.9522143529272
 20
120.1888116518799
 10
154.9635143529272
 20
120.1748116518799
 10
154.9674143529272
 20
120.1748116518799
 10
162.9285143529272
 20
120.1748116518799
 10
162.9380143529272
 20
120.1748116518799
 10
162.9684143529272
 20
120.2038116518799
  0
ARC
  5
66
100
AcDbEntity
  8
0
  6
ByLayer
 62
  256
370
   -1
100
AcDbCircle
 10
121
 20
148
 40
12
100
AcDbArc
 50
59.99999999999999
 51
120
  0
ARC
  5
67
100
AcDbEntity
  8
0
  6
ByLayer
 62
  256
370
   -1
100
AcDbCircle
 10
121
 20
158
 40
12
100
AcDbArc
 50
59.99999999999999
 51
120
  0
ARC
  5
68
100
AcDbEntity
  8
0
  6
ByLayer
 62
  256
370
   -1
100
AcDbCircle
 10
121
 20
168
 40
12
100
AcDbArc
 50
59.99999999999999
 51
120
  0
ARC
  5
69
100
AcDbEntity
  8
0
  6
ByLayer
 62
  256
370
   -1
100
AcDbCircle
 10
121
 20
178
 40
12
100
AcDbArc
 50
59.99999999999999
 51
120
  0
ARC
  5
6A
100
AcDbEntity
  8
0
  6
ByLayer
 62
  256
370
   -1
100
AcDbCircle
 10
121
 20
188
 40
12
100
AcDbArc
 50
59.99999999999999
 51
120
  0
ARC
  5
6B
100
AcDbEntity
  8
0
  6
ByLayer
 62
  256
370
   -1
100
AcDbCircle
 10
121
 20
198
 40
12
100
AcDbArc
 50
59.99999999999999
 51
120
  0
ARC
  5
6C
100
AcDbEntity
  8
0
  6
ByLayer
 62
  256
370
   -1
100
AcDbCircle
 10
121
 20
208
 40
12
100
AcDbArc
 50
59.99999999999999
 51
120
  0
ARC
  5
6D
100
AcDbEntity
  8
0
  6
ByLayer
 62
  256
370
   -1
100
AcDbCircle
 10
121
 20
218
 40
12
100
AcDbArc
 50
59.99999999999999
 51
120
  0
ARC
  5
6E
100
AcDbEntity
  8
0
  6
ByLayer
 62
  256
370
   -1
100
AcDbCircle
 10
121
 20
228
 40
12
100
AcDbArc
 50
59.99999999999999
 51
120
  0
ARC
  5
6F
100
AcDbEntity
  8
0
  6
ByLayer
 62
  256
370
   -1
100
AcDbCircle
 10
121
 20
238
 40
12
100
AcDbArc
 50
59.99999999999999
 51
120
  0
ARC
  5
70
100
AcDbEntity
  8
0
  6
ByLayer
 62
  256
370
   -1
100
AcDbCircle
 10
121
 20
248
 40
12
100
AcDbArc
 50
59.99999999999999
 51
120
  0
ARC
  5
71
100
AcDbEntity
  8
0
  6
ByLayer
 62
  256
370
   -1
100
AcDbCircle
 10
121
 20
258
 40
12
100
AcDbArc
 50
59.99999999999999
 51
120
  0
ARC
  5
72
100
AcDbEntity
  8
0
  6
ByLayer
 62
  256
370
   -1
100
AcDbCircle
 10
121
 20
268
 40
12
100
AcDbArc
 50
59.99999999999999
 51
120
  0
ARC
  5
73
100
AcDbEntity
  8
0
  6
ByLayer
 62
  256
370
   -1
100
AcDbCircle
 10
121
 20
278
 40
12
100
AcDbArc
 50
59.99999999999999
 51
120
  0
ARC
  5
74
100
AcDbEntity
  8
0
  6
ByLayer
 62
  256
370
   -1
100
AcDbCircle
 10
121
 20
288
 40
12
100
AcDbArc
 50
59.99999999999999
 51
120
  0
ARC
  5
75
100
AcDbEntity
  8
0
  6
ByLayer
 62
  256
370
   -1
100
AcDbCircle
 10
121
 20
298
 40
12
100
AcDbArc
 50
59.99999999999999
 51
120
  0
ARC
  5
76
100
AcDbEntity
  8
0
  6
ByLayer
 62
  256
370
   -1
100
AcDbCircle
 10
121
 20
118
 40
12
100
AcDbArc
 50
59.99999999999999
 51
120
  0
ARC
  5
77
100
AcDbEntity
  8
0
  6
ByLayer
 62
  256
370
   -1
100
AcDbCircle
 10
121
 20
128
 40
12
100
AcDbArc
 50
59.99999999999999
 51
120
  0
ARC
  5
78
100
AcDbEntity
  8
0
  6
ByLayer
 62
  256
370
   -1
100
AcDbCircle
 10
121
 20
138
 40
12
100
AcDbArc
 50
59.99999999999999
 51
120
  0
LWPOLYLINE
  5
79
100
AcDbEntity
  8
0
  6
ByLayer
 62
    5
370
   -1
100
AcDbPolyline
 90
   21
 70
    1
 43
0
 10
208.8886143529272
 20
133.7148116518799
 10
208.8886143529272
 20
130.7538116518799
 10
208.8886143529272
 20
130.7498116518799
 10
208.9024143529272
 20
130.7388116518799
 10
208.8911143529272
 20
130.7538116518799
 10
208.8886143529272
 20
130.7538116518799
 10
205.9683143529272
 20
130.7538116518799
 10
205.9641143529272
 20
130.7538116518799
 10
205.9532143529271
 20
130.7388116518799
 10
205.9683143529272
 20
130.7498116518799
 10
205.9683143529272
 20
130.7538116518799
 10
205.9683143529272
 20
136.6738116518799
 10
205.9683143529272
 20
136.6768116518799
 10
205.9532143529271
 20
136.6878116518799
 10
205.9641143529272
 20
136.6738116518799
 10
205.9683143529272
 20
136.6738116518799
 10
208.8886143529272
 20
136.6738116518799
 10
208.8911143529272
 20
136.6738116518799
 10
208.9024143529272
 20
136.6878116518799
 10
208.8886143529272
 20
136.6768116518799
 10
208.8886143529272
 20
136.6738116518799
  0
LWPOLYLINE
  5
7A
100
AcDbEntity
  8
0
  6
ByLayer
 62
    5
370
   -1
100
AcDbPolyline
 90
   21
 70
    1
 43
0
 10
208.8886143529272
 20
145.7138116518799
 10
208.8886143529272
 20
142.7558116518799
 10
208.8886143529272
 20
142.7518116518799
 10
208.9024143529272
 20
142.7388116518799
 10
208.8911143529272
 20
142.7558116518799
 10
208.8886143529272
 20
142.7558116518799
 10
205.9683143529272
 20
142.7558116518799
 10
205.9641143529272
 20
142.7558116518799
 10
205.9532143529271
 20
142.7388116518799
 10
205.9683143529272
 20
142.7518116518799
 10
205.9683143529272
 20
142.7558116518799
 10
205.9683143529272
 20
148.6758116518799
 10
205.9683143529272
 20
148.6788116518799
 10
205.9532143529271
 20
148.6898116518799
 10
205.9641143529272
 20
148.6758116518799
 10
205.9683143529272
 20
148.6758116518799
 10
208.8886143529272
 20
148.6758116518799
 10
208.8911143529272
 20
148.6758116518799
 10
208.9024143529272
 20
148.6898116518799
 10
208.8886143529272
 20
148.6788116518799
 10
208.8886143529272
 20
148.6758116518799
  0
LWPOLYLINE
  5
7B
100
AcDbEntity
  8
0
  6
ByLayer
 62
    5
370
   -1
100
AcDbPolyline
 90
   21
 70
    1
 43
0
 10
208.8886143529272
 20
157.7158116518799
 10
208.8886143529272
 20
154.7538116518799
 10
208.8886143529272
 20
154.7498116518799
 10
208.9024143529272
 20
154.7388116518799
 10
208.8911143529272
 20
154.7538116518799
 10
208.8886143529272
 20
154.7538116518799
 10
205.9683143529272
 20
154.7538116518799
 10
205.9641143529272
 20
154.7538116518799
 10
205.9532143529271
 20
154.7388116518799
 10
205.9683143529272
 20
154.7498116518799
 10
205.9683143529272
 20
154.7538116518799
 10
205.9683143529272
 20
160.6738116518799
 10
205.9683143529272
 20
160.6768116518799
 10
205.9532143529271
 20
160.6898116518799
 10
205.9641143529272
 20
160.6738116518799
 10
205.9683143529272
 20
160.6738116518799
 10
208.8886143529272
 20
160.6738116518799
 10
208.8911143529272
 20
160.6738116518799
 10
208.9024143529272
 20
160.6898116518799
 10
208.8886143529272
 20
160.6768116518799
 10
208.8886143529272
 20
160.6738116518799
  0
LWPOLYLINE
  5
7C
100
AcDbEntity
  8
0
  6
ByLayer
 62
    5
370
   -1
100
AcDbPolyline
 90
   21
 70
    1
 43
0
 10
208.8886143529272
 20
169.7158116518799
 10
208.8886143529272
 20
166.7558116518799
 10
208.8886143529272
 20
166.7508116518799
 10
208.9024143529272
 20
166.7408116518799
 10
208.8911143529272
 20
166.7558116518799
 10
208.8886143529272
 20
166.7558116518799
 10
205.9683143529272
 20
166.7558116518799
 10
205.9641143529272
 20
166.7558116518799
 10
205.9532143529271
 20
166.7408116518799
 10
205.9683143529272
 20
166.7508116518799
 10
205.9683143529272
 20
166.7558116518799
 10
205.9683143529272
 20
172.6738116518799
 10
205.9683143529272
 20
172.6768116518799
 10
205.9532143529271
 20
172.6888116518799
 10
205.9641143529272
 20
172.6738116518799
 10
205.9683143529272
 20
172.6738116518799
 10
208.8886143529272
 20
172.6738116518799
 10
208.8911143529272
 20
172.6738116518799
 10
208.9024143529272
 20
172.6888116518799
 10
208.8886143529272
 20
172.6768116518799
 10
208.8886143529272
 20
172.6738116518799
  0
LWPOLYLINE
  5
7D
100
AcDbEntity
  8
0
  6
ByLayer
 62
    5
370
   -1
100
AcDbPolyline
 90
   21
 70
    1
 43
0
 10
208.8886143529272
 20
181.7138116518799
 10
208.8886143529272
 20
178.7558116518799
 10
208.8886143529272
 20
178.7518116518799
 10
208.9024143529272
 20
178.7388116518799
 10
208.8911143529272
 20
178.7558116518799
 10
208.8886143529272
 20
178.7558116518799
 10
205.9683143529272
 20
178.7558116518799
 10
205.9641143529272
 20
178.7558116518799
 10
205.9532143529271
 20
178.7388116518799
 10
205.9683143529272
 20
178.7518116518799
 10
205.9683143529272
 20
178.7558116518799
 10
205.9683143529272
 20
184.6758116518799
 10
205.9683143529272
 20
184.6788116518799
 10
205.9532143529271
 20
184.6888116518799
 10
205.9641143529272
 20
184.6758116518799
 10
205.9683143529272
 20
184.6758116518799
 10
208.8886143529272
 20
184.6758116518799
 10
208.8911143529272
 20
184.6758116518799
 10
208.9024143529272
 20
184.6888116518799
 10
208.8886143529272
 20
184.6788116518799
 10
208.8886143529272
 20
184.6758116518799
  0
LWPOLYLINE
  5
7E
100
AcDbEntity
  8
0
  6
ByLayer
 62
    5
370
   -1
100
AcDbPolyline
 90
   21
 70
    1
 43
0
 10
208.8886143529272
 20
193.7158116518799
 10
208.8886143529272
 20
190.7558116518799
 10
208.8886143529272
 20
190.7508116518799
 10
208.9024143529272
 20
190.7398116518799
 10
208.8911143529272
 20
190.7558116518799
 10
208.8886143529272
 20
190.7558116518799
 10
205.9683143529272
 20
190.7558116518799
 10
205.9641143529272
 20
190.7558116518799
 10
205.9532143529271
 20
190.7398116518799
 10
205.9683143529272
 20
190.7508116518799
 10
205.9683143529272
 20
190.7558116518799
 10
205.9683143529272
 20
196.6748116518799
 10
205.9683143529272
 20
196.6778116518799
 10
205.9532143529271
 20
196.6888116518799
 10
205.9641143529272
 20
196.6748116518799
 10
205.9683143529272
 20
196.6748116518799
 10
208.8886143529272
 20
196.6748116518799
 10
208.8911143529272
 20
196.6748116518799
 10
208.9024143529272
 20
196.6888116518799
 10
208.8886143529272
 20
196.6778116518799
 10
208.8886143529272
 20
196.6748116518799
  0
LWPOLYLINE
  5
7F
100
AcDbEntity
  8
0
  6
ByLayer
 62
    5
370
   -1
100
AcDbPolyline
 90
   21
 70
    1
 43
0
 10
208.8886143529272
 20
205.7148116518799
 10
208.8886143529272
 20
202.7558116518799
 10
208.8886143529272
 20
202.7508116518799
 10
208.9024143529272
 20
202.7398116518799
 10
208.8911143529272
 20
202.7558116518799
 10
208.8886143529272
 20
202.7558116518799
 10
205.9683143529272
 20
202.7558116518799
 10
205.9641143529272
 20
202.7558116518799
 10
205.9532143529271
 20
202.7398116518799
 10
205.9683143529272
 20
202.7508116518799
 10
205.9683143529272
 20
202.7558116518799
 10
205.9683143529272
 20
208.6738116518799
 10
205.9683143529272
 20
208.6768116518799
 10
205.9532143529271
 20
208.6888116518799
 10
205.9641143529272
 20
208.6738116518799
 10
205.9683143529272
 20
208.6738116518799
 10
208.8886143529272
 20
208.6738116518799
 10
208.8911143529272
 20
208.6738116518799
 10
208.9024143529272
 20
208.6888116518799
 10
208.8886143529272
 20
208.6768116518799
 10
208.8886143529272
 20
208.6738116518799
  0
LWPOLYLINE
  5
80
100
AcDbEntity
  8
0
  6
ByLayer
 62
    5
370
   -1
100
AcDbPolyline
 90
   21
 70
    1
 43
0
 10
208.8886143529272
 20
217.7148116518799
 10
208.8886143529272
 20
214.7548116518799
 10
208.8886143529272
 20
214.7508116518799
 10
208.9024143529272
 20
214.7398116518799
 10
208.8911143529272
 20
214.7548116518799
 10
208.8886143529272
 20
214.7548116518799
 10
205.9683143529272
 20
214.7548116518799
 10
205.9641143529272
 20
214.7548116518799
 10
205.9532143529271
 20
214.7398116518799
 10
205.9683143529272
 20
214.7508116518799
 10
205.9683143529272
 20
214.7548116518799
 10
205.9683143529272
 20
220.6758116518799
 10
205.9683143529272
 20
220.6778116518799
 10
205.9532143529271
 20
220.6888116518799
 10
205.9641143529272
 20
220.6758116518799
 10
205.9683143529272
 20
220.6758116518799
 10
208.8886143529272
 20
220.6758116518799
 10
208.8911143529272
 20
220.6758116518799
 10
208.9024143529272
 20
220.6888116518799
 10
208.8886143529272
 20
220.6778116518799
 10
208.8886143529272
 20
220.6758116518799
  0
LWPOLYLINE
  5
81
100
AcDbEntity
  8
0
  6
ByLayer
 62
    5
370
   -1
100
AcDbPolyline
 90
   21
 70
    1
 43
0
 10
208.8886143529272
 20
229.7158116518799
 10
208.8886143529272
 20
226.7548116518799
 10
208.8886143529272
 20
226.7508116518799
 10
208.9024143529272
 20
226.7398116518799
 10
208.8911143529272
 20
226.7548116518799
 10
208.8886143529272
 20
226.7548116518799
 10
205.9683143529272
 20
226.7548116518799
 10
205.9641143529272
 20
226.7548116518799
 10
205.9532143529271
 20
226.7398116518799
 10
205.9683143529272
 20
226.7508116518799
 10
205.9683143529272
 20
226.7548116518799
 10
205.9683143529272
 20
232.6748116518799
 10
205.9683143529272
 20
232.6778116518799
 10
205.9532143529271
 20
232.6888116518799
 10
205.9641143529272
 20
232.6748116518799
 10
205.9683143529272
 20
232.6748116518799
 10
208.8886143529272
 20
232.6748116518799
 10
208.8911143529272
 20
232.6748116518799
 10
208.9024143529272
 20
232.6888116518799
 10
208.8886143529272
 20
232.6778116518799
 10
208.8886143529272
 20
232.6748116518799
  0
LWPOLYLINE
  5
82
100
AcDbEntity
  8
0
  6
ByLayer
 62
    5
370
   -1
100
AcDbPolyline
 90
   21
 70
    1
 43
0
 10
208.8886143529272
 20
241.7148116518799
 10
208.8886143529272
 20
238.7558116518799
 10
208.8886143529272
 20
238.7508116518799
 10
208.9024143529272
 20
238.7398116518799
 10
208.8911143529272
 20
238.7558116518799
 10
208.8886143529272
 20
238.7558116518799
 10
205.9683143529272
 20
238.7558116518799
 10
205.9641143529272
 20
238.7558116518799
 10
205.9532143529271
 20
238.7398116518799
 10
205.9683143529272
 20
238.7508116518799
 10
205.9683143529272
 20
238.7558116518799
 10
205.9683143529272
 20
244.6748116518799
 10
205.9683143529272
 20
244.6778116518799
 10
205.9532143529271
 20
244.6888116518799
 10
205.9641143529272
 20
244.6748116518799
 10
205.9683143529272
 20
244.6748116518799
 10
208.8886143529272
 20
244.6748116518799
 10
208.8911143529272
 20
244.6748116518799
 10
208.9024143529272
 20
244.6888116518799
 10
208.8886143529272
 20
244.6778116518799
 10
208.8886143529272
 20
244.6748116518799
  0
LWPOLYLINE
  5
83
100
AcDbEntity
  8
0
  6
ByLayer
 62
    5
370
   -1
100
AcDbPolyline
 90
   21
 70
    1
 43
0
 10
208.8886143529272
 20
253.7148116518799
 10
208.8886143529272
 20
250.7548116518799
 10
208.8886143529272
 20
250.7508116518799
 10
208.9024143529272
 20
250.7398116518799
 10
208.8911143529272
 20
250.7548116518799
 10
208.8886143529272
 20
250.7548116518799
 10
205.9683143529272
 20
250.7548116518799
 10
205.9641143529272
 20
250.7548116518799
 10
205.9532143529271
 20
250.7398116518799
 10
205.9683143529272
 20
250.7508116518799
 10
205.9683143529272
 20
250.7548116518799
 10
205.9683143529272
 20
256.6758116518799
 10
205.9683143529272
 20
256.6778116518799
 10
205.9532143529271
 20
256.6888116518799
 10
205.9641143529272
 20
256.6758116518799
 10
205.9683143529272
 20
256.6758116518799
 10
208.8886143529272
 20
256.6758116518799
 10
208.8911143529272
 20
256.6758116518799
 10
208.9024143529272
 20
256.6888116518799
 10
208.8886143529272
 20
256.6778116518799
 10
208.8886143529272
 20
256.6758116518799
  0
LWPOLYLINE
  5
84
100
AcDbEntity
  8
0
  6
ByLayer
 62
    5
370
   -1
100
AcDbPolyline
 90
   21
 70
    1
 43
0
 10
208.8886143529272
 20
265.7148116518799
 10
208.8886143529272
 20
262.7548116518799
 10
208.8886143529272
 20
262.7508116518799
 10
208.9024143529272
 20
262.7398116518799
 10
208.8911143529272
 20
262.7548116518799
 10
208.8886143529272
 20
262.7548116518799
 10
205.9683143529272
 20
262.7548116518799
 10
205.9641143529272
 20
262.7548116518799
 10
205.9532143529271
 20
262.7398116518799
 10
205.9683143529272
 20
262.7508116518799
 10
205.9683143529272
 20
262.7548116518799
 10
205.9683143529272
 20
268.6748116518799
 10
205.9683143529272
 20
268.6778116518799
 10
205.9532143529271
 20
268.6888116518799
 10
205.9641143529272
 20
268.6748116518799
 10
205.9683143529272
 20
268.6748116518799
 10
208.8886143529272
 20
268.6748116518799
 10
208.8911143529272
 20
268.6748116518799
 10
208.9024143529272
 20
268.6888116518799
 10
208.8886143529272
 20
268.6778116518799
 10
208.8886143529272
 20
268.6748116518799
  0
LWPOLYLINE
  5
85
100
AcDbEntity
  8
0
  6
ByLayer
 62
    5
370
   -1
100
AcDbPolyline
 90
   21
 70
    1
 43
0
 10
208.8886143529272
 20
277.7148116518799
 10
208.8886143529272
 20
274.7548116518799
 10
208.8886143529272
 20
274.7508116518799
 10
208.9024143529272
 20
274.7398116518799
 10
208.8911143529272
 20
274.7548116518799
 10
208.8886143529272
 20
274.7548116518799
 10
205.9683143529272
 20
274.7548116518799
 10
205.9641143529272
 20
274.7548116518799
 10
205.9532143529271
 20
274.7398116518799
 10
205.9683143529272
 20
274.7508116518799
 10
205.9683143529272
 20
274.7548116518799
 10
205.9683143529272
 20
280.6748116518799
 10
205.9683143529272
 20
280.6778116518799
 10
205.9532143529271
 20
280.6888116518799
 10
205.9641143529272
 20
280.6748116518799
 10
205.9683143529272
 20
280.6748116518799
 10
208.8886143529272
 20
280.6748116518799
 10
208.8911143529272
 20
280.6748116518799
 10
208.9024143529272
 20
280.6888116518799
 10
208.8886143529272
 20
280.6778116518799
 10
208.8886143529272
 20
280.6748116518799
  0
LWPOLYLINE
  5
86
100
AcDbEntity
  8
0
  6
ByLayer
 62
    5
370
   -1
100
AcDbPolyline
 90
   21
 70
    1
 43
0
 10
208.8886143529272
 20
289.7148116518799
 10
208.8886143529272
 20
286.7548116518799
 10
208.8886143529272
 20
286.7508116518799
 10
208.9024143529272
 20
286.7398116518799
 10
208.8911143529272
 20
286.7548116518799
 10
208.8886143529272
 20
286.7548116518799
 10
205.9683143529272
 20
286.7548116518799
 10
205.9641143529272
 20
286.7548116518799
 10
205.9532143529271
 20
286.7398116518799
 10
205.9683143529272
 20
286.7508116518799
 10
205.9683143529272
 20
286.7548116518799
 10
205.9683143529272
 20
292.6748116518799
 10
205.9683143529272
 20
292.6778116518799
 10
205.9532143529271
 20
292.6888116518799
 10
205.9641143529272
 20
292.6748116518799
 10
205.9683143529272
 20
292.6748116518799
 10
208.8886143529272
 20
292.6748116518799
 10
208.8911143529272
 20
292.6748116518799
 10
208.9024143529272
 20
292.6888116518799
 10
208.8886143529272
 20
292.6778116518799
 10
208.8886143529272
 20
292.6748116518799
  0
LWPOLYLINE
  5
87
100
AcDbEntity
  8
0
  6
ByLayer
 62
    5
370
   -1
100
AcDbPolyline
 90
   21
 70
    1
 43
0
 10
208.8886143529272
 20
301.7148116518799
 10
208.8886143529272
 20
298.7548116518799
 10
208.8886143529272
 20
298.7508116518799
 10
208.9024143529272
 20
298.7398116518799
 10
208.8911143529272
 20
298.7548116518799
 10
208.8886143529272
 20
298.7548116518799
 10
205.9683143529272
 20
298.7548116518799
 10
205.9641143529272
 20
298.7548116518799
 10
205.9532143529271
 20
298.7398116518799
 10
205.9683143529272
 20
298.7508116518799
 10
205.9683143529272
 20
298.7548116518799
 10
205.9683143529272
 20
304.6748116518799
 10
205.9683143529272
 20
304.6778116518799
 10
205.9532143529271
 20
304.6888116518799
 10
205.9641143529272
 20
304.6748116518799
 10
205.9683143529272
 20
304.6748116518799
 10
208.8886143529272
 20
304.6748116518799
 10
208.8911143529272
 20
304.6748116518799
 10
208.9024143529272
 20
304.6888116518799
 10
208.8886143529272
 20
304.6778116518799
 10
208.8886143529272
 20
304.6748116518799
  0
LWPOLYLINE
  5
88
100
AcDbEntity
  8
0
  6
ByLayer
 62
    7
370
   -1
100
AcDbPolyline
 90
  124
 70
    1
 43
0
 10
211.9684143529272
 20
120.2148116518799
 10
211.9684143529272
 20
315.2158116518799
 10
211.9684143529272
 20
315.2248116518799
 10
211.9380143529272
 20
315.2538116518799
 10
211.9285143529272
 20
315.2538116518799
 10
203.9674143529272
 20
315.2538116518799
 10
203.9635143529272
 20
315.2538116518799
 10
203.9522143529272
 20
315.2388116518799
 10
203.9674143529272
 20
315.2498116518799
 10
203.9674143529272
 20
315.2538116518799
 10
203.9674143529272
 20
318.2158116518799
 10
203.9674143529272
 20
318.2248116518799
 10
203.9370143529272
 20
318.2538116518799
 10
203.9275143529272
 20
318.2538116518799
 10
197.9275143529272
 20
318.2538116518799
 10
197.9165143529272
 20
318.2538116518799
 10
197.8876143529272
 20
318.2248116518799
 10
197.8876143529272
 20
318.2158116518799
 10
197.8876143529272
 20
315.2538116518799
 10
197.8876143529272
 20
315.2498116518799
 10
197.9014143529272
 20
315.2388116518799
 10
197.8904143529272
 20
315.2538116518799
 10
197.8876143529272
 20
315.2538116518799
 10
191.9676143529272
 20
315.2538116518799
 10
191.9634143529272
 20
315.2538116518799
 10
191.9525143529272
 20
315.2388116518799
 10
191.9676143529272
 20
315.2498116518799
 10
191.9676143529272
 20
315.2538116518799
 10
191.9676143529272
 20
318.2158116518799
 10
191.9676143529272
 20
318.2248116518799
 10
191.9373143529272
 20
318.2538116518799
 10
191.9274143529272
 20
318.2538116518799
 10
185.9277143529272
 20
318.2538116518799
 10
185.9165143529272
 20
318.2538116518799
 10
185.8875143529272
 20
318.2248116518799
 10
185.8875143529272
 20
318.2158116518799
 10
185.8875143529272
 20
315.2538116518799
 10
185.8875143529272
 20
315.2498116518799
 10
185.9013143529272
 20
315.2388116518799
 10
185.8903143529272
 20
315.2538116518799
 10
185.8875143529272
 20
315.2538116518799
 10
179.9680143529272
 20
315.2538116518799
 10
179.9630143529272
 20
315.2538116518799
 10
179.9520143529272
 20
315.2388116518799
 10
179.9680143529272
 20
315.2498116518799
 10
179.9680143529272
 20
315.2538116518799
 10
179.9680143529272
 20
318.2158116518799
 10
179.9680143529272
 20
318.2248116518799
 10
179.9370143529272
 20
318.2538116518799
 10
179.9280143529272
 20
318.2538116518799
 10
173.9280143529272
 20
318.2538116518799
 10
173.9170143529272
 20
318.2538116518799
 10
173.8880143529272
 20
318.2248116518799
 10
173.8880143529272
 20
318.2158116518799
 10
173.8880143529272
 20
315.2538116518799
 10
173.8880143529272
 20
315.2498116518799
 10
173.9020143529272
 20
315.2388116518799
 10
173.8910143529272
 20
315.2538116518799
 10
173.8880143529272
 20
315.2538116518799
 10
165.9280143529272
 20
315.2538116518799
 10
165.9170143529272
 20
315.2538116518799
 10
165.8880143529272
 20
315.2248116518799
 10
165.8880143529272
 20
315.2158116518799
 10
165.8880143529272
 20
120.2148116518799
 10
165.8880143529272
 20
120.2038116518799
 10
165.9170143529272
 20
120.1748116518799
 10
165.9280143529272
 20
120.1748116518799
 10
173.8880143529272
 20
120.1748116518799
 10
173.8910143529272
 20
120.1748116518799
 10
173.9020143529272
 20
120.1888116518799
 10
173.8880143529272
 20
120.1778116518799
 10
173.8880143529272
 20
120.1748116518799
 10
173.8880143529272
 20
117.2148116518799
 10
173.8880143529272
 20
117.2038116518799
 10
173.9170143529272
 20
117.1748116518799
 10
173.9280143529272
 20
117.1748116518799
 10
179.9280143529272
 20
117.1748116518799
 10
179.9370143529272
 20
117.1748116518799
 10
179.9680143529272
 20
117.2038116518799
 10
179.9680143529272
 20
117.2148116518799
 10
179.9680143529272
 20
120.1748116518799
 10
179.9680143529272
 20
120.1778116518799
 10
179.9520143529272
 20
120.1888116518799
 10
179.9630143529272
 20
120.1748116518799
 10
179.9680143529272
 20
120.1748116518799
 10
185.8875143529272
 20
120.1748116518799
 10
185.8903143529272
 20
120.1748116518799
 10
185.9013143529272
 20
120.1888116518799
 10
185.8875143529272
 20
120.1778116518799
 10
185.8875143529272
 20
120.1748116518799
 10
185.8875143529272
 20
117.2148116518799
 10
185.8875143529272
 20
117.2038116518799
 10
185.9165143529272
 20
117.1748116518799
 10
185.9277143529272
 20
117.1748116518799
 10
191.9274143529272
 20
117.1748116518799
 10
191.9373143529272
 20
117.1748116518799
 10
191.9676143529272
 20
117.2038116518799
 10
191.9676143529272
 20
117.2148116518799
 10
191.9676143529272
 20
120.1748116518799
 10
191.9676143529272
 20
120.1778116518799
 10
191.9525143529272
 20
120.1888116518799
 10
191.9634143529272
 20
120.1748116518799
 10
191.9676143529272
 20
120.1748116518799
 10
197.8876143529272
 20
120.1748116518799
 10
197.8904143529272
 20
120.1748116518799
 10
197.9014143529272
 20
120.1888116518799
 10
197.8876143529272
 20
120.1778116518799
 10
197.8876143529272
 20
120.1748116518799
 10
197.8876143529272
 20
117.2148116518799
 10
197.8876143529272
 20
117.2038116518799
 10
197.9165143529272
 20
117.1748116518799
 10
197.9275143529272
 20
117.1748116518799
 10
203.9275143529272
 20
117.1748116518799
 10
203.9370143529272
 20
117.1748116518799
 10
203.9674143529272
 20
117.2038116518799
 10
203.9674143529272
 20
117.2148116518799
 10
203.9674143529272
 20
120.1748116518799
 10
203.9674143529272
 20
120.1778116518799
 10
203.9522143529272
 20
120.1888116518799
 10
203.9635143529272
 20
120.1748116518799
 10
203.9674143529272
 20
120.1748116518799
 10
211.9285143529272
 20
120.1748116518799
 10
211.9380143529272
 20
120.1748116518799
 10
211.9684143529272
 20
120.2038116518799
  0
ARC
  5
89
100
AcDbEntity
  8
0
  6
ByLayer
 62
  256
370
   -1
100
AcDbCircle
 10
170
 20
148
 40
12
100
AcDbArc
 50
59.99999999999999
 51
120
  0
ARC
  5
8A
100
AcDbEntity
  8
0
  6
ByLayer
 62
  256
370
   -1
100
AcDbCircle
 10
170
 20
158
 40
12
100
AcDbArc
 50
59.99999999999999
 51
120
  0
ARC
  5
8B
100
AcDbEntity
  8
0
  6
ByLayer
 62
  256
370
   -1
100
AcDbCircle
 10
170
 20
168
 40
12
100
AcDbArc
 50
59.99999999999999
 51
120
  0
ARC
  5
8C
100
AcDbEntity
  8
0
  6
ByLayer
 62
  256
370
   -1
100
AcDbCircle
 10
170
 20
178
 40
12
100
AcDbArc
 50
59.99999999999999
 51
120
  0
ARC
  5
8D
100
AcDbEntity
  8
0
  6
ByLayer
 62
  256
370
   -1
100
AcDbCircle
 10
170
 20
188
 40
12
100
AcDbArc
 50
59.99999999999999
 51
120
  0
ARC
  5
8E
100
AcDbEntity
  8
0
  6
ByLayer
 62
  256
370
   -1
100
AcDbCircle
 10
170
 20
198
 40
12
100
AcDbArc
 50
59.99999999999999
 51
120
  0
ARC
  5
8F
100
AcDbEntity
  8
0
  6
ByLayer
 62
  256
370
   -1
100
AcDbCircle
 10
170
 20
208
 40
12
100
AcDbArc
 50
59.99999999999999
 51
120
  0
ARC
  5
90
100
AcDbEntity
  8
0
  6
ByLayer
 62
  256
370
   -1
100
AcDbCircle
 10
170
 20
218
 40
12
100
AcDbArc
 50
59.99999999999999
 51
120
  0
ARC
  5
91
100
AcDbEntity
  8
0
  6
ByLayer
 62
  256
370
   -1
100
AcDbCircle
 10
170
 20
228
 40
12
100
AcDbArc
 50
59.99999999999999
 51
120
  0
ARC
  5
92
100
AcDbEntity
  8
0
  6
ByLayer
 62
  256
370
   -1
100
AcDbCircle
 10
170
 20
238
 40
12
100
AcDbArc
 50
59.99999999999999
 51
120
  0
ARC
  5
93
100
AcDbEntity
  8
0
  6
ByLayer
 62
  256
370
   -1
100
AcDbCircle
 10
170
 20
248
 40
12
100
AcDbArc
 50
59.99999999999999
 51
120
  0
ARC
  5
94
100
AcDbEntity
  8
0
  6
ByLayer
 62
  256
370
   -1
100
AcDbCircle
 10
170
 20
258
 40
12
100
AcDbArc
 50
59.99999999999999
 51
120
  0
ARC
  5
95
100
AcDbEntity
  8
0
  6
ByLayer
 62
  256
370
   -1
100
AcDbCircle
 10
170
 20
268
 40
12
100
AcDbArc
 50
59.99999999999999
 51
120
  0
ARC
  5
96
100
AcDbEntity
  8
0
  6
ByLayer
 62
  256
370
   -1
100
AcDbCircle
 10
170
 20
278
 40
12
100
AcDbArc
 50
59.99999999999999
 51
120
  0
ARC
  5
97
100
AcDbEntity
  8
0
  6
ByLayer
 62
  256
370
   -1
100
AcDbCircle
 10
170
 20
288
 40
12
100
AcDbArc
 50
59.99999999999999
 51
120
  0
ARC
  5
98
100
AcDbEntity
  8
0
  6
ByLayer
 62
  256
370
   -1
100
AcDbCircle
 10
170
 20
298
 40
12
100
AcDbArc
 50
59.99999999999999
 51
120
  0
ARC
  5
99
100
AcDbEntity
  8
0
  6
ByLayer
 62
  256
370
   -1
100
AcDbCircle
 10
170
 20
118
 40
12
100
AcDbArc
 50
59.99999999999999
 51
120
  0
ARC
  5
9A
100
AcDbEntity
  8
0
  6
ByLayer
 62
  256
370
   -1
100
AcDbCircle
 10
170
 20
128
 40
12
100
AcDbArc
 50
59.99999999999999
 51
120
  0
ARC
  5
9B
100
AcDbEntity
  8
0
  6
ByLayer
 62
  256
370
   -1
100
AcDbCircle
 10
170
 20
138
 40
12
100
AcDbArc
 50
59.99999999999999
 51
120
  0
LWPOLYLINE
  5
9C
100
AcDbEntity
  8
0
  6
ByLayer
 62
    5
370
   -1
100
AcDbPolyline
 90
   21
 70
    1
 43
0
 10
131.0394
 20
72.66
 10
128.0808
 20
72.66
 10
128.0766
 20
72.66
 10
128.0642
 20
72.64619999999999
 10
128.0808
 20
72.6572
 10
128.0808
 20
72.66
 10
128.0808
 20
75.5801
 10
128.0808
 20
75.5842
 10
128.0642
 20
75.59520000000001
 10
128.0766
 20
75.5801
 10
128.0808
 20
75.5801
 10
133.9994
 20
75.5801
 10
134.0022
 20
75.5801
 10
134.0132
 20
75.59520000000001
 10
133.9994
 20
75.5842
 10
133.9994
 20
75.5801
 10
133.9994
 20
72.66
 10
133.9994
 20
72.6572
 10
134.0132
 20
72.64619999999999
 10
134.0022
 20
72.66
 10
133.9994
 20
72.66
  0
LWPOLYLINE
  5
9D
100
AcDbEntity
  8
0
  6
ByLayer
 62
    5
370
   -1
100
AcDbPolyline
 90
   21
 70
    1
 43
0
 10
143.0393
 20
72.66
 10
140.0793
 20
72.66
 10
140.0752
 20
72.66
 10
140.0642
 20
72.64619999999999
 10
140.0793
 20
72.6572
 10
140.0793
 20
72.66
 10
140.0793
 20
75.5801
 10
140.0793
 20
75.5842
 10
140.0642
 20
75.59520000000001
 10
140.0752
 20
75.5801
 10
140.0793
 20
75.5801
 10
145.9995
 20
75.5801
 10
146.0023
 20
75.5801
 10
146.0147
 20
75.59520000000001
 10
145.9995
 20
75.5842
 10
145.9995
 20
75.5801
 10
145.9995
 20
72.66
 10
145.9995
 20
72.6572
 10
146.0147
 20
72.64619999999999
 10
146.0023
 20
72.66
 10
145.9995
 20
72.66
  0
LWPOLYLINE
  5
9E
100
AcDbEntity
  8
0
  6
ByLayer
 62
    5
370
   -1
100
AcDbPolyline
 90
   21
 70
    1
 43
0
 10
155.0408
 20
72.66
 10
152.0793
 20
72.66
 10
152.075
 20
72.66
 10
152.0641
 20
72.64619999999999
 10
152.0793
 20
72.6572
 10
152.0793
 20
72.66
 10
152.0793
 20
75.5801
 10
152.0793
 20
75.5842
 10
152.0641
 20
75.59520000000001
 10
152.075
 20
75.5801
 10
152.0793
 20
75.5801
 10
157.9992
 20
75.5801
 10
158.002
 20
75.5801
 10
158.0144
 20
75.59520000000001
 10
157.9992
 20
75.5842
 10
157.9992
 20
75.5801
 10
157.9992
 20
72.66
 10
157.9992
 20
72.6572
 10
158.0144
 20
72.64619999999999
 10
158.002
 20
72.66
 10
157.9992
 20
72.66
  0
LWPOLYLINE
  5
9F
100
AcDbEntity
  8
0
  6
ByLayer
 62
    5
370
   -1
100
AcDbPolyline
 90
   21
 70
    1
 43
0
 10
167.0391
 20
72.66
 10
164.0808
 20
72.66
 10
164.0765
 20
72.66
 10
164.0642
 20
72.64619999999999
 10
164.0808
 20
72.6572
 10
164.0808
 20
72.66
 10
164.0808
 20
75.5801
 10
164.0808
 20
75.5842
 10
164.0642
 20
75.59520000000001
 10
164.0765
 20
75.5801
 10
164.0808
 20
75.5801
 10
170.0007
 20
75.5801
 10
170.0035
 20
75.5801
 10
170.0145
 20
75.59520000000001
 10
170.0007
 20
75.5842
 10
170.0007
 20
75.5801
 10
170.0007
 20
72.66
 10
170.0007
 20
72.6572
 10
170.0145
 20
72.64619999999999
 10
170.0035
 20
72.66
 10
170.0007
 20
72.66
  0
LWPOLYLINE
  5
A0
100
AcDbEntity
  8
0
  6
ByLayer
 62
    5
370
   -1
100
AcDbPolyline
 90
   21
 70
    1
 43
0
 10
179.0406
 20
72.66
 10
176.0805
 20
72.66
 10
176.0766
 20
72.66
 10
176.0639
 20
72.64619999999999
 10
176.0805
 20
72.6572
 10
176.0805
 20
72.66
 10
176.0805
 20
75.5801
 10
176.0805
 20
75.5842
 10
176.0639
 20
75.59520000000001
 10
176.0766
 20
75.5801
 10
176.0805
 20
75.5801
 10
182.0008
 20
75.5801
 10
182.0033
 20
75.5801
 10
182.0146
 20
75.59520000000001
 10
182.0008
 20
75.5842
 10
182.0008
 20
75.5801
 10
182.0008
 20
72.66
 10
182.0008
 20
72.6572
 10
182.0146
 20
72.64619999999999
 10
182.0033
 20
72.66
 10
182.0008
 20
72.66
  0
LWPOLYLINE
  5
A1
100
AcDbEntity
  8
0
  6
ByLayer
 62
    5
370
   -1
100
AcDbPolyline
 90
   21
 70
    1
 43
0
 10
191.0407
 20
72.66
 10
188.0806
 20
72.66
 10
188.0763
 20
72.66
 10
188.0654
 20
72.64619999999999
 10
188.0806
 20
72.6572
 10
188.0806
 20
72.66
 10
188.0806
 20
75.5801
 10
188.0806
 20
75.5842
 10
188.0654
 20
75.59520000000001
 10
188.0763
 20
75.5801
 10
188.0806
 20
75.5801
 10
193.9991
 20
75.5801
 10
194.002
 20
75.5801
 10
194.0143
 20
75.59520000000001
 10
193.9991
 20
75.5842
 10
193.9991
 20
75.5801
 10
193.9991
 20
72.66
 10
193.9991
 20
72.6572
 10
194.0143
 20
72.64619999999999
 10
194.002
 20
72.66
 10
193.9991
 20
72.66
  0
LWPOLYLINE
  5
A2
100
AcDbEntity
  8
0
  6
ByLayer
 62
    5
370
   -1
100
AcDbPolyline
 90
   21
 70
    1
 43
0
 10
203.0405
 20
72.66
 10
200.0807
 20
72.66
 10
200.0764
 20
72.66
 10
200.0655
 20
72.64619999999999
 10
200.0807
 20
72.6572
 10
200.0807
 20
72.66
 10
200.0807
 20
75.5801
 10
200.0807
 20
75.5842
 10
200.0655
 20
75.59520000000001
 10
200.0764
 20
75.5801
 10
200.0807
 20
75.5801
 10
206.001
 20
75.5801
 10
206.003
 20
75.5801
 10
206.014
 20
75.59520000000001
 10
206.001
 20
75.5842
 10
206.001
 20
75.5801
 10
206.001
 20
72.66
 10
206.001
 20
72.6572
 10
206.014
 20
72.64619999999999
 10
206.003
 20
72.66
 10
206.001
 20
72.66
  0
LWPOLYLINE
  5
A3
100
AcDbEntity
  8
0
  6
ByLayer
 62
    7
370
   -1
100
AcDbPolyline
 90
  128
 70
    1
 43
0
 10
118.0404
 20
69.5801
 10
216.04
 20
69.5801
 10
219.04
 20
69.5801
 10
219.049
 20
69.5801
 10
219.08
 20
69.6104
 10
219.08
 20
69.62010000000001
 10
219.08
 20
77.6195
 10
219.08
 20
77.6306
 10
219.049
 20
77.65950000000001
 10
219.04
 20
77.65950000000001
 10
216.079
 20
77.65950000000001
 10
216.075
 20
77.65950000000001
 10
216.064
 20
77.64580000000001
 10
216.079
 20
77.6568
 10
216.079
 20
77.65950000000001
 10
216.079
 20
83.57939999999999
 10
216.079
 20
83.58359999999999
 10
216.064
 20
83.5946
 10
216.075
 20
83.57939999999999
 10
216.079
 20
83.57939999999999
 10
219.04
 20
83.57939999999999
 10
219.049
 20
83.57939999999999
 10
219.08
 20
83.6097
 10
219.08
 20
83.61959999999999
 10
219.08
 20
89.61969999999999
 10
219.08
 20
89.6306
 10
219.049
 20
89.65950000000001
 10
219.04
 20
89.65950000000001
 10
216.079
 20
89.65950000000001
 10
216.075
 20
89.65950000000001
 10
216.064
 20
89.64580000000001
 10
216.079
 20
89.6567
 10
216.079
 20
89.65950000000001
 10
216.079
 20
95.5795
 10
216.079
 20
95.58369999999999
 10
216.064
 20
95.5947
 10
216.075
 20
95.5795
 10
216.079
 20
95.5795
 10
219.04
 20
95.5795
 10
219.049
 20
95.5795
 10
219.08
 20
95.60980000000001
 10
219.08
 20
95.6194
 10
219.08
 20
101.6194
 10
219.08
 20
101.6303
 10
219.049
 20
101.6593
 10
219.04
 20
101.6593
 10
216.079
 20
101.6593
 10
216.075
 20
101.6593
 10
216.064
 20
101.6455
 10
216.079
 20
101.6568
 10
216.079
 20
101.6593
 10
216.079
 20
107.5796
 10
216.079
 20
107.5835
 10
216.064
 20
107.5962
 10
216.075
 20
107.5796
 10
216.079
 20
107.5796
 10
219.04
 20
107.5796
 10
219.049
 20
107.5796
 10
219.08
 20
107.6113
 10
219.08
 20
107.6209
 10
219.08
 20
115.6204
 10
219.08
 20
115.6314
 10
219.049
 20
115.6603
 10
219.04
 20
115.6603
 10
216.04
 20
115.6603
 10
118.0404
 20
115.6603
 10
115.0404
 20
115.6603
 10
115.0294
 20
115.6603
 10
115.0004
 20
115.6314
 10
115.0004
 20
115.6204
 10
115.0004
 20
107.6209
 10
115.0004
 20
107.6113
 10
115.0294
 20
107.5796
 10
115.0404
 20
107.5796
 10
118.0004
 20
107.5796
 10
118.0032
 20
107.5796
 10
118.0142
 20
107.5962
 10
118.0004
 20
107.5835
 10
118.0004
 20
107.5796
 10
118.0004
 20
101.6593
 10
118.0004
 20
101.6568
 10
118.0142
 20
101.6455
 10
118.0032
 20
101.6593
 10
118.0004
 20
101.6593
 10
115.0404
 20
101.6593
 10
115.0294
 20
101.6593
 10
115.0004
 20
101.6303
 10
115.0004
 20
101.6194
 10
115.0004
 20
95.6194
 10
115.0004
 20
95.60980000000001
 10
115.0294
 20
95.5795
 10
115.0404
 20
95.5795
 10
118.0004
 20
95.5795
 10
118.0032
 20
95.5795
 10
118.0142
 20
95.5947
 10
118.0004
 20
95.58369999999999
 10
118.0004
 20
95.5795
 10
118.0004
 20
89.65950000000001
 10
118.0004
 20
89.6567
 10
118.0142
 20
89.64580000000001
 10
118.0032
 20
89.65950000000001
 10
118.0004
 20
89.65950000000001
 10
115.0404
 20
89.65950000000001
 10
115.0294
 20
89.65950000000001
 10
115.0004
 20
89.6306
 10
115.0004
 20
89.61969999999999
 10
115.0004
 20
83.61959999999999
 10
115.0004
 20
83.6097
 10
115.0294
 20
83.57939999999999
 10
115.0404
 20
83.57939999999999
 10
118.0004
 20
83.57939999999999
 10
118.0032
 20
83.57939999999999
 10
118.0142
 20
83.5946
 10
118.0004
 20
83.58359999999999
 10
118.0004
 20
83.57939999999999
 10
118.0004
 20
77.65950000000001
 10
118.0004
 20
77.6568
 10
118.0142
 20
77.64580000000001
 10
118.0032
 20
77.65950000000001
 10
118.0004
 20
77.65950000000001
 10
115.0404
 20
77.65950000000001
 10
115.0294
 20
77.65950000000001
 10
115.0004
 20
77.6306
 10
115.0004
 20
77.6195
 10
115.0004
 20
69.62010000000001
 10
115.0004
 20
69.6104
 10
115.0294
 20
69.5801
 10
115.0404
 20
69.5801
  0
ENDSEC
  0
SECTION
  2
OBJECTS
  0
DICTIONARY
  5
C
330
0
100
AcDbDictionary
281
    1
  3
ACAD_GROUP
350
D
  0
DICTIONARY
  5
D
330
C
100
AcDbDictionary
281
    1
  0
PLOTSETTINGS
  5
A4
100
AcDbPlotSettings
  6
1x1
 40
0
 41
0
 42
0
 43
0
  0
ENDSEC
  0
EOF
